<?xml version="1.0" encoding="utf-8"?>
<!-- Generator: Adobe Illustrator 23.1.1, SVG Export Plug-In . SVG Version: 6.00 Build 0)  -->
<svg version="1.1" id="レイヤー_1" xmlns="http://www.w3.org/2000/svg" xmlns:xlink="http://www.w3.org/1999/xlink" x="0px"
	 y="0px" viewBox="0 0 220.03 125.92" style="enable-background:new 0 0 220.03 125.92;" xml:space="preserve">
<style type="text/css">
	.st0{fill:#FFFFFF;}
	.st1{fill-rule:evenodd;clip-rule:evenodd;fill:#FFFFFF;}
</style>
<g>
	<path class="st0" d="M218.31,63.4c0,24.93-36.94,45.15-82.5,45.15c-45.56,0-82.5-20.21-82.5-45.15c0-24.94,36.94-45.15,82.5-45.15
		C181.37,18.25,218.31,38.47,218.31,63.4z"/>
	<g>
		<path d="M217.42,63.46c-0.43,22.46-26.05,34.33-44.46,39.58c-26.91,7.67-57.59,6.6-83.8-3.19C72,93.43,50.38,78.93,54.83,57.68
			c4.65-22.2,33.75-32.13,52.88-36.07c24.49-5.04,51.28-3.42,74.74,5.35C198.06,32.79,217.07,44.74,217.42,63.46
			c0.02,0.96,1.78,0.73,1.77-0.11c-0.35-18.44-17.85-30.11-33.12-36.58c-23.44-9.92-50.71-11.22-75.56-7.03
			C91.05,23.02,68.22,31.1,56.99,48.5C47.62,63,54.32,78.79,66.5,88.98c11.42,9.55,26.38,14.56,40.74,17.52
			c17.65,3.63,36.13,3.55,53.86,0.56c22.04-3.72,57.56-16.32,58.08-43.71C219.21,62.39,217.44,62.61,217.42,63.46z"/>
	</g>
</g>
<g>
	<path class="st0" d="M194.71,62.94c0,14.36-26.92,26-60.12,26c-33.2,0-60.11-11.65-60.11-26.01c0-14.36,26.92-26,60.12-26
		C167.8,36.93,194.71,48.58,194.71,62.94z"/>
	<g>
		<path d="M193.84,63.04c-0.32,9.42-10.07,14.87-17.69,18.16c-13.37,5.78-28.62,7.31-43.04,7.21c-13.46-0.09-27.25-2.16-39.75-7.28
			c-7.58-3.1-17.07-8.62-18-17.67c-0.97-9.54,10.47-15.7,17.66-18.81c13.37-5.78,28.62-7.31,43.04-7.21
			c13.87,0.09,28.15,2.26,40.94,7.79c7.4,3.2,16.53,8.93,16.84,17.94c0.02,0.58,1.76,0.23,1.74-0.47
			c-0.26-7.59-6.72-12.66-12.79-16.14c-9.62-5.51-21.25-8.05-32.15-9.25c-22.19-2.44-49.99-1.3-68.77,12.42
			c-5.07,3.7-9.13,9.21-8.02,15.75c1.29,7.56,9.56,12.46,15.81,15.48c21.9,10.59,50.16,10.58,73.44,5.36
			c11.29-2.53,32-8.99,32.49-23.49C195.6,62.09,193.86,62.44,193.84,63.04z"/>
	</g>
</g>
<path d="M79.4,52.62c0,0,5.65-3.92,13.48-8.26c7.83-4.35,10.01-8.26,17.83-11.74s11.31-7.39,16.09-12.61
	c4.78-5.22,6.52-9.13,9.13-12.61c2.61-3.48,3.04-6.52,5.65-5.22c2.61,1.3,13.05,4.35,16.96,6.52c3.92,2.17,9.57,4.35,13.48,6.52
	c3.92,2.18,6.96,3.48,9.57,7.39c2.61,3.92,0.87,6.09,1.74,10.87c0.87,4.79,0.43,20.01,0.87,24.79c0.43,4.79,1.31,12.18-0.87,13.49
	c-2.17,1.3-32.62,8.7-43.5,10c-10.87,1.31-23.92,0.87-30.45,1.74c-6.52,0.87-29.58,0-29.58,0L79.4,52.62z"/>
<path class="st0" d="M79.44,53.22l-0.08-1.2c0.2-0.01,20.08-1.31,26.09-1.74c1.91-0.14,4.27-0.23,7.01-0.33
	c5.83-0.23,13.09-0.51,19.04-1.4c10.01-1.5,18.38-3.24,22.95-4.76c5.21-1.73,16.59-8.78,19.41-10.79c1.08-0.77,2.22-1.91,3.32-3.02
	c2.07-2.08,4.03-4.05,5.93-4.05v1.2c-1.4,0-3.27,1.88-5.08,3.7c-1.14,1.14-2.31,2.32-3.47,3.15c-2.95,2.11-14.33,9.15-19.73,10.96
	c-4.64,1.54-13.07,3.3-23.15,4.81c-6.02,0.9-13.31,1.19-19.17,1.41c-2.73,0.11-5.08,0.2-6.97,0.33
	C99.52,51.91,79.64,53.2,79.44,53.22z"/>
<g>
	<path class="st1" d="M103.21,77.63c-0.33-1.29,5.08-2.82,7.33-3.68c7.96-3.06,24.03-8.99,23.53-9.91
		c-0.01-1.15-3.53,0.34-4.92,0.81c-5.23,1.77-10.67,3.67-16.35,5.64c-8.73,3.01-19.98,6.01-25.31,10.58
		c-1.9,1.64-2.71,3.95-4.64,5.46c-2.91,2.27-7.67,4.03-11.5,5.5c-15.57,5.98-32.7,10.61-48.95,15.56
		c-7.65,2.33-20.71,4.92-21.23,11.18c-0.41,4.91,3.48,6.75,7.89,5.61c3.1-0.8,6.54-2.67,9.88-4.22
		c15.74-7.32,30.03-14.6,46.64-21.37c6.38-2.6,13.75-6.16,18.85-6.38c3.74-0.16,6.49,1.74,10.7,0.64
		c6.94-1.81,14.59-5.49,21.69-8.55c5.29-2.28,10.51-4.46,15.59-6.64c1.53-0.66,4.89-1.73,4.68-2.65c-0.22-0.95-2.47,0.12-3.54,0.49
		c-6.59,2.26-13.53,4.98-20.47,7.65c-2.63,1.01-7.37,3.41-7.71,2.35c-0.33-1.06,4.53-2.79,7.06-3.83
		c7.56-3.11,24.15-8.96,23.72-10.33c-0.07-0.94-2.21,0.02-3.62,0.45c-7.74,2.36-16.45,5.71-24.79,8.87
		c-1.06,0.4-3.33,1.74-3.71,0.78c-0.38-0.96,2.34-1.54,3.39-1.95c7.97-3.1,16.62-6.62,24.47-10.05c0.98-0.43,3.14-1.03,3.12-2.06
		c-0.4-0.9-2.5,0.14-3.54,0.5c-8.89,3.03-18.43,6.73-27.34,9.85C103.85,78.01,103.31,78.06,103.21,77.63z"/>
	<g>
		<path class="st1" d="M104.16,77.95c0.7-0.24,1.38-0.55,2.08-0.8c0.7-0.25,1.42-0.45,2.12-0.7c0.7-0.25,1.37-0.59,2.07-0.85
			c0.7-0.25,1.41-0.46,2.11-0.72c0.7-0.26,1.38-0.55,2.08-0.81c0.7-0.26,1.42-0.47,2.12-0.72c0.7-0.26,1.38-0.57,2.08-0.82
			c0.7-0.26,1.44-0.4,2.14-0.66c0.7-0.26,1.36-0.63,2.06-0.88c0.7-0.25,1.4-0.51,2.1-0.76c0.71-0.25,1.43-0.44,2.13-0.69
			c0.71-0.25,1.41-0.48,2.12-0.72c0.71-0.25,1.43-0.45,2.13-0.68c0.47-0.16,1.12-0.55,1.76-0.75c0.79-0.24,1.55-0.31,1.76,0.19
			c0.01,0.55-0.62,0.94-1.33,1.28c-0.63,0.3-1.35,0.53-1.81,0.74c-0.67,0.29-1.33,0.61-2.01,0.9c-0.67,0.29-1.36,0.55-2.04,0.84
			c-0.67,0.29-1.31,0.67-1.99,0.96c-0.67,0.28-1.38,0.49-2.07,0.78c-0.68,0.28-1.32,0.64-2,0.92c-0.68,0.28-1.37,0.54-2.05,0.82
			c-0.68,0.28-1.39,0.48-2.07,0.76c-0.68,0.28-1.36,0.56-2.04,0.83c-0.69,0.28-1.38,0.54-2.06,0.81c-0.69,0.27-1.34,0.62-2.02,0.89
			c-0.69,0.27-1.37,0.53-2.05,0.8c-0.69,0.27-1.36,0.58-2.03,0.84c-0.47,0.18-1.27,0.4-1.98,0.67c-0.88,0.33-1.69,0.71-1.48,1.24
			c0.21,0.53,1.07,0.4,1.91,0.07c0.68-0.26,1.37-0.7,1.84-0.88c0.74-0.28,1.5-0.54,2.25-0.82c0.74-0.28,1.49-0.55,2.24-0.83
			c0.75-0.28,1.47-0.63,2.21-0.92c0.75-0.28,1.49-0.58,2.24-0.86c0.75-0.28,1.54-0.46,2.29-0.74c0.75-0.28,1.51-0.53,2.26-0.8
			c0.75-0.27,1.46-0.67,2.21-0.93c0.76-0.27,1.55-0.43,2.29-0.69c0.76-0.26,1.48-0.62,2.23-0.87c0.76-0.26,1.52-0.51,2.27-0.75
			c0.77-0.25,1.54-0.46,2.29-0.69c0.57-0.17,1.25-0.46,1.88-0.64c0.92-0.28,1.71-0.33,1.75,0.23c0.09,0.29-0.61,0.75-1.81,1.38
			c-0.59,0.31-1.29,0.7-2.11,1.07c-0.67,0.3-1.4,0.6-2.18,0.93c-0.7,0.29-1.43,0.59-2.19,0.89c-0.71,0.29-1.45,0.58-2.2,0.88
			c-0.73,0.29-1.45,0.6-2.2,0.88c-0.74,0.29-1.5,0.51-2.24,0.79c-0.74,0.29-1.45,0.66-2.18,0.94c-0.75,0.29-1.51,0.55-2.22,0.82
			c-0.77,0.3-1.49,0.62-2.19,0.9c-0.79,0.31-1.56,0.53-2.22,0.8c-0.55,0.23-1.2,0.52-1.9,0.8c-0.63,0.25-1.26,0.56-1.89,0.83
			c-0.68,0.3-1.33,0.59-1.86,0.88c-0.92,0.51-1.53,0.97-1.41,1.37c0.13,0.4,0.91,0.31,1.95-0.03c0.58-0.18,1.24-0.47,1.93-0.75
			c0.63-0.26,1.32-0.47,1.94-0.74c0.69-0.3,1.31-0.68,1.88-0.9c0.68-0.26,1.39-0.45,2.07-0.71c0.68-0.26,1.34-0.58,2.02-0.85
			c0.68-0.26,1.37-0.51,2.05-0.77c0.68-0.26,1.36-0.52,2.04-0.78c0.68-0.26,1.37-0.52,2.04-0.77c0.68-0.26,1.37-0.51,2.05-0.76
			c0.68-0.26,1.39-0.45,2.07-0.7c0.69-0.25,1.34-0.58,2.03-0.83c0.69-0.25,1.37-0.51,2.05-0.75c0.69-0.24,1.4-0.4,2.09-0.64
			c0.47-0.16,1.15-0.48,1.81-0.69c0.83-0.26,1.57-0.36,1.69,0.17c0.12,0.52-0.88,1.07-2.08,1.59c-0.91,0.39-1.92,0.75-2.58,1.04
			c-0.74,0.32-1.48,0.63-2.22,0.94c-0.74,0.32-1.49,0.62-2.23,0.93c-0.74,0.31-1.46,0.69-2.2,1.01c-0.74,0.31-1.48,0.62-2.23,0.93
			c-0.74,0.31-1.46,0.68-2.21,1c-0.74,0.31-1.53,0.52-2.27,0.84c-0.74,0.32-1.49,0.63-2.24,0.96c-0.71,0.3-1.41,0.65-2.12,0.96
			c-0.71,0.31-1.4,0.67-2.12,0.98c-0.71,0.31-1.4,0.66-2.12,0.98c-0.71,0.31-1.47,0.54-2.18,0.84c-0.72,0.31-1.45,0.59-2.16,0.89
			c-0.72,0.3-1.41,0.69-2.13,0.97c-0.73,0.29-1.45,0.57-2.18,0.85c-0.74,0.28-1.49,0.49-2.22,0.74c-0.74,0.26-1.46,0.57-2.19,0.8
			c-0.75,0.23-1.51,0.43-2.25,0.62c-0.75,0.2-1.47,0.25-2.14,0.28c-0.75,0.04-1.46-0.03-2.15-0.12c-0.73-0.09-1.44-0.17-2.14-0.31
			c-0.7-0.14-1.4-0.28-2.13-0.38c-0.69-0.09-1.4-0.16-2.15-0.12c-0.7,0.03-1.44,0.05-2.21,0.19c-0.69,0.13-1.41,0.35-2.15,0.55
			c-0.69,0.19-1.41,0.39-2.13,0.63c-0.69,0.23-1.4,0.43-2.11,0.7c-0.68,0.25-1.34,0.62-2.03,0.9c-0.68,0.27-1.4,0.5-2.08,0.78
			c-0.69,0.28-1.36,0.6-2.04,0.89c-0.69,0.29-1.36,0.6-2.04,0.89c-0.69,0.29-1.38,0.57-2.05,0.84c-0.72,0.29-1.48,0.52-2.19,0.81
			c-0.72,0.3-1.41,0.68-2.12,0.98c-0.72,0.3-1.46,0.54-2.18,0.85c-0.72,0.31-1.39,0.71-2.1,1.01c-0.72,0.31-1.46,0.55-2.17,0.86
			c-0.71,0.32-1.38,0.73-2.09,1.05c-0.71,0.32-1.45,0.57-2.16,0.89c-0.71,0.32-1.43,0.61-2.14,0.94c-0.71,0.33-1.38,0.73-2.08,1.05
			c-0.71,0.33-1.44,0.6-2.14,0.93c-0.71,0.33-1.39,0.71-2.09,1.04c-0.7,0.33-1.41,0.66-2.11,0.99c-0.7,0.33-1.44,0.6-2.14,0.93
			c-0.7,0.33-1.37,0.73-2.07,1.06c-0.7,0.33-1.4,0.67-2.1,1c-0.7,0.33-1.39,0.7-2.09,1.03c-0.7,0.33-1.41,0.66-2.11,0.99
			c-0.7,0.33-1.42,0.62-2.13,0.96c-0.7,0.33-1.42,0.63-2.12,0.96c-0.7,0.33-1.37,0.72-2.08,1.06c-0.7,0.33-1.44,0.59-2.15,0.92
			c-0.7,0.33-1.39,0.69-2.1,1.02c-0.64,0.3-1.28,0.64-1.93,0.96c-0.65,0.31-1.28,0.66-1.93,0.96c-0.66,0.31-1.3,0.63-1.95,0.91
			c-0.67,0.3-1.36,0.53-2.01,0.77c-0.7,0.26-1.38,0.5-2.04,0.67c-0.8,0.21-1.58,0.35-2.33,0.36c-0.83,0.01-1.62-0.13-2.32-0.37
			c-0.77-0.26-1.46-0.67-1.99-1.23c-0.51-0.54-0.81-1.26-1.03-2.08c-0.18-0.68-0.27-1.44-0.19-2.32c0.06-0.77,0.26-1.49,0.67-2.15
			c0.37-0.61,0.9-1.16,1.52-1.69c0.54-0.47,1.12-0.97,1.81-1.39c0.62-0.38,1.34-0.65,2.05-0.99c0.67-0.32,1.34-0.67,2.07-0.96
			c0.69-0.27,1.43-0.47,2.16-0.72c0.71-0.25,1.44-0.49,2.17-0.71c0.73-0.23,1.46-0.43,2.19-0.64c0.74-0.21,1.45-0.5,2.17-0.7
			c0.75-0.21,1.5-0.37,2.21-0.57c0.76-0.22,1.51-0.4,2.2-0.61c0.74-0.23,1.47-0.5,2.22-0.72c0.74-0.22,1.47-0.5,2.22-0.73
			c0.74-0.22,1.51-0.37,2.26-0.59c0.74-0.22,1.5-0.42,2.24-0.64c0.75-0.22,1.46-0.55,2.21-0.77c0.75-0.22,1.52-0.35,2.27-0.57
			c0.75-0.22,1.49-0.44,2.24-0.66c0.75-0.22,1.49-0.46,2.23-0.68c0.75-0.22,1.47-0.51,2.22-0.73c0.75-0.22,1.49-0.45,2.24-0.68
			c0.75-0.23,1.51-0.38,2.26-0.61c0.75-0.23,1.5-0.44,2.24-0.67c0.75-0.23,1.46-0.56,2.2-0.79c0.74-0.23,1.51-0.41,2.25-0.64
			c0.74-0.24,1.5-0.44,2.24-0.67c0.74-0.24,1.47-0.51,2.21-0.75c0.74-0.24,1.48-0.48,2.22-0.73c0.74-0.25,1.49-0.47,2.22-0.72
			c0.74-0.25,1.44-0.61,2.17-0.87c0.74-0.26,1.49-0.46,2.22-0.73c0.73-0.27,1.46-0.53,2.19-0.8c0.73-0.27,1.47-0.52,2.19-0.79
			c0.64-0.25,1.28-0.57,1.96-0.83c0.65-0.25,1.35-0.43,2.01-0.71c0.66-0.27,1.32-0.54,1.97-0.83c0.66-0.29,1.27-0.68,1.89-0.99
			c0.65-0.33,1.31-0.61,1.9-0.96c0.64-0.38,1.24-0.77,1.78-1.18c0.65-0.5,1.15-1.13,1.62-1.77c0.48-0.63,0.91-1.32,1.39-1.96
			c0.47-0.63,0.95-1.26,1.57-1.8c0.55-0.47,1.2-0.9,1.87-1.34c0.61-0.41,1.26-0.82,1.96-1.2c0.65-0.36,1.34-0.7,2.05-1.04
			c0.68-0.32,1.41-0.57,2.13-0.88c0.69-0.29,1.4-0.59,2.12-0.87c0.71-0.27,1.43-0.53,2.16-0.79c0.72-0.26,1.43-0.53,2.16-0.78
			c0.72-0.25,1.45-0.49,2.18-0.73c0.73-0.24,1.44-0.52,2.17-0.76c0.73-0.24,1.47-0.46,2.19-0.7c0.74-0.24,1.48-0.42,2.2-0.66
			c0.74-0.25,1.43-0.59,2.14-0.83c0.68-0.24,1.38-0.45,2.05-0.68c0.68-0.24,1.35-0.51,2.03-0.74c0.69-0.24,1.4-0.4,2.08-0.63
			c0.68-0.24,1.34-0.54,2.02-0.77c0.68-0.24,1.39-0.4,2.07-0.63c0.69-0.24,1.36-0.49,2.04-0.73c0.68-0.23,1.34-0.54,2.02-0.77
			c0.68-0.23,1.39-0.39,2.07-0.62c0.6-0.2,1.57-0.67,2.5-0.96c1.25-0.38,2.39-0.54,2.39,0.12c0.11,0.2-0.56,0.69-1.83,1.31
			c-0.59,0.29-1.31,0.61-2.12,0.97c-0.66,0.29-1.4,0.54-2.17,0.86c-0.69,0.28-1.4,0.59-2.15,0.89c-0.7,0.28-1.43,0.56-2.17,0.85
			c-0.71,0.28-1.45,0.54-2.18,0.82c-0.72,0.28-1.44,0.6-2.17,0.88c-0.73,0.28-1.48,0.52-2.19,0.8c-0.74,0.28-1.48,0.54-2.19,0.81
			c-0.75,0.29-1.44,0.68-2.14,0.94c-0.77,0.29-1.51,0.57-2.18,0.83c-0.53,0.2-1.26,0.35-2.02,0.62c-0.65,0.22-1.34,0.46-2,0.71
			c-0.71,0.27-1.35,0.62-1.91,0.91c-0.92,0.47-1.55,0.94-1.43,1.4C103.29,78.06,103.86,78.04,104.16,77.95z M102.91,77.33
			c0.21-0.61,0.67-1.09,1.31-1.45c0.55-0.31,1.23-0.5,1.88-0.72c0.67-0.22,1.31-0.5,1.87-0.72c0.66-0.25,1.39-0.48,2.14-0.77
			c0.68-0.26,1.37-0.58,2.11-0.86c0.69-0.26,1.42-0.49,2.14-0.77c0.7-0.27,1.39-0.6,2.11-0.88c0.7-0.27,1.46-0.44,2.17-0.72
			c0.71-0.28,1.38-0.67,2.08-0.95c0.72-0.28,1.43-0.57,2.13-0.84c0.73-0.29,1.46-0.51,2.14-0.79c0.74-0.3,1.45-0.56,2.13-0.84
			c0.75-0.31,1.48-0.56,2.13-0.83c0.79-0.33,1.46-0.73,2.05-1c1.31-0.59,2.06-0.94,1.97-1.05c-0.04-0.09-0.9,0.1-2.24,0.54
			c-0.64,0.21-1.39,0.46-2.22,0.75c-0.69,0.24-1.42,0.53-2.2,0.8c-0.71,0.26-1.46,0.49-2.21,0.76c-0.73,0.27-1.43,0.64-2.16,0.91
			c-0.75,0.27-1.51,0.47-2.23,0.73c-0.77,0.28-1.48,0.63-2.17,0.89c-0.82,0.3-1.57,0.56-2.2,0.79c-1.17,0.43-2,0.65-2.22,0.72
			c-0.68,0.22-1.41,0.45-2.17,0.7c-0.7,0.22-1.43,0.44-2.18,0.68c-0.71,0.23-1.41,0.54-2.14,0.78c-0.71,0.23-1.44,0.46-2.17,0.71
			c-0.71,0.24-1.42,0.53-2.14,0.78c-0.72,0.25-1.43,0.51-2.15,0.77c-0.72,0.26-1.47,0.42-2.17,0.69c-0.72,0.28-1.43,0.55-2.13,0.83
			c-0.72,0.29-1.39,0.66-2.07,0.95c-0.72,0.32-1.42,0.61-2.08,0.93c-0.75,0.37-1.42,0.74-2.01,1.15c-0.69,0.47-1.23,1.01-1.76,1.51
			c-0.59,0.56-1.09,1.14-1.56,1.7c-0.51,0.61-1.06,1.15-1.54,1.73c-0.5,0.6-1.01,1.14-1.59,1.66c-0.55,0.49-1.09,1.06-1.77,1.52
			c-0.62,0.42-1.35,0.72-2.05,1.11c-0.66,0.36-1.31,0.8-2.03,1.14c-0.69,0.32-1.4,0.64-2.13,0.95c-0.7,0.3-1.44,0.56-2.17,0.85
			c-0.72,0.28-1.44,0.57-2.18,0.84c-0.73,0.26-1.48,0.47-2.21,0.72c-0.73,0.26-1.48,0.48-2.22,0.73c-0.74,0.25-1.46,0.55-2.19,0.81
			c-0.71,0.24-1.43,0.47-2.16,0.72c-0.71,0.24-1.43,0.48-2.16,0.72c-0.71,0.24-1.43,0.48-2.16,0.71c-0.72,0.24-1.43,0.49-2.15,0.73
			c-0.72,0.24-1.46,0.4-2.19,0.64c-0.72,0.23-1.41,0.55-2.14,0.78c-0.72,0.23-1.45,0.43-2.17,0.66c-0.72,0.23-1.43,0.5-2.16,0.73
			c-0.72,0.23-1.47,0.38-2.2,0.61c-0.72,0.23-1.44,0.49-2.16,0.72c-0.73,0.23-1.44,0.5-2.16,0.73c-0.73,0.23-1.46,0.44-2.18,0.67
			c-0.73,0.23-1.46,0.41-2.18,0.64c-0.72,0.22-1.44,0.46-2.16,0.67c-0.72,0.22-1.44,0.46-2.16,0.67c-0.73,0.21-1.47,0.35-2.19,0.55
			c-0.73,0.21-1.42,0.52-2.14,0.73c-0.73,0.21-1.48,0.34-2.2,0.54c-0.73,0.21-1.43,0.48-2.15,0.69c-0.73,0.21-1.45,0.41-2.17,0.63
			c-0.73,0.22-1.45,0.43-2.16,0.66c-0.73,0.23-1.45,0.45-2.15,0.68c-0.72,0.24-1.44,0.47-2.14,0.72c-0.72,0.25-1.45,0.45-2.15,0.71
			c-0.71,0.27-1.38,0.62-2.07,0.91c-0.71,0.29-1.39,0.6-2.06,0.91c-0.66,0.3-1.33,0.54-1.93,0.89c-0.64,0.37-1.22,0.78-1.74,1.22
			c-0.56,0.47-1.07,0.97-1.44,1.55c-0.38,0.59-0.62,1.26-0.73,1.99c0.74,0.11,0.82-0.68,1.2-1.1c0.5-0.56,1.07-1.07,1.7-1.57
			c0.58-0.47,1.22-0.9,1.9-1.32c0.64-0.4,1.27-0.84,1.98-1.21c0.67-0.35,1.37-0.67,2.09-0.99c0.69-0.31,1.39-0.65,2.12-0.94
			c0.71-0.28,1.48-0.43,2.22-0.69c0.72-0.25,1.45-0.5,2.2-0.74c0.73-0.24,1.46-0.5,2.2-0.73c0.73-0.22,1.46-0.49,2.21-0.71
			c0.74-0.22,1.47-0.47,2.22-0.68c0.74-0.21,1.52-0.33,2.26-0.54c0.75-0.21,1.5-0.39,2.25-0.6c0.75-0.21,1.46-0.52,2.2-0.74
			c0.75-0.22,1.49-0.44,2.22-0.67c0.71-0.22,1.44-0.38,2.15-0.61c0.71-0.22,1.4-0.52,2.11-0.75c0.71-0.23,1.42-0.44,2.13-0.67
			c0.71-0.23,1.43-0.41,2.14-0.64c0.71-0.23,1.42-0.44,2.13-0.68c0.71-0.23,1.39-0.53,2.1-0.76c0.71-0.23,1.41-0.48,2.11-0.71
			c0.7-0.23,1.41-0.46,2.12-0.69c0.7-0.23,1.43-0.4,2.14-0.63c0.7-0.23,1.39-0.52,2.1-0.75c0.71-0.23,1.42-0.45,2.12-0.68
			c0.71-0.23,1.43-0.42,2.14-0.65c0.71-0.23,1.38-0.56,2.09-0.79c0.71-0.23,1.44-0.4,2.15-0.62c0.74-0.24,1.49-0.5,2.26-0.75
			c0.75-0.24,1.49-0.51,2.26-0.76c0.75-0.25,1.5-0.49,2.26-0.76c0.75-0.26,1.53-0.45,2.27-0.73c0.75-0.28,1.46-0.65,2.19-0.95
			c0.74-0.3,1.5-0.55,2.22-0.88c0.73-0.33,1.4-0.77,2.1-1.14c0.71-0.38,1.45-0.69,2.11-1.1c0.69-0.42,1.29-0.96,1.92-1.42
			c0.65-0.48,1.31-0.93,1.88-1.46c0.59-0.55,1.16-1.11,1.65-1.72c0.5-0.62,0.89-1.34,1.27-2.03c-0.11,0.48-0.55,1.39-0.96,2.29
			c-0.41,0.9-0.75,1.83-0.78,2.34c-0.6,0.57-1.25,1.06-1.9,1.47c-0.68,0.43-1.42,0.72-2.15,1.04c-0.72,0.32-1.43,0.66-2.2,0.94
			c-0.73,0.27-1.47,0.53-2.24,0.83c-0.71,0.27-1.41,0.58-2.12,0.85c-0.71,0.27-1.42,0.54-2.13,0.81c-0.71,0.27-1.43,0.5-2.14,0.78
			c-0.71,0.27-1.43,0.51-2.14,0.79c-0.71,0.27-1.39,0.61-2.11,0.88c-0.71,0.27-1.45,0.47-2.16,0.74c-0.71,0.27-1.41,0.58-2.12,0.85
			c-0.71,0.27-1.41,0.58-2.12,0.85c-0.71,0.27-1.41,0.57-2.13,0.85c-0.71,0.27-1.42,0.56-2.13,0.83c-0.71,0.27-1.44,0.5-2.16,0.77
			c-0.71,0.27-1.42,0.56-2.14,0.83c-0.71,0.27-1.42,0.57-2.13,0.84c-0.72,0.27-1.44,0.5-2.16,0.77c-0.72,0.27-1.43,0.54-2.14,0.8
			c-0.72,0.26-1.46,0.44-2.18,0.7c-0.72,0.26-1.43,0.54-2.14,0.8c-0.72,0.26-1.42,0.57-2.14,0.83c-0.72,0.26-1.45,0.49-2.16,0.74
			c-0.72,0.25-1.41,0.57-2.13,0.82c-0.72,0.25-1.47,0.41-2.18,0.66c-0.73,0.25-1.45,0.56-2.18,0.81c-0.74,0.25-1.49,0.43-2.22,0.67
			c-0.74,0.25-1.47,0.5-2.2,0.74c-0.74,0.25-1.48,0.48-2.21,0.72c-0.74,0.25-1.45,0.56-2.18,0.81c-0.74,0.25-1.49,0.45-2.22,0.7
			c-0.74,0.25-1.48,0.47-2.21,0.72c-0.74,0.25-1.45,0.55-2.18,0.81c-0.73,0.26-1.44,0.58-2.16,0.84c-0.73,0.27-1.48,0.46-2.2,0.74
			c-0.65,0.25-1.33,0.5-1.98,0.81c-0.65,0.3-1.24,0.73-1.85,1.08c-0.65,0.38-1.3,0.71-1.82,1.13c-0.61,0.5-1.11,1.04-1.42,1.6
			c-0.37,0.66-0.47,1.38-0.2,2.08c0.29,0.75,1.09,1.11,2.07,1.29c0.77,0.14,1.65,0.15,2.54,0.06c0.89-0.08,1.78-0.19,2.53-0.4
			c0.71-0.2,1.44-0.42,2.16-0.68c0.7-0.25,1.37-0.62,2.08-0.91c0.69-0.28,1.4-0.53,2.1-0.84c0.68-0.31,1.38-0.59,2.07-0.92
			c0.68-0.33,1.34-0.69,2.02-1.03c0.67-0.34,1.35-0.67,2.02-1.01c0.67-0.34,1.36-0.66,2.04-1c0.68-0.34,1.3-0.78,1.98-1.11
			c0.68-0.33,1.39-0.61,2.07-0.93c0.68-0.32,1.36-0.64,2.04-0.96c0.68-0.32,1.38-0.61,2.06-0.93c0.68-0.32,1.33-0.71,2.01-1.03
			c0.68-0.32,1.4-0.57,2.08-0.89c0.68-0.32,1.36-0.64,2.04-0.96c0.68-0.32,1.32-0.72,2-1.04c0.68-0.32,1.38-0.58,2.06-0.9
			c0.68-0.32,1.36-0.62,2.04-0.94c0.68-0.32,1.34-0.67,2.02-0.99c0.68-0.32,1.35-0.65,2.03-0.96c0.68-0.31,1.34-0.66,2.03-0.97
			c0.68-0.31,1.38-0.59,2.06-0.9c0.68-0.31,1.35-0.65,2.04-0.96c0.68-0.31,1.37-0.62,2.05-0.93c0.68-0.31,1.4-0.55,2.09-0.86
			c0.68-0.3,1.36-0.62,2.05-0.92c0.69-0.3,1.38-0.59,2.07-0.89c0.69-0.3,1.37-0.61,2.06-0.91c0.67-0.29,1.35-0.57,2.04-0.87
			c0.68-0.29,1.34-0.62,2.03-0.9c0.68-0.28,1.38-0.55,2.06-0.82c0.69-0.27,1.41-0.49,2.1-0.74c0.7-0.26,1.37-0.61,2.06-0.85
			c0.71-0.24,1.43-0.44,2.13-0.65c0.73-0.22,1.44-0.44,2.14-0.6c0.75-0.18,1.49-0.24,2.19-0.34c0.77-0.12,1.5-0.25,2.2-0.26
			c0.76-0.01,1.56,0.21,2.39,0.4c0.78,0.18,1.57,0.38,2.36,0.55c0.81,0.17,1.63,0.21,2.41,0.17c0.86-0.05,1.85-0.13,2.82-0.36
			c0.94-0.22,1.86-0.58,2.7-0.9c0.69-0.26,1.46-0.47,2.22-0.77c0.7-0.27,1.41-0.62,2.16-0.92c0.71-0.28,1.44-0.57,2.18-0.87
			c0.71-0.29,1.46-0.53,2.2-0.83c0.72-0.29,1.44-0.6,2.17-0.9c0.72-0.29,1.45-0.58,2.18-0.89c0.72-0.3,1.46-0.57,2.18-0.87
			c0.72-0.3,1.43-0.64,2.16-0.94c0.73-0.3,1.47-0.57,2.19-0.88c0.73-0.31,1.46-0.59,2.18-0.89c0.73-0.31,1.41-0.73,2.13-1.03
			c0.74-0.31,1.46-0.62,2.17-0.92c0.74-0.32,1.5-0.54,2.21-0.85c0.75-0.32,1.47-0.62,2.16-0.93c0.76-0.33,1.45-0.72,2.13-1.02
			c0.77-0.34,1.51-0.62,2.17-0.92c0.82-0.37,1.54-0.68,2.14-0.96c1.31-0.61,2.06-1.02,2.07-1.09c0.02-0.11-0.79,0.17-2.11,0.6
			c-0.6,0.2-1.35,0.33-2.13,0.61c-0.65,0.23-1.33,0.56-2.06,0.82c-0.67,0.24-1.39,0.45-2.1,0.71c-0.69,0.25-1.39,0.5-2.09,0.76
			c-0.7,0.26-1.37,0.59-2.06,0.85c-0.71,0.26-1.41,0.52-2.09,0.77c-0.73,0.27-1.44,0.51-2.09,0.76c-0.78,0.29-1.5,0.5-2.1,0.72
			c-1.14,0.43-1.87,0.82-2.04,0.88c-0.83,0.32-1.53,0.48-2.13,0.75c-0.69,0.31-1.28,0.68-2.03,0.96c-0.6,0.23-1.37,0.56-2.15,0.92
			c-0.74,0.34-1.48,0.74-2.16,0.91c-0.95,0.24-1.69,0.11-1.98-0.67c-0.21-0.58,0.27-1.13,1.17-1.71c0.56-0.36,1.25-0.7,2.02-1.04
			c0.68-0.3,1.38-0.62,2.1-0.89c0.74-0.28,1.47-0.56,2.14-0.8c0.87-0.31,1.65-0.51,2.16-0.73c0.65-0.28,1.34-0.57,2.07-0.88
			c0.67-0.28,1.36-0.56,2.07-0.85c0.68-0.28,1.39-0.53,2.09-0.82c0.69-0.28,1.37-0.62,2.06-0.9c0.7-0.29,1.4-0.56,2.09-0.84
			c0.71-0.29,1.37-0.66,2.05-0.94c0.72-0.3,1.46-0.49,2.12-0.76c0.74-0.31,1.42-0.64,2.06-0.91c0.78-0.33,1.46-0.68,2.05-0.94
			c1.24-0.55,1.97-0.89,1.96-0.99c0.08-0.14-0.76,0.16-2.04,0.57c-0.62,0.2-1.35,0.38-2.1,0.63c-0.68,0.23-1.41,0.42-2.09,0.66
			c-0.73,0.25-1.41,0.61-2.04,0.83c-0.92,0.32-1.69,0.53-2.08,0.66c-0.71,0.24-1.48,0.53-2.31,0.82c-0.73,0.26-1.52,0.5-2.32,0.79
			c-0.74,0.27-1.51,0.57-2.3,0.87c-0.75,0.28-1.52,0.55-2.3,0.85c-0.76,0.29-1.51,0.62-2.28,0.91c-0.76,0.29-1.52,0.6-2.29,0.89
			c-0.76,0.29-1.63,0.58-2.47,0.92c-0.86,0.35-1.69,0.75-2.45,0.98c-1.22,0.36-2.2,0.4-2.48-0.18c-0.33-0.69,0.21-1.36,1.17-1.94
			c0.61-0.37,1.4-0.71,2.25-1.04c0.75-0.29,1.58-0.51,2.34-0.78c0.85-0.29,1.64-0.62,2.31-0.87c0.66-0.25,1.33-0.56,2.04-0.84
			c0.67-0.26,1.36-0.51,2.06-0.79c0.68-0.26,1.39-0.46,2.08-0.73c0.68-0.27,1.37-0.55,2.05-0.82c0.69-0.27,1.38-0.54,2.06-0.82
			c0.69-0.28,1.38-0.55,2.05-0.82c0.7-0.29,1.39-0.54,2.05-0.82c0.71-0.29,1.4-0.58,2.04-0.85c0.73-0.31,1.38-0.67,2-0.94
			c0.77-0.33,1.43-0.67,2-0.94c1.21-0.56,1.97-0.9,1.94-1.02c0.02-0.18-0.99,0.01-2.29,0.43c-0.68,0.22-1.44,0.55-2.21,0.82
			c-0.77,0.27-1.52,0.59-2.21,0.84c-1.03,0.37-1.88,0.66-2.23,0.77c-0.7,0.22-1.43,0.44-2.16,0.7c-0.7,0.25-1.41,0.5-2.14,0.77
			c-0.7,0.26-1.41,0.53-2.12,0.81c-0.7,0.28-1.38,0.6-2.09,0.88c-0.7,0.28-1.43,0.49-2.14,0.77c-0.71,0.28-1.43,0.51-2.14,0.78
			c-0.71,0.27-1.39,0.63-2.1,0.89c-0.72,0.26-1.44,0.51-2.15,0.75c-0.73,0.24-1.46,0.44-2.18,0.65c-0.74,0.22-1.46,0.47-2.18,0.65
			C103.67,78.43,102.82,78.37,102.91,77.33z"/>
		<path d="M6.64,125.08c-0.78,0-1.57-0.13-2.33-0.39c-0.84-0.28-1.57-0.74-2.12-1.31c-0.49-0.52-0.85-1.22-1.11-2.21
			c-0.21-0.78-0.27-1.58-0.2-2.42c0.07-0.88,0.31-1.63,0.72-2.3c0.36-0.58,0.86-1.14,1.58-1.77c0.5-0.43,1.12-0.97,1.85-1.42
			c0.45-0.27,0.92-0.48,1.43-0.71c0.22-0.1,0.44-0.19,0.65-0.3l0.55-0.26c0.49-0.24,1-0.49,1.54-0.7c0.43-0.17,0.89-0.31,1.34-0.46
			c0.28-0.09,0.56-0.17,0.83-0.27c0.72-0.25,1.44-0.49,2.17-0.72c0.51-0.16,1.03-0.31,1.54-0.45l0.65-0.19
			c0.35-0.1,0.69-0.22,1.03-0.33c0.38-0.13,0.76-0.26,1.14-0.36c0.38-0.11,0.77-0.2,1.14-0.3c0.36-0.09,0.72-0.18,1.06-0.28
			c0.31-0.09,0.62-0.17,0.92-0.25c0.44-0.12,0.86-0.23,1.27-0.35c0.36-0.11,0.72-0.23,1.08-0.35c0.38-0.13,0.76-0.26,1.15-0.37
			c0.36-0.11,0.73-0.23,1.09-0.36c0.38-0.13,0.75-0.26,1.13-0.37c0.38-0.11,0.76-0.21,1.15-0.3c0.37-0.09,0.74-0.18,1.11-0.29
			c0.38-0.11,0.76-0.22,1.14-0.33c0.37-0.1,0.74-0.21,1.1-0.32c0.36-0.11,0.72-0.24,1.08-0.38c0.37-0.14,0.75-0.28,1.13-0.39
			c0.38-0.11,0.76-0.2,1.15-0.29c0.37-0.09,0.75-0.17,1.12-0.28l2.24-0.66c0.38-0.11,0.76-0.23,1.14-0.35
			c0.36-0.11,0.73-0.22,1.09-0.33c0.37-0.11,0.74-0.24,1.11-0.37c0.37-0.13,0.73-0.25,1.11-0.37l2.24-0.68
			c0.37-0.11,0.75-0.21,1.12-0.3c0.38-0.1,0.76-0.19,1.13-0.31c0.35-0.11,0.71-0.21,1.06-0.31c0.39-0.12,0.79-0.23,1.18-0.35
			c0.37-0.12,0.74-0.25,1.1-0.39c0.36-0.14,0.73-0.28,1.1-0.4c0.37-0.11,0.74-0.22,1.11-0.32c0.38-0.1,0.76-0.21,1.14-0.33
			c0.36-0.11,0.73-0.22,1.09-0.33c0.38-0.11,0.77-0.22,1.15-0.35c0.4-0.13,0.8-0.27,1.2-0.41c0.34-0.12,0.67-0.23,1.01-0.35
			l0.73-0.24c0.5-0.16,0.99-0.32,1.48-0.49c0.35-0.12,0.7-0.23,1.05-0.34c0.39-0.12,0.78-0.25,1.17-0.38
			c0.37-0.13,0.73-0.28,1.09-0.44c0.36-0.15,0.71-0.31,1.08-0.43c0.36-0.13,0.72-0.24,1.08-0.35c0.38-0.12,0.77-0.24,1.14-0.38
			c0.73-0.27,1.46-0.53,2.19-0.8c0.33-0.12,0.65-0.24,0.98-0.35c0.41-0.14,0.81-0.29,1.21-0.44c0.31-0.12,0.63-0.26,0.95-0.4
			c0.33-0.15,0.66-0.3,1.01-0.43c0.31-0.12,0.62-0.22,0.94-0.33c0.36-0.12,0.72-0.23,1.07-0.38c0.66-0.27,1.31-0.54,1.96-0.82
			c0.38-0.17,0.76-0.38,1.12-0.57c0.25-0.14,0.51-0.28,0.76-0.41c0.21-0.1,0.42-0.2,0.62-0.3c0.45-0.21,0.87-0.41,1.26-0.65
			c0.51-0.31,1.17-0.72,1.74-1.16c0.61-0.48,1.09-1.08,1.57-1.71c0.25-0.33,0.49-0.68,0.72-1.02c0.22-0.31,0.43-0.63,0.66-0.94
			c0.49-0.66,0.99-1.3,1.62-1.85c0.58-0.5,1.25-0.94,1.9-1.37c0.58-0.38,1.25-0.82,1.98-1.22c0.63-0.34,1.31-0.69,2.07-1.04
			c0.42-0.2,0.85-0.37,1.29-0.54c0.28-0.11,0.56-0.22,0.85-0.34l0.16-0.07c0.64-0.27,1.3-0.55,1.97-0.81
			c0.52-0.2,1.05-0.39,1.59-0.58l1.18-0.43c0.52-0.19,1.04-0.38,1.56-0.56c0.56-0.19,1.12-0.38,1.67-0.56l0.51-0.17
			c0.35-0.12,0.69-0.24,1.03-0.36c0.38-0.14,0.76-0.27,1.14-0.4c0.38-0.12,0.76-0.24,1.13-0.36c0.36-0.11,0.71-0.22,1.06-0.34
			c0.36-0.12,0.73-0.22,1.1-0.33c0.37-0.11,0.74-0.21,1.1-0.33c0.38-0.13,0.75-0.28,1.12-0.43c0.34-0.14,0.68-0.28,1.02-0.4
			c0.34-0.12,0.69-0.23,1.03-0.34c0.34-0.11,0.68-0.22,1.02-0.34c0.34-0.12,0.67-0.24,1.01-0.37c0.34-0.13,0.68-0.25,1.03-0.37
			c0.35-0.12,0.71-0.22,1.06-0.32c0.34-0.1,0.68-0.19,1.01-0.31c0.34-0.12,0.67-0.25,1-0.38c0.34-0.14,0.68-0.27,1.03-0.39
			c0.35-0.12,0.71-0.22,1.06-0.32c0.34-0.1,0.68-0.19,1.01-0.31c0.34-0.12,0.67-0.24,1-0.36c0.35-0.13,0.69-0.25,1.04-0.37
			c0.33-0.11,0.66-0.25,0.99-0.38c0.34-0.14,0.68-0.28,1.03-0.4c0.35-0.12,0.71-0.22,1.07-0.32c0.34-0.09,0.67-0.19,1-0.3
			c0.24-0.08,0.53-0.2,0.86-0.34c0.51-0.21,1.08-0.44,1.65-0.62c1.92-0.59,2.37-0.26,2.52-0.15c0.17,0.12,0.27,0.3,0.28,0.52
			c0.02,0.08,0.02,0.17-0.01,0.25c-0.04,0.14-0.16,0.51-2,1.41c-0.6,0.29-1.32,0.62-2.13,0.97c-0.37,0.16-0.76,0.31-1.16,0.47
			c-0.33,0.13-0.67,0.26-1.01,0.4l-0.74,0.31c-0.46,0.19-0.93,0.39-1.42,0.59c-0.44,0.18-0.9,0.35-1.36,0.53l-0.81,0.32
			c-0.38,0.15-0.77,0.29-1.15,0.43c-0.34,0.13-0.69,0.25-1.03,0.39c-0.35,0.13-0.69,0.28-1.03,0.42c-0.38,0.16-0.75,0.31-1.13,0.46
			c-0.38,0.14-0.75,0.28-1.13,0.41c-0.36,0.13-0.71,0.25-1.06,0.39c-0.39,0.15-0.77,0.29-1.15,0.42c-0.35,0.13-0.7,0.25-1.04,0.38
			c-0.38,0.14-0.74,0.31-1.09,0.48c-0.35,0.17-0.7,0.33-1.05,0.46l-1,0.38c-0.41,0.15-0.8,0.3-1.18,0.45
			c-0.28,0.11-0.61,0.2-0.97,0.3c-0.33,0.09-0.7,0.19-1.06,0.32l-0.4,0.14c-0.52,0.18-1.07,0.37-1.59,0.57
			c-0.58,0.22-1.14,0.51-1.62,0.76l-0.26,0.13c-1.26,0.65-1.29,0.95-1.27,1.03c0.01,0.04,0.03,0.06,0.06,0.08
			c0.11,0.06,0.34,0.05,0.49,0.01c0.36-0.12,0.71-0.26,1.06-0.41c0.34-0.13,0.67-0.27,1.01-0.39c0.34-0.12,0.68-0.23,1.03-0.34
			c0.36-0.12,0.73-0.23,1.09-0.36c0.35-0.12,0.68-0.27,1.02-0.42c0.34-0.15,0.69-0.3,1.04-0.43c0.35-0.13,0.7-0.24,1.05-0.36
			c0.35-0.12,0.71-0.23,1.06-0.36c0.35-0.13,0.69-0.27,1.04-0.4c0.35-0.14,0.69-0.28,1.04-0.41c0.36-0.13,0.72-0.25,1.08-0.37
			c0.35-0.11,0.69-0.23,1.04-0.35c0.34-0.13,0.68-0.26,1.02-0.4c0.35-0.14,0.71-0.29,1.06-0.42c0.36-0.13,0.73-0.24,1.1-0.34
			c0.35-0.1,0.7-0.2,1.04-0.32c0.34-0.12,0.67-0.28,1-0.43c0.35-0.16,0.7-0.32,1.06-0.45l2.1-0.76c0.36-0.13,0.73-0.25,1.1-0.36
			c0.35-0.11,0.69-0.21,1.03-0.33c0.39-0.14,0.78-0.27,1.17-0.4c0.32-0.11,0.63-0.21,0.95-0.32c0.38-0.13,0.76-0.25,1.14-0.37
			c0.33-0.1,0.66-0.21,0.99-0.32c0.19-0.07,0.42-0.17,0.66-0.29c0.34-0.16,0.72-0.34,1.11-0.46c1.17-0.36,1.89-0.23,2.15,0.37
			l0.03,0.12c0.02,0.74-0.72,1.2-1.52,1.58c-0.39,0.19-0.82,0.35-1.19,0.49c-0.24,0.09-0.45,0.17-0.63,0.25
			c-0.31,0.13-0.61,0.27-0.92,0.41c-0.36,0.16-0.73,0.33-1.09,0.49c-0.35,0.15-0.71,0.3-1.07,0.44c-0.32,0.13-0.65,0.26-0.97,0.4
			c-0.32,0.14-0.64,0.3-0.96,0.46c-0.34,0.17-0.68,0.35-1.03,0.5c-0.35,0.15-0.7,0.27-1.06,0.4c-0.34,0.12-0.68,0.24-1.01,0.38
			c-0.33,0.14-0.65,0.29-0.97,0.45c-0.34,0.17-0.68,0.33-1.03,0.48c-0.36,0.15-0.73,0.29-1.09,0.44c-0.32,0.13-0.64,0.25-0.96,0.38
			c-0.35,0.14-0.71,0.27-1.07,0.4c-0.34,0.12-0.67,0.23-1,0.37l-0.89,0.36c-0.39,0.16-0.77,0.32-1.16,0.47
			c-0.37,0.15-0.74,0.29-1.11,0.44c-0.32,0.12-0.63,0.25-0.95,0.37c-0.33,0.13-0.66,0.28-0.98,0.43c-0.35,0.16-0.69,0.32-1.04,0.46
			c-0.38,0.15-0.75,0.29-1.13,0.44l-0.92,0.36c-0.33,0.13-0.66,0.27-0.99,0.41c-0.35,0.15-0.69,0.29-1.04,0.43
			c-0.22,0.09-0.52,0.18-0.84,0.29c-0.36,0.12-0.77,0.24-1.14,0.39c-0.29,0.11-1.16,0.44-1.29,0.73c-0.01,0.03-0.02,0.05,0,0.1
			c0.09,0.24,0.71,0.19,1.5-0.11c0.35-0.14,0.71-0.33,1.04-0.49c0.3-0.16,0.58-0.3,0.8-0.38c0.37-0.14,0.75-0.28,1.12-0.41
			c0.38-0.13,0.75-0.27,1.12-0.41c0.39-0.15,0.78-0.29,1.18-0.44c0.36-0.13,0.71-0.26,1.07-0.4c0.36-0.14,0.72-0.29,1.08-0.45
			c0.38-0.16,0.75-0.33,1.14-0.47c0.34-0.13,0.69-0.26,1.03-0.39c0.4-0.16,0.81-0.31,1.21-0.46c0.39-0.14,0.78-0.26,1.18-0.38
			c0.37-0.11,0.74-0.22,1.11-0.36c0.41-0.15,0.83-0.3,1.25-0.44c0.34-0.12,0.68-0.24,1.02-0.36c0.36-0.13,0.72-0.29,1.07-0.45
			c0.38-0.17,0.76-0.34,1.15-0.48c0.4-0.14,0.81-0.25,1.22-0.37c0.36-0.1,0.73-0.2,1.08-0.32c0.36-0.12,0.71-0.27,1.06-0.41
			c0.39-0.16,0.78-0.32,1.18-0.45c0.76-0.26,1.52-0.51,2.27-0.75c0.49-0.16,0.98-0.3,1.47-0.45l0.82-0.25
			c0.26-0.08,0.56-0.19,0.85-0.29c0.34-0.12,0.69-0.25,1.02-0.35c0.91-0.27,1.5-0.29,1.85-0.05c0.18,0.13,0.29,0.32,0.31,0.56
			c0.13,0.41-0.34,0.83-1.98,1.69l-0.44,0.23c-0.49,0.26-1.05,0.56-1.68,0.85c-0.49,0.22-1.02,0.44-1.58,0.67l-0.61,0.25
			c-0.54,0.23-1.11,0.46-1.69,0.69l-0.51,0.2c-0.71,0.29-1.45,0.58-2.2,0.88c-0.33,0.13-0.67,0.27-1,0.4
			c-0.4,0.16-0.79,0.32-1.2,0.48c-0.38,0.15-0.77,0.28-1.15,0.41c-0.36,0.12-0.73,0.25-1.09,0.38c-0.37,0.14-0.73,0.3-1.08,0.46
			c-0.37,0.17-0.73,0.33-1.1,0.47c-0.37,0.14-0.75,0.28-1.12,0.41c-0.37,0.14-0.74,0.27-1.1,0.41c-0.41,0.16-0.81,0.33-1.2,0.49
			c-0.34,0.14-0.67,0.28-0.99,0.41c-0.39,0.15-0.78,0.29-1.15,0.41c-0.38,0.13-0.74,0.25-1.07,0.39c-0.24,0.1-0.49,0.21-0.76,0.32
			c-0.36,0.16-0.75,0.32-1.15,0.48c-0.39,0.16-0.78,0.33-1.17,0.51c-0.24,0.11-0.47,0.21-0.71,0.32c-0.64,0.28-1.3,0.57-1.84,0.87
			c-1.32,0.73-1.26,0.99-1.26,0.99l0,0c0,0,0.22,0.19,1.55-0.24c0.46-0.15,0.99-0.36,1.54-0.59l0.37-0.15
			c0.3-0.12,0.6-0.23,0.91-0.34c0.35-0.12,0.7-0.25,1.03-0.39c0.32-0.14,0.63-0.3,0.92-0.45c0.34-0.17,0.65-0.34,0.96-0.46
			c0.34-0.13,0.69-0.24,1.04-0.36c0.35-0.11,0.69-0.22,1.03-0.35c0.34-0.13,0.67-0.27,1-0.42c0.34-0.15,0.68-0.29,1.02-0.43
			c0.35-0.13,0.69-0.26,1.04-0.39c0.34-0.13,0.67-0.25,1.01-0.38l4.09-1.55c0.46-0.17,0.91-0.34,1.37-0.51l0.68-0.25
			c0.36-0.13,0.72-0.25,1.08-0.37c0.33-0.11,0.66-0.21,0.98-0.33c0.33-0.12,0.65-0.26,0.97-0.4c0.35-0.15,0.7-0.3,1.06-0.43
			l0.85-0.31c0.4-0.15,0.8-0.29,1.19-0.44c0.37-0.13,0.74-0.24,1.11-0.34c0.33-0.09,0.66-0.19,0.98-0.3
			c0.18-0.06,0.4-0.15,0.63-0.25c0.37-0.15,0.78-0.32,1.18-0.44c0.86-0.27,1.38-0.3,1.73-0.1c0.19,0.11,0.31,0.28,0.37,0.5
			c0.17,0.73-0.78,1.31-2.26,1.95c-0.5,0.22-1.03,0.42-1.51,0.61c-0.4,0.15-0.77,0.3-1.07,0.43c-0.39,0.17-0.79,0.34-1.19,0.51
			l-1.04,0.44c-0.39,0.17-0.78,0.33-1.17,0.49c-0.35,0.15-0.71,0.29-1.06,0.44c-0.36,0.15-0.72,0.32-1.08,0.49
			c-0.37,0.18-0.74,0.35-1.12,0.52c-0.4,0.17-0.8,0.34-1.2,0.5l-1.03,0.43c-0.37,0.16-0.74,0.33-1.11,0.5
			c-0.36,0.17-0.73,0.34-1.1,0.5c-0.38,0.16-0.76,0.29-1.15,0.42c-0.38,0.13-0.76,0.26-1.12,0.41l-2.24,0.96
			c-0.38,0.16-0.76,0.34-1.15,0.52c-0.32,0.15-0.65,0.3-0.97,0.44c-0.36,0.16-0.71,0.33-1.07,0.5c-0.35,0.17-0.7,0.33-1.05,0.49
			c-0.34,0.15-0.68,0.31-1.02,0.47c-0.36,0.17-0.73,0.34-1.1,0.5c-0.37,0.16-0.76,0.3-1.14,0.44c-0.35,0.13-0.7,0.25-1.04,0.4
			c-0.41,0.18-0.83,0.35-1.25,0.51c-0.31,0.12-0.61,0.25-0.92,0.37c-0.33,0.14-0.66,0.3-0.98,0.45c-0.38,0.18-0.76,0.37-1.15,0.52
			c-0.73,0.29-1.46,0.58-2.18,0.85c-0.44,0.16-0.88,0.31-1.32,0.45c-0.3,0.1-0.61,0.19-0.9,0.3c-0.31,0.11-0.61,0.22-0.92,0.34
			c-0.43,0.17-0.86,0.33-1.29,0.46c-0.76,0.23-1.52,0.43-2.26,0.63c-0.8,0.21-1.56,0.26-2.21,0.29c-0.81,0.04-1.57-0.04-2.21-0.12
			l-0.42-0.05c-0.57-0.07-1.16-0.15-1.74-0.26c-0.77-0.16-1.43-0.28-2.11-0.37c-0.56-0.08-1.3-0.16-2.09-0.12l-0.2,0.01
			c-0.64,0.03-1.29,0.05-1.97,0.18c-0.51,0.1-1.04,0.24-1.59,0.4l-0.53,0.15c-0.64,0.17-1.38,0.38-2.11,0.63
			c-0.24,0.08-0.48,0.16-0.72,0.23c-0.45,0.14-0.92,0.29-1.37,0.46c-0.36,0.13-0.71,0.3-1.06,0.47c-0.32,0.15-0.63,0.3-0.96,0.43
			c-0.32,0.13-0.64,0.24-0.96,0.36c-0.37,0.13-0.75,0.27-1.12,0.42c-0.38,0.16-0.75,0.32-1.12,0.49c-0.31,0.13-0.61,0.27-0.92,0.4
			c-0.33,0.14-0.66,0.29-0.99,0.43c-0.35,0.15-0.7,0.31-1.05,0.46c-0.55,0.23-1.1,0.46-1.64,0.67l-0.42,0.17
			c-0.36,0.15-0.72,0.27-1.08,0.4c-0.37,0.13-0.75,0.26-1.11,0.41c-0.37,0.15-0.72,0.33-1.08,0.5c-0.34,0.17-0.69,0.33-1.04,0.48
			s-0.71,0.28-1.07,0.41c-0.37,0.14-0.75,0.28-1.11,0.43c-0.36,0.15-0.71,0.33-1.06,0.51c-0.35,0.18-0.69,0.35-1.04,0.5
			c-0.36,0.16-0.72,0.29-1.09,0.43c-0.36,0.14-0.73,0.27-1.08,0.43c-0.35,0.16-0.7,0.34-1.04,0.52c-0.34,0.18-0.69,0.36-1.04,0.52
			c-0.35,0.16-0.71,0.3-1.07,0.44c-0.37,0.14-0.73,0.29-1.09,0.45c-0.34,0.16-0.69,0.31-1.04,0.45c-0.37,0.16-0.74,0.32-1.1,0.48
			c-0.35,0.16-0.7,0.35-1.04,0.53c-0.34,0.18-0.69,0.36-1.04,0.52c-0.35,0.16-0.71,0.31-1.06,0.46c-0.36,0.15-0.72,0.3-1.08,0.47
			s-0.7,0.34-1.05,0.52c-0.34,0.18-0.69,0.35-1.04,0.52l-2.11,0.99c-0.35,0.17-0.71,0.32-1.07,0.47c-0.36,0.15-0.71,0.3-1.06,0.46
			c-0.35,0.16-0.69,0.34-1.02,0.52c-0.35,0.18-0.69,0.37-1.05,0.54l-2.1,1c-0.35,0.17-0.69,0.34-1.04,0.51
			c-0.35,0.17-0.7,0.35-1.05,0.52l-2.11,0.99c-0.36,0.17-0.72,0.33-1.08,0.49c-0.35,0.15-0.7,0.31-1.04,0.47
			c-0.36,0.17-0.72,0.33-1.09,0.49c-0.34,0.15-0.69,0.31-1.03,0.47c-0.34,0.16-0.67,0.34-1.01,0.51c-0.35,0.19-0.71,0.37-1.07,0.54
			c-0.36,0.17-0.73,0.32-1.1,0.47c-0.35,0.14-0.7,0.29-1.05,0.45c-0.34,0.16-0.67,0.32-1,0.49c-0.36,0.18-0.73,0.36-1.1,0.53
			c-0.36,0.17-0.72,0.35-1.08,0.54c-0.28,0.14-0.56,0.28-0.84,0.42c-0.3,0.15-0.6,0.3-0.9,0.45c-0.34,0.18-0.69,0.35-1.03,0.51
			l-0.45,0.21c-0.51,0.24-1.01,0.48-1.51,0.7c-0.54,0.23-1.08,0.43-1.6,0.62l-0.43,0.16c-0.66,0.24-1.36,0.5-2.07,0.68
			c-0.93,0.24-1.72,0.36-2.4,0.37C6.7,125.08,6.67,125.08,6.64,125.08z M82.14,87.48c-0.31,0.21-0.62,0.39-0.89,0.55
			c-0.42,0.25-0.87,0.47-1.31,0.68c-0.2,0.1-0.41,0.19-0.61,0.3c-0.25,0.12-0.49,0.26-0.74,0.4c-0.37,0.21-0.76,0.42-1.17,0.6
			c-0.65,0.29-1.32,0.56-1.98,0.83c-0.37,0.15-0.74,0.27-1.11,0.39c-0.31,0.1-0.61,0.2-0.9,0.31c-0.33,0.13-0.66,0.27-0.98,0.42
			c-0.33,0.15-0.65,0.29-0.98,0.42c-0.41,0.16-0.82,0.3-1.23,0.45c-0.32,0.11-0.65,0.23-0.97,0.35c-0.73,0.27-1.46,0.54-2.19,0.81
			c-0.39,0.14-0.78,0.26-1.17,0.38c-0.35,0.11-0.71,0.22-1.05,0.34c-0.35,0.12-0.69,0.27-1.04,0.42c-0.37,0.16-0.75,0.32-1.13,0.45
			c-0.39,0.14-0.79,0.26-1.19,0.39c-0.35,0.11-0.69,0.22-1.04,0.34c-0.49,0.17-0.99,0.33-1.49,0.49l-0.73,0.24
			c-0.34,0.11-0.67,0.23-1,0.34c-0.4,0.14-0.81,0.28-1.21,0.41c-0.39,0.12-0.78,0.24-1.17,0.35c-0.36,0.1-0.72,0.21-1.07,0.32
			c-0.39,0.12-0.78,0.23-1.17,0.33c-0.36,0.1-0.72,0.2-1.08,0.31c-0.36,0.11-0.71,0.25-1.06,0.38c-0.38,0.14-0.76,0.29-1.14,0.41
			c-0.4,0.12-0.79,0.24-1.19,0.35c-0.35,0.1-0.7,0.21-1.05,0.31c-0.38,0.12-0.77,0.22-1.16,0.31c-0.37,0.09-0.74,0.19-1.1,0.3
			l-2.24,0.68c-0.36,0.11-0.72,0.23-1.08,0.36c-0.38,0.13-0.76,0.26-1.14,0.38c-0.36,0.11-0.73,0.22-1.09,0.33
			c-0.38,0.12-0.76,0.24-1.15,0.35l-2.24,0.66c-0.38,0.11-0.77,0.2-1.16,0.29c-0.37,0.09-0.74,0.17-1.11,0.28
			c-0.37,0.11-0.73,0.24-1.08,0.38c-0.37,0.14-0.74,0.28-1.12,0.39c-0.37,0.11-0.74,0.21-1.11,0.32c-0.38,0.11-0.75,0.21-1.13,0.33
			c-0.38,0.11-0.76,0.21-1.14,0.3c-0.37,0.09-0.75,0.18-1.12,0.29c-0.37,0.11-0.74,0.24-1.11,0.36c-0.37,0.13-0.74,0.25-1.11,0.36
			c-0.38,0.11-0.75,0.24-1.13,0.37c-0.36,0.12-0.73,0.24-1.09,0.36c-0.41,0.13-0.84,0.24-1.29,0.36c-0.3,0.08-0.6,0.16-0.91,0.25
			c-0.35,0.1-0.72,0.19-1.09,0.28c-0.37,0.09-0.75,0.18-1.12,0.29c-0.37,0.1-0.74,0.23-1.11,0.35c-0.35,0.12-0.7,0.24-1.06,0.34
			l-0.65,0.19c-0.51,0.15-1.02,0.29-1.53,0.45c-0.73,0.23-1.45,0.46-2.16,0.71c-0.28,0.1-0.57,0.19-0.85,0.27
			c-0.44,0.14-0.88,0.27-1.3,0.44c-0.52,0.2-1.01,0.45-1.5,0.68l-0.55,0.27c-0.22,0.11-0.45,0.21-0.67,0.3
			c-0.49,0.22-0.95,0.42-1.36,0.67c-0.69,0.42-1.29,0.94-1.77,1.36c-0.67,0.58-1.13,1.1-1.45,1.62c-0.35,0.58-0.56,1.24-0.62,2.01
			c-0.06,0.77,0,1.5,0.18,2.21c0.23,0.88,0.54,1.5,0.95,1.94c0.48,0.5,1.12,0.9,1.86,1.15c0.73,0.25,1.47,0.37,2.22,0.35
			c0.63-0.01,1.37-0.12,2.25-0.35c0.17-0.04,0.34-0.09,0.51-0.14c-0.5,0.08-1.01,0.13-1.48,0.18c-1,0.1-1.89,0.07-2.63-0.07
			c-1.26-0.24-2.02-0.72-2.31-1.49c-0.29-0.76-0.21-1.57,0.22-2.35c0.31-0.55,0.81-1.12,1.5-1.69c0.41-0.34,0.89-0.61,1.4-0.9
			l0.46-0.26c0.2-0.12,0.39-0.24,0.59-0.36c0.41-0.26,0.83-0.52,1.28-0.73c0.68-0.32,1.38-0.58,2-0.82c0.38-0.15,0.78-0.27,1.18-0.4
			c0.34-0.11,0.69-0.22,1.03-0.34c0.33-0.12,0.66-0.25,0.99-0.39c0.39-0.16,0.78-0.31,1.18-0.46c0.33-0.12,0.67-0.25,1-0.37
			c0.39-0.15,0.78-0.3,1.18-0.44c0.39-0.13,0.78-0.26,1.17-0.39c0.34-0.11,0.69-0.22,1.03-0.34c0.38-0.13,0.77-0.25,1.15-0.36
			c0.35-0.11,0.71-0.22,1.06-0.33c0.35-0.12,0.71-0.26,1.06-0.39c0.37-0.15,0.75-0.29,1.13-0.42c0.35-0.12,0.71-0.23,1.07-0.35
			c0.38-0.12,0.76-0.25,1.14-0.37l2.2-0.74c0.37-0.12,0.74-0.23,1.12-0.34c0.37-0.11,0.74-0.21,1.11-0.34
			c0.37-0.12,0.74-0.27,1.1-0.41c0.36-0.14,0.71-0.27,1.08-0.4c0.36-0.12,0.72-0.23,1.09-0.33c0.37-0.1,0.73-0.21,1.1-0.33
			c0.36-0.13,0.71-0.27,1.07-0.41c0.35-0.14,0.7-0.28,1.06-0.41c0.34-0.12,0.68-0.23,1.02-0.35c0.38-0.13,0.76-0.26,1.14-0.39
			c0.37-0.13,0.73-0.28,1.09-0.42c0.35-0.14,0.69-0.28,1.05-0.41c0.38-0.14,0.75-0.28,1.12-0.42c0.34-0.13,0.68-0.26,1.02-0.38
			c0.36-0.13,0.72-0.24,1.09-0.35c0.37-0.11,0.73-0.22,1.09-0.35c0.49-0.18,0.97-0.36,1.46-0.54l0.69-0.26
			c0.35-0.13,0.71-0.25,1.06-0.38c0.37-0.13,0.73-0.25,1.09-0.39c0.37-0.14,0.73-0.28,1.09-0.43c0.34-0.14,0.69-0.28,1.04-0.41
			c0.37-0.14,0.74-0.28,1.11-0.43c0.34-0.13,0.69-0.27,1.03-0.4c0.35-0.13,0.71-0.26,1.07-0.38c0.36-0.13,0.73-0.25,1.09-0.39
			c0.37-0.14,0.73-0.28,1.09-0.43c0.35-0.14,0.69-0.27,1.04-0.4c0.35-0.14,0.71-0.28,1.06-0.42c0.35-0.14,0.71-0.29,1.07-0.42
			c0.35-0.13,0.7-0.28,1.05-0.42c0.36-0.15,0.71-0.29,1.08-0.43c0.05-0.02,0.1-0.04,0.16-0.06c-0.08,0.02-0.16,0.04-0.24,0.06
			c-0.36,0.1-0.72,0.2-1.08,0.31c-0.35,0.11-0.7,0.25-1.04,0.39c-0.35,0.14-0.69,0.28-1.04,0.4c-0.35,0.11-0.7,0.22-1.05,0.32
			c-0.36,0.11-0.73,0.21-1.09,0.33c-0.35,0.12-0.7,0.23-1.05,0.34c-0.36,0.11-0.71,0.23-1.07,0.34c-0.35,0.12-0.7,0.25-1.04,0.37
			c-0.35,0.13-0.7,0.26-1.05,0.38c-0.36,0.12-0.72,0.22-1.08,0.32c-0.35,0.1-0.71,0.2-1.06,0.31c-0.34,0.11-0.68,0.22-1.02,0.33
			c-0.37,0.12-0.73,0.24-1.1,0.36l-2.11,0.71c-0.35,0.11-0.69,0.24-1.03,0.37c-0.36,0.14-0.71,0.27-1.07,0.39
			c-0.38,0.12-0.76,0.24-1.13,0.36c-0.33,0.1-0.66,0.21-1,0.32c-0.36,0.12-0.73,0.22-1.1,0.33c-0.35,0.1-0.7,0.2-1.04,0.31
			c-0.38,0.12-0.76,0.24-1.14,0.36c-0.33,0.1-0.66,0.2-0.99,0.31c-0.34,0.11-0.68,0.23-1.01,0.36c-0.36,0.14-0.73,0.27-1.1,0.39
			c-0.37,0.12-0.75,0.22-1.13,0.32c-0.34,0.09-0.68,0.18-1.02,0.29c-0.73,0.23-1.48,0.45-2.23,0.67c-0.35,0.1-0.69,0.23-1.03,0.35
			c-0.39,0.14-0.77,0.28-1.17,0.39c-0.39,0.11-0.78,0.21-1.18,0.32c-0.36,0.09-0.71,0.19-1.07,0.29c-0.38,0.11-0.76,0.19-1.14,0.27
			c-0.38,0.08-0.75,0.16-1.12,0.27c-0.39,0.11-0.78,0.24-1.17,0.36c-0.35,0.11-0.7,0.22-1.04,0.32c-0.41,0.12-0.81,0.25-1.21,0.38
			c-0.33,0.11-0.67,0.22-1,0.32c-0.45,0.14-0.89,0.29-1.33,0.44c-0.29,0.1-0.58,0.2-0.86,0.29c-0.74,0.24-1.47,0.48-2.19,0.74
			c-0.34,0.12-0.69,0.22-1.03,0.32c-0.41,0.12-0.8,0.23-1.18,0.37c-0.49,0.19-0.96,0.41-1.43,0.62c-0.23,0.11-0.46,0.21-0.68,0.31
			c-0.85,0.38-1.49,0.68-2.08,0.98c-0.52,0.27-1.01,0.58-1.48,0.89l-0.48,0.3c-0.54,0.34-1.24,0.79-1.87,1.3
			c-0.66,0.53-1.2,1.03-1.66,1.54c-0.09,0.1-0.16,0.24-0.24,0.38c-0.2,0.37-0.51,0.92-1.24,0.82l-0.32-0.05L2.38,119
			c0.12-0.79,0.39-1.5,0.78-2.11c0.35-0.54,0.83-1.06,1.51-1.62c0.57-0.47,1.17-0.89,1.78-1.25c0.42-0.24,0.87-0.43,1.31-0.62
			c0.21-0.09,0.43-0.18,0.64-0.28c0.69-0.32,1.37-0.63,2.07-0.92c0.29-0.12,0.57-0.25,0.86-0.38c0.4-0.18,0.8-0.37,1.22-0.53
			c0.4-0.15,0.81-0.28,1.23-0.41c0.31-0.1,0.62-0.2,0.92-0.3c0.71-0.25,1.42-0.48,2.15-0.72c0.71-0.23,1.43-0.46,2.16-0.68
			c0.71-0.22,1.44-0.44,2.17-0.66c0.43-0.13,0.86-0.25,1.29-0.37l0.89-0.25c0.34-0.1,0.69-0.22,1.03-0.33
			c0.37-0.12,0.75-0.25,1.12-0.36c0.36-0.1,0.73-0.19,1.1-0.27c0.37-0.08,0.73-0.17,1.09-0.27c0.36-0.1,0.7-0.23,1.05-0.36
			c0.36-0.13,0.72-0.27,1.09-0.37c0.36-0.1,0.72-0.19,1.08-0.27c0.37-0.09,0.74-0.17,1.11-0.28c0.39-0.11,0.77-0.24,1.16-0.36
			c0.33-0.11,0.67-0.21,1-0.31c0.47-0.14,0.93-0.29,1.39-0.43l0.76-0.24c0.36-0.11,0.72-0.21,1.09-0.32c0.37-0.1,0.73-0.21,1.1-0.32
			l1.07-0.33c0.37-0.11,0.74-0.23,1.11-0.34c0.36-0.11,0.72-0.24,1.08-0.36c0.36-0.12,0.72-0.25,1.08-0.36
			c0.37-0.12,0.73-0.24,1.09-0.36c0.36-0.12,0.71-0.24,1.07-0.36c0.37-0.12,0.74-0.21,1.11-0.31c0.37-0.09,0.73-0.19,1.09-0.3
			c0.37-0.12,0.73-0.24,1.09-0.37c0.36-0.12,0.71-0.25,1.07-0.36c0.35-0.11,0.71-0.22,1.06-0.32c0.37-0.11,0.75-0.22,1.11-0.34
			c0.36-0.12,0.71-0.25,1.07-0.39c0.36-0.14,0.71-0.28,1.07-0.39c0.36-0.12,0.73-0.22,1.09-0.32c0.37-0.1,0.73-0.2,1.09-0.32
			c0.38-0.12,0.75-0.25,1.13-0.38c0.34-0.12,0.68-0.23,1.02-0.35l3.01-1c0.44-0.14,0.87-0.29,1.3-0.43
			c0.32-0.11,0.65-0.22,0.97-0.32c0.4-0.13,0.79-0.26,1.18-0.4c0.36-0.12,0.71-0.26,1.06-0.39c0.37-0.14,0.75-0.28,1.13-0.41
			c0.34-0.12,0.69-0.23,1.03-0.34c0.4-0.13,0.79-0.25,1.18-0.39c0.34-0.12,0.69-0.23,1.03-0.33c0.4-0.12,0.79-0.25,1.18-0.39
			c0.52-0.19,1.04-0.39,1.55-0.59l1.22-0.47c0.53-0.2,1.05-0.4,1.56-0.62c0.72-0.3,1.43-0.62,2.11-0.94
			c0.44-0.21,0.86-0.46,1.26-0.7c0.25-0.15,0.5-0.3,0.75-0.44c0.26-0.14,0.52-0.27,0.77-0.4c0.45-0.23,0.87-0.44,1.25-0.69
			C81.8,87.75,81.97,87.61,82.14,87.48z M88.2,82.04l-0.12,0.51c-0.1,0.44-0.44,1.18-0.81,1.96L87.1,84.9
			c-0.45,0.98-0.73,1.81-0.75,2.23l-0.01,0.13l-0.09,0.09c-0.58,0.55-1.24,1.06-1.95,1.51c-0.58,0.37-1.21,0.64-1.82,0.9l-0.91,0.4
			c-0.54,0.24-1.1,0.5-1.68,0.71l-0.73,0.27c-0.49,0.18-1,0.36-1.51,0.56c-0.35,0.13-0.7,0.28-1.05,0.42
			c-0.36,0.15-0.71,0.29-1.07,0.43l-2.13,0.81c-0.36,0.14-0.73,0.27-1.09,0.4c-0.35,0.12-0.7,0.25-1.05,0.38
			c-0.36,0.14-0.71,0.27-1.07,0.39c-0.36,0.13-0.71,0.26-1.07,0.39c-0.35,0.14-0.7,0.29-1.04,0.44c-0.35,0.15-0.71,0.31-1.07,0.45
			c-0.36,0.14-0.73,0.26-1.09,0.38c-0.36,0.12-0.72,0.23-1.07,0.37c-0.35,0.14-0.7,0.28-1.05,0.42c-0.36,0.15-0.71,0.29-1.07,0.43
			c-0.36,0.14-0.71,0.28-1.06,0.43c-0.35,0.15-0.7,0.29-1.06,0.43c-0.35,0.14-0.7,0.28-1.05,0.42c-0.36,0.15-0.71,0.29-1.07,0.43
			c-0.35,0.13-0.69,0.27-1.03,0.4c-0.37,0.14-0.73,0.29-1.1,0.43c-0.37,0.14-0.74,0.27-1.11,0.4c-0.35,0.12-0.7,0.24-1.05,0.37
			c-0.34,0.13-0.68,0.26-1.02,0.4c-0.37,0.15-0.74,0.29-1.11,0.43c-0.34,0.13-0.68,0.27-1.02,0.4c-0.37,0.15-0.74,0.3-1.11,0.44
			c-0.37,0.14-0.74,0.27-1.11,0.4c-0.35,0.12-0.7,0.24-1.05,0.37l-0.69,0.26c-0.49,0.18-0.97,0.37-1.46,0.54
			c-0.37,0.14-0.75,0.25-1.13,0.36c-0.35,0.11-0.71,0.21-1.05,0.34c-0.34,0.12-0.67,0.25-1.01,0.38c-0.38,0.14-0.75,0.29-1.13,0.42
			c-0.35,0.12-0.69,0.26-1.03,0.4c-0.37,0.15-0.74,0.3-1.11,0.43c-0.38,0.14-0.77,0.27-1.15,0.4c-0.34,0.11-0.67,0.23-1.01,0.34
			c-0.35,0.12-0.69,0.26-1.03,0.4c-0.36,0.15-0.73,0.29-1.1,0.42c-0.37,0.13-0.75,0.24-1.13,0.34c-0.35,0.1-0.71,0.2-1.05,0.32
			c-0.36,0.12-0.71,0.26-1.06,0.39c-0.37,0.14-0.75,0.29-1.13,0.42c-0.38,0.13-0.76,0.24-1.14,0.34c-0.37,0.1-0.73,0.21-1.09,0.33
			l-2.2,0.74c-0.38,0.13-0.76,0.25-1.15,0.38c-0.36,0.12-0.71,0.23-1.06,0.35c-0.37,0.12-0.73,0.27-1.1,0.41
			c-0.36,0.14-0.72,0.28-1.08,0.4c-0.36,0.12-0.72,0.23-1.08,0.34c-0.38,0.12-0.76,0.23-1.13,0.36c-0.35,0.12-0.7,0.23-1.04,0.34
			c-0.39,0.12-0.78,0.25-1.16,0.38c-0.39,0.13-0.77,0.28-1.16,0.43c-0.34,0.13-0.68,0.26-1.02,0.38c-0.39,0.14-0.77,0.29-1.15,0.45
			c-0.33,0.13-0.67,0.27-1.01,0.39c-0.35,0.13-0.7,0.24-1.05,0.35c-0.38,0.12-0.77,0.24-1.14,0.38c-0.61,0.23-1.3,0.5-1.96,0.8
			c-0.42,0.19-0.82,0.45-1.21,0.69c-0.2,0.13-0.41,0.26-0.61,0.38c-0.16,0.09-0.31,0.18-0.46,0.27c-0.48,0.27-0.94,0.53-1.31,0.84
			c-0.62,0.51-1.08,1.02-1.35,1.51c-0.34,0.61-0.4,1.22-0.18,1.81c0.21,0.54,0.81,0.9,1.83,1.09c0.68,0.13,1.5,0.15,2.45,0.06
			c0.8-0.08,1.72-0.17,2.47-0.39c0.64-0.18,1.39-0.4,2.14-0.67c0.39-0.14,0.78-0.32,1.18-0.51c0.29-0.14,0.58-0.27,0.88-0.4
			c0.27-0.11,0.55-0.22,0.82-0.32c0.42-0.16,0.85-0.33,1.27-0.52c0.27-0.12,0.54-0.24,0.81-0.36c0.42-0.18,0.84-0.37,1.26-0.57
			c0.4-0.19,0.79-0.39,1.19-0.6c0.28-0.14,0.55-0.29,0.83-0.42l0.6-0.3c0.47-0.24,0.95-0.47,1.42-0.71
			c0.35-0.18,0.71-0.35,1.06-0.52c0.33-0.16,0.65-0.31,0.98-0.48c0.32-0.16,0.63-0.35,0.94-0.53c0.34-0.2,0.69-0.41,1.04-0.58
			c0.39-0.19,0.78-0.36,1.18-0.53c0.3-0.13,0.6-0.26,0.9-0.4l2.04-0.96c0.34-0.16,0.69-0.31,1.03-0.47c0.34-0.15,0.69-0.3,1.02-0.46
			c0.34-0.16,0.67-0.34,1-0.51c0.33-0.18,0.67-0.36,1.01-0.52c0.35-0.16,0.7-0.31,1.06-0.45c0.34-0.14,0.69-0.28,1.02-0.43
			l2.04-0.96c0.33-0.16,0.65-0.33,0.98-0.51c0.34-0.18,0.67-0.37,1.02-0.53c0.34-0.16,0.69-0.31,1.04-0.45
			c0.34-0.14,0.68-0.29,1.02-0.44c0.35-0.16,0.69-0.32,1.04-0.48c0.33-0.15,0.67-0.3,1-0.46c0.33-0.16,0.66-0.32,0.99-0.48
			c0.34-0.17,0.68-0.34,1.03-0.5c0.33-0.15,0.65-0.31,0.98-0.47c0.35-0.17,0.7-0.33,1.05-0.5c0.33-0.15,0.65-0.31,0.97-0.47
			c0.35-0.17,0.7-0.34,1.05-0.51c0.35-0.16,0.7-0.31,1.06-0.46c0.34-0.14,0.67-0.29,1-0.44c0.32-0.15,0.64-0.3,0.96-0.45
			c0.36-0.17,0.72-0.34,1.08-0.51c0.68-0.31,1.37-0.62,2.05-0.93c0.35-0.16,0.71-0.3,1.07-0.44c0.34-0.13,0.68-0.27,1.01-0.42
			c0.31-0.14,0.61-0.28,0.92-0.42c0.38-0.17,0.75-0.34,1.13-0.51c0.38-0.17,0.76-0.33,1.14-0.49c0.31-0.13,0.62-0.27,0.94-0.4
			c0.31-0.13,0.62-0.27,0.92-0.41c0.38-0.17,0.76-0.34,1.14-0.5c0.4-0.17,0.8-0.34,1.21-0.52l0.83-0.35
			c0.31-0.13,0.61-0.27,0.92-0.41c0.37-0.17,0.74-0.34,1.11-0.49c0.48-0.2,0.96-0.39,1.44-0.58l0.62-0.25
			c0.4-0.16,0.8-0.29,1.2-0.43c0.3-0.1,0.61-0.21,0.9-0.32c0.31-0.12,0.62-0.25,0.92-0.38c0.37-0.16,0.76-0.33,1.15-0.47
			c0.58-0.2,1.16-0.36,1.72-0.53l0.87-0.26c0.59-0.18,1.14-0.34,1.71-0.48c0.54-0.13,1.07-0.2,1.59-0.26
			c0.21-0.03,0.42-0.05,0.63-0.09l0.42-0.06c0.63-0.1,1.23-0.19,1.83-0.2c0.7-0.02,1.38,0.15,2.11,0.33l1.1,0.26
			c0.53,0.13,1.07,0.25,1.61,0.37c0.72,0.15,1.5,0.21,2.32,0.16c0.88-0.05,1.83-0.13,2.77-0.35c0.85-0.2,1.67-0.51,2.46-0.81
			l0.2-0.08c0.33-0.12,0.67-0.24,1.02-0.35c0.39-0.13,0.79-0.26,1.2-0.42c0.35-0.14,0.7-0.29,1.06-0.45
			c0.36-0.16,0.73-0.32,1.1-0.47l2.18-0.87c0.35-0.14,0.71-0.27,1.07-0.41c0.37-0.14,0.75-0.28,1.13-0.43
			c0.38-0.16,0.77-0.32,1.15-0.48c0.34-0.14,0.68-0.28,1.02-0.42l0.96-0.39c0.41-0.16,0.81-0.33,1.22-0.5
			c0.35-0.15,0.71-0.29,1.07-0.43c0.37-0.15,0.75-0.29,1.12-0.45c0.37-0.15,0.73-0.31,1.09-0.47c0.35-0.16,0.71-0.32,1.07-0.47
			c0.36-0.15,0.72-0.29,1.08-0.43c0.37-0.15,0.74-0.29,1.11-0.44c0.36-0.15,0.73-0.3,1.09-0.45c0.37-0.15,0.73-0.29,1.09-0.44
			c0.37-0.15,0.72-0.34,1.06-0.52c0.35-0.18,0.7-0.36,1.06-0.52l0.95-0.4c0.41-0.17,0.82-0.35,1.23-0.52
			c0.38-0.16,0.76-0.3,1.14-0.44c0.36-0.13,0.72-0.26,1.06-0.41l0.99-0.42c0.4-0.17,0.79-0.34,1.18-0.5
			c0.39-0.17,0.77-0.36,1.13-0.54c0.34-0.17,0.67-0.33,1-0.48c0.38-0.17,0.75-0.32,1.11-0.47c0.37-0.15,0.73-0.3,1.06-0.45
			l0.82-0.37c0.15-0.06,0.29-0.13,0.42-0.19c-0.34,0.09-0.68,0.18-1.04,0.31c-0.32,0.11-0.65,0.25-0.99,0.39
			c-0.35,0.15-0.7,0.3-1.07,0.43c-0.32,0.12-0.65,0.22-0.99,0.33c-0.37,0.12-0.74,0.24-1.11,0.37l-2.09,0.76
			c-0.35,0.13-0.69,0.28-1.03,0.42c-0.34,0.15-0.68,0.29-1.03,0.42l-2.08,0.77c-0.36,0.14-0.72,0.26-1.07,0.39
			c-0.35,0.13-0.69,0.25-1.02,0.37c-0.41,0.16-0.81,0.29-1.19,0.41c-0.33,0.11-0.63,0.21-0.91,0.31c-0.83,0.31-1.43,0.6-1.76,0.75
			c-0.13,0.06-0.23,0.11-0.27,0.12c-0.39,0.15-0.75,0.26-1.08,0.37c-0.39,0.13-0.73,0.23-1.04,0.37c-0.28,0.12-0.54,0.26-0.8,0.39
			c-0.39,0.2-0.79,0.4-1.25,0.58c-0.6,0.23-1.38,0.56-2.13,0.91L109,86c-0.58,0.28-1.19,0.57-1.75,0.71
			c-1.54,0.39-2.13-0.26-2.35-0.87c-0.34-0.91,0.58-1.62,1.29-2.09c0.52-0.33,1.19-0.68,2.06-1.06l0.42-0.19
			c0.55-0.24,1.12-0.5,1.69-0.71l0.71-0.27c0.5-0.19,0.98-0.37,1.43-0.53c0.38-0.13,0.74-0.25,1.07-0.35
			c0.43-0.14,0.8-0.25,1.07-0.37l0.52-0.22c0.5-0.21,1.01-0.43,1.55-0.66c0.4-0.17,0.82-0.34,1.24-0.51l0.83-0.34
			c0.35-0.15,0.71-0.28,1.08-0.42c0.34-0.13,0.68-0.26,1.02-0.4c0.34-0.14,0.67-0.29,1-0.44c0.35-0.16,0.7-0.32,1.06-0.46
			c0.36-0.15,0.71-0.29,1.07-0.43c0.34-0.14,0.68-0.27,1.02-0.41c0.35-0.15,0.7-0.31,1.04-0.47c0.34-0.16,0.67-0.32,1.01-0.46
			c0.37-0.15,0.74-0.28,1.11-0.4c0.35-0.12,0.69-0.23,1.01-0.36c0.4-0.17,0.78-0.34,1.15-0.51c0.31-0.14,0.61-0.28,0.9-0.4
			c0.28-0.12,0.55-0.24,0.8-0.36c-0.23,0.07-0.47,0.14-0.7,0.22c-0.33,0.11-0.66,0.21-1,0.31c-0.37,0.11-0.73,0.22-1.09,0.35
			c-0.38,0.13-0.74,0.29-1.08,0.44c-0.33,0.14-0.65,0.28-0.95,0.39c-0.59,0.21-1.12,0.37-1.53,0.49c-0.23,0.07-0.41,0.12-0.55,0.17
			c-0.46,0.15-0.94,0.33-1.44,0.51l-0.87,0.31c-0.32,0.11-0.66,0.23-1,0.34c-0.43,0.14-0.87,0.29-1.32,0.45
			c-0.42,0.15-0.84,0.31-1.27,0.48c-0.34,0.13-0.68,0.26-1.02,0.39l-1,0.37c-0.43,0.16-0.86,0.31-1.3,0.48
			c-0.39,0.15-0.78,0.31-1.17,0.47c-0.37,0.15-0.74,0.3-1.11,0.44c-0.4,0.15-0.8,0.31-1.2,0.47c-0.36,0.14-0.72,0.28-1.09,0.42
			c-0.32,0.12-0.65,0.24-1,0.37c-0.48,0.17-0.98,0.35-1.47,0.55c-0.27,0.11-0.54,0.23-0.8,0.34c-0.59,0.25-1.14,0.49-1.67,0.65
			c-1.57,0.46-2.53,0.34-2.86-0.34c-0.27-0.56-0.26-1.42,1.3-2.35c0.67-0.41,1.54-0.76,2.3-1.06c0.47-0.19,0.97-0.34,1.46-0.49
			c0.3-0.09,0.61-0.19,0.9-0.29c0.6-0.21,1.18-0.43,1.7-0.64l0.6-0.23c0.33-0.12,0.66-0.26,0.99-0.41c0.34-0.14,0.69-0.29,1.05-0.43
			c0.3-0.12,0.61-0.24,0.93-0.35c0.37-0.14,0.75-0.28,1.13-0.43c0.34-0.13,0.68-0.25,1.03-0.36c0.35-0.12,0.7-0.23,1.05-0.37
			c0.39-0.15,0.77-0.31,1.16-0.46l3.81-1.52c0.4-0.16,0.8-0.32,1.19-0.48c0.33-0.13,0.65-0.26,0.98-0.39
			c0.36-0.14,0.72-0.28,1.08-0.43c0.71-0.29,1.39-0.58,2.04-0.85c0.39-0.16,0.76-0.35,1.11-0.52c0.31-0.15,0.6-0.29,0.89-0.42
			c0.49-0.21,0.94-0.43,1.34-0.63c0.23-0.11,0.44-0.21,0.65-0.31l0.21-0.1c-0.1,0.03-0.21,0.06-0.32,0.1
			c-0.37,0.12-0.76,0.27-1.17,0.43c-0.34,0.13-0.69,0.27-1.04,0.39c-0.41,0.14-0.82,0.3-1.21,0.46c-0.34,0.13-0.68,0.27-1,0.38
			c-0.99,0.35-1.87,0.66-2.24,0.77c-0.7,0.22-1.42,0.44-2.15,0.69c-0.7,0.25-1.41,0.5-2.13,0.77l-0.1,0.04
			c-0.67,0.25-1.34,0.51-2.02,0.78c-0.35,0.14-0.7,0.29-1.05,0.44c-0.34,0.15-0.69,0.3-1.04,0.44c-0.36,0.14-0.73,0.27-1.1,0.4
			c-0.35,0.12-0.7,0.24-1.04,0.37c-0.39,0.15-0.78,0.29-1.17,0.43c-0.32,0.11-0.65,0.23-0.97,0.35c-0.32,0.12-0.64,0.27-0.96,0.41
			c-0.38,0.17-0.76,0.34-1.14,0.48c-0.72,0.26-1.44,0.52-2.16,0.76c-0.53,0.18-1.05,0.33-1.58,0.48l-0.61,0.18
			c-0.26,0.08-0.52,0.16-0.77,0.24c-0.48,0.15-0.95,0.3-1.43,0.42c-0.28,0.02-0.8,0-1.15-0.37c-0.24-0.25-0.35-0.61-0.31-1.06
			l0.02-0.08c0.22-0.66,0.71-1.21,1.45-1.62c0.49-0.27,1.06-0.46,1.61-0.64l0.32-0.11c0.45-0.15,0.89-0.33,1.3-0.5
			c0.19-0.08,0.38-0.15,0.56-0.22c0.31-0.12,0.64-0.23,0.98-0.35c0.38-0.13,0.76-0.26,1.16-0.42c0.33-0.13,0.67-0.27,1.01-0.41
			c0.36-0.15,0.72-0.3,1.1-0.45c0.34-0.13,0.69-0.25,1.04-0.37c0.37-0.13,0.74-0.26,1.1-0.4c0.35-0.13,0.7-0.28,1.05-0.43
			c0.35-0.15,0.7-0.3,1.06-0.44c0.36-0.14,0.72-0.25,1.09-0.36c0.36-0.11,0.72-0.22,1.08-0.36c0.35-0.14,0.69-0.3,1.02-0.47
			c0.35-0.17,0.7-0.34,1.06-0.48l2.12-0.84c0.36-0.14,0.73-0.27,1.09-0.4c0.36-0.13,0.71-0.25,1.05-0.39
			c0.34-0.14,0.69-0.27,1.02-0.4c0.38-0.15,0.75-0.29,1.11-0.44c0.36-0.15,0.72-0.28,1.06-0.41c0.37-0.14,0.73-0.27,1.06-0.42
			c0.45-0.19,0.85-0.4,1.24-0.6c0.11-0.06,0.22-0.11,0.32-0.16c-0.53,0.18-1.13,0.38-1.77,0.6c-0.37,0.13-0.76,0.27-1.16,0.42
			c-0.34,0.13-0.68,0.25-1.04,0.38c-0.34,0.12-0.68,0.24-1.03,0.36c-0.39,0.13-0.78,0.26-1.18,0.41c-0.36,0.13-0.72,0.29-1.07,0.45
			c-0.36,0.16-0.72,0.32-1.09,0.46c-0.38,0.14-0.76,0.26-1.14,0.37c-0.37,0.11-0.74,0.23-1.09,0.36c-0.39,0.15-0.77,0.31-1.14,0.47
			c-0.35,0.15-0.69,0.3-1.03,0.42c-0.44,0.16-0.85,0.31-1.25,0.45c-0.34,0.12-0.66,0.23-0.96,0.34c-0.96,0.35-1.69,0.57-2.05,0.67
			l-2.35,0.75c-0.3,0.1-0.61,0.19-0.92,0.29c-0.41,0.13-0.83,0.25-1.25,0.39c-0.36,0.11-0.71,0.25-1.07,0.39
			c-0.35,0.13-0.71,0.27-1.07,0.39l-0.74,0.24c-0.47,0.15-0.95,0.31-1.42,0.47c-0.39,0.13-0.77,0.28-1.16,0.42
			c-0.32,0.12-0.65,0.24-0.98,0.36c-0.72,0.25-1.43,0.5-2.14,0.77c-0.35,0.13-0.7,0.23-1.06,0.33c-0.38,0.11-0.75,0.22-1.11,0.36
			c-0.72,0.27-1.43,0.55-2.12,0.83c-0.41,0.17-0.81,0.36-1.2,0.55c-0.29,0.14-0.58,0.28-0.87,0.4l-0.59,0.26
			c-0.51,0.22-1,0.43-1.48,0.66c-0.77,0.37-1.41,0.74-1.97,1.12c-0.58,0.39-1.05,0.85-1.51,1.28l-0.2,0.19
			C88.38,81.86,88.29,81.95,88.2,82.04z M13.77,111.54c-0.34,0.11-0.67,0.22-0.99,0.34c-0.4,0.15-0.79,0.33-1.17,0.51
			c-0.29,0.14-0.59,0.27-0.88,0.39c-0.69,0.29-1.36,0.59-2.02,0.9c-0.24,0.11-0.46,0.2-0.68,0.3c-0.44,0.19-0.86,0.37-1.24,0.59
			c-0.58,0.33-1.15,0.73-1.69,1.18c-0.63,0.52-1.07,0.99-1.38,1.48c-0.26,0.41-0.46,0.86-0.58,1.36c0.06-0.08,0.13-0.19,0.21-0.34
			c0.09-0.17,0.19-0.35,0.33-0.51c0.48-0.54,1.05-1.06,1.73-1.61c0.66-0.53,1.38-1,1.93-1.34l0.47-0.3
			c0.49-0.31,0.99-0.64,1.53-0.92c0.59-0.31,1.25-0.62,2.11-1c0.22-0.1,0.45-0.2,0.67-0.31c0.48-0.22,0.96-0.44,1.46-0.64
			C13.64,111.59,13.71,111.57,13.77,111.54z M19.4,109.71c-0.07,0.02-0.13,0.04-0.2,0.06c-0.73,0.23-1.44,0.45-2.15,0.68
			c-0.72,0.24-1.43,0.47-2.14,0.71c-0.16,0.06-0.33,0.11-0.49,0.17c0.13-0.04,0.26-0.07,0.38-0.11c0.33-0.09,0.67-0.19,0.99-0.3
			c0.72-0.25,1.46-0.5,2.21-0.74c0.29-0.09,0.57-0.19,0.86-0.29C19.04,109.84,19.22,109.77,19.4,109.71z M27.31,107.41
			c-0.19,0.04-0.37,0.09-0.56,0.13c-0.36,0.08-0.72,0.16-1.07,0.26c-0.03,0.01-0.07,0.02-0.1,0.03c0.08-0.02,0.15-0.03,0.23-0.05
			c0.37-0.08,0.74-0.16,1.11-0.26C27.05,107.49,27.18,107.45,27.31,107.41z M31.08,106.27c-0.35,0.08-0.7,0.16-1.05,0.26
			c-0.35,0.1-0.7,0.23-1.05,0.36c-0.34,0.12-0.68,0.25-1.02,0.35c0.01,0,0.02-0.01,0.04-0.01c0.39-0.1,0.78-0.2,1.17-0.31
			c0.38-0.11,0.76-0.24,1.13-0.38C30.55,106.45,30.81,106.36,31.08,106.27z M36.25,104.73l-0.47,0.15
			c-0.24,0.07-0.48,0.15-0.71,0.22c0.22-0.06,0.44-0.12,0.65-0.19C35.9,104.85,36.08,104.79,36.25,104.73z M104.66,89.41
			c-0.16,0.06-0.32,0.12-0.48,0.19L102,90.46c-0.21,0.08-0.41,0.17-0.61,0.26c0.1-0.04,0.2-0.07,0.3-0.11
			c0.72-0.27,1.44-0.55,2.17-0.84C104.12,89.65,104.39,89.53,104.66,89.41z M86.22,85.33c-0.34,0.37-0.72,0.73-1.14,1.13
			c-0.45,0.42-0.96,0.79-1.46,1.15l-0.45,0.33c-0.2,0.15-0.41,0.31-0.61,0.47c-0.42,0.33-0.85,0.67-1.33,0.97
			c-0.45,0.27-0.92,0.51-1.39,0.74c-0.21,0.1-0.43,0.21-0.64,0.32l0.47-0.17c0.56-0.21,1.11-0.46,1.64-0.69l0.92-0.41
			c0.61-0.27,1.19-0.52,1.73-0.86c0.64-0.4,1.23-0.86,1.76-1.35C85.78,86.49,86,85.85,86.22,85.33z M107.91,85.8
			c-0.17,0.06-0.34,0.12-0.51,0.18c-0.22,0.07-0.42,0.13-0.61,0.17c0.09-0.02,0.19-0.04,0.3-0.06
			C107.36,86.02,107.63,85.92,107.91,85.8z M86.63,83.79c-0.16,0.18-0.32,0.35-0.48,0.53c-0.26,0.28-0.52,0.56-0.76,0.85
			c-0.17,0.21-0.35,0.41-0.52,0.6c0.54-0.51,0.98-0.96,1.38-1.46C86.39,84.14,86.52,83.97,86.63,83.79z M88.37,80.73
			c-0.25,0.18-0.49,0.36-0.71,0.55c-0.59,0.5-1.06,1.11-1.53,1.75c-0.22,0.3-0.44,0.61-0.65,0.92c-0.16,0.23-0.32,0.47-0.49,0.7
			c0.22-0.26,0.45-0.51,0.69-0.77c0.25-0.28,0.51-0.56,0.76-0.85c0.47-0.56,0.98-1.15,1.59-1.73l0.03-0.03L88.37,80.73z M108.22,81
			c-0.12,0.04-0.24,0.09-0.36,0.13c-0.15,0.06-0.33,0.15-0.52,0.24c0.17-0.07,0.34-0.14,0.51-0.22
			C107.97,81.11,108.09,81.06,108.22,81z M88.52,80.62l-0.06,0.29c0.41-0.39,0.85-0.78,1.38-1.14c0.59-0.4,1.26-0.78,2.05-1.17
			c0.48-0.23,0.99-0.45,1.5-0.68l0.59-0.26c0.28-0.12,0.56-0.26,0.85-0.4c0.4-0.19,0.81-0.39,1.23-0.56
			c0.7-0.28,1.41-0.56,2.13-0.83c0.38-0.14,0.77-0.26,1.16-0.37c0.34-0.1,0.68-0.2,1.02-0.32c0.71-0.26,1.43-0.52,2.15-0.77
			c0.32-0.11,0.64-0.23,0.96-0.35c0.39-0.15,0.79-0.3,1.18-0.43c0.48-0.16,0.96-0.32,1.43-0.47l0.74-0.24
			c0.35-0.12,0.7-0.25,1.04-0.38c0.37-0.14,0.74-0.28,1.1-0.4c0.25-0.08,0.51-0.16,0.76-0.24c-0.05,0.01-0.09,0.03-0.14,0.04
			c-0.36,0.1-0.72,0.21-1.07,0.32c-0.35,0.12-0.71,0.23-1.07,0.34c-0.37,0.12-0.75,0.24-1.12,0.36c-0.38,0.12-0.75,0.26-1.12,0.39
			c-0.35,0.13-0.7,0.25-1.05,0.37l-0.51,0.17c-0.56,0.19-1.11,0.37-1.67,0.56c-0.52,0.18-1.04,0.37-1.55,0.56l-1.19,0.43
			c-0.53,0.19-1.06,0.38-1.57,0.58c-0.67,0.26-1.31,0.53-1.95,0.8l-0.16,0.07c-0.29,0.12-0.58,0.23-0.86,0.35
			c-0.43,0.17-0.85,0.33-1.25,0.52c-0.75,0.35-1.41,0.69-2.03,1.03c-0.71,0.38-1.37,0.82-1.93,1.19
			C89.17,80.18,88.84,80.4,88.52,80.62z M109.6,78.51c-0.26,0.09-0.52,0.17-0.79,0.25c-0.47,0.15-0.96,0.3-1.41,0.48
			c-0.57,0.22-1.2,0.48-1.75,0.77c0.3-0.11,0.61-0.2,0.89-0.3c0.31-0.1,0.59-0.19,0.81-0.27c0.34-0.13,0.68-0.28,1.02-0.42
			c0.33-0.14,0.67-0.28,1.01-0.42L109.6,78.51z M111.63,75.53c-0.02,0.01-0.04,0.01-0.07,0.02c-0.34,0.11-0.69,0.23-1.03,0.35
			c-0.34,0.12-0.68,0.27-1.01,0.41c-0.23,0.1-0.46,0.2-0.69,0.29c0.51-0.18,1.03-0.36,1.54-0.55c0.37-0.14,0.74-0.3,1.1-0.46
			C111.53,75.58,111.58,75.55,111.63,75.53z M128.4,75.24c-0.35,0.12-0.71,0.24-1.06,0.38c-0.29,0.12-0.57,0.25-0.86,0.39
			c0.43-0.17,0.85-0.34,1.27-0.51l0.51-0.21C128.3,75.28,128.35,75.26,128.4,75.24z M124.16,75.04c-0.2,0.06-0.41,0.12-0.61,0.19
			c-0.2,0.07-0.4,0.15-0.6,0.24l0.54-0.19C123.72,75.2,123.94,75.12,124.16,75.04z M128.01,73.7c-0.36,0.12-0.72,0.27-1.08,0.42
			c-0.07,0.03-0.15,0.06-0.22,0.09c0.1-0.03,0.21-0.07,0.31-0.11c0.29-0.1,0.59-0.23,0.91-0.37
			C127.96,73.72,127.99,73.71,128.01,73.7z M135.57,71.42c0.03,0.02,0.06,0.05,0.08,0.08l0.12,0.15c0.04-0.04,0.06-0.08,0.07-0.09
			c-0.02-0.06-0.03-0.07-0.05-0.08C135.78,71.46,135.72,71.42,135.57,71.42z M119.09,68.68c-0.02,0.01-0.03,0.01-0.05,0.02
			c-0.34,0.12-0.7,0.22-1.05,0.32c-0.34,0.1-0.69,0.2-1.03,0.31c-0.34,0.12-0.67,0.24-1.01,0.37c-0.34,0.13-0.68,0.25-1.02,0.37
			c-0.34,0.12-0.69,0.23-1.04,0.34c-0.34,0.11-0.68,0.22-1.02,0.34c-0.33,0.11-0.66,0.25-0.99,0.39c-0.33,0.14-0.67,0.28-1.02,0.4
			c0.1-0.03,0.19-0.06,0.28-0.09l2.37-0.75c0.35-0.1,1.07-0.31,2.01-0.66c0.3-0.11,0.62-0.23,0.96-0.35
			c0.39-0.14,0.8-0.29,1.24-0.45c0.32-0.12,0.65-0.26,0.99-0.41C118.85,68.79,118.97,68.73,119.09,68.68z M122.36,67.54
			c-0.09,0.03-0.18,0.05-0.26,0.08c-0.34,0.1-0.69,0.2-1.03,0.31c-0.27,0.09-0.53,0.19-0.8,0.3c0.25-0.08,0.5-0.16,0.76-0.24
			c0.37-0.11,0.74-0.23,1.11-0.36C122.21,67.6,122.28,67.57,122.36,67.54z M134.16,67.51c0.22,0,0.29,0.06,0.33,0.1l0.13,0.11v0.1
			c0.04-0.06,0.06-0.12,0.08-0.18C134.62,67.54,134.44,67.49,134.16,67.51z M133.54,63.99l0.08,0.09l-0.02,0.11
			c0.06-0.05,0.1-0.09,0.12-0.12v-0.02c-0.02-0.03-0.08-0.08-0.21-0.11C133.53,63.96,133.53,63.97,133.54,63.99z"/>
	</g>
</g>
<g>
	<path class="st0" d="M171.56,48.72c0,11.4-17.7,7.8-17.7,23.1s17.7,12,17.7,12s20.4,4.5,20.4-12.3S171.56,60.72,171.56,48.72z"/>
	<path d="M177.29,84.98c-2.88,0-5.18-0.43-5.74-0.55c-1.13,0.19-9.21,1.38-14.29-2.84c-2.65-2.2-4-5.49-4-9.77
		c0-8.57,5.39-11.49,10.14-14.07c4.06-2.2,7.56-4.1,7.56-9.03h1.2c0,5.09,3.96,6.68,8.54,8.52c5.56,2.23,11.86,4.77,11.86,14.28
		c0,4.53-1.45,7.98-4.3,10.27C185.08,84.35,180.76,84.98,177.29,84.98z M171.57,83.21l0.12,0.03c0.1,0.02,10.17,2.17,15.83-2.38
		c2.55-2.05,3.84-5.19,3.84-9.34c0-8.7-5.65-10.97-11.1-13.16c-3.58-1.44-7.25-2.91-8.68-6.32c-1.28,3.33-4.49,5.07-7.61,6.76
		c-4.68,2.54-9.51,5.16-9.51,13.02c0,3.9,1.2,6.88,3.56,8.84c4.92,4.09,13.34,2.58,13.43,2.57L171.57,83.21z"/>
</g>
<g>
	<path class="st0" d="M159,78.88c0,0-0.27-5.63,5.9-9.66c0,0,5.66-2.86,11.27,0C176.18,69.22,171.88,81.02,159,78.88z"/>
	<path d="M162.02,79.74c-0.98,0-2.02-0.08-3.12-0.27l-0.48-0.08l-0.02-0.48c-0.01-0.24-0.21-6.03,6.17-10.19
		c0.3-0.16,6.06-2.99,11.87-0.03l0.47,0.24l-0.18,0.5C176.7,69.53,172.85,79.74,162.02,79.74z M159.61,78.36
		c10.38,1.45,14.82-6.72,15.79-8.85c-5.1-2.27-10.17,0.22-10.23,0.24C160.4,72.87,159.7,76.96,159.61,78.36z"/>
</g>
<g>
	<path class="st0" d="M159,78.88c0,0-9.66-8.59-19.32-3.49C139.94,76.19,148.13,88.54,159,78.88z"/>
	<path d="M150.67,83.16c-0.9,0-1.8-0.12-2.7-0.36c-5.14-1.38-8.6-6.43-8.86-7.22l-0.16-0.48l0.45-0.24c9.92-5.23,19.9,3.48,20,3.57
		l0.5,0.45l-0.5,0.45C156.53,81.88,153.6,83.16,150.67,83.16z M140.5,75.64c0.88,1.35,3.86,5.09,8.09,6.07
		c3.15,0.73,6.33-0.22,9.47-2.83C155.99,77.29,148.24,71.99,140.5,75.64z"/>
</g>
<g>
	<path class="st0" d="M159,78.88c0,0-2.95-4.83,0.27-6.98C159.27,71.9,161.68,74.31,159,78.88z"/>
	<path d="M159.01,80.04l-0.52-0.85c-1.12-1.84-2.48-5.84,0.45-7.79l0.41-0.27l0.35,0.35c0.11,0.11,2.71,2.8-0.17,7.71L159.01,80.04z
		 M159.15,72.76c-1.33,1.34-0.69,3.53-0.15,4.8C160.13,75.09,159.57,73.48,159.15,72.76z"/>
</g>
<path d="M155.42,79.34c-5.44,0-14.65-3.19-15.11-3.35l0.2-0.57c0.13,0.05,13.16,4.56,17.24,2.99l0.21,0.56
	C157.29,79.23,156.42,79.34,155.42,79.34z"/>
<path d="M159.79,78.74l-0.15-0.58c0.22-0.06,0.82-0.6,1.46-1.18c2.36-2.14,7.28-6.6,15.03-7.56l0.07,0.6
	c-7.56,0.93-12.38,5.3-14.7,7.4C160.67,78.19,160.16,78.65,159.79,78.74z"/>
</svg>
