<?xml version="1.0" encoding="utf-8"?>
<!-- Generator: Adobe Illustrator 23.1.1, SVG Export Plug-In . SVG Version: 6.00 Build 0)  -->
<svg version="1.1" id="レイヤー_1" xmlns="http://www.w3.org/2000/svg" xmlns:xlink="http://www.w3.org/1999/xlink" x="0px"
	 y="0px" viewBox="0 0 209.28 140.93" style="enable-background:new 0 0 209.28 140.93;" xml:space="preserve">
<style type="text/css">
	.st0{fill:#FFFFFF;}
</style>
<path d="M17.75,49.37c-0.81,0-1.48-0.65-1.5-1.46c0-0.05,0-0.21,0-0.48c-0.07-5.75-1.6-10.08-4.55-12.88c-3.16-3-7.09-3.4-8.44-3.44
	c-0.19,0-0.38,0-0.58,0c-0.81-0.01-1.46-0.66-1.48-1.47c-0.02-0.81,0.61-1.49,1.42-1.53c0.05,0,0.27-0.01,0.64,0
	c3.77-0.06,6.74-1.24,8.83-3.5c3.17-3.43,3.74-8.61,3.79-11.34c-0.03-0.64-0.04-1.29-0.04-1.97c0-0.8,0.63-1.46,1.43-1.5
	c0.8-0.03,1.49,0.56,1.56,1.36c0.01,0.11,0.08,0.93,0.06,2.18c0.29,5.74,1.87,9.85,4.69,12.22c2.12,1.78,4.5,2.18,5.99,2.23
	c0.56-0.06,1.14-0.09,1.73-0.09c0.78,0,1.43,0.6,1.49,1.37c0.07,0.78-0.47,1.47-1.24,1.61c-0.08,0.01-0.77,0.13-1.83,0.11
	c-2.38,0.28-4.33,1.23-5.94,2.89c-4.23,4.35-4.53,12.11-4.54,13.82c0,0.12,0,0.25,0,0.38c0,0.82-0.66,1.49-1.48,1.5
	C17.77,49.37,17.76,49.37,17.75,49.37z M9.95,29.75c1.27,0.62,2.58,1.46,3.81,2.62c1.71,1.63,3.03,3.64,3.94,6.03
	c0.8-2.41,2.03-4.86,3.94-6.82c0.79-0.81,1.66-1.5,2.6-2.06c-0.86-0.41-1.74-0.96-2.58-1.67c-1.87-1.57-3.29-3.69-4.26-6.33
	c-0.68,1.79-1.67,3.57-3.09,5.1C13.07,27.97,11.62,29.01,9.95,29.75z"/>
<path d="M34.13,62.48c-0.65,0-1.18-0.52-1.2-1.17c0-0.02,0-0.11,0-0.24c-0.03-2.75-0.75-4.81-2.14-6.12
	c-1.47-1.39-3.34-1.58-3.93-1.6c-0.09,0-0.18,0-0.27,0c-0.65-0.01-1.17-0.53-1.18-1.18c-0.01-0.65,0.49-1.19,1.14-1.22
	c0.02,0,0.14-0.01,0.33,0c1.78-0.02,3.12-0.55,4.09-1.6c1.48-1.6,1.75-4.05,1.78-5.35c-0.01-0.32-0.02-0.66-0.02-1
	c0-0.64,0.5-1.17,1.14-1.2c0.61-0.04,1.19,0.45,1.25,1.09c0.01,0.06,0.04,0.47,0.03,1.11c0.14,2.72,0.86,4.66,2.16,5.77
	c0.95,0.81,2.03,1,2.71,1.03c0.29-0.03,0.58-0.04,0.88-0.04c0.62,0,1.14,0.48,1.2,1.1c0.05,0.62-0.38,1.18-0.99,1.29
	c-0.04,0.01-0.41,0.06-0.95,0.06c-1.08,0.13-1.96,0.56-2.69,1.3c-2,2.05-2.14,5.83-2.15,6.61c0,0.06,0,0.12,0,0.18
	c0,0.66-0.53,1.19-1.18,1.2C34.14,62.48,34.13,62.48,34.13,62.48z M31.18,52.23c0.43,0.27,0.85,0.59,1.26,0.97
	c0.65,0.62,1.2,1.35,1.63,2.17c0.4-0.92,0.94-1.8,1.68-2.56c0.24-0.25,0.5-0.48,0.76-0.68c-0.24-0.15-0.48-0.33-0.72-0.53
	c-0.75-0.63-1.37-1.43-1.85-2.39c-0.31,0.61-0.71,1.2-1.2,1.74C32.27,51.46,31.75,51.88,31.18,52.23z"/>
<g>
	<path d="M197.8,61.95c-9.26-4.19-17.36-2.34-22.23-0.3c0.36-3.24,0.54-5.33,0.56-5.79c0.18-3.05-3.58-3.05-3.58-3.05h-50.71h-9.5
		H61.63c0,0-3.76,0-3.58,3.05c0.18,3.05,6.99,79.38,32.61,83.86h23.47h5.92h23.47c7.26-1.27,13.01-8.31,17.53-17.82
		c1.83-1.71,3.68-3.85,5.57-5.65c3.94-3.76,8.78-5.55,8.78-5.55c20.97-9.5,22.53-12.07,25.62-15.23
		C205.03,91.37,212.85,68.76,197.8,61.95z M191.17,91.7c-4.44,4.25-10.49,8.38-17.87,11.93c0,0-4.73,2.49-5.61,1.33
		c-0.12-0.16-0.04-0.9,0.19-2.01c0.61-2.19,1.18-4.39,1.71-6.59c1.43-4.99,3.33-10.93,4.56-14.33c2.33-6.45,8.98-15.68,18.49-11.02
		C201.77,75.48,194.93,88.09,191.17,91.7z"/>
	<path class="st0" d="M130.33,72.82c0.05-0.14,0.08-0.29,0.04-0.43c-0.03-0.12-0.05-0.16-0.07-0.17c-0.01-0.07-0.02-0.14-0.05-0.2
		c0,0,0-0.05,0-0.19c0-0.15-0.03-0.16-0.02-0.26c0-0.07-0.02-0.14-0.04-0.2c0.04-0.13,0.01-0.3-0.08-0.42
		c0-0.15-0.06-0.28-0.19-0.38c-0.02-0.18-0.19-0.71-0.13-0.15c-0.03-0.23-0.11-0.39-0.24-0.51c-0.02-0.16-0.11-0.32-0.25-0.39
		c-0.01-0.01-0.04-0.05-0.12-0.12c-0.06-0.06-0.09-0.09-0.13-0.17c-0.1-0.2-0.31-0.3-0.4-0.48c-0.05-0.12-0.17-0.26-0.28-0.32
		c-0.04-0.02-0.06-0.04-0.09-0.05c-0.07-0.09-0.14-0.17-0.24-0.23c-0.04-0.03-0.08-0.05-0.1-0.06c-0.11-0.22-0.33-0.36-0.59-0.3
		c-0.04-0.03-0.09-0.06-0.12-0.09c-0.09-0.08-0.19-0.15-0.29-0.22c-0.07-0.04-0.14-0.06-0.21-0.06c-0.17-0.13-0.42-0.25-0.6-0.23
		c-0.11,0.01-0.22,0.02-0.33,0.05c-0.08-0.03-0.15-0.06-0.24-0.06c-0.14-0.01-0.35-0.05-0.48-0.1c-0.12-0.04-0.23-0.04-0.36-0.03
		c-0.07,0-0.14,0.02-0.2,0.04c-0.33-0.07-0.72,0-1.04,0.15c-0.2-0.07-0.42,0-0.56,0.15c-0.04,0.01-0.09,0.03-0.13,0.06
		c-0.23,0.01-0.4,0.09-0.54,0.26c-0.28,0.07-0.7,0.18-0.42,0.18c-0.39,0-0.51,0.32-0.81,0.42c-0.22,0.07-0.4,0.14-0.49,0.37
		c0.05-0.12,0.08-0.12-0.07,0.04c-0.04,0.04-0.08,0.07-0.1,0.09c-0.17,0.08-0.35,0.2-0.4,0.4c0,0-0.01,0-0.01,0.01c0,0,0,0,0,0
		c-0.32,0.08-0.56,0.32-0.64,0.63c-0.15,0.05-0.26,0.17-0.31,0.32c-0.19,0.07-0.3,0.24-0.33,0.46c-0.01,0.01-0.02,0.02-0.03,0.04
		c-0.01,0.01-0.01,0.02-0.02,0.03c-0.09,0.05-0.16,0.12-0.22,0.24c-0.04,0.09-0.08,0.17-0.1,0.26c0,0,0,0,0,0
		c-0.11,0.09-0.22,0.23-0.23,0.38c-0.23,0.25-0.4,0.6-0.46,0.94c-0.13,0.11-0.21,0.25-0.24,0.41c-0.09,0.09-0.16,0.21-0.14,0.35
		c-0.03,0.04-0.05,0.08-0.06,0.13c-0.03,0.1-0.07,0.17-0.13,0.27c-0.01,0.01-0.01,0.02-0.01,0.03c0-0.01-0.01-0.01-0.01-0.02
		c-0.02-0.19-0.05-0.37-0.13-0.55c-0.06-0.12-0.12-0.21-0.22-0.29c-0.01-0.01-0.02-0.03-0.03-0.05c-0.03-0.05-0.05-0.08-0.06-0.11
		c-0.03-0.11-0.07-0.22-0.17-0.3c-0.01-0.09-0.02-0.17-0.07-0.25c-0.21-0.36,0.06,0.14-0.15-0.24c-0.04-0.06-0.07-0.12-0.12-0.17
		c0-0.18-0.12-0.34-0.28-0.43c-0.01-0.04-0.03-0.08-0.05-0.13c-0.03-0.08-0.42-0.5-0.33-0.22c-0.08-0.24-0.13-0.43-0.37-0.57
		c-0.05-0.03-0.09-0.06-0.13-0.08c-0.02-0.15-0.08-0.28-0.19-0.38c-0.05-0.16-0.19-0.29-0.36-0.34c-0.1-0.15-0.23-0.27-0.39-0.34
		c-0.09-0.21-0.15-0.38-0.41-0.5c-0.01,0-0.01,0-0.01-0.01c-0.02-0.02-0.05-0.06-0.09-0.1c-0.06-0.06-0.12-0.09-0.19-0.12
		c-0.05-0.07-0.11-0.13-0.2-0.19c-0.09-0.07-0.15-0.17-0.03,0.01c-0.09-0.13-0.18-0.25-0.33-0.3c-0.07-0.08-0.16-0.16-0.27-0.18
		c-0.04-0.01-0.08-0.02-0.12-0.03c-0.04-0.1-0.11-0.19-0.21-0.29c-0.15-0.15-0.34-0.18-0.53-0.12c-0.04-0.02-0.07-0.04-0.11-0.07
		c-0.03-0.07-0.06-0.13-0.12-0.19c-0.1-0.1-0.25-0.15-0.36-0.24c-0.08-0.06-0.18-0.08-0.27-0.07c-0.08-0.06-0.17-0.1-0.26-0.13
		c-0.07-0.06-0.15-0.12-0.24-0.17c-0.11-0.05-0.62-0.18-0.39,0.03c-0.3-0.28-0.58-0.32-0.92-0.26c-0.07-0.03-0.14-0.05-0.21-0.05
		c-0.16-0.09-0.33-0.11-0.52-0.07c-0.08-0.03-0.17-0.04-0.26-0.03c-0.12-0.05-0.26-0.06-0.37-0.03c-0.15,0.05-0.6,0.21-0.34,0.22
		c-0.12-0.01-0.23,0.02-0.35,0.04c-0.01,0-0.01,0-0.02,0c0,0,0,0-0.01,0c-0.22-0.07-0.49,0.05-0.6,0.25
		c-0.08,0.03-0.16,0.07-0.23,0.13c-0.2,0.04-0.39,0.16-0.44,0.38c-0.01,0.03-0.01,0.05-0.01,0.07c-0.21,0.24,0.06,0.03-0.06,0.12
		c-0.19,0.14-0.38,0.23-0.46,0.44c-0.05,0.04-0.09,0.09-0.13,0.14c-0.06,0.08-0.1,0.15-0.14,0.24c-0.09,0.19-0.28,0.44-0.28,0.64
		c0,0.05,0,0.08,0,0.11c-0.02,0.03-0.03,0.04-0.03,0.05c-0.14,0.13-0.23,0.28-0.27,0.49c-0.02,0.08-0.03,0.16-0.04,0.24
		c-0.02,0.03-0.04,0.07-0.06,0.11c-0.06,0.14-0.09,0.27-0.09,0.4c-0.12,0.12-0.18,0.29-0.12,0.48c-0.08,0.12-0.1,0.28-0.07,0.42
		c-0.13,0.33-0.05,0.71,0.03,1.09c0.03,0.15-0.09,0.41-0.02,0.63c0,0.03,0,0.07,0,0.14c0,0.07,0.01,0.14,0.04,0.19
		c-0.03,0.14,0,0.28,0.08,0.4c0,0.25,0.05,0.51,0.14,0.74c0.18,0.44,0-0.03,0.1,0.35c0.03,0.13,0.08,0.23,0.14,0.31
		c0,0.08,0.01,0.16,0.02,0.25c0.02,0.13,0.12,0.24,0.23,0.31c0.02,0.06,0.05,0.11,0.08,0.16c0,0.03,0.01,0.08,0,0.17
		c-0.01,0.17,0.09,0.33,0.22,0.43c0.3,0.24,0.36,0.55,0.58,0.78c0.01,0.04,0.03,0.09,0.06,0.13c0.01,0.09,0.02,0.18,0.07,0.26
		c0.11,0.18,0.21,0.34,0.35,0.46c0.01,0.04,0.03,0.09,0.05,0.13c0.04,0.07,0.1,0.12,0.16,0.17c0.04,0.08,0.08,0.15,0.14,0.22
		c0.01,0.17,0.11,0.36,0.26,0.44c0.06,0.03,0.12,0.06,0.18,0.09c0.04,0.11,0.11,0.19,0.19,0.25c0.01,0.03,0.02,0.06,0.04,0.08
		c0.04,0.07,0.09,0.12,0.16,0.17c0.06,0.25,0.2,0.42,0.43,0.51c0,0.01,0.01,0.01,0.01,0.02c-0.02,0.25,0.2,0.43,0.42,0.49
		c0.02,0.04,0.05,0.08,0.08,0.12c0.07,0.07,0.13,0.13,0.21,0.19c0.04,0.19,0.18,0.37,0.38,0.41c0.02,0,0.05,0.01,0.07,0.01
		c0.04,0.07,0.09,0.12,0.17,0.17c0.05,0.03,0.08,0.05,0.11,0.06c0,0.01,0.01,0.02,0.01,0.04c0.1,0.22,0.25,0.39,0.44,0.52
		c0.03,0.05,0.05,0.1,0.1,0.14c0.02,0.02,0.04,0.04,0.05,0.05c0.01,0.02,0.02,0.04,0.04,0.07c0.13,0.21,0.3,0.31,0.5,0.33
		c0.1,0.14,0.2,0.24,0.34,0.31c0.11,0.18,0.23,0.31,0.39,0.42c0.04,0.12,0.11,0.22,0.23,0.29c0.35,0.21-0.11-0.03,0.25,0.15
		c0.1,0.05,0.17,0.1,0.24,0.15c0.04,0.24,0.22,0.39,0.49,0.44c0.06,0.15,0.17,0.26,0.32,0.31c0.08,0.12,0.18,0.23,0.32,0.27
		c0.01,0.01,0.03,0.03,0.04,0.04c0.04,0.04,0.08,0.07,0.13,0.09c0.07,0.12,0.18,0.23,0.32,0.26c0.06,0.06,0.13,0.11,0.23,0.15
		c0.02,0.01,0.05,0.02,0.07,0.03c0.04,0.06,0.1,0.11,0.16,0.15c0.04,0.02,0.07,0.04,0.09,0.05c0.02,0.02,0.05,0.05,0.09,0.09
		c0.04,0.04,0.08,0.07,0.13,0.1c0.07,0.14,0.21,0.26,0.35,0.29c0,0,0,0,0.01,0c0,0.01,0.01,0.01,0.01,0.02
		c0.05,0.06,0.11,0.09,0.17,0.11c0.01,0.02,0.03,0.04,0.05,0.06c0.16,0.16,0.38,0.35,0.11-0.01c0.1,0.13,0.61,0.57,0.44,0.35
		c0.1,0.13,0.19,0.28,0.37,0.31c0,0,0,0,0,0c0,0.01,0,0.02,0.01,0.03c0.03,0.07,0.27,0.42,0.15,0.15c0.07,0.14,0.19,0.21,0.28,0.32
		c0.05,0.07,0.12,0.11,0.18,0.15c0.02,0.02,0.04,0.06,0.08,0.11c0.13,0.21,0.31,0.44,0.53,0.56c0.06,0.03,0.11,0.06,0.14,0.08
		c0.04,0.05,0.09,0.1,0.13,0.16c0.03,0.05,0.07,0.1,0.12,0.14c0.03,0.08,0.07,0.16,0.08,0.26c0.03,0.17,0.21,0.34,0.37,0.37
		c0.01,0,0.02,0,0.03,0c0,0,0,0,0.01,0.01c0.03,0.04,0.12,0.15,0.18,0.2c0.05,0.1,0.12,0.24,0.15,0.27
		c0.04,0.04,0.08,0.08,0.12,0.11c0.02,0.08,0.04,0.16,0.06,0.24c0.14,0.45,0.72,0.52,0.98,0.13c0.07-0.11,0.12-0.21,0.16-0.32
		c0.06-0.05,0.1-0.1,0.14-0.17c0.07-0.05,0.13-0.11,0.2-0.16c0.08-0.07,0.12-0.16,0.14-0.26c0.03-0.03,0.05-0.06,0.07-0.09
		c0.01-0.01,0.01-0.01,0.01-0.02c0.08-0.05,0.14-0.11,0.19-0.19c0.09-0.15,0.08-0.18,0.06-0.18c0.09-0.07,0.14-0.14,0.18-0.22
		c0.09-0.06,0.16-0.16,0.2-0.26c0.1-0.08,0.18-0.18,0.22-0.31c0.07-0.04,0.12-0.09,0.17-0.17c0.1-0.17,0.08-0.19,0.05-0.18
		c0.07-0.05,0.13-0.11,0.18-0.18c0.02-0.04,0.04-0.07,0.06-0.1c0.04-0.04,0.07-0.08,0.1-0.13c0.06-0.03,0.11-0.05,0.17-0.09
		c0.11-0.07,0.19-0.18,0.23-0.3c0.08-0.07,0.14-0.17,0.17-0.3c0.02-0.02,0.05-0.04,0.09-0.08c0.05-0.05,0.08-0.1,0.11-0.16
		c0.19-0.1,0.32-0.25,0.39-0.45c0.16-0.1,0.28-0.25,0.31-0.45c0.02-0.01,0.04-0.03,0.07-0.06c0.09-0.08,0.13-0.18,0.14-0.28
		c0.06-0.06,0.12-0.12,0.19-0.18c0.07-0.07,0.1-0.15,0.15-0.24c0.01-0.01,0.01-0.02,0.01-0.03c0.01-0.01,0.03-0.01,0.06-0.03
		c0.17-0.09,0.33-0.26,0.39-0.44c0.04-0.04,0.08-0.08,0.11-0.13c0.04-0.06,0.05-0.13,0.07-0.2c0.04-0.05,0.08-0.1,0.11-0.16
		c0.1-0.04,0.2-0.12,0.24-0.22c0.05-0.11,0.12-0.22,0.13-0.34c0-0.01,0-0.01,0-0.02c0.2-0.07,0.31-0.25,0.33-0.45
		c0.02-0.02,0.04-0.03,0.06-0.05c0.3-0.27-0.1,0.08,0.21-0.2c0.13-0.12,0.24-0.24,0.26-0.42c0.12-0.09,0.2-0.22,0.22-0.37
		c0.08-0.06,0.14-0.13,0.19-0.21c0.2-0.06,0.34-0.29,0.34-0.5c0-0.04,0.01-0.08,0.03-0.08c0.23-0.09,0.36-0.25,0.38-0.46
		c0.23-0.23,0.44-0.52,0.62-0.77c-0.19,0.26,0.15-0.07,0.19-0.13c0.07-0.09,0.1-0.17,0.13-0.26c0.02-0.02,0.05-0.06,0.11-0.1
		c0.03-0.03,0.05-0.05,0.07-0.08c0.13-0.07,0.23-0.19,0.27-0.33c0-0.01,0.01-0.03,0.01-0.04c0.12-0.07,0.21-0.18,0.24-0.32
		c0,0,0,0,0,0c0.01,0,0.04-0.03,0.1-0.14c0.06-0.1,0.08-0.22,0.13-0.32c0.06-0.12,0.14-0.21,0.2-0.29c0.13-0.07,0.22-0.18,0.27-0.32
		c0.01-0.01,0.04-0.04,0.09-0.14c0.06-0.1,0.07-0.25,0.14-0.34c0.06-0.08,0.44-0.54,0.21-0.39c0.32-0.2,0.42-0.41,0.47-0.78
		c0-0.03,0.01-0.06,0.01-0.09c0.04-0.06,0.07-0.12,0.09-0.19c0.11-0.1,0.19-0.24,0.18-0.39c-0.01-0.1,0-0.12,0.04-0.21
		c-0.12,0.28,0.14-0.1,0.16-0.18c0.11-0.38-0.08-0.02-0.02-0.16c0.08-0.18,0.07-0.3,0.04-0.49c0.05,0.3,0.22-0.31,0.17-0.48
		c-0.01-0.04-0.02-0.08-0.03-0.1c0.03-0.09,0.04-0.18,0.03-0.27c0.03-0.07,0.05-0.14,0.05-0.21
		C130.33,72.89,130.33,72.85,130.33,72.82z M130.23,71.99c-0.01-0.02-0.02-0.05-0.04-0.07C130.2,71.95,130.22,71.97,130.23,71.99z
		 M125.8,67.23c-0.01,0-0.02,0-0.03,0.01C125.74,67.22,125.75,67.22,125.8,67.23z M122.45,68.66c-0.01,0.01-0.02,0.01-0.03,0.02
		C122.43,68.68,122.44,68.67,122.45,68.66z M121.34,69.32C121.26,69.38,121.19,69.38,121.34,69.32L121.34,69.32z M120.88,69.73
		C120.83,69.79,120.78,69.78,120.88,69.73L120.88,69.73z M120.96,69.57c0,0.02-0.01,0.04-0.01,0.05
		C120.95,69.6,120.95,69.59,120.96,69.57z M120.34,68.81C120.31,68.83,120.31,68.83,120.34,68.81L120.34,68.81z M114.4,71.28
		C114.45,71.33,114.43,71.33,114.4,71.28L114.4,71.28z M105.72,68.64C105.76,68.56,105.82,68.58,105.72,68.64L105.72,68.64z
		 M105.17,69.78C105.14,69.82,105.11,69.82,105.17,69.78L105.17,69.78z M104.5,68.96C104.5,68.96,104.5,68.96,104.5,68.96
		c0.03-0.03,0.06-0.05,0.1-0.08C104.56,68.9,104.53,68.93,104.5,68.96z M104.47,68.98c-0.01,0.01-0.01,0.01-0.02,0.02
		C104.45,68.99,104.46,68.99,104.47,68.98C104.47,68.98,104.47,68.98,104.47,68.98z M110.11,81.21
		C110.14,81.24,110.15,81.25,110.11,81.21L110.11,81.21z M116.09,87.66C116.08,87.65,116.08,87.65,116.09,87.66L116.09,87.66z
		 M116.78,88.3c0.01,0.03,0.03,0.05,0.04,0.07C116.81,88.36,116.8,88.33,116.78,88.3z M116.87,88.43
		C116.95,88.48,116.92,88.48,116.87,88.43L116.87,88.43z M120.97,87.61c0.01-0.01,0.02-0.01,0.03-0.02
		C120.99,87.6,120.98,87.6,120.97,87.61z M129.06,73.95c-0.01,0.08-0.01,0.15,0,0.22c-0.01,0.02-0.01,0.03-0.02,0.06
		c-0.01,0.04-0.02,0.07-0.03,0.1c-0.04,0.05-0.06,0.1-0.09,0.17c-0.05,0.11-0.08,0.21-0.1,0.31c-0.05,0.06-0.09,0.12-0.11,0.2
		c-0.01,0.04-0.02,0.06-0.02,0.09c-0.01,0.02-0.03,0.04-0.05,0.07c-0.1,0.15-0.17,0.3-0.13,0.47c-0.02,0.01-0.04,0.03-0.07,0.06
		c-0.1,0.1-0.14,0.24-0.22,0.36c-0.06,0.09-0.08,0.12-0.08,0.13c-0.02,0.02-0.05,0.07-0.12,0.16c-0.09,0.12-0.13,0.26-0.17,0.4
		c0.05-0.15,0.01-0.09-0.04,0.02c-0.18,0.07-0.34,0.27-0.33,0.47c-0.08,0.11-0.15,0.21-0.22,0.33c-0.07,0.12-0.23,0.32-0.04,0.15
		c-0.07,0.07-0.12,0.14-0.16,0.21c-0.08,0.06-0.15,0.14-0.2,0.23c-0.18,0.06-0.33,0.23-0.35,0.43c-0.09,0.08-0.17,0.2-0.2,0.31
		c0,0.01,0,0.01-0.01,0.02c-0.02-0.01-0.07,0.03-0.19,0.2c-0.14,0.19-0.36,0.54-0.56,0.67c-0.14,0.1-0.22,0.22-0.25,0.36
		c-0.15,0.12-0.26,0.27-0.33,0.44c-0.13,0.07-0.21,0.21-0.25,0.36c-0.03,0.01-0.07,0.03-0.14,0.07c-0.15,0.09-0.23,0.23-0.25,0.38
		c-0.11,0.11-0.17,0.24-0.19,0.4c-0.1,0.1-0.21,0.19-0.31,0.25c-0.14,0.08-0.22,0.22-0.25,0.37c-0.09,0.1-0.14,0.23-0.2,0.37
		c-0.23,0.06-0.4,0.28-0.4,0.51c0,0,0,0.01,0,0.01c-0.01,0.01-0.02,0.02-0.03,0.03c-0.07,0.07-0.11,0.15-0.13,0.24
		c-0.07,0.06-0.13,0.14-0.15,0.24c0,0.01,0,0.01,0,0.02c-0.02,0.01-0.04,0.02-0.08,0.04c-0.26,0.15-0.28,0.47-0.54,0.59
		c-0.15,0.07-0.27,0.27-0.26,0.44c-0.04,0.05-0.08,0.11-0.11,0.15c-0.01,0.03-0.03,0.05-0.04,0.08c-0.17,0.06-0.3,0.22-0.33,0.4
		c-0.21,0.04-0.37,0.26-0.38,0.47c-0.04,0.04-0.07,0.08-0.09,0.12c-0.17,0.07-0.3,0.2-0.34,0.37c-0.03,0.02-0.06,0.04-0.09,0.07
		c-0.05,0.05-0.09,0.12-0.12,0.18c-0.02,0.02-0.04,0.04-0.06,0.06c-0.05,0.05-0.08,0.1-0.11,0.16c-0.02,0.02-0.04,0.04-0.06,0.07
		c-0.07,0.07-0.11,0.15-0.15,0.24c-0.12,0.07-0.21,0.17-0.26,0.3c-0.1,0.05-0.19,0.14-0.24,0.25c-0.13,0.09-0.23,0.26-0.24,0.41
		c-0.06,0.07-0.12,0.15-0.15,0.24c-0.01,0.01-0.03,0.03-0.05,0.04c-0.02,0.02-0.04,0.04-0.05,0.06c-0.15,0.05-0.25,0.17-0.3,0.3
		c-0.13-0.17-0.31-0.33-0.49-0.43c-0.05-0.16-0.12-0.34-0.22-0.43c-0.12-0.12-0.14-0.12-0.13-0.11c-0.06-0.09-0.11-0.12-0.15-0.21
		c-0.1-0.22-0.36-0.17-0.48-0.35c-0.14-0.21-0.29-0.52-0.54-0.6c-0.01-0.01-0.04-0.04-0.13-0.11c-0.13-0.09,0.2,0.13-0.07-0.14
		c-0.03-0.03-0.06-0.06-0.08-0.07c0-0.01,0-0.02-0.01-0.04c-0.06-0.13-0.29-0.33-0.43-0.35c0,0,0,0,0,0c-0.01,0-0.01-0.01-0.02-0.01
		c-0.1-0.1-0.19-0.2-0.33-0.24c-0.01,0-0.02,0-0.03-0.01c-0.07-0.1-0.15-0.16-0.23-0.2c-0.07-0.11-0.15-0.2-0.29-0.23
		c-0.03-0.25-0.27-0.39-0.51-0.42c-0.02-0.02-0.03-0.04-0.05-0.06c-0.04-0.04-0.09-0.07-0.15-0.1c-0.08-0.12-0.18-0.17-0.31-0.21
		c-0.07-0.13-0.2-0.24-0.35-0.28l0,0c-0.04-0.04-0.1-0.08-0.15-0.1c-0.06-0.09-0.14-0.17-0.25-0.21c-0.04-0.13-0.13-0.23-0.25-0.28
		c-0.07-0.12-0.17-0.21-0.31-0.24c-0.02,0-0.04-0.01-0.07-0.02c-0.06-0.19-0.22-0.33-0.44-0.36c-0.05-0.06-0.13-0.13-0.19-0.15
		c-0.06-0.03-0.12-0.07-0.19-0.11c-0.04-0.11-0.11-0.21-0.23-0.28c-0.14-0.08-0.22-0.17-0.08-0.02c-0.04-0.04-0.08-0.07-0.12-0.1
		c-0.03-0.07-0.06-0.13-0.1-0.2c-0.07-0.13-0.19-0.2-0.31-0.23c-0.04-0.06-0.07-0.12-0.11-0.19c-0.1-0.16-0.25-0.25-0.42-0.26
		c-0.03-0.03-0.05-0.06-0.09-0.09c-0.01-0.02-0.03-0.04-0.04-0.07c-0.07-0.11-0.16-0.17-0.27-0.22c-0.02-0.02-0.03-0.04-0.05-0.07
		c-0.05-0.06-0.08-0.12-0.11-0.19c-0.07-0.16-0.2-0.26-0.34-0.35c-0.08-0.12-0.17-0.2-0.3-0.26c-0.04-0.1-0.11-0.19-0.21-0.24
		c-0.1-0.05-0.14-0.06-0.15-0.07c0.01,0,0.03-0.02-0.05-0.16c-0.06-0.11-0.15-0.19-0.25-0.24c-0.04-0.09-0.11-0.17-0.19-0.23
		c-0.05-0.13-0.17-0.27-0.3-0.31c-0.01-0.02-0.02-0.04-0.03-0.06c-0.04-0.06-0.08-0.11-0.13-0.16c-0.01-0.2-0.15-0.38-0.34-0.45
		c-0.08-0.11-0.17-0.2-0.3-0.27c-0.06-0.27-0.21-0.48-0.4-0.63c-0.04-0.12-0.12-0.21-0.24-0.28c-0.03-0.06-0.06-0.13-0.1-0.18
		c-0.01-0.08-0.03-0.16-0.07-0.22c-0.01-0.02-0.02-0.03-0.03-0.05c-0.02-0.19-0.13-0.34-0.3-0.42c-0.1-0.24-0.23-0.47-0.43-0.64
		c-0.01-0.01-0.01-0.01-0.02-0.01c0-0.02,0.01-0.05,0.01-0.09c0.01-0.14-0.06-0.27-0.15-0.37c0-0.01,0-0.02,0-0.03
		c0.02-0.17-0.08-0.32-0.21-0.42c-0.01-0.14-0.07-0.25-0.18-0.35c-0.01-0.09-0.03-0.17-0.07-0.26c-0.05-0.12-0.07-0.23-0.11-0.35
		c0,0-0.04-0.25-0.03-0.21c0,0,0-0.01,0-0.01c0,0,0,0,0-0.01c0.03-0.12,0.02-0.22-0.02-0.31c0.03-0.14,0-0.27-0.08-0.4
		c0.01-0.23-0.01-0.47,0-0.68c0-0.15-0.05-0.37-0.1-0.52c0,0,0,0-0.01,0c0.01-0.02,0.02-0.04,0.03-0.07
		c0.02-0.04,0.03-0.08,0.04-0.11c0.06-0.08,0.09-0.18,0.1-0.29c0.07-0.12,0.11-0.26,0.07-0.39c0.1-0.12,0.15-0.28,0.08-0.44
		c-0.02-0.04-0.03-0.06-0.04-0.09c0.13-0.17,0.11-0.33,0.13-0.52c0,0,0,0,0.01,0c0.15-0.1,0.22-0.22,0.27-0.39
		c0.04-0.13,0.07-0.23,0.07-0.33c0.07-0.1,0.13-0.21,0.16-0.34c0-0.02,0.01-0.03,0.02-0.05c0.12-0.07,0.24-0.18,0.28-0.32
		c0.08-0.06,0.18-0.12,0.25-0.19c0.09-0.09,0.17-0.21,0.23-0.34c0.05-0.02,0.1-0.05,0.14-0.09c0,0,0,0,0,0
		c0.19,0,0.38-0.07,0.48-0.23c0.04,0,0.08-0.01,0.12,0c0.13,0.01,0.24-0.02,0.36-0.07c0.02-0.01,0.05-0.02,0.07-0.03
		c0.13,0.04,0.27,0.03,0.4-0.03c0.07,0.01,0.14,0.01,0.22-0.01c0,0,0,0,0,0c0.11,0.06,0.25,0.09,0.37,0.07
		c0.14,0.05,0.28,0.05,0.47,0c0.1,0.09,0.2,0.15,0.33,0.18c0.13,0.03,0.23,0.03,0.36,0.01c0.08,0.08,0.16,0.14,0.27,0.16
		c0,0.01,0,0.01,0.01,0.02c0.09,0.21,0.31,0.27,0.52,0.25c0.02,0.03,0.04,0.06,0.07,0.08c0.14,0.14,0.34,0.19,0.48,0.31
		c0.08,0.07,0.16,0.11,0.25,0.13c0.09,0.15,0.27,0.26,0.46,0.27c0,0,0.01,0,0.01,0c0.04,0.02,0.07,0.04,0.11,0.05
		c0.06,0.08,0.14,0.14,0.24,0.17c0.04,0.04,0.08,0.08,0.13,0.12c0.01,0.01,0.02,0.01,0.03,0.01c0.04,0.2,0.21,0.32,0.39,0.37
		c0.08,0.08,0.17,0.14,0.31,0.18c-0.19-0.07-0.04,0.1,0.07,0.29c0.08,0.13,0.21,0.23,0.36,0.25c0.02,0.03,0.04,0.07,0.06,0.11
		c0.03,0.07,0.09,0.13,0.15,0.17c0.04,0.09,0.12,0.17,0.2,0.23c0.03,0.1,0.08,0.19,0.15,0.27c0.07,0.07,0.16,0.12,0.25,0.17
		c0.03,0.02,0.05,0.04,0.07,0.05c0.06,0.16,0.14,0.29,0.28,0.41c0.04,0.03,0.08,0.06,0.12,0.09c0,0.22,0.1,0.42,0.29,0.52
		c0.05,0.06,0.1,0.12,0.16,0.16c0,0.01,0,0.02,0.01,0.04c0.05,0.21,0.17,0.5,0.1,0.02c0.04,0.27,0.08,0.45,0.22,0.6
		c0.03,0.1,0.08,0.2,0.17,0.3c-0.23-0.26,0.13,0.26,0.2,0.3c0.01,0.03,0.01,0.07,0.02,0.09c-0.02,0.23,0.02,0.48,0.22,0.62
		c0.01,0.08,0.02,0.16,0.07,0.22c0.02,0.02,0.03,0.04,0.04,0.04c0.02,0.11,0.04,0.24,0.09,0.34c0,0.01,0,0.02,0,0.03
		c-0.01,0.08,0.02,0.2,0.03,0.28c0.02,0.23,0.14,0.38,0.28,0.55c0.17,0.21,0.38,0.22,0.55,0.13c0.04-0.01,0.07-0.02,0.11-0.02
		c0.32-0.07,0.43-0.39,0.36-0.66c0-0.02,0.01-0.03,0.01-0.04c0.1-0.11,0.14-0.24,0.14-0.38c0.13-0.14,0.19-0.38,0.12-0.55
		c0.01-0.01,0.01-0.02,0.02-0.04c0.04-0.09,0.05-0.18,0.04-0.28c0.01,0.19-0.02,0.14,0.04,0c0.03-0.06,0.06-0.12,0.08-0.19
		c0-0.01,0-0.01,0-0.02c0.07-0.08,0.14-0.19,0.15-0.3c0.06-0.07,0.09-0.16,0.1-0.25c0.19-0.11,0.27-0.34,0.23-0.55
		c0.03-0.05,0.08-0.1,0.1-0.16c0.05-0.08,0.09-0.18,0.13-0.27c0.15-0.08,0.27-0.25,0.28-0.42c0.02-0.03,0.05-0.07,0.07-0.11
		c0.03-0.06,0.06-0.12,0.08-0.19c0.17-0.09,0.26-0.24,0.29-0.44c0.01-0.01,0.02-0.01,0.02-0.03c0.16-0.07,0.27-0.18,0.33-0.32
		c0.04-0.02,0.09-0.04,0.13-0.07c0.15-0.09,0.29-0.28,0.26-0.46c0,0,0-0.01,0-0.01c0.15-0.02,0.3-0.13,0.38-0.26
		c0.06-0.1,0.14-0.17,0.2-0.27c0.01,0,0.02-0.01,0.04-0.02c0.11-0.05,0.17-0.11,0.24-0.2c0.01,0,0.02-0.01,0.04-0.02
		c0.08-0.04,0.14-0.11,0.18-0.18c0.09-0.04,0.19-0.07,0.28-0.12c0.14-0.07,0.39-0.24,0.15-0.23c0.18,0,0.33-0.06,0.47-0.15
		c0.03-0.01,0.07-0.02,0.14-0.03c0.07-0.02,0.14-0.04,0.21-0.06c0.14-0.04,0.24-0.11,0.31-0.19c0.15-0.01,0.25-0.08,0.36-0.17
		c0,0,0,0,0,0c-0.24,0.21-0.07,0.12,0.11,0.02c0.11,0.01,0.23-0.01,0.32-0.07c0.18-0.13,0.37-0.12,0.2-0.16
		c0.12,0.03,0.24,0.04,0.37,0.04c0.21,0.01,0.2-0.01,0.15-0.02c0.17,0.04,0.31-0.02,0.46-0.09c-0.13,0.07-0.15,0.08,0.06,0.07
		c-0.02,0.01-0.01,0.02,0.16,0.05c0.12,0.02,0.24,0.04,0.36,0.04c-0.32-0.01,0.39,0.08,0.55,0.03c0.1-0.03,0.28,0.24,0.47,0.22
		c0,0,0,0,0.01,0c0.08,0.11,0.15,0.19,0.28,0.25c0.18,0.08,0.32,0.13,0.47,0.14c0.06,0.05,0.11,0.1,0.17,0.17
		c0.08,0.09,0.13,0.19,0.24,0.25c0.02,0.01,0.04,0.02,0.06,0.03c0,0.01,0,0.01,0.01,0.02c0.1,0.21,0.32,0.31,0.4,0.48
		c0.06,0.12,0.15,0.25,0.26,0.36c0.01,0.21,0.16,0.38,0.35,0.47c0.02,0.05,0.04,0.09,0.07,0.13c0.01,0.14,0.05,0.26,0.13,0.37
		c0,0.11,0.03,0.22,0.09,0.31c0,0.07,0.02,0.14,0.07,0.21c0,0,0.01,0.01,0.01,0.01l0,0c-0.01,0.06-0.01,0.38,0.04,0.07
		c-0.03,0.19-0.08,0.44,0.04,0.62c0,0.01,0.01,0.01,0.01,0.02c0,0.08,0.01,0.15,0.05,0.22c-0.02,0.06-0.05,0.12-0.05,0.21
		c0,0.02,0,0.04,0,0.06c-0.03,0.07-0.05,0.14-0.05,0.21c0,0.04,0,0.07,0,0.09c-0.03,0.06-0.04,0.13-0.04,0.2
		c0,0.09,0.02,0.17,0.04,0.25C129.12,73.73,129.08,73.83,129.06,73.95z"/>
	<g>
		<path class="st0" d="M88.62,114.31l-0.02-1.93v-0.79c0-3.23,0.19-5.48,0.58-6.75c0.46-1.56,1.11-2.65,1.93-3.25
			c1.12-0.84,2.53-1.25,4.24-1.25c0.41,0,0.72,0.08,0.92,0.24s0.3,0.35,0.3,0.58c0,0.23-0.08,0.43-0.24,0.6
			c-0.16,0.18-0.36,0.27-0.61,0.28h-1.85c-0.54,0-1.01,0.29-1.41,0.87c-0.39,0.58-0.67,1.29-0.85,2.12c-0.33,1.59-0.5,2.9-0.48,3.94
			v0.16l-0.17,6.35c0,1.34,0.09,2.27,0.26,2.78c0.17,0.51,0.35,0.93,0.54,1.25c0.19,0.32,0.41,0.58,0.67,0.78
			c0.59,0.47,1.35,0.71,2.28,0.71c0.31,0,0.59-0.1,0.85-0.29c0.31,0,0.58,0.06,0.83,0.18c0.24,0.12,0.37,0.3,0.37,0.55
			c0,0.87-0.73,1.3-2.18,1.3c-0.59,0-1.21-0.07-1.86-0.22c-0.65-0.14-1.13-0.3-1.46-0.47C89.49,121.1,88.62,118.52,88.62,114.31z"/>
		<path class="st0" d="M98.43,112.2l0.04-1.25c0-0.11-0.02-0.16-0.06-0.16v-0.59c0-3.45,0.24-5.9,0.71-7.36
			c0.4-1.23,0.78-1.99,1.16-2.28c0.37-0.29,0.74-0.43,1.1-0.43c3.06,0,5.17,1.29,6.32,3.86c0.67,1.48,1,3.3,1,5.46v0.24l0.08,3.73
			c0,6.31-1.75,9.46-5.26,9.46c-1.45,0-2.56-0.67-3.34-2.01c-0.73-1.29-1.18-2.55-1.35-3.79C98.56,115.2,98.43,113.58,98.43,112.2z
			 M100.76,107.71l-0.19,3.04c0,3.18,0.31,5.96,0.93,8.32c0.66,1.38,1.28,2.2,1.87,2.44c0.48,0,0.91-0.16,1.29-0.48
			c0.38-0.32,0.69-0.75,0.92-1.29c0.23-0.54,0.42-1.11,0.57-1.71c0.14-0.59,0.25-1.22,0.33-1.9c0.13-1.17,0.19-2.16,0.19-2.99
			c0-0.82-0.09-2.09-0.26-3.79c-0.17-1.7-0.26-2.97-0.26-3.81v-0.58c-0.03-0.8-0.34-1.52-0.95-2.14c-0.6-0.63-1.38-0.94-2.31-0.94
			c-0.9,0-1.5,0.42-1.79,1.27c-0.24,0.71-0.37,1.58-0.37,2.62L100.76,107.71z"/>
		<path class="st0" d="M114.24,102.68l-0.37,6.6v0.88l0.73-0.02c1.27,0,1.91,0.29,1.91,0.87c0,0.29-0.14,0.52-0.42,0.7
			c-0.28,0.18-0.65,0.27-1.11,0.27c-0.46,0-0.93-0.06-1.42-0.19v9.32c0,0.96-0.34,1.45-1.02,1.45c-0.41,0-0.88-0.17-1.41-0.5
			c0.22-1.96,0.38-4.75,0.49-8.36c0.11-3.62,0.2-5.98,0.28-7.09v-0.8c0.1-1.6,0.15-3.09,0.15-4.47c0-0.31,0.16-0.55,0.47-0.72
			c0.31-0.17,0.67-0.26,1.06-0.26c0.39,0,0.81,0.01,1.26,0.03c0.46,0.02,1.02,0.08,1.68,0.16c1.49,0.18,2.24,0.56,2.24,1.14
			c0,0.62-0.67,0.93-2,0.93c-0.53-0.21-1.21-0.32-2.06-0.32h-0.46V102.68z"/>
		<path class="st0" d="M123.55,102.68l-0.37,6.6v0.88l0.73-0.02c1.27,0,1.91,0.29,1.91,0.87c0,0.29-0.14,0.52-0.42,0.7
			c-0.28,0.18-0.65,0.27-1.11,0.27c-0.46,0-0.93-0.06-1.42-0.19v9.32c0,0.96-0.34,1.45-1.02,1.45c-0.41,0-0.88-0.17-1.41-0.5
			c0.22-1.96,0.38-4.75,0.49-8.36c0.11-3.62,0.2-5.98,0.28-7.09v-0.8c0.1-1.6,0.15-3.09,0.15-4.47c0-0.31,0.16-0.55,0.47-0.72
			c0.31-0.17,0.67-0.26,1.06-0.26c0.39,0,0.81,0.01,1.26,0.03c0.46,0.02,1.02,0.08,1.68,0.16c1.49,0.18,2.24,0.56,2.24,1.14
			c0,0.62-0.67,0.93-2.01,0.93c-0.53-0.21-1.21-0.32-2.06-0.32h-0.46V102.68z"/>
		<path class="st0" d="M130.28,105.65l-0.21-2.78c0-1.55,0.55-2.33,1.66-2.33c0.71,0,1.67,0.14,2.89,0.41
			c1.22,0.27,1.83,0.62,1.83,1.05c0,0.45-0.39,0.79-1.16,1.03c-1.22-0.34-2.22-0.55-2.99-0.63c0.04,0.47,0.06,0.94,0.06,1.41
			l-0.17,4.72c0,0.02,0.04,0.19,0.12,0.51l1.41-0.05c1.27,0,1.91,0.3,1.91,0.9c0,0.24-0.12,0.44-0.35,0.62
			c-0.23,0.18-0.52,0.26-0.88,0.26s-0.74-0.02-1.15-0.06h-1c0.08,0.84,0.12,1.67,0.12,2.49l-0.17,5.96c0,1.23,0.03,1.85,0.08,1.85
			l2.91-0.08c1,0,1.5,0.27,1.5,0.8c0,0.33-0.17,0.57-0.52,0.72c-0.35,0.15-0.74,0.22-1.18,0.22h-3.33c-0.35,0-0.66-0.1-0.95-0.3
			c-0.28-0.2-0.43-0.44-0.44-0.72v-0.87l-0.25-5.56L130.28,105.65z"/>
		<path class="st0" d="M139.06,105.65l-0.21-2.78c0-1.55,0.55-2.33,1.66-2.33c0.71,0,1.67,0.14,2.89,0.41
			c1.22,0.27,1.83,0.62,1.83,1.05c0,0.45-0.39,0.79-1.16,1.03c-1.22-0.34-2.22-0.55-2.99-0.63c0.04,0.47,0.06,0.94,0.06,1.41
			l-0.17,4.72c0,0.02,0.04,0.19,0.12,0.51l1.41-0.05c1.27,0,1.91,0.3,1.91,0.9c0,0.24-0.12,0.44-0.35,0.62
			c-0.23,0.18-0.52,0.26-0.88,0.26c-0.35,0-0.74-0.02-1.15-0.06h-1c0.08,0.84,0.12,1.67,0.12,2.49l-0.17,5.96
			c0,1.23,0.03,1.85,0.08,1.85l2.91-0.08c1,0,1.5,0.27,1.5,0.8c0,0.33-0.17,0.57-0.52,0.72c-0.35,0.15-0.74,0.22-1.18,0.22h-3.34
			c-0.35,0-0.66-0.1-0.94-0.3c-0.28-0.2-0.43-0.44-0.44-0.72v-0.87l-0.25-5.56L139.06,105.65z"/>
	</g>
	<g>
		<path d="M103.9,45.01c-5.34-4.18-7.71-10.48-6.39-17.08c0.62-3.1,1.75-6.08,1.84-9.27c0.11-4.08-1.87-7.86-3.93-11.25
			c-0.33-0.54-2.59-1.01-2.12-0.22c2.39,3.92,4.22,8.01,3.62,12.68c-0.46,3.55-1.81,6.92-2.18,10.5
			c-0.58,5.58,3.06,11.38,7.33,14.72C102.54,45.46,104.87,45.77,103.9,45.01L103.9,45.01z"/>
	</g>
	<g>
		<path d="M120.85,39.15c-5.34-4.18-7.71-10.48-6.39-17.08c0.62-3.1,1.75-6.08,1.84-9.27c0.11-4.08-1.87-7.86-3.93-11.25
			c-0.33-0.54-2.59-1.01-2.12-0.22c2.39,3.92,4.22,8.01,3.62,12.68c-0.46,3.56-1.81,6.92-2.18,10.5
			c-0.58,5.58,3.06,11.38,7.33,14.72C119.49,39.6,121.82,39.91,120.85,39.15L120.85,39.15z"/>
	</g>
	<g>
		<path d="M139.27,46.48c-5.34-4.18-7.71-10.47-6.39-17.08c0.62-3.1,1.75-6.08,1.83-9.27c0.11-4.08-1.87-7.86-3.93-11.25
			c-0.33-0.54-2.59-1.01-2.12-0.22c2.39,3.93,4.22,8.01,3.62,12.69c-0.46,3.56-1.81,6.92-2.18,10.5
			c-0.58,5.58,3.06,11.37,7.33,14.72C137.91,46.93,140.24,47.24,139.27,46.48L139.27,46.48z"/>
	</g>
</g>
</svg>
