<?xml version="1.0" encoding="utf-8"?>
<!-- Generator: Adobe Illustrator 23.1.1, SVG Export Plug-In . SVG Version: 6.00 Build 0)  -->
<svg version="1.1" id="レイヤー_1" xmlns="http://www.w3.org/2000/svg" xmlns:xlink="http://www.w3.org/1999/xlink" x="0px"
	 y="0px" viewBox="0 0 989.72 22.56" style="enable-background:new 0 0 989.72 22.56;" xml:space="preserve">
<style type="text/css">
	.st0{fill-rule:evenodd;clip-rule:evenodd;}
</style>
<g>
	<g>
		<path class="st0" d="M30.17,11.48c-1.17,0.69-2.53-0.13-3.45,0.98c-0.69,0.84-0.07,1.88-0.57,2.83c-0.14-0.07-0.28,0.04-0.41,0
			c-0.82-0.88,0.62-2.38-0.57-3.14c-0.39-0.25-0.89-0.03-1.39,0.05c-0.56-0.43-1.36,0.37-1.75-0.41c1.1-1.04,2.43,0.4,3.35-0.57
			c0.28-0.3,0.09-0.58,0.15-1.08c0.02-0.16,0.19-0.28,0.21-0.41c0.08-0.67-0.15-1.49,0.41-1.96c0.55,0.24,0.27,1.1,0.1,1.65
			c0.33,0.62-0.11,1.23,0.41,1.75C27.35,11.85,29.77,10.34,30.17,11.48z"/>
		<path class="st0" d="M17.16,3.22c-0.27,3.08-4.5,5.31-3.2,8.99c0.91,2.58,5.57,3.17,4.99,6.19c-3.16-0.56-3.81-3.65-6.39-4.79
			c-5.26-1.43-4.81,6.24-8.59,5.6c0.64-2.88,3.82-3.72,4-6.6c0.26-4.19-6.04-5.14-5.4-9.19C5.7,4.31,6.79,8.61,9.97,9.02
			c3.34,0.43,4.41-3.59,6.19-5.79C16.5,3.22,16.83,3.22,17.16,3.22z"/>
		<path class="st0" d="M39.88,11.23c-1.53-0.23-2.53-2.4-4.4-1.85c-1.32,0.38-1.74,2.69-3.23,2.32c0.37-1.56,1.93-1.8,2.57-3.05
			c0.87-2.59-2.98-2.58-2.55-4.45c1.42,0.4,1.75,2.01,3.18,2.18c2.08,0.25,2.74-2.87,4.74-2.43c-0.53,1.54-2.71,1.96-3,3.53
			c-0.31,1.66,1.67,2.3,2.72,3.26C39.9,10.9,39.9,11.07,39.88,11.23z"/>
		<path class="st0" d="M60.08,3.22c-0.27,3.08-4.5,5.31-3.2,8.99c0.91,2.58,5.58,3.17,5,6.19c-3.16-0.56-3.81-3.65-6.39-4.79
			c-5.26-1.43-4.81,6.24-8.59,5.6c0.64-2.88,3.82-3.72,4-6.6c0.26-4.19-6.04-5.14-5.4-9.19c3.13,0.89,4.22,5.19,7.39,5.59
			c3.34,0.43,4.41-3.59,6.2-5.79C59.42,3.22,59.75,3.22,60.08,3.22z"/>
		<path class="st0" d="M73.75,11.48c-1.17,0.69-2.53-0.13-3.45,0.98c-0.69,0.84-0.08,1.88-0.57,2.83c-0.14-0.07-0.27,0.04-0.41,0
			c-0.82-0.88,0.62-2.38-0.57-3.14c-0.39-0.25-0.89-0.03-1.39,0.05c-0.56-0.43-1.36,0.37-1.75-0.41c1.1-1.04,2.44,0.4,3.35-0.57
			c0.28-0.3,0.09-0.58,0.16-1.08c0.02-0.16,0.19-0.28,0.21-0.41c0.08-0.67-0.15-1.49,0.41-1.96c0.55,0.24,0.27,1.1,0.1,1.65
			c0.33,0.62-0.11,1.23,0.41,1.75C70.93,11.85,73.35,10.34,73.75,11.48z"/>
		<path class="st0" d="M83.47,11.23c-1.53-0.23-2.53-2.4-4.4-1.85c-1.31,0.38-1.74,2.69-3.23,2.32c0.37-1.56,1.93-1.8,2.58-3.05
			c0.87-2.59-2.98-2.58-2.55-4.45c1.42,0.4,1.75,2.01,3.18,2.18c2.09,0.25,2.74-2.87,4.74-2.43c-0.53,1.54-2.71,1.96-3,3.53
			c-0.31,1.66,1.67,2.3,2.72,3.26C83.49,10.9,83.48,11.07,83.47,11.23z"/>
		<path class="st0" d="M103.67,3.22c-0.27,3.08-4.5,5.31-3.2,8.99c0.91,2.58,5.57,3.17,5,6.19c-3.17-0.56-3.81-3.65-6.39-4.79
			c-5.26-1.43-4.8,6.24-8.59,5.6c0.64-2.88,3.82-3.72,4-6.6c0.26-4.19-6.04-5.14-5.39-9.19c3.13,0.89,4.22,5.19,7.39,5.59
			c3.34,0.43,4.41-3.59,6.2-5.79C103,3.22,103.33,3.22,103.67,3.22z"/>
		<path class="st0" d="M117.34,11.48c-1.17,0.69-2.54-0.13-3.45,0.98c-0.69,0.84-0.08,1.88-0.57,2.83c-0.14-0.07-0.28,0.04-0.41,0
			c-0.82-0.88,0.62-2.38-0.57-3.14c-0.39-0.25-0.89-0.03-1.39,0.05c-0.56-0.43-1.36,0.37-1.75-0.41c1.1-1.04,2.44,0.4,3.35-0.57
			c0.28-0.3,0.09-0.58,0.16-1.08c0.02-0.16,0.19-0.28,0.21-0.41c0.08-0.67-0.15-1.49,0.41-1.96c0.55,0.24,0.27,1.1,0.1,1.65
			c0.33,0.62-0.11,1.23,0.41,1.75C114.51,11.85,116.93,10.34,117.34,11.48z"/>
		<path class="st0" d="M127.05,11.23c-1.53-0.23-2.52-2.4-4.4-1.85c-1.32,0.38-1.74,2.69-3.23,2.32c0.37-1.56,1.93-1.8,2.58-3.05
			c0.87-2.59-2.98-2.58-2.55-4.45c1.42,0.4,1.75,2.01,3.18,2.18c2.09,0.25,2.74-2.87,4.74-2.43c-0.53,1.54-2.71,1.96-3,3.53
			c-0.31,1.66,1.67,2.3,2.72,3.26C127.07,10.9,127.06,11.07,127.05,11.23z"/>
		<path class="st0" d="M147.25,3.22c-0.27,3.08-4.5,5.31-3.2,8.99c0.91,2.58,5.58,3.17,5,6.19c-3.17-0.56-3.81-3.65-6.39-4.79
			c-5.26-1.43-4.81,6.24-8.59,5.6c0.64-2.88,3.82-3.72,4-6.6c0.26-4.19-6.04-5.14-5.39-9.19c3.13,0.89,4.22,5.19,7.39,5.59
			c3.34,0.43,4.41-3.59,6.19-5.79C146.58,3.22,146.91,3.22,147.25,3.22z"/>
		<path class="st0" d="M160.92,11.48c-1.17,0.69-2.54-0.13-3.45,0.98c-0.69,0.84-0.08,1.88-0.57,2.83c-0.14-0.07-0.27,0.04-0.41,0
			c-0.82-0.88,0.62-2.38-0.57-3.14c-0.39-0.25-0.89-0.03-1.39,0.05c-0.56-0.43-1.36,0.37-1.75-0.41c1.1-1.04,2.44,0.4,3.35-0.57
			c0.28-0.3,0.09-0.58,0.16-1.08c0.02-0.16,0.19-0.28,0.21-0.41c0.08-0.67-0.15-1.49,0.41-1.96c0.55,0.24,0.27,1.1,0.1,1.65
			c0.33,0.62-0.11,1.23,0.41,1.75C158.09,11.85,160.51,10.34,160.92,11.48z"/>
		<path class="st0" d="M170.63,11.23c-1.53-0.23-2.52-2.4-4.4-1.85c-1.32,0.38-1.74,2.69-3.24,2.32c0.37-1.56,1.93-1.8,2.58-3.05
			c0.87-2.59-2.98-2.58-2.55-4.45c1.42,0.4,1.75,2.01,3.18,2.18c2.09,0.25,2.74-2.87,4.74-2.43c-0.53,1.54-2.71,1.96-3,3.53
			c-0.31,1.66,1.67,2.3,2.72,3.26C170.65,10.9,170.64,11.07,170.63,11.23z"/>
		<path class="st0" d="M190.83,3.22c-0.27,3.08-4.5,5.31-3.2,8.99c0.91,2.58,5.58,3.17,5,6.19c-3.17-0.56-3.81-3.65-6.39-4.79
			c-5.26-1.43-4.81,6.24-8.59,5.6c0.64-2.88,3.82-3.72,4-6.6c0.26-4.19-6.04-5.14-5.4-9.19c3.13,0.89,4.22,5.19,7.39,5.59
			c3.34,0.43,4.41-3.59,6.19-5.79C190.17,3.22,190.5,3.22,190.83,3.22z"/>
		<path class="st0" d="M204.5,11.48c-1.17,0.69-2.54-0.13-3.45,0.98c-0.69,0.84-0.07,1.88-0.57,2.83c-0.14-0.07-0.28,0.04-0.41,0
			c-0.81-0.88,0.62-2.38-0.56-3.14c-0.39-0.25-0.89-0.03-1.39,0.05c-0.56-0.43-1.36,0.37-1.75-0.41c1.1-1.04,2.44,0.4,3.35-0.57
			c0.28-0.3,0.09-0.58,0.15-1.08c0.02-0.16,0.19-0.28,0.21-0.41c0.08-0.67-0.15-1.49,0.41-1.96c0.55,0.24,0.27,1.1,0.1,1.65
			c0.33,0.62-0.11,1.23,0.41,1.75C201.68,11.85,204.1,10.34,204.5,11.48z"/>
		<path class="st0" d="M214.21,11.23c-1.53-0.23-2.52-2.4-4.39-1.85c-1.32,0.38-1.74,2.69-3.24,2.32c0.37-1.56,1.93-1.8,2.58-3.05
			c0.87-2.59-2.98-2.58-2.55-4.45c1.42,0.4,1.75,2.01,3.18,2.18c2.08,0.25,2.74-2.87,4.74-2.43c-0.53,1.54-2.71,1.96-3,3.53
			c-0.31,1.66,1.67,2.3,2.72,3.26C214.23,10.9,214.22,11.07,214.21,11.23z"/>
		<path class="st0" d="M234.41,3.22c-0.27,3.08-4.5,5.31-3.2,8.99c0.91,2.58,5.57,3.17,5,6.19c-3.16-0.56-3.81-3.65-6.39-4.79
			c-5.26-1.43-4.8,6.24-8.59,5.6c0.64-2.88,3.82-3.72,4-6.6c0.26-4.19-6.03-5.14-5.39-9.19c3.13,0.89,4.22,5.19,7.39,5.59
			c3.34,0.43,4.41-3.59,6.2-5.79C233.75,3.22,234.08,3.22,234.41,3.22z"/>
		<path class="st0" d="M248.08,11.48c-1.17,0.69-2.54-0.13-3.45,0.98c-0.69,0.84-0.07,1.88-0.57,2.83c-0.14-0.07-0.27,0.04-0.41,0
			c-0.81-0.88,0.62-2.38-0.57-3.14c-0.39-0.25-0.89-0.03-1.39,0.05c-0.56-0.43-1.36,0.37-1.75-0.41c1.09-1.04,2.44,0.4,3.35-0.57
			c0.28-0.3,0.09-0.58,0.15-1.08c0.02-0.16,0.19-0.28,0.21-0.41c0.08-0.67-0.15-1.49,0.41-1.96c0.55,0.24,0.27,1.1,0.1,1.65
			c0.34,0.62-0.11,1.23,0.41,1.75C245.26,11.85,247.68,10.34,248.08,11.48z"/>
		<path class="st0" d="M257.8,11.23c-1.53-0.23-2.52-2.4-4.4-1.85c-1.32,0.38-1.74,2.69-3.24,2.32c0.37-1.56,1.93-1.8,2.58-3.05
			c0.87-2.59-2.98-2.58-2.55-4.45c1.42,0.4,1.75,2.01,3.18,2.18c2.09,0.25,2.74-2.87,4.74-2.43c-0.53,1.54-2.71,1.96-3,3.53
			c-0.31,1.66,1.67,2.3,2.72,3.26C257.81,10.9,257.81,11.07,257.8,11.23z"/>
		<path class="st0" d="M278,3.22c-0.27,3.08-4.5,5.31-3.2,8.99c0.91,2.58,5.58,3.17,5,6.19c-3.17-0.56-3.81-3.65-6.39-4.79
			c-5.26-1.43-4.8,6.24-8.59,5.6c0.64-2.88,3.82-3.72,4-6.6c0.26-4.19-6.04-5.14-5.4-9.19c3.13,0.89,4.22,5.19,7.39,5.59
			c3.34,0.43,4.41-3.59,6.19-5.79C277.33,3.22,277.66,3.22,278,3.22z"/>
		<path class="st0" d="M291.66,11.48c-1.16,0.69-2.54-0.13-3.45,0.98c-0.69,0.84-0.07,1.88-0.57,2.83c-0.14-0.07-0.27,0.04-0.41,0
			c-0.82-0.88,0.62-2.38-0.57-3.14c-0.39-0.25-0.89-0.03-1.39,0.05c-0.56-0.43-1.36,0.37-1.75-0.41c1.09-1.04,2.43,0.4,3.35-0.57
			c0.28-0.3,0.09-0.58,0.15-1.08c0.02-0.16,0.19-0.28,0.21-0.41c0.09-0.67-0.15-1.49,0.41-1.96c0.55,0.24,0.27,1.1,0.1,1.65
			c0.34,0.62-0.11,1.23,0.41,1.75C288.84,11.85,291.26,10.34,291.66,11.48z"/>
		<path class="st0" d="M301.38,11.23c-1.53-0.23-2.52-2.4-4.4-1.85c-1.32,0.38-1.74,2.69-3.24,2.32c0.37-1.56,1.93-1.8,2.58-3.05
			c0.87-2.59-2.98-2.58-2.55-4.45c1.42,0.4,1.75,2.01,3.18,2.18c2.09,0.25,2.74-2.87,4.74-2.43c-0.53,1.54-2.71,1.96-3,3.53
			c-0.31,1.66,1.67,2.3,2.72,3.26C301.4,10.9,301.39,11.07,301.38,11.23z"/>
		<path class="st0" d="M321.58,3.22c-0.27,3.08-4.5,5.31-3.2,8.99c0.91,2.58,5.58,3.17,5,6.19c-3.17-0.56-3.81-3.65-6.39-4.79
			c-5.26-1.43-4.8,6.24-8.59,5.6c0.64-2.88,3.82-3.72,4-6.6c0.26-4.19-6.04-5.14-5.4-9.19c3.13,0.89,4.22,5.19,7.39,5.59
			c3.34,0.43,4.41-3.59,6.19-5.79C320.91,3.22,321.24,3.22,321.58,3.22z"/>
		<path class="st0" d="M335.25,11.48c-1.17,0.69-2.53-0.13-3.45,0.98c-0.69,0.84-0.07,1.88-0.57,2.83c-0.14-0.07-0.27,0.04-0.41,0
			c-0.82-0.88,0.62-2.38-0.57-3.14c-0.39-0.25-0.89-0.03-1.39,0.05c-0.56-0.43-1.36,0.37-1.75-0.41c1.1-1.04,2.43,0.4,3.35-0.57
			c0.28-0.3,0.09-0.58,0.15-1.08c0.02-0.16,0.19-0.28,0.21-0.41c0.08-0.67-0.15-1.49,0.41-1.96c0.55,0.24,0.27,1.1,0.1,1.65
			c0.34,0.62-0.11,1.23,0.41,1.75C332.43,11.85,334.85,10.34,335.25,11.48z"/>
		<path class="st0" d="M344.96,11.23c-1.53-0.23-2.52-2.4-4.4-1.85c-1.32,0.38-1.74,2.69-3.24,2.32c0.37-1.56,1.93-1.8,2.58-3.05
			c0.87-2.59-2.98-2.58-2.55-4.45c1.42,0.4,1.75,2.01,3.18,2.18c2.09,0.25,2.74-2.87,4.74-2.43c-0.53,1.54-2.71,1.96-3,3.53
			c-0.31,1.66,1.67,2.3,2.72,3.26C344.98,10.9,344.97,11.07,344.96,11.23z"/>
		<path class="st0" d="M365.16,3.22c-0.27,3.08-4.5,5.31-3.2,8.99c0.91,2.58,5.57,3.17,5,6.19c-3.17-0.56-3.81-3.65-6.39-4.79
			c-5.26-1.43-4.81,6.24-8.59,5.6c0.64-2.88,3.82-3.72,4-6.6c0.26-4.19-6.03-5.14-5.39-9.19c3.13,0.89,4.22,5.19,7.39,5.59
			c3.34,0.43,4.41-3.59,6.19-5.79C364.5,3.22,364.83,3.22,365.16,3.22z"/>
	</g>
	<g>
		<path class="st0" d="M383.43,11.48c-1.17,0.69-2.54-0.13-3.45,0.98c-0.69,0.84-0.07,1.88-0.57,2.83c-0.14-0.07-0.28,0.04-0.41,0
			c-0.82-0.88,0.62-2.38-0.57-3.14c-0.39-0.25-0.89-0.03-1.39,0.05c-0.56-0.43-1.36,0.37-1.75-0.41c1.1-1.04,2.43,0.4,3.35-0.57
			c0.29-0.3,0.09-0.58,0.15-1.08c0.02-0.16,0.19-0.28,0.21-0.41c0.08-0.67-0.16-1.49,0.41-1.96c0.55,0.24,0.27,1.1,0.1,1.65
			c0.33,0.62-0.11,1.23,0.41,1.75C380.61,11.85,383.03,10.34,383.43,11.48z"/>
		<path class="st0" d="M393.14,11.23c-1.53-0.23-2.53-2.4-4.4-1.85c-1.32,0.38-1.74,2.69-3.23,2.32c0.37-1.56,1.93-1.8,2.57-3.05
			c0.87-2.59-2.98-2.58-2.55-4.45c1.42,0.4,1.75,2.01,3.18,2.18c2.08,0.25,2.74-2.87,4.74-2.43c-0.53,1.54-2.71,1.96-3,3.53
			c-0.31,1.66,1.67,2.3,2.72,3.26C393.16,10.9,393.15,11.07,393.14,11.23z"/>
		<path class="st0" d="M413.34,3.22c-0.27,3.08-4.5,5.31-3.2,8.99c0.91,2.58,5.57,3.17,4.99,6.19c-3.16-0.56-3.81-3.65-6.39-4.79
			c-5.26-1.43-4.81,6.24-8.59,5.6c0.64-2.88,3.82-3.72,4-6.6c0.26-4.19-6.04-5.14-5.4-9.19c3.13,0.89,4.22,5.19,7.39,5.59
			c3.33,0.43,4.41-3.59,6.19-5.79C412.68,3.22,413.01,3.22,413.34,3.22z"/>
		<path class="st0" d="M427.01,11.48c-1.17,0.69-2.53-0.13-3.45,0.98c-0.69,0.84-0.08,1.88-0.57,2.83c-0.14-0.07-0.27,0.04-0.41,0
			c-0.82-0.88,0.62-2.38-0.57-3.14c-0.39-0.25-0.89-0.03-1.39,0.05c-0.56-0.43-1.36,0.37-1.75-0.41c1.1-1.04,2.44,0.4,3.35-0.57
			c0.28-0.3,0.09-0.58,0.15-1.08c0.02-0.16,0.19-0.28,0.21-0.41c0.08-0.67-0.16-1.49,0.41-1.96c0.55,0.24,0.27,1.1,0.1,1.65
			c0.33,0.62-0.11,1.23,0.41,1.75C424.19,11.85,426.61,10.34,427.01,11.48z"/>
		<path class="st0" d="M436.73,11.23c-1.53-0.23-2.53-2.4-4.4-1.85c-1.32,0.38-1.74,2.69-3.23,2.32c0.37-1.56,1.93-1.8,2.58-3.05
			c0.87-2.59-2.98-2.58-2.55-4.45c1.42,0.4,1.75,2.01,3.18,2.18c2.09,0.25,2.74-2.87,4.74-2.43c-0.53,1.54-2.71,1.96-3,3.53
			c-0.31,1.66,1.67,2.3,2.71,3.26C436.75,10.9,436.74,11.07,436.73,11.23z"/>
		<path class="st0" d="M456.93,3.22c-0.27,3.08-4.5,5.31-3.2,8.99c0.91,2.58,5.57,3.17,5,6.19c-3.17-0.56-3.81-3.65-6.4-4.79
			c-5.26-1.43-4.8,6.24-8.59,5.6c0.64-2.88,3.82-3.72,4-6.6c0.26-4.19-6.04-5.14-5.4-9.19c3.13,0.89,4.22,5.19,7.39,5.59
			c3.34,0.43,4.41-3.59,6.2-5.79C456.26,3.22,456.59,3.22,456.93,3.22z"/>
		<path class="st0" d="M470.59,11.48c-1.17,0.69-2.54-0.13-3.45,0.98c-0.69,0.84-0.08,1.88-0.57,2.83c-0.14-0.07-0.28,0.04-0.41,0
			c-0.82-0.88,0.62-2.38-0.57-3.14c-0.39-0.25-0.89-0.03-1.39,0.05c-0.56-0.43-1.36,0.37-1.75-0.41c1.1-1.04,2.43,0.4,3.35-0.57
			c0.28-0.3,0.09-0.58,0.15-1.08c0.02-0.16,0.19-0.28,0.21-0.41c0.08-0.67-0.16-1.49,0.41-1.96c0.55,0.24,0.27,1.1,0.1,1.65
			c0.33,0.62-0.11,1.23,0.41,1.75C467.77,11.85,470.19,10.34,470.59,11.48z"/>
		<path class="st0" d="M480.31,11.23c-1.53-0.23-2.52-2.4-4.4-1.85c-1.32,0.38-1.74,2.69-3.23,2.32c0.37-1.56,1.93-1.8,2.58-3.05
			c0.87-2.59-2.98-2.58-2.55-4.45c1.42,0.4,1.75,2.01,3.18,2.18c2.09,0.25,2.74-2.87,4.74-2.43c-0.53,1.54-2.71,1.96-3,3.53
			c-0.31,1.66,1.67,2.3,2.71,3.26C480.33,10.9,480.32,11.07,480.31,11.23z"/>
		<path class="st0" d="M500.51,3.22c-0.27,3.08-4.5,5.31-3.2,8.99c0.91,2.58,5.58,3.17,5,6.19c-3.17-0.56-3.81-3.65-6.39-4.79
			c-5.26-1.43-4.8,6.24-8.59,5.6c0.64-2.88,3.82-3.72,4-6.6c0.26-4.19-6.04-5.14-5.4-9.19c3.13,0.89,4.22,5.19,7.39,5.59
			c3.34,0.43,4.41-3.59,6.19-5.79C499.84,3.22,500.17,3.22,500.51,3.22z"/>
		<path class="st0" d="M514.18,11.48c-1.17,0.69-2.54-0.13-3.45,0.98c-0.69,0.84-0.08,1.88-0.57,2.83c-0.14-0.07-0.27,0.04-0.41,0
			c-0.82-0.88,0.62-2.38-0.57-3.14c-0.39-0.25-0.89-0.03-1.39,0.05c-0.56-0.43-1.36,0.37-1.75-0.41c1.1-1.04,2.43,0.4,3.35-0.57
			c0.28-0.3,0.09-0.58,0.16-1.08c0.02-0.16,0.19-0.28,0.21-0.41c0.08-0.67-0.16-1.49,0.41-1.96c0.55,0.24,0.27,1.1,0.1,1.65
			c0.33,0.62-0.11,1.23,0.41,1.75C511.35,11.85,513.77,10.34,514.18,11.48z"/>
		<path class="st0" d="M523.89,11.23c-1.53-0.23-2.52-2.4-4.4-1.85c-1.32,0.38-1.74,2.69-3.24,2.32c0.37-1.56,1.93-1.8,2.58-3.05
			c0.86-2.59-2.98-2.58-2.55-4.45c1.42,0.4,1.75,2.01,3.18,2.18c2.09,0.25,2.74-2.87,4.74-2.43c-0.53,1.54-2.71,1.96-3,3.53
			c-0.31,1.66,1.67,2.3,2.72,3.26C523.91,10.9,523.9,11.07,523.89,11.23z"/>
		<path class="st0" d="M544.09,3.22c-0.27,3.08-4.5,5.31-3.2,8.99c0.91,2.58,5.57,3.17,5,6.19c-3.17-0.56-3.81-3.65-6.39-4.79
			c-5.26-1.43-4.81,6.24-8.59,5.6c0.64-2.88,3.82-3.72,4-6.6c0.26-4.19-6.04-5.14-5.4-9.19c3.13,0.89,4.22,5.19,7.39,5.59
			c3.34,0.43,4.41-3.59,6.19-5.79C543.42,3.22,543.75,3.22,544.09,3.22z"/>
		<path class="st0" d="M557.76,11.48c-1.17,0.69-2.54-0.13-3.45,0.98c-0.69,0.84-0.07,1.88-0.57,2.83c-0.14-0.07-0.28,0.04-0.41,0
			c-0.81-0.88,0.62-2.38-0.56-3.14c-0.39-0.25-0.89-0.03-1.39,0.05c-0.56-0.43-1.36,0.37-1.75-0.41c1.1-1.04,2.44,0.4,3.35-0.57
			c0.28-0.3,0.09-0.58,0.16-1.08c0.02-0.16,0.19-0.28,0.21-0.41c0.08-0.67-0.16-1.49,0.41-1.96c0.55,0.24,0.27,1.1,0.1,1.65
			c0.34,0.62-0.11,1.23,0.41,1.75C554.93,11.85,557.36,10.34,557.76,11.48z"/>
		<path class="st0" d="M567.47,11.23c-1.53-0.23-2.52-2.4-4.39-1.85c-1.32,0.38-1.74,2.69-3.24,2.32c0.37-1.56,1.93-1.8,2.58-3.05
			c0.86-2.59-2.98-2.58-2.55-4.45c1.42,0.4,1.75,2.01,3.18,2.18c2.09,0.25,2.74-2.87,4.74-2.43c-0.53,1.54-2.71,1.96-3,3.53
			c-0.31,1.66,1.67,2.3,2.72,3.26C567.49,10.9,567.48,11.07,567.47,11.23z"/>
		<path class="st0" d="M587.67,3.22c-0.27,3.08-4.5,5.31-3.2,8.99c0.91,2.58,5.58,3.17,5,6.19c-3.17-0.56-3.81-3.65-6.4-4.79
			c-5.26-1.43-4.8,6.24-8.59,5.6c0.64-2.88,3.82-3.72,4-6.6c0.26-4.19-6.03-5.14-5.39-9.19c3.13,0.89,4.22,5.19,7.39,5.59
			c3.34,0.43,4.41-3.59,6.19-5.79C587,3.22,587.34,3.22,587.67,3.22z"/>
		<path class="st0" d="M601.34,11.48c-1.17,0.69-2.54-0.13-3.45,0.98c-0.69,0.84-0.07,1.88-0.57,2.83c-0.14-0.07-0.27,0.04-0.41,0
			c-0.81-0.88,0.62-2.38-0.56-3.14c-0.39-0.25-0.89-0.03-1.39,0.05c-0.56-0.43-1.36,0.37-1.75-0.41c1.09-1.04,2.44,0.4,3.35-0.57
			c0.28-0.3,0.09-0.58,0.15-1.08c0.02-0.16,0.19-0.28,0.21-0.41c0.08-0.67-0.16-1.49,0.41-1.96c0.55,0.24,0.27,1.1,0.1,1.65
			c0.34,0.62-0.11,1.23,0.41,1.75C598.52,11.85,600.94,10.34,601.34,11.48z"/>
		<path class="st0" d="M611.05,11.23c-1.53-0.23-2.52-2.4-4.4-1.85c-1.32,0.38-1.74,2.69-3.24,2.32c0.37-1.56,1.93-1.8,2.58-3.05
			c0.86-2.59-2.98-2.58-2.55-4.45c1.42,0.4,1.75,2.01,3.18,2.18c2.09,0.25,2.74-2.87,4.74-2.43c-0.53,1.54-2.71,1.96-3,3.53
			c-0.31,1.66,1.67,2.3,2.72,3.26C611.07,10.9,611.06,11.07,611.05,11.23z"/>
		<path class="st0" d="M631.25,3.22c-0.27,3.08-4.5,5.31-3.2,8.99c0.91,2.58,5.58,3.17,5,6.19c-3.17-0.56-3.81-3.65-6.4-4.79
			c-5.26-1.43-4.8,6.24-8.59,5.6c0.64-2.88,3.82-3.72,4-6.6c0.26-4.19-6.04-5.14-5.4-9.19c3.13,0.89,4.22,5.19,7.39,5.59
			c3.34,0.43,4.41-3.59,6.19-5.79C630.59,3.22,630.92,3.22,631.25,3.22z"/>
		<path class="st0" d="M644.92,11.48c-1.16,0.69-2.54-0.13-3.45,0.98c-0.69,0.84-0.07,1.88-0.57,2.83c-0.14-0.07-0.27,0.04-0.41,0
			c-0.82-0.88,0.62-2.38-0.57-3.14c-0.39-0.25-0.89-0.03-1.39,0.05c-0.56-0.43-1.36,0.37-1.75-0.41c1.09-1.04,2.43,0.4,3.35-0.57
			c0.28-0.3,0.09-0.58,0.16-1.08c0.02-0.16,0.19-0.28,0.21-0.41c0.08-0.67-0.16-1.49,0.41-1.96c0.55,0.24,0.27,1.1,0.1,1.65
			c0.34,0.62-0.11,1.23,0.41,1.75C642.1,11.85,644.52,10.34,644.92,11.48z"/>
		<path class="st0" d="M654.64,11.23c-1.53-0.23-2.52-2.4-4.4-1.85c-1.32,0.38-1.74,2.69-3.24,2.32c0.37-1.56,1.93-1.8,2.58-3.05
			c0.87-2.59-2.98-2.58-2.55-4.45c1.42,0.4,1.75,2.01,3.18,2.18c2.09,0.25,2.74-2.87,4.74-2.43c-0.53,1.54-2.71,1.96-3,3.53
			c-0.31,1.66,1.67,2.3,2.72,3.26C654.66,10.9,654.65,11.07,654.64,11.23z"/>
		<path class="st0" d="M674.84,3.22c-0.27,3.08-4.5,5.31-3.2,8.99c0.91,2.58,5.58,3.17,5,6.19c-3.17-0.56-3.81-3.65-6.39-4.79
			c-5.26-1.43-4.8,6.24-8.59,5.6c0.64-2.88,3.82-3.72,4-6.6c0.26-4.19-6.04-5.14-5.4-9.19c3.13,0.89,4.22,5.19,7.39,5.59
			c3.34,0.43,4.41-3.59,6.19-5.79C674.17,3.22,674.5,3.22,674.84,3.22z"/>
		<path class="st0" d="M688.5,11.48c-1.17,0.69-2.54-0.13-3.45,0.98c-0.69,0.84-0.07,1.88-0.57,2.83c-0.14-0.07-0.27,0.04-0.41,0
			c-0.82-0.88,0.62-2.38-0.57-3.14c-0.39-0.25-0.89-0.03-1.39,0.05c-0.56-0.43-1.36,0.37-1.75-0.41c1.1-1.04,2.44,0.4,3.35-0.57
			c0.28-0.3,0.09-0.58,0.15-1.08c0.02-0.16,0.19-0.28,0.21-0.41c0.08-0.67-0.15-1.49,0.41-1.96c0.55,0.24,0.27,1.1,0.1,1.65
			c0.33,0.62-0.11,1.23,0.41,1.75C685.68,11.85,688.1,10.34,688.5,11.48z"/>
		<path class="st0" d="M698.22,11.23c-1.53-0.23-2.52-2.4-4.4-1.85c-1.32,0.38-1.74,2.69-3.24,2.32c0.37-1.56,1.93-1.8,2.58-3.05
			c0.87-2.59-2.98-2.58-2.55-4.45c1.42,0.4,1.75,2.01,3.18,2.18c2.08,0.25,2.74-2.87,4.74-2.43c-0.53,1.54-2.71,1.96-3,3.53
			c-0.31,1.66,1.67,2.3,2.72,3.26C698.24,10.9,698.23,11.07,698.22,11.23z"/>
		<path class="st0" d="M718.42,3.22c-0.27,3.08-4.5,5.31-3.2,8.99c0.91,2.58,5.57,3.17,5,6.19c-3.16-0.56-3.81-3.65-6.39-4.79
			c-5.26-1.43-4.81,6.24-8.59,5.6c0.64-2.88,3.82-3.72,4-6.6c0.26-4.19-6.03-5.14-5.39-9.19c3.13,0.89,4.22,5.19,7.39,5.59
			c3.34,0.43,4.41-3.59,6.19-5.79C717.75,3.22,718.08,3.22,718.42,3.22z"/>
	</g>
	<g>
		<path class="st0" d="M737.85,11.48c-1.17,0.69-2.54-0.13-3.45,0.98c-0.69,0.84-0.07,1.88-0.57,2.83c-0.14-0.07-0.28,0.04-0.41,0
			c-0.82-0.88,0.62-2.38-0.57-3.14c-0.39-0.25-0.89-0.03-1.39,0.05c-0.56-0.43-1.36,0.37-1.75-0.41c1.1-1.04,2.43,0.4,3.35-0.57
			c0.29-0.3,0.09-0.58,0.15-1.08c0.02-0.16,0.19-0.28,0.21-0.41c0.08-0.67-0.16-1.49,0.41-1.96c0.55,0.24,0.27,1.1,0.1,1.65
			c0.33,0.62-0.11,1.23,0.41,1.75C735.02,11.85,737.44,10.34,737.85,11.48z"/>
		<path class="st0" d="M747.56,11.23c-1.53-0.23-2.53-2.4-4.4-1.85c-1.32,0.38-1.74,2.69-3.23,2.32c0.37-1.56,1.93-1.8,2.57-3.05
			c0.87-2.59-2.98-2.58-2.55-4.45c1.42,0.4,1.75,2.01,3.18,2.18c2.09,0.25,2.74-2.87,4.74-2.43c-0.53,1.54-2.71,1.96-3,3.53
			c-0.31,1.66,1.67,2.3,2.72,3.26C747.58,10.9,747.57,11.07,747.56,11.23z"/>
		<path class="st0" d="M767.76,3.22c-0.27,3.08-4.5,5.31-3.2,8.99c0.91,2.58,5.57,3.17,4.99,6.19c-3.16-0.56-3.81-3.65-6.39-4.79
			c-5.26-1.43-4.81,6.24-8.59,5.6c0.64-2.88,3.82-3.72,4-6.6c0.26-4.19-6.04-5.14-5.4-9.19c3.13,0.89,4.22,5.19,7.39,5.59
			c3.33,0.43,4.41-3.59,6.19-5.79C767.09,3.22,767.42,3.22,767.76,3.22z"/>
		<path class="st0" d="M781.43,11.48c-1.17,0.69-2.53-0.13-3.45,0.98c-0.69,0.84-0.08,1.88-0.57,2.83c-0.14-0.07-0.27,0.04-0.41,0
			c-0.82-0.88,0.62-2.38-0.57-3.14c-0.39-0.25-0.89-0.03-1.39,0.05c-0.56-0.43-1.36,0.37-1.75-0.41c1.1-1.04,2.44,0.4,3.35-0.57
			c0.28-0.3,0.09-0.58,0.15-1.08c0.02-0.16,0.19-0.28,0.21-0.41c0.08-0.67-0.16-1.49,0.41-1.96c0.55,0.24,0.27,1.1,0.1,1.65
			c0.33,0.62-0.11,1.23,0.41,1.75C778.6,11.85,781.03,10.34,781.43,11.48z"/>
		<path class="st0" d="M791.14,11.23c-1.53-0.23-2.53-2.4-4.4-1.85c-1.32,0.38-1.74,2.69-3.23,2.32c0.37-1.56,1.93-1.8,2.58-3.05
			c0.87-2.59-2.98-2.58-2.55-4.45c1.42,0.4,1.75,2.01,3.18,2.18c2.09,0.25,2.74-2.87,4.74-2.43c-0.53,1.54-2.71,1.96-3,3.53
			c-0.31,1.66,1.67,2.3,2.71,3.26C791.16,10.9,791.15,11.07,791.14,11.23z"/>
		<path class="st0" d="M811.34,3.22c-0.27,3.08-4.5,5.31-3.2,8.99c0.91,2.58,5.57,3.17,5,6.19c-3.17-0.56-3.81-3.65-6.4-4.79
			c-5.26-1.43-4.8,6.24-8.59,5.6c0.64-2.88,3.82-3.72,4-6.6c0.26-4.19-6.04-5.14-5.4-9.19c3.13,0.89,4.22,5.19,7.39,5.59
			c3.34,0.43,4.41-3.59,6.2-5.79C810.67,3.22,811.01,3.22,811.34,3.22z"/>
		<path class="st0" d="M825.01,11.48c-1.17,0.69-2.54-0.13-3.45,0.98c-0.69,0.84-0.08,1.88-0.57,2.83c-0.14-0.07-0.28,0.04-0.41,0
			c-0.82-0.88,0.62-2.38-0.57-3.14c-0.39-0.25-0.89-0.03-1.39,0.05c-0.56-0.43-1.36,0.37-1.75-0.41c1.1-1.04,2.43,0.4,3.35-0.57
			c0.28-0.3,0.09-0.58,0.15-1.08c0.02-0.16,0.19-0.28,0.21-0.41c0.08-0.67-0.16-1.49,0.41-1.96c0.55,0.24,0.27,1.1,0.1,1.65
			c0.33,0.62-0.11,1.23,0.41,1.75C822.19,11.85,824.61,10.34,825.01,11.48z"/>
		<path class="st0" d="M834.72,11.23c-1.53-0.23-2.52-2.4-4.4-1.85c-1.32,0.38-1.74,2.69-3.23,2.32c0.37-1.56,1.93-1.8,2.58-3.05
			c0.87-2.59-2.98-2.58-2.55-4.45c1.42,0.4,1.75,2.01,3.18,2.18c2.09,0.25,2.74-2.87,4.74-2.43c-0.53,1.54-2.71,1.96-3,3.53
			c-0.31,1.66,1.67,2.3,2.71,3.26C834.74,10.9,834.73,11.07,834.72,11.23z"/>
		<path class="st0" d="M854.92,3.22c-0.27,3.08-4.5,5.31-3.2,8.99c0.91,2.58,5.58,3.17,5,6.19c-3.17-0.56-3.81-3.65-6.39-4.79
			c-5.26-1.43-4.81,6.24-8.59,5.6c0.64-2.88,3.82-3.72,4-6.6c0.26-4.19-6.04-5.14-5.4-9.19c3.13,0.89,4.22,5.19,7.39,5.59
			c3.34,0.43,4.41-3.59,6.19-5.79C854.26,3.22,854.59,3.22,854.92,3.22z"/>
		<path class="st0" d="M868.59,11.48c-1.17,0.69-2.54-0.13-3.45,0.98c-0.69,0.84-0.08,1.88-0.57,2.83c-0.14-0.07-0.27,0.04-0.41,0
			c-0.82-0.88,0.62-2.38-0.57-3.14c-0.39-0.25-0.89-0.03-1.39,0.05c-0.56-0.43-1.36,0.37-1.75-0.41c1.1-1.04,2.43,0.4,3.35-0.57
			c0.28-0.3,0.09-0.58,0.16-1.08c0.02-0.16,0.19-0.28,0.21-0.41c0.08-0.67-0.16-1.49,0.41-1.96c0.55,0.24,0.27,1.1,0.1,1.65
			c0.33,0.62-0.11,1.23,0.41,1.75C865.77,11.85,868.19,10.34,868.59,11.48z"/>
		<path class="st0" d="M878.3,11.23c-1.53-0.23-2.52-2.4-4.4-1.85c-1.32,0.38-1.74,2.69-3.24,2.32c0.37-1.56,1.93-1.8,2.58-3.05
			c0.86-2.59-2.98-2.58-2.55-4.45c1.42,0.4,1.75,2.01,3.18,2.18c2.09,0.25,2.74-2.87,4.74-2.43c-0.53,1.54-2.71,1.96-3,3.53
			c-0.31,1.66,1.67,2.3,2.72,3.26C878.32,10.9,878.32,11.07,878.3,11.23z"/>
		<path class="st0" d="M898.5,3.22c-0.27,3.08-4.5,5.31-3.2,8.99c0.91,2.58,5.57,3.17,5,6.19c-3.17-0.56-3.81-3.65-6.39-4.79
			c-5.26-1.43-4.81,6.24-8.59,5.6c0.64-2.88,3.82-3.72,4-6.6c0.26-4.19-6.04-5.14-5.4-9.19c3.13,0.89,4.22,5.19,7.39,5.59
			c3.34,0.43,4.41-3.59,6.19-5.79C897.84,3.22,898.17,3.22,898.5,3.22z"/>
		<path class="st0" d="M912.17,11.48c-1.17,0.69-2.54-0.13-3.45,0.98c-0.69,0.84-0.07,1.88-0.57,2.83c-0.14-0.07-0.28,0.04-0.41,0
			c-0.81-0.88,0.62-2.38-0.56-3.14c-0.39-0.25-0.89-0.03-1.39,0.05c-0.56-0.43-1.36,0.37-1.75-0.41c1.1-1.04,2.44,0.4,3.35-0.57
			c0.28-0.3,0.09-0.58,0.16-1.08c0.02-0.16,0.19-0.28,0.2-0.41c0.08-0.67-0.16-1.49,0.41-1.96c0.55,0.24,0.27,1.1,0.1,1.65
			c0.34,0.62-0.11,1.23,0.41,1.75C909.35,11.85,911.77,10.34,912.17,11.48z"/>
		<path class="st0" d="M921.89,11.23c-1.53-0.23-2.52-2.4-4.39-1.85c-1.32,0.38-1.74,2.69-3.24,2.32c0.37-1.56,1.93-1.8,2.58-3.05
			c0.86-2.59-2.98-2.58-2.55-4.45c1.42,0.4,1.75,2.01,3.18,2.18c2.09,0.25,2.74-2.87,4.74-2.43c-0.53,1.54-2.71,1.96-3,3.53
			c-0.31,1.66,1.67,2.3,2.72,3.26C921.91,10.9,921.9,11.07,921.89,11.23z"/>
		<path class="st0" d="M942.09,3.22c-0.27,3.08-4.5,5.31-3.2,8.99c0.91,2.58,5.58,3.17,5,6.19c-3.16-0.56-3.81-3.65-6.4-4.79
			c-5.26-1.43-4.8,6.24-8.59,5.6c0.64-2.88,3.82-3.72,4-6.6c0.26-4.19-6.03-5.14-5.39-9.19c3.13,0.89,4.22,5.19,7.39,5.59
			c3.34,0.43,4.41-3.59,6.19-5.79C941.42,3.22,941.75,3.22,942.09,3.22z"/>
		<path class="st0" d="M955.76,11.48c-1.17,0.69-2.54-0.13-3.45,0.98c-0.69,0.84-0.07,1.88-0.57,2.83c-0.14-0.07-0.27,0.04-0.41,0
			c-0.81-0.88,0.62-2.38-0.56-3.14c-0.39-0.25-0.89-0.03-1.39,0.05c-0.56-0.43-1.36,0.37-1.75-0.41c1.09-1.04,2.44,0.4,3.35-0.57
			c0.28-0.3,0.09-0.58,0.15-1.08c0.02-0.16,0.19-0.28,0.21-0.41c0.08-0.67-0.16-1.49,0.41-1.96c0.55,0.24,0.27,1.1,0.1,1.65
			c0.34,0.62-0.11,1.23,0.41,1.75C952.93,11.85,955.35,10.34,955.76,11.48z"/>
		<path class="st0" d="M965.47,11.23c-1.53-0.23-2.52-2.4-4.4-1.85c-1.32,0.38-1.74,2.69-3.24,2.32c0.37-1.56,1.93-1.8,2.58-3.05
			c0.86-2.59-2.98-2.58-2.55-4.45c1.42,0.4,1.75,2.01,3.18,2.18c2.09,0.25,2.74-2.87,4.74-2.43c-0.53,1.54-2.71,1.96-3,3.53
			c-0.31,1.66,1.67,2.3,2.72,3.26C965.49,10.9,965.48,11.07,965.47,11.23z"/>
		<path class="st0" d="M985.67,3.22c-0.27,3.08-4.5,5.31-3.2,8.99c0.91,2.58,5.58,3.17,5,6.19c-3.17-0.56-3.81-3.65-6.4-4.79
			c-5.26-1.43-4.8,6.24-8.59,5.6c0.64-2.88,3.82-3.72,4-6.6c0.26-4.19-6.04-5.14-5.4-9.19c3.13,0.89,4.22,5.19,7.39,5.59
			c3.34,0.43,4.41-3.59,6.19-5.79C985,3.22,985.33,3.22,985.67,3.22z"/>
	</g>
</g>
</svg>
