<?xml version="1.0" encoding="utf-8"?>
<!-- Generator: Adobe Illustrator 23.1.1, SVG Export Plug-In . SVG Version: 6.00 Build 0)  -->
<svg version="1.1" id="レイヤー_1" xmlns="http://www.w3.org/2000/svg" xmlns:xlink="http://www.w3.org/1999/xlink" x="0px"
	 y="0px" viewBox="0 0 982.27 18.28" style="enable-background:new 0 0 982.27 18.28;" xml:space="preserve">
<style type="text/css">
	.st0{fill-rule:evenodd;clip-rule:evenodd;}
</style>
<g>
	<path class="st0" d="M27.76,4.69c5.11,4.48-2.48,13.04-8.38,9.45c-1.17-0.71-1.98-2.18-2.79-3.01c-1.38-1.42-4.18-3.49-6.87-3.87
		c-2.23-0.31-4.58,0.97-4.51,3.01c0.05,1.56,2.67,3.58,3.65,1.29c0.09-0.88-0.79-0.33-1.5-0.86C6.98,9.97,7.24,9.17,7.57,8.56
		C8.25,7.9,9.46,7.89,9.93,8.34c3.75,3.69-1.29,8.44-5.16,5.59c-3.3-2.43-1.4-7.81,1.93-8.81c2.84-0.85,6.94,0.2,9.24,1.93
		c3.09,2.33,3.61,6.19,7.52,5.59c2.27-0.35,5.71-4.27,2.58-5.8c-0.7,0.75-0.48,2.76-2.36,2.58c-0.87-0.08-1.58-1.29-1.5-2.15
		C22.38,4.9,24.94,3.68,27.76,4.69z"/>
	<path class="st0" d="M31.1,4.69c-5.11,4.48,2.48,13.04,8.38,9.45c1.17-0.71,1.98-2.18,2.79-3.01c1.38-1.42,4.18-3.49,6.87-3.87
		c2.23-0.31,4.58,0.97,4.51,3.01c-0.05,1.56-2.67,3.58-3.65,1.29c-0.09-0.88,0.79-0.33,1.5-0.86c0.38-0.73,0.11-1.54-0.21-2.15
		c-0.68-0.66-1.89-0.67-2.36-0.22c-3.75,3.69,1.28,8.44,5.15,5.59c3.3-2.43,1.4-7.81-1.93-8.81c-2.84-0.85-6.94,0.2-9.24,1.93
		c-3.09,2.33-3.61,6.19-7.52,5.59c-2.27-0.35-5.71-4.27-2.58-5.8c0.7,0.75,0.48,2.76,2.36,2.58c0.87-0.08,1.58-1.29,1.5-2.15
		C36.48,4.9,33.93,3.68,31.1,4.69z"/>
	<path class="st0" d="M28.76,0.53c2.28-0.96,2.73,3.18,0.52,3.13C27.77,3.62,27.29,1.15,28.76,0.53z"/>
	<path class="st0" d="M82.19,4.69c5.11,4.48-2.48,13.04-8.38,9.45c-1.17-0.71-1.98-2.18-2.79-3.01c-1.38-1.42-4.18-3.49-6.88-3.87
		c-2.23-0.31-4.57,0.97-4.51,3.01c0.05,1.56,2.67,3.58,3.65,1.29c0.09-0.88-0.79-0.33-1.5-0.86C61.41,9.97,61.67,9.17,62,8.56
		c0.68-0.66,1.89-0.67,2.36-0.22c3.75,3.69-1.28,8.44-5.16,5.59c-3.29-2.43-1.4-7.81,1.93-8.81c2.84-0.85,6.94,0.2,9.24,1.93
		c3.09,2.33,3.61,6.19,7.52,5.59c2.27-0.35,5.71-4.27,2.58-5.8c-0.7,0.75-0.48,2.76-2.36,2.58c-0.87-0.08-1.58-1.29-1.5-2.15
		C76.81,4.9,79.37,3.68,82.19,4.69z"/>
	<path class="st0" d="M85.53,4.69c-5.11,4.48,2.48,13.04,8.38,9.45c1.17-0.71,1.98-2.18,2.79-3.01c1.38-1.42,4.18-3.49,6.87-3.87
		c2.23-0.31,4.57,0.97,4.51,3.01c-0.05,1.56-2.67,3.58-3.65,1.29c-0.09-0.88,0.79-0.33,1.5-0.86c0.38-0.73,0.11-1.54-0.21-2.15
		c-0.68-0.66-1.89-0.67-2.36-0.22c-3.75,3.69,1.28,8.44,5.16,5.59c3.29-2.43,1.4-7.81-1.94-8.81c-2.84-0.85-6.93,0.2-9.24,1.93
		c-3.09,2.33-3.61,6.19-7.52,5.59c-2.27-0.35-5.71-4.27-2.58-5.8c0.7,0.75,0.48,2.76,2.36,2.58c0.87-0.08,1.58-1.29,1.5-2.15
		C90.91,4.9,88.35,3.68,85.53,4.69z"/>
	<path class="st0" d="M83.19,13.88c2.28-0.96,2.72,3.18,0.52,3.13C82.2,16.98,81.72,14.5,83.19,13.88z"/>
	<path class="st0" d="M136.62,4.69c5.11,4.48-2.48,13.04-8.38,9.45c-1.17-0.71-1.98-2.18-2.79-3.01c-1.38-1.42-4.18-3.49-6.88-3.87
		c-2.23-0.31-4.57,0.97-4.51,3.01c0.05,1.56,2.67,3.58,3.65,1.29c0.09-0.88-0.79-0.33-1.5-0.86c-0.38-0.73-0.11-1.54,0.21-2.15
		c0.68-0.66,1.89-0.67,2.36-0.22c3.75,3.69-1.28,8.44-5.16,5.59c-3.29-2.43-1.4-7.81,1.93-8.81c2.84-0.85,6.94,0.2,9.24,1.93
		c3.09,2.33,3.61,6.19,7.52,5.59c2.27-0.35,5.71-4.27,2.58-5.8c-0.7,0.75-0.48,2.76-2.36,2.58c-0.87-0.08-1.58-1.29-1.5-2.15
		C131.23,4.9,133.8,3.68,136.62,4.69z"/>
	<path class="st0" d="M139.96,4.69c-5.11,4.48,2.48,13.04,8.38,9.45c1.17-0.71,1.98-2.18,2.79-3.01c1.38-1.42,4.18-3.49,6.87-3.87
		c2.23-0.31,4.58,0.97,4.51,3.01c-0.05,1.56-2.67,3.58-3.65,1.29c-0.09-0.88,0.79-0.33,1.5-0.86c0.38-0.73,0.11-1.54-0.21-2.15
		c-0.68-0.66-1.89-0.67-2.36-0.22c-3.75,3.69,1.29,8.44,5.16,5.59c3.3-2.43,1.4-7.81-1.93-8.81c-2.84-0.85-6.94,0.2-9.24,1.93
		c-3.09,2.33-3.61,6.19-7.52,5.59c-2.27-0.35-5.71-4.27-2.58-5.8c0.7,0.75,0.48,2.76,2.36,2.58c0.87-0.08,1.58-1.29,1.5-2.15
		C145.34,4.9,142.78,3.68,139.96,4.69z"/>
	<path class="st0" d="M137.62,0.53c2.28-0.96,2.72,3.18,0.52,3.13C136.63,3.62,136.15,1.15,137.62,0.53z"/>
	<path class="st0" d="M191.04,4.69c5.11,4.48-2.48,13.04-8.38,9.45c-1.17-0.71-1.98-2.18-2.79-3.01c-1.38-1.42-4.18-3.49-6.87-3.87
		c-2.23-0.31-4.57,0.97-4.51,3.01c0.05,1.56,2.67,3.58,3.65,1.29c0.09-0.88-0.79-0.33-1.5-0.86c-0.38-0.73-0.11-1.54,0.22-2.15
		c0.68-0.66,1.89-0.67,2.36-0.22c3.75,3.69-1.28,8.44-5.16,5.59c-3.3-2.43-1.4-7.81,1.93-8.81c2.84-0.85,6.93,0.2,9.24,1.93
		c3.09,2.33,3.61,6.19,7.52,5.59c2.27-0.35,5.71-4.27,2.58-5.8c-0.7,0.75-0.48,2.76-2.36,2.58c-0.87-0.08-1.58-1.29-1.5-2.15
		C185.66,4.9,188.22,3.68,191.04,4.69z"/>
	<path class="st0" d="M194.38,4.69c-5.11,4.48,2.48,13.04,8.38,9.45c1.17-0.71,1.98-2.18,2.79-3.01c1.38-1.42,4.18-3.49,6.88-3.87
		c2.23-0.31,4.57,0.97,4.51,3.01c-0.05,1.56-2.67,3.58-3.65,1.29c-0.09-0.88,0.79-0.33,1.5-0.86c0.38-0.73,0.12-1.54-0.21-2.15
		c-0.68-0.66-1.89-0.67-2.36-0.22c-3.75,3.69,1.28,8.44,5.16,5.59c3.3-2.43,1.4-7.81-1.93-8.81c-2.84-0.85-6.93,0.2-9.24,1.93
		c-3.09,2.33-3.61,6.19-7.52,5.59c-2.27-0.35-5.71-4.27-2.58-5.8c0.7,0.75,0.48,2.76,2.37,2.58c0.87-0.08,1.58-1.29,1.5-2.15
		C199.77,4.9,197.21,3.68,194.38,4.69z"/>
	<path class="st0" d="M192.04,13.88c2.28-0.96,2.73,3.18,0.52,3.13C191.06,16.98,190.57,14.5,192.04,13.88z"/>
	<path class="st0" d="M245.47,4.69c5.11,4.48-2.48,13.04-8.38,9.45c-1.17-0.71-1.98-2.18-2.79-3.01c-1.38-1.42-4.18-3.49-6.88-3.87
		c-2.23-0.31-4.57,0.97-4.51,3.01c0.05,1.56,2.67,3.58,3.65,1.29c0.09-0.88-0.79-0.33-1.5-0.86c-0.38-0.73-0.11-1.54,0.21-2.15
		c0.68-0.66,1.89-0.67,2.36-0.22c3.75,3.69-1.29,8.44-5.16,5.59c-3.3-2.43-1.4-7.81,1.93-8.81c2.84-0.85,6.93,0.2,9.24,1.93
		c3.09,2.33,3.61,6.19,7.52,5.59c2.27-0.35,5.71-4.27,2.58-5.8c-0.7,0.75-0.48,2.76-2.36,2.58c-0.87-0.08-1.58-1.29-1.5-2.15
		C240.09,4.9,242.65,3.68,245.47,4.69z"/>
	<path class="st0" d="M248.81,4.69c-5.11,4.48,2.48,13.04,8.38,9.45c1.17-0.71,1.98-2.18,2.79-3.01c1.38-1.42,4.18-3.49,6.88-3.87
		c2.23-0.31,4.57,0.97,4.51,3.01c-0.05,1.56-2.67,3.58-3.65,1.29c-0.09-0.88,0.79-0.33,1.5-0.86c0.38-0.73,0.12-1.54-0.21-2.15
		c-0.68-0.66-1.89-0.67-2.36-0.22c-3.75,3.69,1.28,8.44,5.16,5.59c3.29-2.43,1.4-7.81-1.93-8.81c-2.84-0.85-6.94,0.2-9.24,1.93
		c-3.09,2.33-3.61,6.19-7.52,5.59c-2.27-0.35-5.71-4.27-2.58-5.8c0.7,0.75,0.48,2.76,2.36,2.58c0.87-0.08,1.58-1.29,1.5-2.15
		C254.19,4.9,251.63,3.68,248.81,4.69z"/>
	<path class="st0" d="M246.47,0.53c2.28-0.96,2.72,3.18,0.52,3.13C245.48,3.62,245,1.15,246.47,0.53z"/>
	<path class="st0" d="M299.9,4.69c5.11,4.48-2.48,13.04-8.38,9.45c-1.17-0.71-1.98-2.18-2.79-3.01c-1.38-1.42-4.18-3.49-6.87-3.87
		c-2.23-0.31-4.58,0.97-4.51,3.01c0.05,1.56,2.67,3.58,3.65,1.29c0.09-0.88-0.79-0.33-1.5-0.86c-0.38-0.73-0.11-1.54,0.22-2.15
		c0.68-0.66,1.89-0.67,2.36-0.22c3.75,3.69-1.28,8.44-5.15,5.59c-3.3-2.43-1.4-7.81,1.93-8.81c2.84-0.85,6.94,0.2,9.24,1.93
		c3.09,2.33,3.61,6.19,7.52,5.59c2.27-0.35,5.71-4.27,2.58-5.8c-0.7,0.75-0.48,2.76-2.36,2.58c-0.87-0.08-1.58-1.29-1.5-2.15
		C294.52,4.9,297.07,3.68,299.9,4.69z"/>
	<path class="st0" d="M303.24,4.69c-5.11,4.48,2.48,13.04,8.38,9.45c1.17-0.71,1.98-2.18,2.79-3.01c1.38-1.42,4.18-3.49,6.88-3.87
		c2.23-0.31,4.57,0.97,4.51,3.01c-0.05,1.56-2.67,3.58-3.65,1.29c-0.09-0.88,0.79-0.33,1.5-0.86c0.38-0.73,0.11-1.54-0.21-2.15
		c-0.68-0.66-1.89-0.67-2.36-0.22c-3.75,3.69,1.28,8.44,5.16,5.59c3.29-2.43,1.4-7.81-1.93-8.81c-2.84-0.85-6.94,0.2-9.24,1.93
		c-3.09,2.33-3.61,6.19-7.52,5.59c-2.27-0.35-5.71-4.27-2.58-5.8c0.7,0.75,0.48,2.76,2.36,2.58c0.87-0.08,1.58-1.29,1.5-2.15
		C308.62,4.9,306.06,3.68,303.24,4.69z"/>
	<path class="st0" d="M300.9,13.88c2.28-0.96,2.73,3.18,0.52,3.13C299.91,16.98,299.43,14.5,300.9,13.88z"/>
	<path class="st0" d="M354.32,4.69c5.11,4.48-2.48,13.04-8.38,9.45c-1.17-0.71-1.98-2.18-2.79-3.01c-1.38-1.42-4.18-3.49-6.87-3.87
		c-2.23-0.31-4.58,0.97-4.51,3.01c0.05,1.56,2.67,3.58,3.65,1.29c0.09-0.88-0.79-0.33-1.5-0.86c-0.37-0.73-0.11-1.54,0.22-2.15
		c0.68-0.66,1.89-0.67,2.36-0.22c3.75,3.69-1.28,8.44-5.16,5.59c-3.29-2.43-1.4-7.81,1.93-8.81c2.84-0.85,6.94,0.2,9.24,1.93
		c3.09,2.33,3.61,6.19,7.52,5.59c2.27-0.35,5.71-4.27,2.58-5.8c-0.7,0.75-0.48,2.76-2.36,2.58c-0.87-0.08-1.58-1.29-1.5-2.15
		C348.94,4.9,351.5,3.68,354.32,4.69z"/>
	<path class="st0" d="M357.66,4.69c-5.11,4.48,2.48,13.04,8.38,9.45c1.17-0.71,1.98-2.18,2.79-3.01c1.38-1.42,4.18-3.49,6.87-3.87
		c2.23-0.31,4.58,0.97,4.51,3.01c-0.05,1.56-2.66,3.58-3.65,1.29c-0.09-0.88,0.79-0.33,1.5-0.86c0.38-0.73,0.11-1.54-0.21-2.15
		c-0.68-0.66-1.89-0.67-2.36-0.22c-3.75,3.69,1.28,8.44,5.16,5.59c3.3-2.43,1.4-7.81-1.93-8.81c-2.84-0.85-6.94,0.2-9.24,1.93
		c-3.09,2.33-3.61,6.19-7.52,5.59c-2.27-0.35-5.71-4.27-2.58-5.8c0.7,0.75,0.48,2.76,2.36,2.58c0.87-0.08,1.58-1.29,1.5-2.15
		C363.05,4.9,360.49,3.68,357.66,4.69z"/>
	<path class="st0" d="M355.32,0.53c2.28-0.96,2.73,3.18,0.52,3.13C354.33,3.62,353.85,1.15,355.32,0.53z"/>
	<path class="st0" d="M408.75,4.69c5.11,4.48-2.48,13.04-8.38,9.45c-1.17-0.71-1.98-2.18-2.79-3.01c-1.38-1.42-4.18-3.49-6.87-3.87
		c-2.23-0.31-4.57,0.97-4.51,3.01c0.05,1.56,2.67,3.58,3.65,1.29c0.09-0.88-0.79-0.33-1.5-0.86c-0.38-0.73-0.11-1.54,0.21-2.15
		c0.68-0.66,1.89-0.67,2.36-0.22c3.75,3.69-1.28,8.44-5.15,5.59c-3.29-2.43-1.4-7.81,1.93-8.81c2.84-0.85,6.94,0.2,9.24,1.93
		c3.09,2.33,3.61,6.19,7.52,5.59c2.27-0.35,5.71-4.27,2.58-5.8c-0.7,0.75-0.48,2.76-2.36,2.58c-0.87-0.08-1.58-1.29-1.5-2.15
		C403.37,4.9,405.93,3.68,408.75,4.69z"/>
	<path class="st0" d="M412.09,4.69c-5.11,4.48,2.47,13.04,8.38,9.45c1.17-0.71,1.98-2.18,2.79-3.01c1.38-1.42,4.18-3.49,6.87-3.87
		c2.23-0.31,4.58,0.97,4.51,3.01c-0.05,1.56-2.66,3.58-3.65,1.29c-0.09-0.88,0.79-0.33,1.5-0.86c0.37-0.73,0.11-1.54-0.21-2.15
		c-0.68-0.66-1.89-0.67-2.36-0.22c-3.75,3.69,1.28,8.44,5.15,5.59c3.3-2.43,1.4-7.81-1.93-8.81c-2.84-0.85-6.93,0.2-9.24,1.93
		c-3.09,2.33-3.61,6.19-7.52,5.59c-2.27-0.35-5.71-4.27-2.58-5.8c0.7,0.75,0.48,2.76,2.36,2.58c0.87-0.08,1.58-1.29,1.5-2.15
		C417.47,4.9,414.91,3.68,412.09,4.69z"/>
	<path class="st0" d="M409.75,13.88c2.28-0.96,2.73,3.18,0.52,3.13C408.76,16.98,408.28,14.5,409.75,13.88z"/>
	<path class="st0" d="M463.18,4.69c5.11,4.48-2.47,13.04-8.38,9.45c-1.17-0.71-1.98-2.18-2.79-3.01c-1.38-1.42-4.18-3.49-6.88-3.87
		c-2.23-0.31-4.57,0.97-4.51,3.01c0.05,1.56,2.67,3.58,3.65,1.29c0.09-0.88-0.79-0.33-1.5-0.86c-0.37-0.73-0.11-1.54,0.22-2.15
		c0.68-0.66,1.89-0.67,2.36-0.22c3.75,3.69-1.28,8.44-5.16,5.59c-3.29-2.43-1.4-7.81,1.93-8.81c2.84-0.85,6.94,0.2,9.24,1.93
		c3.09,2.33,3.61,6.19,7.52,5.59c2.27-0.35,5.71-4.27,2.58-5.8c-0.7,0.75-0.48,2.76-2.36,2.58c-0.87-0.08-1.58-1.29-1.5-2.15
		C457.8,4.9,460.36,3.68,463.18,4.69z"/>
	<path class="st0" d="M466.52,4.69c-5.11,4.48,2.48,13.04,8.38,9.45c1.17-0.71,1.98-2.18,2.79-3.01c1.38-1.42,4.18-3.49,6.87-3.87
		c2.23-0.31,4.58,0.97,4.51,3.01c-0.05,1.56-2.67,3.58-3.65,1.29c-0.09-0.88,0.79-0.33,1.5-0.86c0.38-0.73,0.12-1.54-0.21-2.15
		c-0.68-0.66-1.89-0.67-2.36-0.22c-3.75,3.69,1.29,8.44,5.16,5.59c3.3-2.43,1.4-7.81-1.93-8.81c-2.84-0.85-6.94,0.2-9.24,1.93
		c-3.09,2.33-3.61,6.19-7.52,5.59c-2.27-0.35-5.71-4.27-2.58-5.8c0.7,0.75,0.48,2.76,2.36,2.58c0.87-0.08,1.58-1.29,1.5-2.15
		C471.9,4.9,469.34,3.68,466.52,4.69z"/>
	<path class="st0" d="M464.18,0.53c2.28-0.96,2.73,3.18,0.52,3.13C463.19,3.62,462.71,1.15,464.18,0.53z"/>
</g>
<g>
	<path class="st0" d="M517.73,4.69c5.11,4.48-2.48,13.04-8.38,9.45c-1.17-0.71-1.98-2.18-2.79-3.01c-1.38-1.42-4.18-3.49-6.88-3.87
		c-2.23-0.31-4.57,0.97-4.51,3.01c0.05,1.56,2.67,3.58,3.65,1.29c0.09-0.88-0.79-0.33-1.5-0.86c-0.38-0.73-0.11-1.54,0.21-2.15
		c0.68-0.66,1.89-0.67,2.36-0.22c3.75,3.69-1.28,8.44-5.16,5.59c-3.29-2.43-1.4-7.81,1.93-8.81c2.84-0.85,6.94,0.2,9.24,1.93
		c3.09,2.33,3.61,6.19,7.52,5.59c2.27-0.35,5.71-4.27,2.58-5.8c-0.7,0.75-0.48,2.76-2.36,2.58c-0.87-0.08-1.58-1.29-1.5-2.15
		C512.35,4.9,514.91,3.68,517.73,4.69z"/>
	<path class="st0" d="M521.07,4.69c-5.11,4.48,2.48,13.04,8.38,9.45c1.17-0.71,1.98-2.18,2.79-3.01c1.38-1.42,4.18-3.49,6.87-3.87
		c2.23-0.31,4.58,0.97,4.51,3.01c-0.05,1.56-2.67,3.58-3.65,1.29c-0.09-0.88,0.79-0.33,1.5-0.86c0.38-0.73,0.11-1.54-0.22-2.15
		c-0.68-0.66-1.89-0.67-2.36-0.22c-3.75,3.69,1.28,8.44,5.16,5.59c3.3-2.43,1.4-7.81-1.93-8.81c-2.84-0.85-6.94,0.2-9.24,1.93
		c-3.09,2.33-3.61,6.19-7.52,5.59c-2.27-0.35-5.71-4.27-2.58-5.8c0.7,0.75,0.48,2.76,2.36,2.58c0.87-0.08,1.58-1.29,1.5-2.15
		C526.45,4.9,523.89,3.68,521.07,4.69z"/>
	<path class="st0" d="M518.73,0.53c2.28-0.96,2.72,3.18,0.52,3.13C517.74,3.62,517.26,1.15,518.73,0.53z"/>
	<path class="st0" d="M572.16,4.69c5.11,4.48-2.48,13.04-8.38,9.45c-1.17-0.71-1.98-2.18-2.79-3.01c-1.38-1.42-4.18-3.49-6.87-3.87
		c-2.23-0.31-4.57,0.97-4.51,3.01c0.05,1.56,2.66,3.58,3.65,1.29c0.09-0.88-0.79-0.33-1.5-0.86c-0.38-0.73-0.11-1.54,0.22-2.15
		c0.68-0.66,1.89-0.67,2.36-0.22c3.75,3.69-1.28,8.44-5.16,5.59c-3.29-2.43-1.4-7.81,1.93-8.81c2.84-0.85,6.94,0.2,9.24,1.93
		c3.09,2.33,3.61,6.19,7.52,5.59c2.27-0.35,5.71-4.27,2.58-5.8c-0.7,0.75-0.48,2.76-2.36,2.58c-0.87-0.08-1.58-1.29-1.5-2.15
		C566.77,4.9,569.33,3.68,572.16,4.69z"/>
	<path class="st0" d="M575.5,4.69c-5.11,4.48,2.48,13.04,8.38,9.45c1.17-0.71,1.98-2.18,2.79-3.01c1.38-1.42,4.18-3.49,6.87-3.87
		c2.23-0.31,4.57,0.97,4.51,3.01c-0.05,1.56-2.67,3.58-3.65,1.29c-0.09-0.88,0.79-0.33,1.5-0.86c0.38-0.73,0.11-1.54-0.22-2.15
		c-0.68-0.66-1.89-0.67-2.36-0.22c-3.75,3.69,1.28,8.44,5.16,5.59c3.29-2.43,1.4-7.81-1.93-8.81c-2.84-0.85-6.94,0.2-9.24,1.93
		c-3.09,2.33-3.61,6.19-7.52,5.59c-2.27-0.35-5.71-4.27-2.58-5.8c0.7,0.75,0.48,2.76,2.36,2.58c0.87-0.08,1.58-1.29,1.5-2.15
		C580.88,4.9,578.32,3.68,575.5,4.69z"/>
	<path class="st0" d="M573.16,13.88c2.28-0.96,2.72,3.18,0.52,3.13C572.17,16.98,571.68,14.5,573.16,13.88z"/>
	<path class="st0" d="M626.58,4.69c5.11,4.48-2.48,13.04-8.38,9.45c-1.17-0.71-1.98-2.18-2.79-3.01c-1.38-1.42-4.18-3.49-6.88-3.87
		c-2.23-0.31-4.57,0.97-4.51,3.01c0.05,1.56,2.67,3.58,3.65,1.29c0.09-0.88-0.79-0.33-1.5-0.86c-0.38-0.73-0.11-1.54,0.21-2.15
		c0.68-0.66,1.89-0.67,2.36-0.22c3.75,3.69-1.28,8.44-5.16,5.59c-3.29-2.43-1.4-7.81,1.93-8.81c2.84-0.85,6.94,0.2,9.24,1.93
		c3.09,2.33,3.61,6.19,7.52,5.59c2.27-0.35,5.71-4.27,2.58-5.8c-0.7,0.75-0.48,2.76-2.36,2.58c-0.87-0.08-1.58-1.29-1.5-2.15
		C621.2,4.9,623.76,3.68,626.58,4.69z"/>
	<path class="st0" d="M629.92,4.69c-5.11,4.48,2.48,13.04,8.38,9.45c1.17-0.71,1.98-2.18,2.79-3.01c1.38-1.42,4.18-3.49,6.87-3.87
		c2.23-0.31,4.58,0.97,4.51,3.01c-0.05,1.56-2.67,3.58-3.65,1.29c-0.09-0.88,0.79-0.33,1.5-0.86c0.38-0.73,0.12-1.54-0.21-2.15
		c-0.68-0.66-1.89-0.67-2.36-0.22c-3.75,3.69,1.29,8.44,5.16,5.59c3.3-2.43,1.4-7.81-1.93-8.81c-2.84-0.85-6.93,0.2-9.24,1.93
		c-3.09,2.33-3.61,6.19-7.52,5.59c-2.27-0.35-5.71-4.27-2.58-5.8c0.7,0.75,0.48,2.76,2.36,2.58c0.87-0.08,1.58-1.29,1.5-2.15
		C635.3,4.9,632.75,3.68,629.92,4.69z"/>
	<path class="st0" d="M627.58,0.53c2.28-0.96,2.72,3.18,0.52,3.13C626.59,3.62,626.11,1.15,627.58,0.53z"/>
	<path class="st0" d="M681.01,4.69c5.11,4.48-2.48,13.04-8.38,9.45c-1.17-0.71-1.98-2.18-2.79-3.01c-1.38-1.42-4.18-3.49-6.88-3.87
		c-2.23-0.31-4.57,0.97-4.51,3.01c0.05,1.56,2.67,3.58,3.65,1.29c0.09-0.88-0.79-0.33-1.5-0.86c-0.38-0.73-0.11-1.54,0.22-2.15
		c0.68-0.66,1.89-0.67,2.36-0.22c3.75,3.69-1.28,8.44-5.16,5.59c-3.29-2.43-1.4-7.81,1.93-8.81c2.84-0.85,6.94,0.2,9.24,1.93
		c3.09,2.33,3.61,6.19,7.52,5.59c2.27-0.35,5.71-4.27,2.58-5.8c-0.7,0.75-0.48,2.76-2.36,2.58c-0.87-0.08-1.58-1.29-1.5-2.15
		C675.63,4.9,678.19,3.68,681.01,4.69z"/>
	<path class="st0" d="M684.35,4.69c-5.11,4.48,2.48,13.04,8.38,9.45c1.17-0.71,1.98-2.18,2.79-3.01c1.38-1.42,4.18-3.49,6.88-3.87
		c2.23-0.31,4.57,0.97,4.51,3.01c-0.05,1.56-2.67,3.58-3.65,1.29c-0.09-0.88,0.79-0.33,1.5-0.86c0.38-0.73,0.12-1.54-0.21-2.15
		c-0.68-0.66-1.89-0.67-2.37-0.22c-3.75,3.69,1.28,8.44,5.16,5.59c3.3-2.43,1.4-7.81-1.93-8.81c-2.84-0.85-6.93,0.2-9.24,1.93
		c-3.09,2.33-3.61,6.19-7.52,5.59c-2.27-0.35-5.71-4.27-2.58-5.8c0.7,0.75,0.48,2.76,2.36,2.58c0.87-0.08,1.58-1.29,1.5-2.15
		C689.73,4.9,687.17,3.68,684.35,4.69z"/>
	<path class="st0" d="M682.01,13.88c2.28-0.96,2.73,3.18,0.52,3.13C681.02,16.98,680.54,14.5,682.01,13.88z"/>
	<path class="st0" d="M735.44,4.69c5.11,4.48-2.48,13.04-8.38,9.45c-1.17-0.71-1.98-2.18-2.79-3.01c-1.38-1.42-4.18-3.49-6.87-3.87
		c-2.23-0.31-4.58,0.97-4.51,3.01c0.05,1.56,2.66,3.58,3.65,1.29c0.09-0.88-0.79-0.33-1.5-0.86c-0.37-0.73-0.11-1.54,0.21-2.15
		c0.68-0.66,1.89-0.67,2.36-0.22c3.75,3.69-1.28,8.44-5.16,5.59c-3.3-2.43-1.4-7.81,1.93-8.81c2.84-0.85,6.94,0.2,9.24,1.93
		c3.09,2.33,3.61,6.19,7.52,5.59c2.27-0.35,5.71-4.27,2.58-5.8c-0.7,0.75-0.48,2.76-2.36,2.58c-0.87-0.08-1.58-1.29-1.5-2.15
		C730.05,4.9,732.61,3.68,735.44,4.69z"/>
	<path class="st0" d="M738.78,4.69c-5.11,4.48,2.48,13.04,8.38,9.45c1.17-0.71,1.98-2.18,2.79-3.01c1.38-1.42,4.18-3.49,6.87-3.87
		c2.23-0.31,4.58,0.97,4.51,3.01c-0.05,1.56-2.67,3.58-3.65,1.29c-0.09-0.88,0.79-0.33,1.5-0.86c0.38-0.73,0.12-1.54-0.21-2.15
		c-0.68-0.66-1.89-0.67-2.36-0.22c-3.75,3.69,1.28,8.44,5.16,5.59c3.3-2.43,1.4-7.81-1.93-8.81c-2.84-0.85-6.94,0.2-9.24,1.93
		c-3.09,2.33-3.61,6.19-7.52,5.59c-2.27-0.35-5.71-4.27-2.58-5.8c0.7,0.75,0.48,2.76,2.36,2.58c0.87-0.08,1.58-1.29,1.5-2.15
		C744.16,4.9,741.6,3.68,738.78,4.69z"/>
	<path class="st0" d="M736.44,0.53c2.28-0.96,2.73,3.18,0.52,3.13C735.45,3.62,734.96,1.15,736.44,0.53z"/>
	<path class="st0" d="M789.86,4.69c5.11,4.48-2.48,13.04-8.38,9.45c-1.17-0.71-1.98-2.18-2.79-3.01c-1.38-1.42-4.18-3.49-6.87-3.87
		c-2.23-0.31-4.57,0.97-4.51,3.01c0.05,1.56,2.67,3.58,3.65,1.29c0.09-0.88-0.79-0.33-1.5-0.86c-0.38-0.73-0.11-1.54,0.21-2.15
		c0.68-0.66,1.89-0.67,2.36-0.22c3.75,3.69-1.28,8.44-5.15,5.59c-3.3-2.43-1.4-7.81,1.93-8.81c2.84-0.85,6.94,0.2,9.24,1.93
		c3.09,2.33,3.61,6.19,7.52,5.59c2.27-0.35,5.71-4.27,2.58-5.8c-0.7,0.75-0.48,2.76-2.36,2.58c-0.87-0.08-1.58-1.29-1.5-2.15
		C784.48,4.9,787.04,3.68,789.86,4.69z"/>
	<path class="st0" d="M793.2,4.69c-5.11,4.48,2.47,13.04,8.38,9.45c1.17-0.71,1.98-2.18,2.79-3.01c1.38-1.42,4.18-3.49,6.88-3.87
		c2.23-0.31,4.57,0.97,4.51,3.01c-0.05,1.56-2.66,3.58-3.65,1.29c-0.09-0.88,0.79-0.33,1.5-0.86c0.38-0.73,0.11-1.54-0.21-2.15
		c-0.68-0.66-1.89-0.67-2.36-0.22c-3.75,3.69,1.28,8.44,5.16,5.59c3.3-2.43,1.4-7.81-1.93-8.81c-2.84-0.85-6.94,0.2-9.24,1.93
		c-3.09,2.33-3.61,6.19-7.52,5.59c-2.27-0.35-5.71-4.27-2.58-5.8c0.7,0.75,0.48,2.76,2.36,2.58c0.87-0.08,1.58-1.29,1.5-2.15
		C798.59,4.9,796.03,3.68,793.2,4.69z"/>
	<path class="st0" d="M790.86,13.88c2.28-0.96,2.73,3.18,0.52,3.13C789.87,16.98,789.39,14.5,790.86,13.88z"/>
	<path class="st0" d="M844.29,4.69c5.11,4.48-2.47,13.04-8.38,9.45c-1.17-0.71-1.98-2.18-2.79-3.01c-1.38-1.42-4.18-3.49-6.87-3.87
		c-2.23-0.31-4.57,0.97-4.51,3.01c0.05,1.56,2.67,3.58,3.65,1.29c0.09-0.88-0.79-0.33-1.5-0.86c-0.37-0.73-0.11-1.54,0.21-2.15
		c0.68-0.66,1.89-0.67,2.36-0.22c3.75,3.69-1.28,8.44-5.15,5.59c-3.3-2.43-1.4-7.81,1.93-8.81c2.84-0.85,6.93,0.2,9.24,1.93
		c3.09,2.33,3.61,6.19,7.52,5.59c2.27-0.35,5.71-4.27,2.58-5.8c-0.7,0.75-0.48,2.76-2.36,2.58c-0.87-0.08-1.58-1.29-1.5-2.15
		C838.91,4.9,841.47,3.68,844.29,4.69z"/>
	<path class="st0" d="M847.63,4.69c-5.11,4.48,2.47,13.04,8.38,9.45c1.17-0.71,1.98-2.18,2.79-3.01c1.38-1.42,4.18-3.49,6.87-3.87
		c2.23-0.31,4.58,0.97,4.51,3.01c-0.05,1.56-2.66,3.58-3.65,1.29c-0.09-0.88,0.79-0.33,1.5-0.86c0.38-0.73,0.11-1.54-0.21-2.15
		c-0.68-0.66-1.89-0.67-2.36-0.22c-3.75,3.69,1.28,8.44,5.15,5.59c3.3-2.43,1.4-7.81-1.93-8.81c-2.84-0.85-6.94,0.2-9.24,1.93
		c-3.09,2.33-3.61,6.19-7.52,5.59c-2.27-0.35-5.71-4.27-2.58-5.8c0.7,0.75,0.48,2.76,2.36,2.58c0.87-0.08,1.58-1.29,1.5-2.15
		C853.01,4.9,850.45,3.68,847.63,4.69z"/>
	<path class="st0" d="M845.29,0.53c2.28-0.96,2.73,3.18,0.52,3.13C844.3,3.62,843.82,1.15,845.29,0.53z"/>
	<path class="st0" d="M898.71,4.69c5.11,4.48-2.47,13.04-8.38,9.45c-1.17-0.71-1.98-2.18-2.79-3.01c-1.38-1.42-4.18-3.49-6.87-3.87
		c-2.23-0.31-4.57,0.97-4.51,3.01c0.05,1.56,2.67,3.58,3.65,1.29c0.09-0.88-0.79-0.33-1.5-0.86c-0.38-0.73-0.11-1.54,0.21-2.15
		c0.68-0.66,1.89-0.67,2.36-0.22c3.75,3.69-1.28,8.44-5.16,5.59c-3.29-2.43-1.4-7.81,1.93-8.81c2.84-0.85,6.94,0.2,9.24,1.93
		c3.09,2.33,3.61,6.19,7.52,5.59c2.27-0.35,5.71-4.27,2.58-5.8c-0.7,0.75-0.48,2.76-2.36,2.58c-0.87-0.08-1.58-1.29-1.5-2.15
		C893.33,4.9,895.89,3.68,898.71,4.69z"/>
	<path class="st0" d="M902.06,4.69c-5.11,4.48,2.48,13.04,8.38,9.45c1.17-0.71,1.98-2.18,2.79-3.01c1.38-1.42,4.18-3.49,6.87-3.87
		c2.23-0.31,4.58,0.97,4.51,3.01c-0.05,1.56-2.66,3.58-3.65,1.29c-0.09-0.88,0.79-0.33,1.5-0.86c0.37-0.73,0.11-1.54-0.22-2.15
		c-0.68-0.66-1.89-0.67-2.36-0.22c-3.75,3.69,1.28,8.44,5.16,5.59c3.3-2.43,1.4-7.81-1.93-8.81c-2.84-0.85-6.94,0.2-9.24,1.93
		c-3.09,2.33-3.61,6.19-7.52,5.59c-2.27-0.35-5.71-4.27-2.58-5.8c0.7,0.75,0.48,2.76,2.36,2.58c0.87-0.08,1.58-1.29,1.5-2.15
		C907.44,4.9,904.88,3.68,902.06,4.69z"/>
	<path class="st0" d="M899.72,13.88c2.28-0.96,2.72,3.18,0.52,3.13C898.73,16.98,898.25,14.5,899.72,13.88z"/>
	<path class="st0" d="M953.14,4.69c5.11,4.48-2.48,13.04-8.38,9.45c-1.17-0.71-1.98-2.18-2.79-3.01c-1.38-1.42-4.18-3.49-6.88-3.87
		c-2.23-0.31-4.57,0.97-4.51,3.01c0.05,1.56,2.67,3.58,3.65,1.29c0.09-0.88-0.79-0.33-1.5-0.86c-0.38-0.73-0.11-1.54,0.22-2.15
		c0.68-0.66,1.89-0.67,2.36-0.22c3.75,3.69-1.28,8.44-5.16,5.59c-3.29-2.43-1.4-7.81,1.93-8.81c2.84-0.85,6.94,0.2,9.24,1.93
		c3.09,2.33,3.61,6.19,7.52,5.59c2.27-0.35,5.71-4.27,2.58-5.8c-0.7,0.75-0.48,2.76-2.36,2.58c-0.87-0.08-1.58-1.29-1.5-2.15
		C947.76,4.9,950.32,3.68,953.14,4.69z"/>
	<path class="st0" d="M956.48,4.69c-5.11,4.48,2.48,13.04,8.38,9.45c1.17-0.71,1.98-2.18,2.79-3.01c1.38-1.42,4.18-3.49,6.87-3.87
		c2.23-0.31,4.58,0.97,4.51,3.01c-0.05,1.56-2.67,3.58-3.65,1.29c-0.09-0.88,0.79-0.33,1.5-0.86c0.38-0.73,0.11-1.54-0.22-2.15
		c-0.68-0.66-1.89-0.67-2.36-0.22c-3.75,3.69,1.28,8.44,5.16,5.59c3.29-2.43,1.4-7.81-1.93-8.81c-2.84-0.85-6.94,0.2-9.24,1.93
		c-3.09,2.33-3.61,6.19-7.52,5.59c-2.27-0.35-5.71-4.27-2.58-5.8c0.7,0.75,0.48,2.76,2.36,2.58c0.87-0.08,1.58-1.29,1.5-2.15
		C961.87,4.9,959.31,3.68,956.48,4.69z"/>
	<path class="st0" d="M954.14,0.53c2.28-0.96,2.72,3.18,0.52,3.13C953.16,3.62,952.67,1.15,954.14,0.53z"/>
</g>
</svg>
