<?xml version="1.0" encoding="utf-8"?>
<!-- Generator: Adobe Illustrator 23.1.1, SVG Export Plug-In . SVG Version: 6.00 Build 0)  -->
<svg version="1.1" id="レイヤー_1" xmlns="http://www.w3.org/2000/svg" xmlns:xlink="http://www.w3.org/1999/xlink" x="0px"
	 y="0px" viewBox="0 0 335.13 135.09" style="enable-background:new 0 0 335.13 135.09;" xml:space="preserve">
<style type="text/css">
	.st0{fill:#FFFFFF;}
	.st1{fill:none;}
	.st2{fill:#FFFFFF;stroke:#000000;stroke-width:2.4;stroke-linecap:round;stroke-linejoin:round;stroke-miterlimit:10;}
	.st3{fill:#FFFFFF;stroke:#000000;stroke-width:1.2;stroke-linecap:round;stroke-linejoin:round;stroke-miterlimit:10;}
</style>
<g>
	<g>
		<path class="st0" d="M8.38,72.57c0,0,6.45,13.32,12.38,18.72c0,0-11.61,8.16-18.23,10.05c0,0,86.2,30.19,159.58,19.76
			c41.3-4.11,44.61-24.74,116.74-11.75l-1.73-27.45c0,0-0.27-10.7-27.2-10.29c-26.92,0.4-61.49,14.63-83.97,19.81
			C124.06,101.07,38.3,85.12,8.38,72.57z"/>
		<path d="M129.47,124.48c-63.65,0-126.59-21.74-127.33-22c-0.49-0.17-0.82-0.65-0.8-1.17c0.02-0.52,0.37-0.98,0.87-1.12
			c5.14-1.47,13.57-6.97,16.67-9.06C13.19,85.18,7.55,73.61,7.3,73.09c-0.22-0.45-0.13-0.99,0.21-1.35
			c0.34-0.36,0.87-0.48,1.34-0.28C37.77,83.6,123.89,99.88,165.69,90.25c7.11-1.64,15.5-4.21,24.39-6.92
			c19.36-5.92,41.3-12.64,59.83-12.92c27.79-0.43,28.4,10.98,28.41,11.46l1.73,27.41c0.02,0.37-0.12,0.73-0.4,0.97
			c-0.28,0.25-0.65,0.35-1.01,0.29c-47.25-8.51-64.59-2.56-82.94,3.73c-9.47,3.25-19.26,6.61-33.47,8.02
			C151.51,123.83,140.47,124.48,129.47,124.48z M6.15,101.28c16.3,5.26,91.47,27.78,155.8,18.64c13.98-1.39,23.64-4.71,32.98-7.91
			c18.46-6.33,35.9-12.32,82.64-4.1l-1.64-25.93c-0.01-0.12-0.83-9.55-25.98-9.17c-18.19,0.27-39.96,6.93-59.17,12.81
			c-8.93,2.73-17.36,5.31-24.55,6.97C125.35,102,42.64,86.94,10.91,74.87c2.21,4.16,6.61,11.84,10.66,15.53
			c0.27,0.25,0.41,0.6,0.39,0.96c-0.02,0.36-0.21,0.7-0.51,0.91C21.05,92.56,12.76,98.36,6.15,101.28z"/>
	</g>
	<g>
		<path class="st0" d="M278.86,105.55c36.49-6.43,43.44-12.16,43.44-12.16l-9.36,17.02c9.14,3.52,20.05,6.84,20.05,6.84
			s-13.93,11.08-46.18,14.75c-32.25,3.67-39-6.46-39-6.46s-2.33-19.6-3.68-28.18C244.12,97.34,244.44,110.22,278.86,105.55z"/>
		<g>
			<path class="st1" d="M311.81,110.82c-0.12-0.33-0.09-0.69,0.08-0.99l7.41-13.47c-5.11,2.28-16.47,6.19-40.23,10.37
				c-0.02,0-0.03,0.01-0.05,0.01c-20.21,2.75-29.03-0.55-32.87-3.8c1.18,8.55,2.56,20,2.81,22.11c1.16,1.3,9.3,8.98,37.71,5.75
				c24.78-2.82,38.71-10.13,43.58-13.15c-3.74-1.18-11.23-3.61-17.74-6.12C312.18,111.4,311.93,111.14,311.81,110.82z"/>
			<path d="M334.16,117.02c-0.08-0.44-0.4-0.79-0.83-0.92c-0.1-0.03-9.98-3.04-18.68-6.32l8.69-15.81c0.28-0.5,0.16-1.12-0.28-1.49
				c-0.44-0.37-1.08-0.38-1.52-0.02c-0.07,0.06-7.5,5.67-42.87,11.91c-19.18,2.6-27.37-0.29-30.87-3.17
				c-1.69-1.4-2.23-2.76-2.4-3.44c-0.03-0.2-0.06-0.4-0.09-0.59c-0.1-0.62-0.67-1.06-1.29-1.01c-0.63,0.06-1.11,0.59-1.09,1.23
				c0,0.03,0.01,0.3,0.1,0.73c1.35,8.73,3.57,27.38,3.59,27.57c0.02,0.19,0.09,0.37,0.19,0.52c0.25,0.37,5.48,7.8,26.92,7.8
				c3.86,0,8.24-0.24,13.22-0.81c32.22-3.67,46.21-14.54,46.79-15C334.08,117.9,334.25,117.46,334.16,117.02z M278.87,105.55
				L278.87,105.55L278.87,105.55z M286.67,130.8c-28.41,3.23-36.56-4.45-37.71-5.75c-0.25-2.11-1.63-13.56-2.81-22.11
				c3.84,3.26,12.66,6.55,32.87,3.8c0.02,0,0.03,0,0.05-0.01c23.75-4.19,35.12-8.09,40.23-10.37l-7.41,13.47
				c-0.17,0.3-0.19,0.66-0.08,0.99c0.12,0.33,0.37,0.58,0.7,0.71c6.52,2.51,14,4.94,17.74,6.12
				C325.38,120.67,311.45,127.98,286.67,130.8z"/>
		</g>
	</g>
	<path class="st2" d="M278.86,105.55l-2.48-25.17c0,0,2.56,5.79-9.53,6.4c-12.08,0.61-23.45,4.19-22.73,10.56
		C244.84,103.72,259.82,108.47,278.86,105.55z"/>
	<g>
		<path d="M251.85,89.25c-0.29-0.16-0.66-0.06-0.82,0.23l-5.93,10.67c-0.16,0.29-0.06,0.66,0.23,0.82c0.09,0.05,0.19,0.08,0.29,0.08
			c0.21,0,0.42-0.11,0.52-0.31l5.93-10.67C252.24,89.77,252.14,89.41,251.85,89.25z"/>
		<path d="M256.43,88.72c-0.29-0.16-0.65-0.06-0.82,0.23l-7.57,13.54c-0.16,0.29-0.06,0.65,0.23,0.82c0.09,0.05,0.19,0.08,0.29,0.08
			c0.21,0,0.41-0.11,0.52-0.31l7.57-13.54C256.83,89.25,256.72,88.88,256.43,88.72z"/>
		<path d="M261.63,87.42c-0.29-0.16-0.65-0.06-0.82,0.22l-8.87,15.58c-0.16,0.29-0.06,0.65,0.22,0.82c0.09,0.05,0.2,0.08,0.3,0.08
			c0.21,0,0.41-0.11,0.52-0.3l8.87-15.58C262.01,87.96,261.91,87.59,261.63,87.42z"/>
		<path d="M266.09,86.84c-0.29-0.16-0.65-0.06-0.82,0.23l-9.86,17.5c-0.16,0.29-0.06,0.65,0.23,0.82c0.09,0.05,0.19,0.08,0.29,0.08
			c0.21,0,0.41-0.11,0.52-0.31l9.86-17.5C266.48,87.37,266.37,87,266.09,86.84z"/>
		<path d="M270.86,86.3c-0.29-0.16-0.65-0.06-0.82,0.22l-10.57,18.56c-0.16,0.29-0.06,0.65,0.22,0.82c0.09,0.05,0.2,0.08,0.3,0.08
			c0.21,0,0.41-0.11,0.52-0.3l10.57-18.56C271.24,86.83,271.14,86.46,270.86,86.3z"/>
		<path d="M275.81,84.75c-0.29-0.16-0.65-0.06-0.82,0.23l-11.47,20.63c-0.16,0.29-0.06,0.65,0.23,0.82
			c0.09,0.05,0.19,0.08,0.29,0.08c0.21,0,0.42-0.11,0.52-0.31l11.47-20.63C276.2,85.28,276.1,84.91,275.81,84.75z"/>
		<path d="M277.44,89.78c-0.29-0.16-0.65-0.06-0.82,0.23l-8.92,15.81c-0.16,0.29-0.06,0.65,0.23,0.82c0.09,0.05,0.19,0.08,0.29,0.08
			c0.21,0,0.41-0.11,0.52-0.31l8.92-15.81C277.83,90.3,277.73,89.94,277.44,89.78z"/>
	</g>
	<line class="st3" x1="278.02" y1="96.01" x2="272.43" y2="105.93"/>
	<line class="st3" x1="278.59" y1="101.68" x2="276.1" y2="106.34"/>
</g>
<g>
	<g>
		<polygon class="st0" points="287.41,12.92 287.2,11.51 286.55,8.05 285.86,3.98 285.24,3.41 286.77,9.75 		"/>
		<path class="st0" d="M295.68,51.84c0.11-0.06,0.24-0.06,0.36-0.03l-0.06-0.27c0,0,0,0-0.01,0l-0.4,0.35L295.68,51.84z"/>
		<polygon class="st0" points="306.35,112.99 307.15,113.35 307.7,113.19 307.69,113.19 		"/>
		<path class="st0" d="M311.52,107.68c0,0.05,0,0.11-0.02,0.16l-0.9,3.01c-0.03,0.09-0.08,0.17-0.15,0.23l-2.38,2c0,0,0,0-0.01,0.01
			l2.29-0.65l1.46-2.41l0.1-3.04l-0.61-3.13l-0.65-2.64l0.72,3.24L311.52,107.68z"/>
		<polygon class="st0" points="281.76,2.99 281.76,2.99 284.32,2.58 283.42,1.76 		"/>
		<g>
			<path class="st1" d="M307.95,107.01c0.31,2.25-0.38,3.79-0.85,5.11c-0.03,0.07-0.05,0.14-0.08,0.21
				c0.12-0.05,0.22-0.11,0.33-0.17c5.55-2.95,1.77-10.98-0.34-17.7c-4-12.7-8.84-27.87-11.88-39.47c0.67,8,3.62,16.8,6,25.91
				C303.49,89.96,306.87,99.19,307.95,107.01z"/>
			<path class="st1" d="M296.04,51.81l-0.06-0.27c0,0,0,0-0.01,0l-0.4,0.35l0.11-0.05C295.79,51.78,295.92,51.77,296.04,51.81z"/>
			<polygon class="st1" points="281.76,2.99 281.76,2.99 284.32,2.58 283.42,1.76 			"/>
			<polygon class="st1" points="286.55,8.05 285.86,3.98 285.24,3.41 286.77,9.75 287.41,12.92 287.2,11.51 			"/>
			<path class="st1" d="M310.61,110.85c-0.03,0.09-0.08,0.17-0.15,0.23l-2.38,2c0,0,0,0-0.01,0.01l2.29-0.65l1.46-2.41l0.1-3.04
				l-0.61-3.13l-0.65-2.64l0.72,3.24l0.14,3.23c0,0.05,0,0.11-0.02,0.16L310.61,110.85z"/>
			<polygon class="st1" points="307.15,113.35 307.7,113.19 307.69,113.19 306.35,112.99 			"/>
			<path d="M312.88,106.86l-0.62-3.21l-0.78-3.17l-0.96-3.51l-1.2-3.39l-1.14-3.41l-3.26-10.14l-0.95-3.42l-3.04-10.16L300.07,63
				l-0.99-3.38l-0.84-3.46l-0.97-3.38l-0.82-3.47l-0.99-3.37l-0.76-3.47l-0.82-3.45l-0.88-3.4l-0.69-3.49l-1.6-6.87l-0.6-3.5
				l-1.44-6.9l-0.51-3.52l-0.65-3.47l-0.71-4.23c-0.02-0.11-0.07-0.21-0.15-0.28l-0.72-0.65c-0.37-0.86-0.9-1.44-1.74-1.58
				l-0.41-0.37c-0.17-0.16-0.43-0.17-0.62-0.03l-2.4,1.78c-0.08,0.06-0.15,0.15-0.18,0.25l-0.91,3.03l-0.41,3.13l-0.05,6.62
				l0.15,3.54l0.37,3.48l0.27,3.53l0.42,3.51l1.04,6.97l1.22,6.94l0.75,3.4l0.53,3.51l0.79,3.4c0.05,0.2,0.22,0.35,0.43,0.37
				l3.39,0.33l2.19,2.5l1.21,3.29l0.74,3.59l2.43,13.89l0.53,3.43l0.49,3.45l1.17,6.87l0.68,3.38l0.55,3.67l1.48,7.29l1.15,3.5
				c0.01,0.04,0.03,0.08,0.06,0.12l2.08,3.1c0.05,0.08,0.12,0.14,0.2,0.17l3.38,1.52c0.06,0.03,0.13,0.04,0.2,0.04
				c0.04,0,0.09-0.01,0.13-0.02l3.57-1.01c0.12-0.03,0.22-0.11,0.28-0.22l1.62-2.69c0.04-0.07,0.07-0.15,0.07-0.24l0.1-3.22
				C312.89,106.93,312.89,106.89,312.88,106.86z M281.76,2.99C281.76,2.99,281.76,2.99,281.76,2.99l1.66-1.23l0.9,0.82L281.76,2.99z
				 M286.77,9.75l-1.53-6.34l0.62,0.57l0.69,4.08l0.65,3.46l0.21,1.41L286.77,9.75z M306.35,112.99l1.34,0.2c0,0,0.01,0,0.01,0
				l-0.55,0.16L306.35,112.99z M310.61,110.85l0.9-3.01c0.02-0.05,0.02-0.1,0.02-0.16l-0.14-3.23l-0.72-3.24l0.65,2.64l0.61,3.13
				l-0.1,3.04l-1.46,2.41l-2.29,0.65c0,0,0,0,0.01-0.01l2.38-2C310.53,111.03,310.58,110.94,310.61,110.85z M296.04,51.81
				c-0.12-0.04-0.25-0.03-0.36,0.03l-0.11,0.05l0.4-0.35c0,0,0,0,0.01,0L296.04,51.81z M295.13,54.99
				c3.05,11.61,7.89,26.77,11.88,39.47c2.11,6.72,5.9,14.75,0.34,17.7c-0.11,0.06-0.22,0.12-0.33,0.17
				c0.02-0.07,0.05-0.14,0.08-0.21c0.48-1.32,1.17-2.86,0.85-5.11c-1.08-7.82-4.47-17.05-6.83-26.11
				C298.74,71.78,295.8,62.99,295.13,54.99z"/>
		</g>
		<path class="st0" d="M307.01,94.46c-4-12.7-8.84-27.87-11.88-39.47c0.67,8,3.62,16.8,6,25.91c2.36,9.06,5.75,18.29,6.83,26.11
			c0.31,2.25-0.38,3.79-0.85,5.11l0.26,0.04C312.91,109.21,309.12,101.18,307.01,94.46z"/>
		<path class="st0" d="M307.02,112.33c0.12-0.05,0.22-0.11,0.33-0.17l-0.26-0.04C307.07,112.19,307.05,112.26,307.02,112.33z"/>
	</g>
	<g>
		<path class="st0" d="M275.42,110.97c-0.08-0.91,0.04-1.97,0.35-3.05c0.25-0.86,0.61-1.8,1.08-2.79c0.18-0.37,0.35-0.75,0.52-1.13
			c0.35-0.76,0.7-1.52,1.08-2.28c0.44-0.87,0.89-1.73,1.35-2.61l0.38-0.73c0.41-0.79,0.83-1.58,1.25-2.37l2.27-4.27
			c0.4-0.76,0.79-1.52,1.19-2.29l1.14-2.19c0.34-0.65,0.68-1.31,1.02-1.97c0.33-0.66,0.66-1.33,0.99-2l0.56-1.15
			c0.24-0.49,0.5-0.98,0.75-1.46c0.29-0.55,0.58-1.1,0.85-1.66c0.32-0.66,0.64-1.33,0.96-1.99l0.56-1.18
			c0.26-0.54,0.5-1.09,0.75-1.65c0.23-0.52,0.46-1.04,0.7-1.55c0.24-0.51,0.49-1.01,0.74-1.52c0.21-0.42,0.42-0.84,0.62-1.26
			c-0.21,0.38-0.42,0.77-0.62,1.15c-0.28,0.53-0.55,1.07-0.82,1.61c-0.27,0.54-0.54,1.08-0.82,1.61c-0.29,0.54-0.59,1.07-0.89,1.61
			c-0.29,0.52-0.58,1.03-0.86,1.55l-0.73,1.37c-0.32,0.61-0.64,1.22-0.97,1.82c-0.57,1.06-1.15,2.12-1.74,3.18
			c-0.58,1.05-1.17,2.1-1.77,3.16c-0.52,0.92-1.07,1.85-1.63,2.78l-0.28,0.46c-0.31,0.51-0.6,1.03-0.9,1.55
			c-0.33,0.56-0.65,1.13-0.99,1.69l-0.64,1.05c-0.44,0.72-0.87,1.43-1.28,2.15l-0.46,0.79c-0.49,0.85-0.95,1.64-1.36,2.46
			c-0.56,1.09-1.07,2.23-1.52,3.37c-0.53,1.34-0.89,2.48-1.1,3.49c-0.27,1.3-0.34,2.51-0.2,3.58c0.01,0.07,0.06,0.18,0.11,0.29
			c0.14,0.3,0.47,1.02-0.26,1.49l-0.34,0.22l-0.28-0.3c-0.85-0.91-1.25-2.07-1.2-3.53c0.04-1.16,0.28-2.37,0.72-3.52
			c0.43-1.14,0.95-2.28,1.36-3.15c0.32-0.67,0.69-1.35,1.05-2c0.06-0.11,0.12-0.22,0.18-0.33c-0.13,0.22-0.26,0.44-0.38,0.66
			c-0.67,1.16-1.17,2.1-1.59,2.96c-0.51,1.06-0.93,2.09-1.25,3.07c-0.4,1.26-0.58,2.29-0.54,3.15c0.05,1.11,0.44,1.98,1.19,2.67
			c0.95,0.88,1.9,1.42,2.81,1.59c0.21,0.04,0.42,0.07,0.64,0.08C276.12,113.26,275.54,112.36,275.42,110.97z"/>
		<path class="st0" d="M303.66,50.34c0.03-0.07,0.06-0.13,0.08-0.2c0.44-1.1,0.64-2.17,0.62-3.35c-0.13-0.14-0.25-0.31-0.38-0.51
			c0.06,1.03,0.01,2.11-0.17,3.21C303.77,49.78,303.72,50.06,303.66,50.34z"/>
		<path d="M329.22,10.52c-0.25-0.12-0.51-0.14-0.77-0.05c-0.69,0.24-1.13,1.22-1.52,2.08c-0.09,0.2-0.17,0.38-0.25,0.53l-0.16,0.31
			c-0.48,0.93-0.97,1.87-1.44,2.83c-0.23,0.47-0.47,0.93-0.72,1.39c-0.3,0.57-0.61,1.15-0.89,1.74c-0.33,0.7-0.66,1.41-1,2.12
			l-0.5,1.07c-0.26,0.55-0.51,1.12-0.75,1.68c-0.22,0.51-0.45,1.03-0.68,1.54l-1.49,3.19c-0.25,0.53-0.53,1.19-0.82,1.87
			c-0.18,0.41-0.35,0.84-0.53,1.25c-0.7,1.6-1.08,2.12-1.27,2.28c-0.02-0.23,0.02-0.88,0.66-2.46c0.24-0.6,0.54-1.21,0.83-1.79
			c0.21-0.43,0.42-0.84,0.57-1.21c0.4-0.92,0.89-2,1.42-3.17c0.21-0.47,0.43-0.95,0.65-1.45c0.25-0.57,0.51-1.15,0.78-1.74
			l0.47-1.02c0.33-0.72,0.67-1.44,0.99-2.15c0.3-0.66,0.57-1.32,0.84-1.96c0.18-0.43,0.35-0.85,0.53-1.26
			c0.56-1.28,1-2.32,1.34-3.24c0.88-2.31,1.18-3.55,0.48-3.84c-0.23-0.16-0.49-0.21-0.75-0.15c-0.67,0.17-1.13,1.04-1.61,1.96
			c-0.11,0.21-0.22,0.41-0.32,0.6c-0.57,1.01-1.16,2.04-1.73,3.11c-0.32,0.61-0.63,1.23-0.93,1.86c-0.21,0.44-0.42,0.88-0.65,1.32
			c-0.23,0.45-0.46,0.89-0.7,1.34c-0.32,0.6-0.64,1.2-0.94,1.81c-0.28,0.57-0.53,1.15-0.79,1.73c-0.22,0.5-0.44,1.01-0.68,1.5
			c-0.23,0.47-0.46,0.95-0.69,1.42c-0.29,0.59-0.58,1.18-0.86,1.77c-0.26,0.55-0.51,1.1-0.77,1.65c-0.24,0.52-0.48,1.05-0.73,1.56
			c-0.08,0.17-0.17,0.39-0.26,0.63c-0.46,1.18-0.81,1.74-0.99,1.69c-0.1-0.27,0.49-1.34,0.71-1.75c0.14-0.25,0.27-0.48,0.35-0.66
			l0.59-1.27c0.3-0.64,0.6-1.29,0.9-1.95c0.25-0.56,0.49-1.14,0.72-1.72c0.21-0.52,0.42-1.04,0.65-1.55
			c0.21-0.48,0.43-0.95,0.65-1.43c0.27-0.6,0.55-1.2,0.81-1.8l0.51-1.17c0.3-0.69,0.61-1.39,0.9-2.08c0.21-0.49,0.42-0.97,0.64-1.46
			c0.27-0.6,0.53-1.19,0.78-1.79c0.46-1.1,0.9-2.2,1.34-3.28c0.05-0.12,0.11-0.26,0.18-0.42c0.42-0.93,1.05-2.33,0.11-3.05
			l-0.15-0.08c-1.16-0.37-1.84,1.07-2.29,2.02c-0.08,0.16-0.15,0.31-0.21,0.43c-0.3,0.57-0.58,1.15-0.87,1.74
			c-0.21,0.42-0.41,0.85-0.63,1.27c-0.22,0.44-0.45,0.87-0.68,1.31c-0.29,0.55-0.58,1.11-0.86,1.67c-0.26,0.54-0.52,1.08-0.78,1.62
			c-0.22,0.47-0.44,0.94-0.67,1.4c-0.23,0.48-0.48,0.96-0.72,1.43c-0.26,0.52-0.53,1.04-0.78,1.56c-0.24,0.5-0.47,1.01-0.7,1.52
			c-0.23,0.51-0.46,1.02-0.7,1.52c-0.26,0.53-0.53,1.06-0.8,1.58c-0.24,0.47-0.48,0.93-0.71,1.4c-0.22,0.45-0.44,0.9-0.65,1.35
			c-0.26,0.55-0.53,1.11-0.8,1.65c-0.05,0.09-0.15,0.16-0.18,0.17c-0.07-0.1-0.12-0.56,0.79-2.52l1.45-3.1
			c0.21-0.45,0.45-0.92,0.7-1.42c0.27-0.53,0.55-1.08,0.82-1.66c0.24-0.5,0.46-1.03,0.69-1.56c0.22-0.52,0.45-1.06,0.7-1.58
			c0.22-0.48,0.46-0.95,0.69-1.42c0.28-0.56,0.55-1.12,0.81-1.68c0.29-0.63,0.55-1.25,0.8-1.86c0.18-0.45,0.37-0.88,0.55-1.3
			c0.19-0.44,0.39-0.87,0.58-1.28c0.31-0.67,0.59-1.3,0.82-1.87c1.1-2.77,1.04-3.3,0.88-3.6l-0.18-0.26l-0.13-0.03
			c-0.2-0.12-0.43-0.16-0.67-0.11c-0.81,0.19-1.47,1.42-2.25,3.02c-0.11,0.22-0.2,0.41-0.28,0.57c-0.31,0.59-0.61,1.18-0.91,1.77
			l-0.68,1.33c-0.25,0.49-0.52,0.97-0.78,1.46c-0.29,0.53-0.58,1.07-0.87,1.62c-0.27,0.52-0.52,1.05-0.77,1.58
			c-0.25,0.52-0.49,1.05-0.76,1.57c-0.26,0.51-0.54,1.02-0.81,1.54c-0.27,0.51-0.55,1.03-0.82,1.56c-0.41,0.8-0.85,1.61-1.31,2.45
			l-0.44,0.8c-0.32,0.59-0.63,1.19-0.94,1.79c-0.26,0.5-0.51,0.99-0.78,1.49c-0.21,0.4-0.43,0.79-0.64,1.18
			c-0.38,0.7-0.77,1.39-1.11,2.09c-0.46,0.94-1.06,2.17-1.57,3.38c-0.52,1.24-0.94,2.42-1.26,3.53c-0.17,0.6-0.31,1.21-0.4,1.82
			L301,40.06l0.22,0.53c-0.08,0.58-0.13,1.16-0.15,1.73c-0.03,1.09,0.25,2.1,0.5,2.99c0.22,0.81,0.46,1.75,0.38,2.69
			c-0.07,0.89-0.31,1.91-0.73,3.2c-0.32,0.97-0.71,2.1-1.17,3.16c-0.28,0.65-0.59,1.28-0.89,1.89c-0.2,0.4-0.39,0.8-0.57,1.18
			c-0.48,1.04-0.98,2.08-1.49,3.12c-0.22,0.45-0.43,0.91-0.64,1.37c-0.27,0.59-0.54,1.18-0.84,1.76c-0.36,0.7-0.73,1.39-1.1,2.08
			l-0.52,0.98c-0.29,0.55-0.6,1.08-0.92,1.62c-0.27,0.46-0.54,0.92-0.8,1.39c-0.22,0.41-0.44,0.82-0.66,1.23
			c-0.33,0.61-0.65,1.22-0.99,1.82c-0.25,0.44-0.49,0.89-0.73,1.33c-0.31,0.57-0.62,1.14-0.94,1.7c-0.25,0.45-0.5,0.89-0.75,1.34
			c-0.31,0.56-0.63,1.12-0.95,1.68l-1.74,3c-0.29,0.5-0.6,0.98-0.91,1.47c-0.31,0.49-0.63,0.98-0.92,1.48
			c-0.3,0.51-0.58,1.02-0.87,1.54c-0.28,0.49-0.55,0.99-0.84,1.48l-0.69,1.18c-0.35,0.61-0.71,1.21-1.06,1.82
			c-0.31,0.54-0.61,1.08-0.9,1.63c-0.26,0.47-0.51,0.94-0.78,1.41c-0.37,0.65-0.79,1.34-1.24,2.07l-0.72,1.19
			c-0.5,0.83-1.02,1.69-1.52,2.56c-0.68,1.18-1.19,2.14-1.62,3.02c-0.53,1.1-0.97,2.17-1.3,3.2c-0.44,1.39-0.63,2.5-0.58,3.49
			c0.06,1.36,0.57,2.48,1.5,3.34c1.08,1,2.19,1.62,3.29,1.84c0.35,0.07,0.7,0.1,1.05,0.1c0.92,0,1.85-0.23,2.72-0.69
			c1-0.53,1.9-1.41,2.67-2.62c0.7-1.1,1.35-2.43,1.92-3.97c0.27-0.72,0.53-1.46,0.79-2.19c0.22-0.63,0.44-1.26,0.67-1.88
			c0.4-1.08,0.79-2.15,1.18-3.22l2.33-6.43c0.19-0.54,0.37-1.09,0.56-1.64c0.18-0.54,0.35-1.07,0.54-1.6
			c0.19-0.54,0.4-1.08,0.61-1.62c0.2-0.52,0.41-1.05,0.6-1.58c0.19-0.53,0.36-1.06,0.53-1.6c0.18-0.55,0.35-1.1,0.55-1.65
			c0.2-0.56,0.43-1.11,0.65-1.67c0.2-0.5,0.4-1.01,0.59-1.52l0.46-1.26c0.24-0.65,0.47-1.3,0.72-1.95l0.25-0.65
			c0.32-0.84,0.64-1.69,0.98-2.54c0.25-0.64,0.51-1.27,0.78-1.91c0.17-0.42,0.35-0.84,0.52-1.26c0.41-1,0.83-2.01,1.25-3.02
			l0.06-0.14c0.17-0.41,0.34-0.82,0.51-1.24c0.26-0.64,0.52-1.28,0.8-1.92c0.26-0.58,0.5-1.19,0.75-1.8c0.16-0.4,0.32-0.8,0.49-1.2
			c0.24-0.57,0.5-1.13,0.75-1.69c0.19-0.42,0.39-0.84,0.57-1.26l0.2-0.46c0.38-0.86,0.73-1.68,1.12-2.46
			c0.45-0.91,0.98-1.84,1.58-2.76c0.57-0.89,1.18-1.81,1.88-2.49c0.69-0.66,1.52-1.15,2.32-1.61l0.51-0.3
			c0.77-0.45,1.56-0.91,2.31-1.46c0.96-0.71,1.67-1.46,2.25-2.37c0.65-1.02,1.28-2.13,1.88-3.3c0.6-1.16,1.15-2.31,1.64-3.41
			c0.35-0.79,0.68-1.61,1.01-2.42l0.91-2.24c0.32-0.77,0.64-1.54,0.94-2.31c0.27-0.68,0.55-1.35,0.83-2.01
			c0.2-0.48,0.41-0.97,0.6-1.45l0.52-1.28c0.25-0.62,0.5-1.25,0.76-1.86c0.23-0.54,0.46-1.09,0.69-1.62c0.21-0.5,0.43-1,0.64-1.5
			c0.44-1.05,0.87-2.1,1.3-3.14c0.23-0.55,0.44-1.11,0.65-1.67c0.19-0.5,0.37-1.01,0.58-1.5c0.1-0.25,0.25-0.56,0.4-0.9
			C329.47,12.75,330.26,11.04,329.22,10.52z M303.98,46.28c0.12,0.2,0.25,0.37,0.38,0.51c0.02,1.18-0.18,2.25-0.62,3.35
			c-0.03,0.07-0.06,0.14-0.08,0.2c0.06-0.28,0.11-0.56,0.16-0.85C303.99,48.39,304.05,47.31,303.98,46.28z M276.09,99.81
			c-0.36,0.65-0.73,1.32-1.05,2c-0.41,0.87-0.93,2.01-1.36,3.15c-0.43,1.15-0.68,2.36-0.72,3.52c-0.05,1.47,0.35,2.62,1.2,3.53
			l0.28,0.3l0.34-0.22c0.73-0.48,0.4-1.19,0.26-1.49c-0.05-0.1-0.1-0.22-0.11-0.29c-0.14-1.07-0.07-2.27,0.2-3.58
			c0.21-1.01,0.57-2.15,1.1-3.49c0.46-1.14,0.97-2.28,1.52-3.37c0.41-0.81,0.87-1.61,1.36-2.46l0.46-0.79
			c0.41-0.72,0.84-1.43,1.28-2.15l0.64-1.05c0.33-0.56,0.66-1.12,0.99-1.69c0.3-0.52,0.6-1.04,0.9-1.55l0.28-0.46
			c0.56-0.93,1.11-1.86,1.63-2.78c0.6-1.06,1.19-2.11,1.77-3.16c0.58-1.06,1.16-2.12,1.74-3.18c0.33-0.61,0.65-1.21,0.97-1.82
			l0.73-1.37c0.28-0.52,0.57-1.04,0.86-1.55c0.3-0.53,0.6-1.07,0.89-1.61c0.28-0.53,0.55-1.07,0.82-1.61
			c0.27-0.54,0.54-1.08,0.82-1.61c0.21-0.39,0.41-0.77,0.62-1.15c-0.2,0.42-0.41,0.84-0.62,1.26c-0.25,0.5-0.5,1.01-0.74,1.52
			c-0.24,0.51-0.47,1.03-0.7,1.55c-0.24,0.55-0.49,1.1-0.75,1.65l-0.56,1.18c-0.32,0.67-0.63,1.33-0.96,1.99
			c-0.27,0.56-0.56,1.11-0.85,1.66c-0.26,0.49-0.51,0.97-0.75,1.46l-0.56,1.15c-0.33,0.67-0.65,1.34-0.99,2
			c-0.33,0.66-0.68,1.32-1.02,1.97l-1.14,2.19c-0.39,0.77-0.79,1.53-1.19,2.29l-2.27,4.27c-0.42,0.79-0.84,1.58-1.25,2.37
			l-0.38,0.73c-0.46,0.88-0.91,1.75-1.35,2.61c-0.38,0.76-0.73,1.52-1.08,2.28c-0.17,0.38-0.35,0.76-0.52,1.13
			c-0.47,1-0.83,1.94-1.08,2.79c-0.31,1.08-0.43,2.14-0.35,3.05c0.12,1.39,0.71,2.29,1.74,2.7c-0.21-0.01-0.43-0.04-0.64-0.08
			c-0.92-0.18-1.86-0.72-2.81-1.59c-0.75-0.69-1.13-1.56-1.19-2.67c-0.04-0.86,0.13-1.89,0.54-3.15c0.31-0.98,0.73-2.01,1.25-3.07
			c0.42-0.86,0.92-1.8,1.59-2.96c0.13-0.22,0.25-0.44,0.38-0.66C276.21,99.6,276.15,99.71,276.09,99.81z"/>
	</g>
</g>
<g>
	<path d="M77.54,17.5c-4.92-8.16-10.8-12-18.96-10.68c-4.08,0.72-7.44,1.92-10.92,3.48c-3.72,1.68-7.32,3.12-11.16,3.6
		c-2.52,0.36-2.76,1.32-2.16,3.12c0.72,1.8,2.88,4.68,7.2,5.28C33.38,34.78,23.78,52.54,20.3,63.22c-1.08,3.36-1.68,5.64-1.68,7.68
		c0,1.92,0.96,3.6,3.12,6.48c3,3.84,5.28,5.88,9.12,5.88c1.32,0,2.52-0.24,3.96-0.72C61.22,73.66,80.3,48.82,80.3,29.5
		C80.3,25.3,79.34,20.5,77.54,17.5z M29.9,74.62c-1.2,0.48-1.8,0.24-1.8-0.84c0-0.84,0.12-1.8,0.6-3.48
		c2.52-8.76,9.48-21.24,18.84-36.96c2.76-4.92,3.72-9.36,3.36-12.36c3.72-1.32,10.68-5.04,14.4-5.04c1.44,0,3.24,0.72,4.44,2.64
		c0.96,1.56,1.44,3.72,1.44,6.6C71.18,39.46,56.42,64.54,29.9,74.62z"/>
	<path d="M101.54,35.98c3,0,4.8-2.76,4.8-6c0-3.48-3.24-7.8-6.6-7.8c-2.76,0-5.28,3.12-5.28,6.48
		C94.46,32.38,97.7,35.98,101.54,35.98z"/>
	<path d="M274.09,62.74c-1.2-2.64-3-2.16-4.08,0.12c-3.6,8.4-10.44,15.72-14.76,15.72c-1.68,0-2.64-2.04-2.64-5.16
		c0-1.44,0.36-3.6,0.84-5.16c2.16-6.12,8.04-14.28,13.2-20.28c1.44-1.56,2.04-3.12,2.04-4.56c0-3-2.04-6.24-3.6-8.28
		c-1.44-1.92-3.12-1.08-5.04,0.12c-3.96,2.52-7.08,4.2-10.44,5.04c1.32-3.96,2.28-7.56,2.28-10.08c0-2.64-0.96-4.2-3.48-4.2
		c-4.08,0.12-12.12,8.88-12.12,15.24c0,2.16,1.2,3.96,3.36,5.28c-6.36,14.64-18.84,31.92-30.84,31.92c-3.36,0-5.52-3.6-5.52-9.12
		c0-2.16,0.36-4.68,1.08-7.08c2.76,1.92,5.64,2.64,8.52,2.64c5.28,0,9.84-3,13.32-7.32c3.24-4.2,5.04-9.12,5.04-12.6
		c0-1.44-0.48-2.88-1.08-3.96c-1.92-2.4-4.2-4.2-7.44-6.24c-1.2-0.72-2.52-0.96-4.08-0.96c-6.84,0-16.68,6.72-22.92,18.96
		c-1.74,3.49-2.85,6.97-3.32,10.23c-4.32,7.99-10.5,15.69-14.56,15.69c-1.56,0-2.4-1.56-2.4-4.08c0-4.44,4.08-12.36,7.92-18.48
		c3.84-6.72,6-10.56,6-13.2c0-4.56-3.24-8.76-6.72-8.76c-4.32,0-10.08,3.96-15.24,8.76c0.12-0.72,0.12-1.56,0.12-2.4
		c0-1.92-0.48-3.84-1.56-5.64c-1.2-2.16-3-2.28-4.56,0c-7.26,10.9-16.24,27.16-18.78,34.18c-3.71,5.41-7.86,9.62-10.86,9.62
		c-1.56,0-2.4-1.56-2.4-4.08c0-4.44,4.08-12.36,7.92-18.48c3.84-6.72,6-10.56,6-13.2c0-4.56-3.24-8.76-6.72-8.76
		c-4.32,0-10.08,3.96-15.24,8.76c0.12-0.72,0.12-1.56,0.12-2.4c0-1.92-0.48-3.84-1.56-5.64c-1.2-2.16-3-2.28-4.56,0
		c-7.4,11.1-16.58,27.78-18.92,34.57c-3.41,5.16-7.48,9.11-10.84,9.11c-1.32,0-1.8-1.08-1.8-3c0-1.92,0.6-4.44,1.68-7.2
		c2.04-4.8,7.56-13.8,9.84-18.96c3.12-6,2.16-11.16-0.12-13.56c-1.56-1.8-3-1.56-4.8,0.84c-4.44,6.24-12.12,20.16-15.12,28.56
		c-0.96,3.12-1.44,5.64-1.44,7.92c0,6,3.24,10.2,10.56,10.2c3.81,0,7.96-1.47,11.54-3.99c0.45,1.16,1.13,2.15,2.01,3.03
		c1.92,1.92,3.48,1.2,4.32-0.72c4.92-10.8,10.32-22.56,16.92-29.52c6.6-7.44,12.48-10.8,13.56-10.8c0.84,0-1.08,3.12-3.6,7.08
		c-4.68,7.44-10.2,18.48-10.2,24.96c0,6.24,3.48,10.32,11.52,10.32c3.76,0,7.93-1.74,11.55-4.33c0.45,1.15,1.13,2.13,2.01,3.01
		c1.92,1.92,3.48,1.2,4.32-0.72c4.92-10.8,10.32-22.56,16.92-29.52c6.6-7.44,12.48-10.8,13.56-10.8c0.84,0-1.08,3.12-3.6,7.08
		c-4.68,7.44-10.2,18.48-10.2,24.96c0,6.24,3.48,10.32,11.52,10.32c5.96,0,12.98-4.36,17.13-9.61c2.45,5.49,7.79,9.1,15.62,9.01
		c14.64-0.24,27.48-14.88,37.32-35.4c2.64-0.12,5.64-0.6,8.88-2.04c-4.8,5.64-9.48,12.24-11.52,18.72c-0.84,2.52-1.2,4.68-1.2,6.6
		c0,7.08,4.2,12.36,11.76,12.36c7.08,0,15.96-5.16,18.96-12.6C275.05,67.42,274.69,64.06,274.09,62.74z M207.14,55.66
		c4.92-9.72,13.08-16.68,15.24-15c1.2,0.96-1.56,6.84-4.92,11.16c-2.4,3.24-5.64,6.72-8.76,6.72c-0.84,0-1.68-0.24-2.64-0.72
		C206.3,57.22,206.54,56.74,207.14,55.66z"/>
</g>
<g>
	<path d="M121.61,88.22c-0.1,1.4-0.57,3.59-1.42,6.59c-0.27,1-1.16,3.85-2.65,8.56c-0.45,1.41-1.14,3.72-2.06,6.95
		c-0.19,1.12-0.52,2.81-0.97,5.09c-0.58,2.8-1.12,4.35-1.62,4.63c-0.5,0.28-1.38,0.59-2.62,0.93l-0.31-1.46
		c-0.18-1.62,0.25-4.07,1.29-7.35l3.03-9.48c1.02-3.21,1.42-5.76,1.2-7.67c-0.78,0.51-2.44,2.31-4.99,5.4l-6.4,7.83
		c-2.21,2.7-3.83,4.11-4.88,4.23c-1.33,0.15-2.46-2.2-3.36-7.06c-0.57-3.03-0.95-4.79-1.13-5.28c-1.04,1.92-2.19,4.99-3.47,9.21
		c-1.28,4.22-2.45,7.31-3.51,9.26c-1.76,3.23-3.7,4.96-5.83,5.2l1.92-6.02c0.64-1.97,1.89-5.77,3.73-11.39
		c1.31-4.05,2.06-6.24,2.25-6.58c0.42-0.82,1.47-1.79,3.15-2.92c0.1-0.24,0.27-1,0.51-2.28c0.14-0.76,0.57-1.54,1.28-2.37
		c1.37,0.97,2.48,2.58,3.35,4.84c0.23,0.59,1.05,4.02,2.48,10.3l0.43-0.05c1.05-0.12,2.9-1.94,5.56-5.46l7.47-9.93
		c2.72-3.56,4.55-5.4,5.51-5.51c0.44,0.18,0.89,0.35,1.36,0.52L121.61,88.22z"/>
	<path d="M143.96,113.55c-0.83,1.16-3,2.21-6.5,3.16c-2.47,0.67-5.01,1.15-7.61,1.45c-5.37,0.61-8.24-0.62-8.59-3.71
		c-0.43-3.78,2-7.34,7.29-10.68c1.83-1.17,3.76-2.18,5.79-3.03c2.09,0.25,3.48,0.44,4.17,0.59c1.49,0.31,2.34,1.42,2.55,3.33
		c0.19,1.69-0.74,3.14-2.79,4.38c-1.72,1.03-3.52,1.66-5.39,1.87c-2.93,0.33-5.08,0.13-6.45-0.62c-1.5,0.94-2.19,2.02-2.05,3.23
		c0.24,2.13,2.3,2.97,6.18,2.53c1.43-0.16,3.09-0.45,4.98-0.86C139.98,114.23,142.78,113.69,143.96,113.55z M138,104.95
		c-1.07-0.91-2.29-1.29-3.66-1.13c-0.99,0.11-1.85,0.42-2.6,0.92c-0.03,0.04-0.79,0.57-2.28,1.61c1.13,1.42,2.52,2.03,4.17,1.84
		C135.51,107.99,136.97,106.91,138,104.95z"/>
	<path d="M168.57,102.3c0.13,1.11-0.21,2.78-1.03,5c-0.81,2.22-1.62,3.79-2.41,4.72c0.08,0.41,0.14,0.66,0.18,0.75
		c0.09,0.22,0.23,0.44,0.41,0.68c-0.15,0.98-0.73,1.53-1.75,1.65c-0.54,0.06-1.04-0.04-1.51-0.31c-0.47-0.27-0.73-0.66-0.79-1.17
		c-0.11-0.92,0.53-2.59,1.89-5c1.37-2.41,2-4.04,1.91-4.9c-0.18-1.62-1.1-2.34-2.76-2.15c-2.19,0.25-4.21,1.51-6.04,3.78
		c-0.92,1.23-2.62,3.42-5.1,6.57c-1.97,2.51-3.97,4.06-5.99,4.64l-0.05-0.43l-0.48-0.43c-0.19-1.68,1.06-4.57,3.75-8.64
		c1.54-2.33,2.51-4,2.91-5.02c0.19-0.86,0.41-1.72,0.67-2.59c0.21-0.67,0.44-1.15,0.68-1.43c0.24-0.29,0.66-0.46,1.27-0.53
		c0.89-0.1,1.39,0.31,1.49,1.23c0.07,0.64,0.05,1.15-0.06,1.55c-0.02,0.13-0.27,1.03-0.76,2.7c2.57-1.77,4.03-2.76,4.4-2.96
		c2.04-1.29,3.57-2,4.59-2.12c1.21-0.14,2.23,0.25,3.08,1.17C167.94,99.98,168.43,101.06,168.57,102.3z"/>
	<path d="M200.03,90.89c0.13,1.14-0.49,2.76-1.86,4.85c-0.77,1.15-2.13,3.24-4.07,6.26c-1.45,2.29-2.07,4.31-1.87,6.06
		c0.1,0.92,0.74,1.3,1.92,1.13c0.25-0.03,0.49-0.07,0.71-0.13l0.48-0.05c0.48-0.05,0.99-0.03,1.55,0.06l0.75,0.69
		c-0.12,0.05-0.88,0.34-2.27,0.89c-0.93,0.33-1.7,0.53-2.3,0.6c-1.3,0.15-2.26-0.06-2.88-0.64c-0.51-0.52-0.84-1.45-0.99-2.79
		l-0.12-1.1c-0.04-0.35-0.07-0.72-0.08-1.1c-2.04,1.65-3.47,2.78-4.3,3.39c-3.76,2.65-7.08,4.14-9.97,4.47
		c-3.21,0.37-4.91-0.23-5.08-1.79c-0.13-1.14,1.06-3.68,3.58-7.6c1.72-2.68,3.44-5.11,5.16-7.3c2.25-2.87,3.74-4.34,4.47-4.42
		c0.6-0.07,0.94,0.21,1.02,0.85c0.09,0.83-0.87,2.71-2.88,5.64c-0.89,1.23-2.22,3.1-4,5.62c-1.8,2.62-2.92,4.66-3.36,6.13l0.53,0.42
		c0.22-0.03,0.54-0.04,0.96-0.06c0.42-0.01,0.74-0.04,0.96-0.06c0.99-0.11,2.01-0.45,3.07-1.03c0.63-0.36,1.59-0.9,2.86-1.63
		c3.21-1.75,5.63-3.44,7.25-5.08c0.84-0.84,1.93-2.44,3.27-4.82c0.59-1.06,1.66-2.97,3.21-5.73c1.08-1.86,1.95-2.83,2.62-2.91
		c0.38-0.04,0.81,0.07,1.29,0.33L200.03,90.89z"/>
</g>
</svg>
