<?xml version="1.0" encoding="utf-8"?>
<!-- Generator: Adobe Illustrator 23.1.1, SVG Export Plug-In . SVG Version: 6.00 Build 0)  -->
<svg version="1.1" id="レイヤー_1" xmlns="http://www.w3.org/2000/svg" xmlns:xlink="http://www.w3.org/1999/xlink" x="0px"
	 y="0px" viewBox="0 0 81.61 69.64" style="enable-background:new 0 0 81.61 69.64;" xml:space="preserve">
<g>
	<polygon points="35.2,63.5 35.21,63.5 35.21,63.49 35.19,63.49 35.19,63.51 35.21,63.5 	"/>
	<path d="M31.64,67.17l0-0.01c-0.01,0-0.01,0-0.02,0L31.64,67.17z"/>
	<path d="M35.25,63.62L35.25,63.62c0.01,0,0.02,0,0.02,0l0-0.01L35.25,63.62L35.25,63.62z"/>
	<path d="M31.58,67c0,0,0.01,0,0.01,0l-0.01-0.02L31.58,67z"/>
	<path d="M42.84,59.17c2.16-0.58,4.44-1.17,4.01-1.11C44.63,58.63,33.11,61.54,42.84,59.17z"/>
	<path d="M44.55,56.35l8.15-2.01C49.09,55.2,46.67,55.81,44.55,56.35z"/>
	<path d="M30.05,57c1.44-0.39,3.13-0.83,5.07-1.32C32.69,56.3,30.63,56.84,30.05,57z"/>
	<path d="M37.17,55.17c-0.61,0.15-1.22,0.3-1.8,0.45C35.95,55.47,36.55,55.32,37.17,55.17z"/>
	<path d="M23.09,58.56l0.04,0.03l-0.02,0.04c0.02-0.01,0.04-0.01,0.06-0.02l0.02,0.02l0.01-0.03c0.01,0,0.02,0,0.02,0l0-0.02l0-0.01
		l-0.01-0.01l0-0.02c-0.01,0-0.02,0-0.03,0l-0.02-0.02l-0.01,0.03C23.14,58.55,23.11,58.56,23.09,58.56z"/>
	<path d="M33.61,53.27l2.96-0.75C35.5,52.78,34.52,53.03,33.61,53.27z"/>
	<path d="M22.24,56.14l0.06,0.04l-0.04,0.07c0.03-0.01,0.07-0.02,0.1-0.03l0,0l0-0.01c0.01,0,0.03,0,0.04-0.01l-0.01-0.04l0.01-0.02
		l-0.01-0.01l-0.01-0.04c-0.01,0-0.03,0.01-0.04,0.01l0,0l0,0C22.3,56.13,22.27,56.14,22.24,56.14z"/>
	<path d="M20.66,54.01c0.03-0.01,0.05-0.02,0.08-0.02l-0.02-0.08L20.66,54.01z"/>
	<path d="M20.76,54.1l-0.02-0.08c-0.03,0.01-0.06,0.01-0.08,0.02L20.76,54.1z"/>
	<path d="M39.03,49.3l19.04-4.61l-7.51,1.75C47.91,47.09,38.56,49.37,39.03,49.3z"/>
	<g>
		<path d="M41.21,13.35c-0.01,0.02-0.02,0.03-0.03,0.05c0-0.01,0.01-0.02,0.02-0.02C41.2,13.37,41.2,13.36,41.21,13.35z"/>
		<path d="M19.88,1.96l-1.01,0.26c0.61-0.15,1.06-0.26,1.39-0.33L19.88,1.96z"/>
		<path d="M52.74,12.99c0.29-0.03,0.61-0.05,0.92-0.09C53.35,12.93,53.04,12.96,52.74,12.99z"/>
		<path d="M54.83,12.71c-0.36,0.08-0.72,0.13-1.08,0.17c0.35-0.04,0.69-0.09,1-0.15c0.08-0.02,0.16-0.04,0.23-0.06L54.83,12.71z"/>
		<path d="M38.11,66.33c2.03-0.28,1.85-0.7,1.85-0.7c-0.02-0.08-0.08-0.15-0.16-0.2c-0.03-0.02-0.05-0.03-0.08-0.04
			c-0.27-0.07-1.33,0.14-7.44,1.62l-0.66,0.15l-0.05-0.19c0.55-0.18,1.12-0.36,1.69-0.54c-0.56,0.18-1.09,0.36-1.59,0.52l0-0.01
			l-0.01,0.01c-0.02,0.01-0.05,0.01-0.07,0.02l0.02,0.07l-0.01,0.01c0,0,0.01,0,0.01,0l0.01,0.01l-0.01,0l0.01,0.01l0.02,0.07
			c0.02-0.01,0.04-0.01,0.06-0.02l0.02,0.01l0-0.01c3.65-0.92,5.61-1.39,4.42-1.15l-4.44,1.07l0-0.01
			c4.16-1.36,8.91-2.84,13.94-4.54c0.64-0.22,1.25-0.43,1.94-0.71c0.16-0.07,0.32-0.14,0.47-0.22c0.14-0.08,0.3-0.16,0.38-0.32
			c0.05-0.17-0.08-0.35-0.24-0.41c-0.16-0.05-0.33-0.04-0.51-0.04c-0.35,0.02-0.71,0.08-1.07,0.14c-0.34,0.06-0.68,0.13-1.02,0.2
			c-0.68,0.14-1.36,0.3-2.04,0.46c-2.72,0.64-5.48,1.32-8.26,2.01l0.01,0.01l-0.02-0.01c0,0,0,0,0,0l0,0l-0.01,0h0.01l0-0.01
			c0.01,0,0.01-0.01,0.02-0.01l0.01,0.01l0.11-0.03l0.01,0l0-0.01l0.24-0.07c1.61-0.41,3.53-0.9,5.63-1.41
			c1.14-0.28,2.32-0.56,3.54-0.84c0.61-0.13,1.22-0.27,1.85-0.38c0.37-0.07,0.75-0.13,1.08-0.13c0.16,0,0.31,0.01,0.46,0.05
			c0.15,0.03,0.28,0.18,0.31,0.34c0.03,0.18-0.12,0.28-0.23,0.37c-0.12,0.09-0.25,0.17-0.41,0.25c-0.15,0.08-0.33,0.15-0.5,0.22
			l-0.51,0.2c-0.59,0.22-1.18,0.42-1.76,0.62l-3.41,1.13l-5.72,1.88c4.24-1.33,7.37-2.31,9.8-3.13l0.88-0.31l0.44-0.16
			c0.19-0.07,0.38-0.14,0.55-0.22c0.36-0.15,0.62-0.32,0.79-0.47c0.08-0.08,0.17-0.16,0.18-0.3c0-0.14-0.07-0.28-0.17-0.37
			c-0.1-0.09-0.2-0.11-0.31-0.14c-0.11-0.02-0.23-0.04-0.36-0.04c-0.27,0-0.59,0.04-0.89,0.09l-0.4,0.06l-0.32,0.06l-0.61,0.12
			c-1.98,0.44-3.59,0.83-5.72,1.37l7.64-2.13l-1.32,0.49c1.97-0.55,3.94-1.12,5.9-1.7c0.98-0.29,1.96-0.59,2.94-0.9
			c0.49-0.16,0.98-0.31,1.46-0.48l0.73-0.26l0.19-0.07l0.26-0.11c0.17-0.08,0.34-0.16,0.48-0.25c0.14-0.09,0.24-0.19,0.32-0.29
			c0.08-0.1,0.14-0.25,0.1-0.4c-0.02-0.15-0.12-0.28-0.24-0.38c-0.11-0.06-0.23-0.11-0.38-0.13c-0.16-0.02-0.34-0.02-0.52-0.01
			l-0.28,0.02l-0.24,0.03c-0.26,0.03-0.51,0.07-0.77,0.12c-1.02,0.18-2.02,0.39-3.02,0.61c-2,0.44-3.99,0.92-5.98,1.4
			c3.44-0.76,4.87-1.03,5.66-1.18l1.83-0.32c0.29-0.05,0.66-0.12,1.16-0.21c-2.63,0.48-7.75,1.71-16.95,3.99l-0.24,0.05
			c-3.86,0.96-7.85,1.95-10.78,2.62l-0.05-0.2c0.07-0.02,0.15-0.04,0.22-0.06c13.26-3.67-1.16,0.39,0.34,0.01
			c3.63-1.07,7.29-2.08,10.94-3.07c2.6-0.68,5.28-1.38,7.83-2.03c2.73-0.71,5.08-1.32,7.12-1.85l-4.05,1.08l1.9-0.44l5.23-1.44
			c7.35-1.95,9.2-2.55,9.41-2.92c0.04-0.06,0.02-0.11-0.01-0.21c-0.03-0.09-0.09-0.17-0.18-0.22c-0.03-0.02-0.06-0.03-0.11-0.05
			c-0.31-0.09-1.38,0-6.92,1.28c-3.81,0.88-8.71,2.09-13.91,3.37l-0.18,0.04c-0.6,0.15-1.21,0.3-1.83,0.45
			c0.32-0.08,0.65-0.16,0.99-0.25L40,57.47c-1.05,0.26-2.1,0.51-3.13,0.77l-0.26,0.06c-8.62,2.02-0.53-0.01,13.34-3.41
			c7.26-1.79,10.57-2.55,13.66-3.17c0.77-0.15,1.53-0.3,2.35-0.37c0.11-0.01,0.21-0.01,0.32,0c0.12,0.01,0.25,0.05,0.34,0.13
			c0.12,0.09,0.17,0.22,0.19,0.34c0.02,0.07-0.02,0.19-0.06,0.23c-0.05,0.06-0.1,0.09-0.15,0.12c-0.4,0.24-0.83,0.38-1.29,0.54
			c-1.83,0.61-4.1,1.22-7.22,2.07c1.43-0.37,2.86-0.75,4.29-1.14c0.71-0.2,1.43-0.39,2.14-0.61c0.36-0.11,0.71-0.22,1.06-0.34
			c0.36-0.13,0.7-0.24,1.06-0.46c0.04-0.03,0.09-0.06,0.14-0.11c0.02-0.02,0.05-0.06,0.07-0.08c0.03-0.05,0.04-0.1,0.04-0.15
			c0-0.1-0.02-0.15-0.03-0.2c-0.02-0.06-0.05-0.13-0.09-0.18c-0.04-0.06-0.12-0.11-0.14-0.13c-0.06-0.04-0.11-0.06-0.17-0.08
			c-0.12-0.04-0.23-0.04-0.33-0.04c-0.4,0.01-0.76,0.07-1.13,0.12c-0.74,0.12-1.46,0.26-2.19,0.41c-1.45,0.3-2.9,0.62-4.34,0.95
			c-14.75,3.53-25.3,6.39-33.41,8.14l-0.01-0.06c3.47-1.02,6.47-1.8,9.13-2.49c3.74-0.94,7.91-1.97,11.83-2.93
			c6.61-1.62,13.44-3.3,18.57-4.66c2.76-0.73,4.78-1.3,6.18-1.75c2.22-0.71,2.55-0.99,2.45-1.35c-0.03-0.09-0.09-0.16-0.18-0.21
			c-0.04-0.02-0.07-0.04-0.11-0.05c-0.37-0.1-1.7,0.03-8.87,1.67c-1.07,0.24-2.22,0.51-3.41,0.79c1.28-0.33,3.61-0.89,6.55-1.54
			c0.92-0.2,1.9-0.41,2.93-0.62c0.51-0.1,1.04-0.2,1.58-0.28c0.27-0.04,0.54-0.08,0.82-0.1c0.14-0.01,0.28-0.02,0.43,0.03
			c0.07,0.02,0.14,0.07,0.2,0.11c0.07,0.05,0.1,0.13,0.12,0.21c0.02,0.08,0.02,0.16-0.02,0.24c-0.03,0.08-0.09,0.13-0.14,0.18
			c-0.11,0.1-0.24,0.17-0.37,0.23c-0.26,0.13-0.53,0.23-0.79,0.34c-0.54,0.2-1.1,0.37-1.65,0.54c-1.12,0.34-2.26,0.66-3.4,0.98
			c-4.57,1.24-9.18,2.38-12.89,3.31c-3.7,0.92-6.51,1.62-7.49,1.9l14.1-3.49c4.27-1.09,8.04-2.04,10.99-3
			c0.37-0.12,0.72-0.25,1.06-0.41c0.17-0.08,0.33-0.16,0.5-0.29c0.08-0.06,0.16-0.15,0.21-0.27c0.04-0.13,0.03-0.26-0.02-0.37
			c-0.12-0.25-0.34-0.32-0.54-0.35c-0.18-0.01-0.34,0-0.5,0.01c-0.31,0.03-0.61,0.07-0.89,0.11c-1.11,0.18-1.98,0.35-2.59,0.46
			c-1.22,0.23-1.41,0.25-0.3-0.01c-3.76,0.81-7.49,1.7-11.22,2.59l-11.18,2.72c-6.71,1.69,0.27,0.08,10.23-2.22
			c-3.39,0.81-6.96,1.67-10.29,2.47l-0.06,0.01c-8.09,1.96-17.2,4.16-22.14,5.2l0.83-0.22c0.54-0.15,1.07-0.29,1.61-0.44
			c0.78-0.17,1.55-0.34,2.33-0.51c-0.55,0.11-1.1,0.22-1.66,0.33c3.54-0.95,7.07-1.86,10.31-2.69c3.94-1.01,7.46-1.89,10.15-2.49
			c2.45-0.53-4.4,1.16-10.25,2.63c6.68-1.68,15.45-3.76,25.71-6.3c2.8-0.7,5.71-1.43,8.7-2.28c0.75-0.21,1.5-0.44,2.26-0.69
			l0.29-0.1l0.16-0.06l0.24-0.09c0.33-0.13,0.66-0.29,0.83-0.48c0.09-0.09,0.15-0.19,0.19-0.29c0.04-0.1,0.06-0.24,0.03-0.38
			c-0.04-0.27-0.26-0.48-0.44-0.58c-0.19-0.12-0.56-0.13-0.92-0.12c-0.44,0.03-0.57,0.05-0.78,0.07c-0.41,0.06-0.82,0.12-1.22,0.19
			c-0.81,0.14-1.61,0.3-2.42,0.47c-0.13,0.02-0.25,0.05-0.38,0.08c1.37-0.36,2.76-0.74,4.17-1.14c0.52-0.15,1.03-0.31,1.55-0.47
			c0.26-0.08,0.52-0.17,0.78-0.26l0.39-0.14l0.24-0.09c0.1-0.04,0.19-0.08,0.28-0.12c0.18-0.09,0.34-0.19,0.46-0.3
			c0.11-0.11,0.2-0.22,0.23-0.39c0.02-0.17-0.05-0.34-0.16-0.46c-0.12-0.14-0.24-0.17-0.4-0.22c-0.16-0.04-0.37-0.04-0.57-0.03
			c-0.1,0-0.21,0.01-0.31,0.02l-0.22,0.02c-0.28,0.03-0.56,0.07-0.83,0.12c-2.2,0.37-4.36,0.87-6.51,1.37
			c-2.15,0.5-4.29,1.02-6.39,1.54l-11.85,2.95c-9.63,2.37-14.35,3.5-16.23,3.94c-1.88,0.44-0.93,0.2,0.76-0.22
			c3.38-0.84,9.69-2.44,2.19-0.68l26.17-6.37c-5.41,1.25-11.12,2.65-16.89,4.07c-4.36,1.05-5.53,1.27-13.83,3.34
			c5.22-1.32,10.46-2.6,15.7-3.89c-4.31,1.01-8.46,1.99-12.89,3.06c-2.22,0.54-4.51,1.1-6.92,1.71C27,52.28,25.64,52.62,24.24,53
			c-0.53,0.11-1.05,0.22-1.57,0.33c5.52-1.54,16-4.08,25.37-6.35l0.17-0.04c7.42-1.8,15.1-3.66,20.76-5.12
			c3.09-0.8,5.34-1.41,6.89-1.88c2.58-0.79,2.81-1.04,2.71-1.38c-0.03-0.1-0.09-0.18-0.19-0.23c-0.02-0.01-0.04-0.02-0.07-0.03
			c-1.23-0.34-9.31,1.52-31.44,6.94l-0.05,0.01c-8.92,2.18-18.88,4.62-24.6,5.84c1.67-0.45,3.37-0.88,5.07-1.31
			c0.06-0.01,0.13-0.03,0.19-0.04c2.68-0.62,5.99-1.4,9.48-2.25c2.93-0.71,5.99-1.46,8.92-2.17l3.85-0.91
			c2.83-0.67,5.68-1.35,8.55-2.04c0.65-0.14,1.21-0.27,1.69-0.37c6.57-1.56,9.93-2.32,11.69-2.72c1.76-0.39,1.92-0.44,2.11-0.5
			c0.19-0.05,0.41-0.14,2.32-0.49c0.24-0.04,0.51-0.09,0.81-0.12c0.15-0.02,0.31-0.04,0.47-0.06c0.16-0.02,0.43-0.04,0.65-0.02
			c0.23,0.02,0.43,0.04,0.6,0.19c0.17,0.14,0.23,0.46,0.08,0.63c-0.13,0.18-0.37,0.33-0.65,0.46c-0.32,0.14-0.5,0.2-0.76,0.29
			c-1.93,0.66-4.51,1.35-7.9,2.24c-0.72,0.21,0.56-0.09,2.95-0.72c1.19-0.32,2.67-0.71,4.29-1.22l0.62-0.21l0.31-0.11l0.35-0.13
			c0.3-0.12,0.6-0.27,0.77-0.46c0.09-0.1,0.16-0.2,0.18-0.33c0.01-0.14-0.03-0.29-0.11-0.4c-0.08-0.12-0.19-0.19-0.31-0.23
			c-0.12-0.05-0.27-0.07-0.43-0.08c-0.16-0.01-0.34,0.01-0.51,0.01l-0.38,0.04c-0.48,0.05-0.96,0.13-1.44,0.21
			c-1.48,0.26-2.97,0.57-4.46,0.9c0.57-0.15,1.14-0.29,1.71-0.45c0.01,0,0.02,0,0.03-0.01c1.09-0.23,2.13-0.43,3.08-0.59
			c0.27-0.04,0.52-0.08,0.78-0.11l0.38-0.04c0.13-0.01,0.22-0.02,0.43-0.04c0.38-0.02,0.74,0,0.94,0.12
			c0.22,0.09,0.39,0.36,0.38,0.6c-0.01,0.25-0.14,0.4-0.3,0.55c-0.17,0.15-0.4,0.26-0.61,0.35l-0.16,0.07l-0.11,0.04l-0.18,0.07
			l-0.29,0.11c-0.34,0.12-0.46,0.17-0.3,0.14c0.25-0.08,0.5-0.17,0.75-0.27l0.24-0.09c0.1-0.04,0.21-0.09,0.3-0.14
			c0.19-0.1,0.37-0.21,0.49-0.33c0.12-0.12,0.19-0.25,0.22-0.42c0.02-0.17-0.04-0.36-0.13-0.5c-0.1-0.15-0.23-0.22-0.39-0.29
			c-0.16-0.06-0.38-0.08-0.6-0.08c-0.11,0-0.23,0.01-0.34,0.02l-0.24,0.02l-0.41,0.04c-0.27,0.04-0.55,0.07-0.82,0.12
			c-0.54,0.09-1.09,0.19-1.64,0.29c-0.23,0.04-0.45,0.09-0.68,0.14c1.03-0.28,2.06-0.56,3.08-0.87c0.65-0.19,1.29-0.39,1.93-0.62
			c0.32-0.12,0.64-0.24,0.96-0.38c0.39-0.18,0.91-0.51,0.75-0.98c-0.06-0.22-0.23-0.38-0.44-0.47c-0.1-0.04-0.22-0.07-0.34-0.08
			c-0.12-0.01-0.26-0.01-0.34-0.01c-0.36,0.01-0.7,0.05-1.03,0.09c-0.67,0.09-1.34,0.21-2.01,0.32c-1.33,0.24-2.66,0.52-3.98,0.8
			c-2.64,0.57-5.28,1.18-7.91,1.8c-5.26,1.24-10.5,2.53-15.72,3.81l-15.55,3.83l-7.69,1.85c-1.39,0.33-2.78,0.65-4.16,0.96
			c3.58-0.97,7.38-1.91,11.35-2.88c4.85-1.19,9.94-2.4,15.17-3.64c5.23-1.24,10.6-2.51,16-3.83c2.7-0.66,5.41-1.33,8.11-2.03
			c1.35-0.35,2.7-0.71,4.04-1.1c0.67-0.2,1.34-0.39,2-0.63c0.33-0.12,0.67-0.23,1-0.44c0.08-0.05,0.17-0.12,0.25-0.22
			c0.09-0.11,0.12-0.3,0.08-0.43c-0.02-0.11-0.1-0.25-0.2-0.33c-0.02-0.02-0.06-0.04-0.08-0.06l-0.07-0.04
			c-0.05-0.02-0.11-0.05-0.16-0.07c-0.22-0.06-0.4-0.05-0.58-0.04c-0.18,0.01-0.36,0.02-0.53,0.04c-0.35,0.04-0.7,0.09-1.04,0.14
			c-0.69,0.11-1.37,0.24-2.05,0.38c-1.35,0.27-2.7,0.56-4.03,0.86c-0.1,0.02-0.2,0.05-0.3,0.07c1.72-0.43,3.66-0.92,5.94-1.55
			c1.09-0.34,2.18-0.67,3.25-1.1c0.27-0.1,0.53-0.21,0.78-0.34c0.12-0.07,0.25-0.15,0.37-0.25c0.06-0.05,0.12-0.12,0.16-0.21
			c0.05-0.08,0.07-0.2,0.06-0.29c-0.02-0.19-0.14-0.36-0.29-0.45c-0.16-0.09-0.31-0.1-0.45-0.12c-0.27-0.02-0.52-0.01-0.77,0.01
			c-0.99,0.08-1.89,0.24-2.72,0.38c-1.32,0.23-2.48,0.47-3.54,0.69c0.83-0.21,1.71-0.44,2.67-0.7c0.85-0.23,1.74-0.48,2.69-0.78
			c0.24-0.08,0.48-0.15,0.73-0.24c0.25-0.1,0.5-0.18,0.78-0.35c0.08-0.05,0.15-0.1,0.24-0.19c0.02-0.02,0.04-0.05,0.07-0.07
			l0.04-0.06l0.02-0.03c0.06-0.09,0.08-0.18,0.09-0.28c0.01-0.1,0-0.17-0.01-0.24l-0.01-0.07c-0.02-0.06-0.03-0.08-0.05-0.12
			c-0.03-0.07-0.07-0.13-0.12-0.19c-0.04-0.06-0.14-0.14-0.17-0.16l-0.04-0.03l-0.06-0.04l-0.03-0.01
			c-0.01-0.01-0.03-0.02-0.05-0.02c0.03,0.02,0.05,0.03,0.07,0.04l0.05,0.03l0.01,0.01l0.03,0.02c0.01,0.01,0.06,0.04,0.1,0.09
			c0.05,0.04,0.08,0.08,0.11,0.12c0.06,0.08,0.1,0.18,0.13,0.27c0,0.01,0.02,0.08,0.03,0.12c0,0.05,0.01,0.11,0,0.18
			c-0.01,0.14-0.09,0.28-0.14,0.34c-0.14,0.17-0.24,0.22-0.35,0.29c-0.21,0.12-0.39,0.19-0.58,0.27c-0.75,0.28-1.52,0.49-2.32,0.72
			c-1.46,0.41-3.01,0.81-4.64,1.22c-0.04,0.01-0.08,0.02-0.12,0.03c-2.54,0.54-4.47,0.98-6.48,1.43c-0.99,0.23-1.99,0.46-3.1,0.71
			c0.55-0.14,1.1-0.29,2.09-0.54c6.73-1.63,9.73-2.4,10.98-2.71c1.25-0.31,0.75-0.12,0.43,0c0.77-0.21,1.52-0.43,2.26-0.66
			c0.37-0.12,0.74-0.24,1.11-0.4c0.19-0.09,0.37-0.16,0.59-0.36c0.03-0.03,0.06-0.06,0.09-0.11l0.01-0.02l0.02-0.04
			c0.01-0.02,0.03-0.05,0.03-0.08c0.04-0.12,0.04-0.23,0.02-0.31c-0.01-0.06-0.01-0.05-0.03-0.11c-0.02-0.05-0.03-0.09-0.06-0.13
			c-0.04-0.07-0.1-0.15-0.18-0.21c-0.08-0.06-0.24-0.16-0.37-0.18c-0.13-0.03-0.24-0.03-0.35-0.04c-0.21,0-0.4,0.01-0.59,0.03
			c-0.37,0.04-0.74,0.09-1.1,0.15c-0.71,0.11-1.41,0.24-2.09,0.38c-2.73,0.54-5.26,1.13-7.67,1.69c-4.8,1.13-9.06,2.19-13.12,3.2
			c-8.13,2.03-15.46,3.9-24.69,6.09l6.44-1.47c-4.22,1.04-8.33,2.03-12.39,2.98c-2.03,0.47-4.04,0.94-6.06,1.38
			c-1.83,0.39-3.65,0.79-5.48,1.09c1.76-0.57,3.56-1.04,5.35-1.52c1.98-0.52,3.96-1.02,5.96-1.51c3.99-0.99,8.03-1.96,12.15-2.93
			c8.25-1.96,16.84-3.95,26.14-6.19c6.81-1.58,1.05-0.14-7.87,1.99c-8.92,2.12-21,4.97-26.78,6.43c5.71-1.38,17.78-4.21,21.69-5.09
			c5.96-1.45,14-3.35,22.38-5.51c2.09-0.55,4.21-1.1,6.3-1.76c0.26-0.08,0.52-0.17,0.78-0.27l0.25-0.1
			c0.09-0.04,0.19-0.07,0.28-0.12c0.18-0.09,0.35-0.18,0.46-0.29c0.12-0.11,0.21-0.21,0.25-0.36c0.04-0.16-0.02-0.34-0.11-0.46
			c-0.1-0.14-0.23-0.2-0.37-0.24c-0.15-0.05-0.33-0.06-0.53-0.06c-0.1,0-0.2,0-0.3,0.01l-0.27,0.02l-0.41,0.05
			c-0.27,0.04-0.54,0.08-0.81,0.12c-0.54,0.09-1.07,0.19-1.6,0.3c-4.22,0.86-8.28,1.86-12.01,2.75c7.13-1.75,1.75-0.55-6.6,1.45
			L32.4,35.69c1.72-0.35,8.71-2.02,23.43-5.61c-1.74,0.49-20.82,5.16-29.75,7.31c18.45-4.36,1.76-0.32,4.09-0.8
			c-7.97,1.91-15.17,3.56-18.55,4.14l-0.05-0.19c4.87-1.51,18.53-4.74,30.59-7.6l0.22-0.05c2.59-0.61,5.21-1.23,7.79-1.85
			c-11.5,2.75-22.01,5.24-29.12,7.01c-0.3,0.1,2.84-0.64,3.53-0.77c0.35-0.07,0.08,0.01-1.53,0.42c-1.61,0.42-4.58,1.12-9.59,2.49
			c4.06-1.1,5.29-1.36,5.41-1.38c0.12,0-0.86,0.28-1.18,0.39c5.19-1.35,9.81-2.46,14-3.47l11.47-2.74c7.03-1.68,13.03-3.1,19.35-4.7
			c6.81-1.65,2.95-0.69,0.94-0.18c-1.71,0.41-3.41,0.82-5.11,1.23l-7.8,1.92c4.05-0.99,8.1-1.98,12.15-2.95
			c-0.62,0.16-0.1,0.04,3.68-0.88c0.02,0,0.03-0.01,0.04-0.01c2-0.47,4-0.94,6.01-1.38c1.2-0.26,2.39-0.52,3.6-0.75
			c-0.54,0.1-1.09,0.21-1.63,0.32c-1.8,0.37-3.58,0.78-5.37,1.19c-0.82,0.19-1.64,0.38-2.46,0.58c2.71-0.7,5.42-1.41,8.11-2.23
			c0.69-0.22,1.37-0.43,2.06-0.73c0.48-0.21,0.99-0.53,0.79-1.04c-0.08-0.22-0.27-0.39-0.5-0.45c-0.12-0.04-0.25-0.06-0.38-0.06
			c-0.14-0.01-0.27-0.01-0.35,0c-0.75,0.03-1.46,0.14-2.17,0.25c-0.71,0.12-1.42,0.25-2.12,0.39c-3.13,0.62-3.88,0.81-3.57,0.73
			c0.31-0.08,1.69-0.39,2.86-0.63c1.17-0.25,2.13-0.42,1.58-0.33c-0.42,0.07-1.71,0.3-4.42,0.89c1.08-0.28,2.18-0.57,3.31-0.88
			c0.91-0.26,1.83-0.52,2.77-0.84c0.24-0.08,0.47-0.16,0.71-0.27c0.24-0.11,0.48-0.19,0.76-0.44c0.07-0.07,0.15-0.16,0.2-0.3
			c0.05-0.14,0.04-0.3,0.01-0.4c-0.01-0.04-0.04-0.12-0.07-0.17c-0.04-0.06-0.06-0.1-0.11-0.16c-0.03-0.03-0.06-0.05-0.08-0.07
			c-0.03-0.02-0.03-0.02-0.05-0.04l-0.02-0.01l-0.05-0.04l-0.06-0.03c-0.09-0.05-0.21-0.07-0.29-0.08
			c-0.08-0.01-0.16-0.01-0.23-0.01c-0.14,0-0.28,0.01-0.41,0.02c-1.05,0.12-2.06,0.32-3.1,0.53c-1.03,0.21-2.09,0.44-3.16,0.69
			c-4.3,0.97-8.92,2.09-14,3.34c9.7-2.32,0.8-0.12-4.41,1.17c8.46-2.04,13.69-3.32,18.82-4.5c1.28-0.29,2.56-0.57,3.9-0.83
			c0.67-0.12,1.34-0.26,2.07-0.32c0.19-0.01,0.36-0.03,0.61,0.01c0.07,0.01,0.14,0.04,0.2,0.07l0.04,0.02l0.05,0.03
			c0.02,0.02,0.03,0.01,0.07,0.05c0.08,0.07,0.12,0.13,0.16,0.2c0.02,0.04,0.03,0.07,0.05,0.13l0.01,0.03l0.01,0.06
			c0.04,0.16-0.04,0.39-0.14,0.49c-0.09,0.11-0.19,0.18-0.28,0.23c-0.18,0.11-0.36,0.19-0.54,0.27c-0.71,0.29-1.45,0.51-2.21,0.75
			c-0.77,0.23-1.56,0.46-2.4,0.68c-1.04,0.28-2.15,0.57-3.32,0.87c-0.46,0.1-0.95,0.21-1.47,0.33c0.47-0.12,1.11-0.29,1.86-0.5
			c1.9-0.51,4.46-1.2,6.46-1.86c0.5-0.17,0.96-0.33,1.37-0.54c0.1-0.05,0.2-0.11,0.3-0.18c0.09-0.07,0.19-0.16,0.24-0.31
			c0.02-0.07,0.03-0.15,0.01-0.22c-0.01-0.04-0.01-0.06-0.02-0.08c-0.02-0.04-0.03-0.06-0.04-0.1c-0.03-0.05-0.06-0.1-0.12-0.15
			c-0.06-0.06-0.06-0.04-0.12-0.09c-0.08-0.04-0.19-0.07-0.26-0.08c-0.08-0.01-0.15-0.01-0.21-0.01c-0.12,0-0.22,0.01-0.29,0.02
			c-0.15,0.02-0.2,0.03-0.14,0.03c0.06,0,0.23-0.02,0.55-0.01c0.07,0.01,0.18,0.02,0.28,0.06c0.03,0.02,0.04,0.02,0.08,0.04
			l0.06,0.04c0.02,0.02,0.03,0.04,0.05,0.06c-0.1-0.11-0.23-0.17-0.36-0.19c-0.19-0.03-0.36-0.01-0.53,0
			c-0.34,0.03-0.67,0.07-1,0.12c-2.64,0.44-5.17,1.04-7.65,1.6c-4.95,1.14-9.61,2.28-13.89,3.31c-8.56,2.09-15.58,3.79-20.2,4.8
			c-4.78,1.16-9.01,2.17-12.9,3.06c-1.95,0.45-3.8,0.87-5.61,1.25c-1.03,0.22-2.05,0.43-3.05,0.61c0.67-0.2,1.35-0.39,2.02-0.58
			c1.38-0.38,2.77-0.75,4.16-1.1c2.79-0.71,5.61-1.41,8.59-2.13c5.96-1.44,12.56-2.97,20.78-4.88l-0.71,0.2
			c2.42-0.64,7.76-1.86,14.91-3.56c1.79-0.43,3.69-0.89,5.68-1.39c1.99-0.5,4.08-1.04,6.22-1.67c0.54-0.16,1.08-0.33,1.62-0.52
			l0.41-0.15l0.22-0.09c0.08-0.04,0.19-0.08,0.28-0.13c0.19-0.09,0.35-0.2,0.47-0.32c0.12-0.12,0.21-0.26,0.21-0.44
			c0-0.18-0.1-0.34-0.24-0.45c-0.14-0.1-0.28-0.14-0.48-0.16c-0.19-0.02-0.42-0.01-0.62,0.01c-0.17,0.01-0.3,0.03-0.46,0.04
			c-0.59,0.07-1.17,0.18-1.76,0.29c-2.35,0.44-4.73,1-7.15,1.58c2.31-0.53,4.62-1.05,6.96-1.49c0.59-0.11,1.17-0.21,1.76-0.28
			l0.45-0.05l0.24-0.02c0.09-0.01,0.19-0.01,0.29-0.01c0.39,0,0.73,0.03,0.89,0.37c0.07,0.16,0.03,0.35-0.07,0.47
			c-0.1,0.13-0.24,0.23-0.4,0.33c-0.15,0.09-0.37,0.18-0.51,0.24c-0.14,0.05-0.28,0.11-0.42,0.16c-0.57,0.2-1.13,0.38-1.7,0.54
			c0.16-0.06,0.69-0.23,1.54-0.53c0.22-0.08,0.43-0.16,0.71-0.28c0.3-0.13,0.62-0.29,0.78-0.55c0.08-0.14,0.06-0.35-0.07-0.48
			c-0.12-0.15-0.29-0.18-0.48-0.21c-0.19-0.01-0.41-0.01-0.62,0.01c-0.19,0.02-0.37,0.04-0.56,0.06c-1.51,0.21-3.25,0.58-5.22,1
			c-1.96,0.43-4.14,0.94-6.47,1.49c1.08-0.28,1.08-0.28-1.96,0.41c-2.5,0.65-24.96,6.25-33.31,8.3c-7.57,1.82-14.36,3.39-17.9,4
			c0.62-0.19,1.23-0.36,1.83-0.52c0.99-0.2,1.98-0.42,2.96-0.63c-0.82,0.17-1.63,0.33-2.45,0.49c0.54-0.14,1.06-0.28,1.57-0.42
			c1.58-0.41,3.06-0.78,4.45-1.12l7.44-1.81l11.91-2.84l13.62-3.23c2.79-0.66,5.94-1.41,9.57-2.3c1.82-0.45,3.76-0.93,5.84-1.47
			c1.04-0.27,2.11-0.56,3.22-0.88c0.56-0.16,1.12-0.33,1.69-0.51c0.57-0.18,1.15-0.37,1.74-0.63l0.19-0.1
			c0.09-0.05,0.17-0.09,0.25-0.15c0.16-0.11,0.29-0.23,0.37-0.37c0.18-0.28,0.07-0.7-0.19-0.89c-0.13-0.11-0.29-0.17-0.47-0.21
			c-0.09-0.02-0.19-0.02-0.28-0.02h-0.14l-0.1,0c-0.25,0.02-0.49,0.05-0.73,0.08c-0.96,0.14-1.88,0.34-2.81,0.54
			c-1.86,0.41-3.7,0.86-5.54,1.31l-6.51,1.52c-0.6,0.13-0.01-0.02,0.61-0.19c1.25-0.32,2.62-0.7-5.06,1.15
			c-8.37,2.1-3.58,0.95,1.28-0.19c4.86-1.14,9.78-2.26,1.64-0.25c-6.67,1.58-16.01,3.95-23.55,5.85c-2.49,0.62-4.98,1.23-7.38,1.81
			c4.02-1.04,0.43-0.28-2.21,0.33c-1.63,0.4-3.79,0.92-6.29,1.49c-1.25,0.28-2.58,0.58-3.98,0.87c-0.92,0.19-1.87,0.38-2.84,0.55
			c2.26-0.66,4.61-1.24,6.92-1.82c2.83-0.7,5.62-1.38,8.22-2c-6.66,1.58-8.58,2.07-8.11,1.93c0.47-0.13,3.35-0.85,6.31-1.57
			c5.92-1.44,12.18-2.94,0.15-0.12c0.76-0.22,5.87-1.48,12.26-3c0.73-0.17,1.46-0.34,2.18-0.51l0.14-0.04
			c7.25-1.71,14.72-3.46,20.67-4.95c0.61-0.15,1.19-0.29,1.73-0.42c-0.73,0.26-8.95,2.26-15.68,3.85c-2.75,0.71,1.48-0.27,6.87-1.55
			c5.39-1.26,11.93-2.9,13.85-3.39c0.91-0.25,1.88-0.53,2.92-0.85c0.52-0.16,1.05-0.33,1.59-0.53c0.27-0.1,0.55-0.21,0.82-0.34
			c0.13-0.06,0.34-0.17,0.49-0.29c0.14-0.12,0.27-0.26,0.28-0.45c0-0.19-0.09-0.38-0.24-0.48c-0.15-0.12-0.34-0.18-0.55-0.19
			c-0.23-0.02-0.37,0-0.53,0c-0.16,0.01-0.32,0.03-0.48,0.04c-0.64,0.07-1.27,0.18-1.92,0.29c-1.3,0.23-2.64,0.51-4.02,0.81
			c-5.52,1.2-11.67,2.71-18.03,4.27L25,24.2c-6.27,1.54-12.26,3.03-17.55,4.15l-0.03-0.13c3.59-0.99,6.84-1.8,9.57-2.48
			c4.42-1.09,9.45-2.29,14.14-3.42c0.69-0.17,1.39-0.33,2.08-0.5c2.24-0.5,3.82-0.84,1.26-0.19c8.05-1.92,11.69-2.85,15.27-3.79
			l2.39-0.64c0.53-0.13,1.05-0.27,1.55-0.4c3.35-0.86,5.83-1.54,7.58-2.07c2.93-0.9,3.08-1.17,2.98-1.5l-0.02-0.03l-0.02-0.04
			l0.02-0.04c0.02-0.06,0.03-0.12,0.01-0.17c-0.03-0.09-0.09-0.16-0.17-0.21c-0.02-0.01-0.05-0.02-0.08-0.03
			c-0.32-0.09-1.17,0.05-3.16,0.49c-2.4,0.42-6.1,1.24-12.01,2.66l0.56-0.19l2.49-0.8c1.34-0.56,3.57-1.02,4.54-1.44
			c1.11-0.49,1.65-0.6,1.86-0.7c-0.01,0.01-0.02,0.02-0.03,0.03c-0.04,0.02-0.07,0.03-0.09,0.04c-0.11,0.04-0.19,0.06-0.29,0.09
			c-0.18,0.06-0.36,0.12-0.54,0.19c-0.36,0.13-0.7,0.28-1.06,0.44c0.37-0.16,0.71-0.31,1.07-0.44c0.18-0.06,0.36-0.13,0.54-0.18
			c0.09-0.03,0.18-0.05,0.3-0.1c0.03-0.01,0.06-0.03,0.11-0.07c0.01-0.01,0.02-0.02,0.03-0.02c0.07-0.05,0.09-0.1,0.07-0.18
			c0-0.06-0.01-0.09-0.02-0.12c-0.01-0.02-0.03-0.06-0.04-0.1c-0.02-0.05-0.04-0.11-0.08-0.12c-0.01-0.01-0.04-0.02-0.07-0.04
			c0,0,0,0,0,0c-0.02-0.02-0.05-0.04-0.08-0.05l-0.04-0.03c-0.08-0.04-0.03-0.01-0.05-0.02h0l-0.01,0l-0.02,0l-0.02,0c0,0,0,0,0,0
			h-0.01c-0.15-0.01-0.24,0.01-0.34,0.02c-0.2,0.03-0.39,0.07-0.58,0.11l-1.14,0.27c-0.22,0.07-0.53,0.15-0.9,0.25l0.97-0.24
			l1.12-0.26c0.19-0.04,0.38-0.08,0.58-0.11c0,0,0.01,0,0.01,0c-0.38,0.06-1.11,0.24-2.59,0.61c-0.1,0.03-0.21,0.05-0.32,0.07
			c-2.18,0.56-6.1,1.46-7.4,1.54c-0.02,0-0.04,0-0.07,0l-0.06,0.01c-0.08,0.02-0.12,0.04-0.18,0.07c-0.05,0.03-0.13,0.11-0.13,0.13
			c-0.04,0.06-0.06,0.11-0.08,0.18c-0.02,0.06-0.01,0.17,0,0.18c0.02,0.09,0.06,0.15,0.09,0.19c0.04,0.04,0.07,0.07,0.11,0.1
			c0.02,0.01,0.04,0.03,0.06,0.04l0.04,0.02l0.02,0.01h0l0.04,0.02l0,0l0,0l0.01,0c0.09,0.01,0.16,0.01,0.23,0.01
			c0.02,0.01,0.05,0.01,0.17-0.02c0.04-0.01,0.09-0.01,0.13-0.02c0.15-0.03,2.68-0.64,2.83-0.68c-0.14,0.03,1.23-0.35,1.09-0.33
			c0.19-0.05,0.34-0.05,0.88-0.18l0.43-0.06c-0.77,0.32-1.48,0.4-2.59,0.83c-1.15,0.45-2.47,0.91-3.89,1.36l-1.09,0.35
			c-0.18,0.06-0.37,0.12-0.55,0.2c-0.09,0.04-0.19,0.08-0.27,0.12c-0.04,0.02-0.08,0.04-0.12,0.04l-0.14,0.03l-2.36,0.57l-4.84,1.18
			c-6.46,1.58-12.61,3.1-14.68,3.58c-3.35,0.85-6.43,1.61-9.29,2.29c-2.53,0.6-4.87,1.14-7.09,1.57c2.71-0.81,5.21-1.46,7.54-2.09
			l7.18-1.87c4.5-1.16,8.54-2.19,12.81-3.32c2.14-0.58,4.34-1.15,6.68-1.9c0.29-0.1,0.58-0.2,0.88-0.3c0.4-0.15,0.91-0.37,1.14-0.6
			c0.11-0.12,0.21-0.23,0.22-0.43c0-0.2-0.12-0.38-0.26-0.48c-0.14-0.08-0.28-0.14-0.49-0.16c-0.21-0.02-0.46-0.01-0.71,0.02
			c-0.29,0.03-0.41,0.05-0.59,0.08l-0.5,0.08c-0.33,0.06-0.67,0.12-1,0.19c-0.67,0.13-1.35,0.28-2.05,0.44
			c-5.56,1.25-12.04,2.92-20.22,4.97c-3.66,0.92-6.15,1.52-7.77,1.9c3.4-0.96,6.75-1.84,9.97-2.7l11.98-3.17
			c-0.73,0.23-3.1,0.89-6.3,1.75l-11.26,2.99c2.57-0.62,6.27-1.6,11.15-2.9l8.2-2.22c1.51-0.42,3.1-0.86,4.76-1.35
			c0.83-0.25,1.67-0.5,2.53-0.82c0.26-0.1,0.61-0.24,0.85-0.39c0.17-0.12,0.31-0.23,0.39-0.37c-0.08,0.12-0.2,0.23-0.35,0.33
			c-0.17,0.11-0.38,0.21-0.58,0.29l-0.29,0.12l-0.21,0.08l-0.39,0.13c-0.48,0.16-0.8,0.25-0.75,0.23c0.03-0.01,0.15-0.06,0.38-0.14
			l0.45-0.16l0.29-0.11l0.38-0.15c0.23-0.09,0.47-0.2,0.65-0.32c0.18-0.12,0.32-0.24,0.41-0.39c0.1-0.17,0-0.42-0.14-0.54
			c-0.07-0.08-0.15-0.08-0.24-0.11c-0.08-0.02-0.17-0.04-0.28-0.05c-0.21-0.01-0.45,0-0.68,0.03c-0.25,0.03-0.4,0.05-0.58,0.08
			c-0.34,0.05-0.68,0.11-1.01,0.18c-1.31,0.25-2.54,0.52-3.69,0.78c-2.31,0.53-4.33,1.02-6.13,1.46l-8.69,2.16
			c-4.17,1.04-7.1,1.8-11.45,2.82c2.65-0.75,5.84-1.62,9.94-2.71l8.59-2.3l5.19-1.42c1.84-0.51,3.79-1.05,5.85-1.69
			c0.42-0.14,0.83-0.27,1.26-0.43c0.26-0.1,0.53-0.2,0.75-0.31c0.23-0.12,0.4-0.23,0.54-0.38c0.07-0.07,0.12-0.19,0.08-0.3
			c-0.02-0.12-0.09-0.22-0.18-0.29c-0.09-0.07-0.19-0.08-0.29-0.1c-0.1-0.01-0.21-0.02-0.32-0.02c-0.23,0-0.5,0.03-0.75,0.07
			l-0.35,0.05l-0.3,0.06c-1.6,0.29-3.04,0.64-4.24,0.92c-2.39,0.57-3.79,0.93-3.21,0.84c-15.76,3.76-17.53,4.23-22.94,5.43
			c3.67-1.02,8.93-2.41,17.28-4.63c-1.12,0.25-9.53,2.41-11.25,2.77c2.18-0.59,4.45-1.2,6.6-1.78c1.67-0.45,3.19-0.86,4.59-1.23
			c3.46-0.93,6.6-1.78,9.46-2.59c0.72-0.21,1.42-0.41,2.1-0.62c0.35-0.11,0.67-0.21,1.02-0.34c0.34-0.12,0.68-0.25,0.99-0.4
			c0.07-0.04,0.15-0.08,0.21-0.13c0.07-0.05,0.14-0.11,0.15-0.19c0-0.18-0.1-0.34-0.26-0.4c-0.32-0.06-0.65-0.02-0.99,0.02
			c-0.7,0.09-1.3,0.21-1.92,0.34c-2.45,0.51-4.68,1.04-6.76,1.54c-8.31,1.99-14.17,3.53-21.32,5.16l-0.04-0.16
			c4.91-1.47,10.47-2.97,17.86-5.04l-14.79,4.2c1.32-0.33,4.66-1.26,9.14-2.52c2.24-0.63,4.76-1.34,7.44-2.13
			c1.34-0.39,2.73-0.8,4.13-1.24c0.71-0.22,1.4-0.45,2.12-0.71c0.42-0.15,0.84-0.31,1.1-0.55c0.06-0.07,0.12-0.15,0.13-0.25
			c0.01-0.1-0.03-0.2-0.1-0.28c-0.13-0.18-0.33-0.17-0.51-0.2c-0.33-0.02-0.76,0.04-1.09,0.09c-0.33,0.05-0.65,0.11-0.97,0.17
			c-0.64,0.12-1.29,0.26-1.93,0.41c-1.28,0.29-2.56,0.59-3.84,0.9l-7.47,1.83l1.49-0.51c-2.35,0.59-4.97,1.25-7.79,1.95
			c2.25-0.64,4.58-1.3,6.94-1.97l5.86-1.69c0.99-0.29,1.97-0.59,2.96-0.89l1.48-0.47l0.75-0.25c0.29-0.1,0.63-0.22,0.91-0.34
			c0.28-0.13,0.49-0.25,0.66-0.41c0.08-0.08,0.16-0.19,0.15-0.34c-0.01-0.15-0.11-0.26-0.21-0.34c-0.22-0.08-0.44-0.09-0.72-0.08
			c-0.29,0.02-0.62,0.07-0.95,0.13l-0.81,0.16l-0.75,0.16l-1.5,0.34c-2,0.46-3.97,0.94-5.92,1.4c-2.67,0.65-5.28,1.28-7.8,1.88
			c1.88-0.58,3.77-1.15,5.66-1.72l4.56-1.4c0.76-0.24,1.53-0.48,2.29-0.74l0.57-0.19L27.5,4c0.26-0.1,0.54-0.2,0.75-0.3
			c0.22-0.11,0.38-0.21,0.51-0.31c0.12-0.11,0.27-0.22,0.26-0.45c-0.01-0.23-0.22-0.41-0.37-0.42c-0.16-0.03-0.32-0.05-0.54-0.05
			c-0.21,0-0.49,0.04-0.76,0.1l-0.41,0.08l-0.39,0.08l-0.59,0.13l-1.18,0.27c-1.58,0.37-3.15,0.75-4.72,1.14
			c-2.64,0.65-5.28,1.3-7.94,1.93c2.33-0.89,6.36-1.88,8.68-2.79c0.7-0.29,2.53-0.63,3.23-0.99c0.09-0.05,0.18-0.1,0.27-0.18
			c0.05-0.04,0.1-0.08,0.14-0.16c0.05-0.08,0.06-0.19,0.05-0.26c-0.02-0.12-0.08-0.28-0.21-0.38c-0.03-0.02-0.02-0.02-0.08-0.05
			l-0.04-0.02c-0.02-0.01-0.05-0.02-0.06-0.02C24,1.3,23.94,1.3,23.88,1.3c-0.42,0.05-0.77,0.14-1.14,0.23L18.14,2.5
			c-0.72,0.17-1.86,0.15-2.55,0.28c-0.03,0-0.06,0-0.08,0l-0.03,0l-0.02,0.01c-0.04,0.01-0.02,0.01-0.04,0.01
			c-0.07,0.02-0.13,0.05-0.2,0.11c-0.02,0.02-0.04,0.03-0.05,0.05l-0.02,0.03l-0.01,0.01l-0.02,0.03L15.1,3.03l-0.02,0.06
			c-0.02,0.04-0.02,0.07-0.03,0.12c-0.01,0.04,0,0.11,0,0.12l0.01,0.04c0.01,0.05,0.02,0.05,0.03,0.08c0.02,0.04,0.04,0.07,0.06,0.1
			c0.04,0.05,0.08,0.09,0.13,0.13c0.02,0.02,0.04,0.04,0.08,0.05l0.02,0.01l0.04,0.02l0,0h0l0.01,0l0.01,0c0.02,0,0.04,0,0.06,0.01
			c0.07,0.01,0.12,0,0.17,0c0,0,0,0,0,0l-5.4,2.05C9.74,6.01,9.2,6.22,8.67,6.44l-0.46,0.2C8.04,6.71,7.86,6.79,7.7,6.87
			C7.37,7.05,7.16,7.2,7.02,7.41C6.94,7.52,6.98,7.73,7.08,7.84c0.09,0.14,0.23,0.17,0.35,0.19C7.66,8.09,8.02,8.06,8.4,8
			c0.18-0.03,0.4-0.07,0.54-0.1l0.42-0.08l0.83-0.18c3.39-0.76,6.71-1.59,9.99-2.39C16.41,6.4,12.71,7.49,9.14,8.64
			C8.57,8.82,8.02,9,7.47,9.2C7.23,9.28,6.81,9.43,6.47,9.58C6.13,9.73,5.88,9.87,5.7,10.05c-0.09,0.09-0.17,0.24-0.12,0.4
			c0.01,0.08,0.06,0.14,0.11,0.2c0.05,0.06,0.12,0.1,0.17,0.11c0.24,0.07,0.52,0.08,0.88,0.04c0.18-0.02,0.37-0.05,0.55-0.08
			l0.49-0.09l0.84-0.17c2.22-0.48,4.37-1.01,6.48-1.52c2.32-0.55,4.64-1.11,6.96-1.66c-0.16,0.05-0.33,0.09-0.49,0.14
			C9.36,10.89,7.26,11.53,9.93,10.78l6.92-1.95c2.15-0.6,4.57-1.28,7.01-1.98c0.4-0.09,0.79-0.18,1.18-0.28
			C21.1,7.73,16,9.18,9.96,10.93c-1.76,0.52-3.61,1.04-5.51,1.67c-0.48,0.16-0.98,0.33-1.43,0.55c-0.11,0.05-0.22,0.12-0.32,0.2
			c-0.11,0.09-0.05,0.25,0.01,0.35c0.01,0.01,0.02,0.02,0.03,0.03c0.01,0.01,0.02,0.02,0.04,0.04c0.03,0.02,0.05,0.05,0.08,0.07
			c0.04,0.02,0.09,0.03,0.13,0.03c0.6,0.1,2.61-0.3,8.7-1.79c2.65-0.64,5.4-1.33,8.24-2.02c6-1.44-0.41,0.17-6.66,1.73
			c-3.13,0.78-6.22,1.52-7.71,1.84l-0.79,0.17c-0.15,0.03-0.17,0.04-0.03,0.02c0.28-0.04,1.15-0.2,2.82-0.56l9.36-2.35l6.32-1.57
			c2.21-0.54,4.63-1.14,7.31-1.74c-0.97,0.3-1.97,0.6-3.02,0.9c0.72-0.24-0.67,0.15-3.03,0.81l-8.87,2.48
			c-3.17,0.89-6.17,1.74-7.86,2.24c-1.69,0.5-2.08,0.6-0.04-0.05c-0.74,0.22-1.47,0.45-2.21,0.69l-0.55,0.18l-0.6,0.21
			c-0.26,0.1-0.53,0.2-0.75,0.3c-0.22,0.11-0.38,0.22-0.5,0.34C3.06,15.76,3,15.83,2.97,15.92c-0.04,0.09-0.04,0.21,0,0.31
			c0.04,0.1,0.11,0.19,0.19,0.25c0.08,0.04,0.16,0.07,0.24,0.09c0.32,0.1,0.9,0.03,1.43-0.06l0.6-0.11L6,16.28l1.13-0.24
			c3.01-0.67,5.99-1.41,8.98-2.15c5.94-1.47,11.87-3,17.83-4.39l0,0.02c-3.77,1.1-7.56,2.13-11.34,3.17
			c-3.81,0.99-9.15,2.39-14.77,3.96c-1.4,0.39-2.83,0.8-4.24,1.24C3.24,18,2.9,18.11,2.53,18.24c-0.41,0.15-0.82,0.3-1.11,0.5
			c-0.07,0.05-0.15,0.1-0.2,0.17c-0.03,0.03-0.06,0.07-0.07,0.12c0,0.04,0.01,0.1,0.02,0.14c0.05,0.2,0.23,0.32,0.4,0.33
			c0.34,0.05,0.77,0.01,1.19-0.05c1.48-0.23,2.86-0.54,4.24-0.85c1.37-0.31,2.69-0.62,3.96-0.92c-3.21,0.76-5.52,1.28-7.16,1.58
			c-0.42,0.07-0.76,0.13-1.13,0.18c-0.37,0.05-0.69,0.07-0.94,0.06c-0.12-0.01-0.24-0.02-0.34-0.06c-0.09-0.06-0.16-0.15-0.19-0.24
			C1.18,19.1,1.18,19,1.23,18.94c0.05-0.06,0.11-0.1,0.16-0.14c0.21-0.14,0.36-0.19,0.42-0.21c0.06-0.02,0.04-0.01-0.03,0.03
			c-0.07,0.04-0.18,0.1-0.31,0.18c0,0-0.01,0.01-0.02,0.01c-0.1,0.06-0.17,0.12-0.19,0.17c-0.04,0.06-0.02,0.11,0.01,0.21
			c0.03,0.09,0.09,0.17,0.19,0.22c0.02,0.01,0.04,0.02,0.06,0.03c0.87,0.24,5.74-0.88,19.93-4.38c5.19-1.28,11.08-2.74,14.76-3.54
			l0.05,0.19c-0.59,0.18-1.26,0.37-1.96,0.57c0.8-0.26-3.73,0.98-8.84,2.3l-12.54,3.23c-2.44,0.67-4.79,1.31-7.05,1.98
			c-0.56,0.17-1.13,0.33-1.68,0.51l-0.82,0.27L3.1,20.65l-0.29,0.11c-0.19,0.07-0.38,0.14-0.54,0.22c-0.16,0.08-0.29,0.17-0.39,0.25
			c-0.1,0.09-0.19,0.16-0.24,0.29c-0.03,0.07-0.01,0.15,0.01,0.23c0.02,0.08,0.06,0.15,0.11,0.21c0.1,0.13,0.23,0.15,0.35,0.19
			c0.23,0.08,0.6,0.07,0.99,0.02c0.19-0.02,0.41-0.05,0.57-0.08l0.42-0.07c2.18-0.41,4.25-0.91,6.27-1.39l5.89-1.45l11.02-2.78
			c3.52-0.87,6.96-1.74,10.41-2.48l0,0.01c-2.97,0.92-5.98,1.73-9.04,2.57l-9.54,2.56l0.17-0.18l-6.65,1.82
			c-2.89,0.8-6.13,1.69-8.74,2.56l-0.48,0.17c-0.17,0.06-0.33,0.13-0.49,0.2c-0.15,0.07-0.29,0.15-0.41,0.25
			c-0.12,0.09-0.2,0.25-0.14,0.4c0.03,0.07,0.07,0.13,0.13,0.18c0.05,0.05,0.12,0.08,0.19,0.09c0.14,0.03,0.28,0.03,0.42,0.03
			c0.28-0.01,0.55-0.04,0.78-0.07c0.37-0.05,0.68-0.11,0.95-0.16c2.61-0.46,7.67-1.67,16.54-3.89c0.74-0.18,1.53-0.38,2.42-0.6
			c2.36-0.58,5.32-1.34,9.37-2.33c0.63-0.15,1.24-0.3,1.82-0.44c-2.03,0.59-13.56,3.5-13.74,3.65l8.74-2.21
			c1.01-0.25,2.02-0.51,3.04-0.75c-7.37,2.04-13.77,3.68-19.62,5.25c-2.99,0.81-5.85,1.57-8.61,2.41c-0.35,0.11-0.69,0.22-1.03,0.34
			l-0.26,0.09c-0.1,0.04-0.23,0.08-0.34,0.13c-0.23,0.1-0.45,0.21-0.59,0.34c-0.14,0.12-0.26,0.3-0.21,0.52
			c0.05,0.2,0.22,0.38,0.39,0.43c0.17,0.07,0.41,0.09,0.65,0.08c0.12,0,0.26-0.01,0.36-0.01l0.29-0.03
			c1.42-0.16,2.79-0.44,4.16-0.72c5.48-1.15,10.86-2.49,16.75-3.93l19.5-4.84l0.01,0l0.01,0c0.19,0.03,0.31,0.01,0.45,0
			c0.13-0.01,0.26-0.03,0.39-0.05c0.25-0.04,0.5-0.09,0.75-0.14c0.5-0.1,1-0.21,1.5-0.33l3.06-0.74l-3,0.71
			c-0.5,0.11-1.01,0.23-1.52,0.33c-0.25,0.05-0.51,0.1-0.77,0.14c-0.13,0.02-0.26,0.04-0.39,0.05c-0.14,0.01-0.27,0.03-0.46,0
			l-0.01,0l-0.01,0c-0.04-0.01-0.06,0-0.12,0.01l-0.2,0.05l-0.4,0.1l-0.8,0.2l-1.6,0.39l-3.21,0.79l-6.41,1.59
			c0.05-0.04,1.63-0.45,4-1.06l4.07-1.03l2.32-0.58l1.2-0.3l0.61-0.15l0.3-0.08l0.15-0.04c0.04-0.01,0.07-0.02,0.1-0.01l0.02,0
			l0.01,0c0.33,0.04,0.59-0.03,0.86-0.06c0.27-0.04,0.54-0.1,0.8-0.15c0.53-0.11,1.06-0.23,1.58-0.36l3.05-0.74l5.85-1.39l2.82-0.67
			c-1.64,0.46-3.44,0.93-5.45,1.45c-3.26,0.83-7.1,1.77-11.82,2.91L22.45,23.6c-3.24,0.8-6.64,1.64-10.49,2.63
			c-1.92,0.5-3.96,1.02-6.13,1.66c-0.54,0.17-1.09,0.33-1.64,0.54c-0.14,0.06-0.27,0.12-0.41,0.19c-0.07,0.04-0.14,0.08-0.2,0.14
			c-0.07,0.06-0.13,0.15-0.14,0.26c-0.01,0.11,0.02,0.19,0.06,0.28c0.03,0.04,0.05,0.08,0.09,0.12c0.05,0.05,0.06,0.05,0.11,0.08
			c0.16,0.09,0.34,0.1,0.49,0.1c0.62-0.02,1.23-0.13,1.85-0.24c0.62-0.11,1.24-0.23,1.89-0.36c-1.09,0.25,0.49-0.02,3.51-0.69
			c3.02-0.66,7.48-1.72,12.18-2.86c9.41-2.29,19.84-4.86,21.75-5.25c1.11-0.31,4.26-1.1,8.4-2.09c2.06-0.49,4.37-1.04,6.79-1.58
			c1.21-0.27,2.45-0.54,3.7-0.79c0.78-0.16,1.57-0.31,2.36-0.45c-1.78,0.55-3.56,1.01-5.24,1.46c-2.12,0.55-4.1,1.05-5.84,1.48
			c-3.49,0.86-6,1.47-6.67,1.65c-5.43,1.32-11.86,2.83-16.92,4.01c-5.06,1.18-8.74,2.04-8.67,1.98l8.17-1.96l-10.83,2.58
			c1.03-0.27,0.66-0.19,1.9-0.49c-4.82,1.16-7.25,1.79-10.01,2.52c-1.38,0.37-2.85,0.76-4.73,1.31c-0.47,0.14-0.96,0.29-1.49,0.48
			c-0.26,0.09-0.53,0.19-0.81,0.31c-0.38,0.18-0.79,0.4-0.78,0.81c0.01,0.2,0.13,0.39,0.3,0.49c0.16,0.12,0.39,0.17,0.63,0.18
			l0.18,0.01h0.13L6.2,32.1c0.17-0.01,0.35-0.03,0.53-0.05c0.71-0.08,1.45-0.2,2.24-0.34c-0.03,0.02-0.48,0.11-1.22,0.23
			C7.37,32,6.93,32.07,6.41,32.12C6.28,32.13,6.14,32.14,6,32.15l-0.22,0c-0.11,0-0.21,0-0.32-0.02c-0.21-0.03-0.4-0.09-0.55-0.21
			c-0.15-0.12-0.26-0.31-0.26-0.51c0-0.21,0.11-0.38,0.27-0.52c0.08-0.07,0.18-0.14,0.29-0.2l0.16-0.08l0.14-0.07
			c0.31-0.13,0.63-0.25,0.96-0.36c0.65-0.22,1.33-0.42,2.02-0.62c1.04-0.3,2.1-0.59,3.14-0.87c-1.24,0.32-2.47,0.65-3.67,1.01
			c-0.77,0.23-1.53,0.46-2.29,0.76l-0.14,0.06L5.35,30.6c-0.14,0.07-0.27,0.14-0.39,0.23c-0.22,0.18-0.37,0.4-0.33,0.68
			c0.04,0.27,0.25,0.47,0.5,0.57c0.13,0.05,0.27,0.08,0.42,0.09c0.08,0,0.15,0.01,0.23,0.01l0.16,0c0.82-0.04,1.58-0.17,2.34-0.29
			c0.76-0.13,1.51-0.28,2.26-0.43c1.49-0.3,2.95-0.63,4.39-0.96c5.77-1.33,11.25-2.7,16.59-4.04c10.68-2.67,20.8-5.29,31.46-7.71
			c0.57-0.14,1.6-0.38,2.95-0.68c1.07-0.24,2.35-0.53,3.75-0.78c-2.11,0.66-4.42,1.26-6.67,1.85c-2.63,0.68-5.19,1.32-7.29,1.84
			c-4.21,1.04-6.61,1.64-4.26,1.14c-8,1.85-5.1,1.02-26.76,6.13l-9.24,2.3c-1.55,0.39-3.1,0.79-4.67,1.22
			c-0.79,0.21-1.58,0.43-2.37,0.67c-0.79,0.24-1.59,0.47-2.37,0.84c-0.1,0.05-0.19,0.11-0.29,0.18c-0.09,0.07-0.19,0.17-0.23,0.32
			c-0.03,0.15,0.01,0.28,0.1,0.4c0.04,0.05,0.09,0.1,0.15,0.14c0.05,0.03,0.11,0.06,0.17,0.08c0.24,0.07,0.45,0.06,0.67,0.06
			c0.22,0,0.43-0.02,0.65-0.04c0.86-0.09,1.72-0.24,2.58-0.39c1.73-0.32,3.49-0.69,5.3-1.09c3.62-0.8,7.42-1.7,11.51-2.71
			c-5.46,1.35-8.2,1.99-9.53,2.31c-1.34,0.31-1.26,0.3-1.09,0.27c0.16-0.03,0.41-0.08-0.58,0.15l-2.59,0.58
			c-0.65,0.14-1.41,0.31-2.31,0.49c-0.68,0.13-1.42,0.28-2.28,0.41c1.62-0.24,3.29-0.58,5.03-0.95c0.96-0.2,1.95-0.42,2.95-0.65
			c-1.23,0.31-2.45,0.63-3.68,0.96c-1.32,0.36-2.63,0.73-3.93,1.17c-0.33,0.11-0.65,0.22-0.97,0.35c-0.17,0.07-0.31,0.13-0.49,0.22
			c-0.21,0.11-0.4,0.24-0.52,0.41c-0.13,0.17-0.11,0.42,0,0.6c0.11,0.18,0.31,0.29,0.53,0.33c0.11,0.02,0.23,0.03,0.35,0.04
			c0.09,0,0.18,0,0.27,0c0.18,0,0.35-0.02,0.52-0.03c1.37-0.15,2.7-0.41,4.03-0.66c1.33-0.26,2.64-0.54,3.94-0.82
			c3.31-0.73,6.55-1.47,9.68-2.2c-3.33,0.82-6.57,1.63-9.66,2.44c-1.4,0.37-2.76,0.74-4.09,1.12c-1.33,0.38-2.64,0.77-3.87,1.23
			c-0.31,0.12-0.61,0.24-0.9,0.4c-0.12,0.07-0.23,0.15-0.32,0.25c0,0-0.01,0.01-0.01,0.01c-0.01,0.02-0.03,0.04-0.04,0.05
			c-0.01,0.01-0.01,0.02-0.01,0.02c-0.01,0.03-0.02,0.05-0.02,0.07c0,0.01,0,0.03,0,0.04c0,0.03,0,0.05,0,0.08
			c0,0.01,0.01,0.03,0.01,0.05c0,0,0,0.01,0.01,0.02c0,0.01,0.01,0.01,0.01,0.01c0.02,0.04,0.03,0.07,0.06,0.1
			c0.01,0.01,0.02,0.02,0.02,0.03c0,0,0,0.01,0.01,0.01c0.03,0.03,0.07,0.06,0.1,0.08c0,0,0.01,0,0.01,0.01
			c0.01,0.01,0.04,0.02,0.09,0.04c0.03,0.01,0.05,0.01,0.08,0.02c0.02,0,0.04,0.01,0.05,0.01c1.66,0.24,9.56-1.58,25.15-5.44
			c4.04-0.99,6.83-1.67,6.79-1.65l-11.67,2.96l24.61-6.08c7.91-1.95,14.96-3.64,19.41-4.62c1.33-0.27,2.53-0.5,3.62-0.65l0.02,0.09
			c-1.42,0.47-2.64,0.8-3.7,1.1c-1.07,0.29-1.98,0.52-2.77,0.72c-1.58,0.4-2.7,0.67-3.8,0.93l-9.81,2.33
			c-8.19,2.03-18.37,4.41-29.14,7.02c-2.69,0.65-5.42,1.32-8.16,2.02c-1.37,0.35-2.74,0.71-4.12,1.08
			c-1.37,0.38-2.74,0.75-4.09,1.26c-0.17,0.07-0.33,0.14-0.5,0.23c-0.08,0.05-0.16,0.1-0.24,0.18C9,40.83,8.92,40.98,8.95,41.11
			c0.01,0.11,0.05,0.22,0.13,0.31l0.07,0.07l0.06,0.04c0.06,0.04,0.09,0.05,0.15,0.08c0.21,0.06,0.39,0.05,0.58,0.05
			c0.72-0.04,1.42-0.16,2.13-0.27c1.4-0.24,2.79-0.53,4.17-0.82c2.76-0.59,5.48-1.21,8.16-1.84c10.7-2.5,20.66-4.96,28.58-6.9
			c7.92-1.94,13.8-3.36,16.29-4c-6.68,1.52-16.26,3.85-27.34,6.54c1.21-0.29,2.42-0.59,3.63-0.88l0.11-0.03
			c11.86-2.89,25.31-6.17,30.85-7.21l0.05,0.2c-0.7,0.2-1.53,0.43-2.48,0.68c0.66-0.22,1.32-0.43,1.97-0.66
			c-2.73,0.76-5.47,1.43-8.2,2.1l-8.13,1.96l-15.98,3.78c-5.26,1.25-10.44,2.48-15.54,3.74c-2.55,0.63-5.08,1.26-7.59,1.91
			c-2.51,0.65-4.99,1.3-7.44,2.04c-0.61,0.19-1.22,0.38-1.82,0.6c-0.3,0.11-0.6,0.22-0.89,0.37c-0.14,0.08-0.29,0.16-0.42,0.28
			c-0.06,0.06-0.12,0.15-0.13,0.26c-0.01,0.11,0.02,0.19,0.06,0.28c0.04,0.08,0.13,0.16,0.2,0.19c0.08,0.05,0.17,0.08,0.25,0.1
			c0.17,0.03,0.33,0.02,0.49,0.02c0.32-0.02,0.64-0.05,0.95-0.1c0.63-0.09,1.25-0.2,1.87-0.31c2.47-0.47,4.9-1.02,7.31-1.57
			c4.82-1.11,9.55-2.26,14.19-3.39c9.29-2.26,18.25-4.47,26.9-6.48c2.33-0.56,4.75-1.14,7.23-1.71c2.43-0.56,4.92-1.13,7.45-1.61
			c-4.2,1.19-8.54,2.23-12.82,3.29l-12.77,3.07c-5.48,1.31-10.65,2.54-15.19,3.64c-1.88,0.45-3.73,0.89-5.5,1.32l0.61-0.17
			c-2.18,0.54-5.33,1.3-8.79,2.19c-3.01,0.76-5.28,1.37-6.9,1.86c-3.19,0.94-3.29,1.2-3.19,1.54c0.03,0.09,0.1,0.18,0.19,0.23
			c0.02,0.01,0.04,0.02,0.07,0.03c1.06,0.29,7.63-1.18,24.88-5.42c6.06-1.48,11.88-2.93,17.58-4.32c2.9-0.71,5.77-1.4,8.62-2.09
			c7.1-1.68,13.03-3,15.42-3.26l0.05,0.2c-3.95,1.48-19.76,5.11-32.48,8.03c-1.24,0.28-2.49,0.57-3.73,0.86
			c-8.59,1.94-16,3.62-22.59,5.33c-1.71,0.46-3.37,0.9-4.96,1.43c-0.4,0.13-0.79,0.27-1.17,0.44c-0.19,0.08-0.38,0.18-0.55,0.3
			c-0.08,0.06-0.16,0.14-0.22,0.24c-0.05,0.1-0.04,0.23,0,0.33c0.05,0.11,0.13,0.19,0.23,0.24c0.1,0.05,0.2,0.06,0.31,0.08
			c0.2,0.02,0.41,0.02,0.61,0.01c0.4-0.02,0.8-0.07,1.2-0.12c1.58-0.23,3.09-0.54,4.57-0.85c1.48-0.32,2.93-0.64,4.35-0.97
			c11.36-2.68,21.13-5.24,33.05-8.06l-2.68,0.68l9.81-2.41c1.91-0.46,3.9-0.94,5.91-1.41c1.99-0.46,4-0.91,5.96-1.26l0.02,0.09
			l-1.01,0.3c0.28-0.08,0.62-0.18,1.01-0.29l0.01,0.04l0.01-0.02l0-0.03c0.01,0,0.02,0,0.03-0.01l0.01-0.02l-0.04,0.01l-0.02-0.09
			c0.01,0,0.03-0.01,0.04-0.01l-0.02-0.01c-0.01,0-0.02,0-0.02,0l0-0.02l-0.02-0.01l0.01,0.04c-2.57,0.42-6.9,1.41-10.87,2.35
			c4.75-1.14,8.71-2.03,10.91-2.4l0.05,0.2c-4.57,1.43-17.46,4.48-28.84,7.17l-0.37,0.09c-5.76,1.36-11.65,2.76-16.78,4.01
			c-1.4,0.32-2.92,0.68-4.99,1.19c-3.39,0.88-4.58,1.22-4.64,1.25c-0.02,0.01,0.07-0.01,0.23-0.05c-1.44,0.39-2.63,0.72-3.57,1.01
			c-2.88,0.88-3.02,1.14-2.93,1.48c0.03,0.09,0.09,0.17,0.18,0.22c0.04,0.02,0.07,0.04,0.11,0.05c0.37,0.1,1.76-0.02,9.16-1.74
			c5.11-1.19,11.82-2.83,18.92-4.58L43.58,44c13.45-3.3,30.19-7.42,34.88-8.01l0.05,0.2c-4.18,1.51-19.66,5.14-32.09,8.05
			c-7.26,1.7-14.76,3.46-20.32,4.85c-2.93,0.74-5.07,1.31-6.54,1.75c-2.45,0.73-2.67,0.97-2.57,1.31c0.03,0.09,0.1,0.17,0.19,0.22
			c0.02,0.01,0.04,0.02,0.07,0.02c1.13,0.32,8.43-1.37,29.81-6.61l0.27-0.07c10.5-2.56,23.57-5.76,28.61-6.66l0.05,0.19
			c-4.72,1.47-17.17,4.48-28.15,7.14C40.55,48.18,33,50,27.44,51.43c-2.99,0.77-5.17,1.37-6.66,1.82c-2.51,0.76-2.73,0.99-2.63,1.33
			c0.03,0.1,0.1,0.18,0.2,0.24c0.04,0.02,0.08,0.04,0.14,0.06c0.45,0.12,2,0.03,10.07-1.83c5.59-1.29,12.95-3.11,20.06-4.87
			c9.91-2.45,21.14-5.23,25.86-6.1l0.05,0.2c-4.83,1.48-17.34,4.51-27.4,6.95l-0.21,0.05c-7.14,1.73-13.88,3.36-19.01,4.68
			c-2.77,0.71-4.81,1.27-6.21,1.68c-2.36,0.71-2.55,0.92-2.46,1.25c0.03,0.1,0.1,0.18,0.2,0.23c0.02,0.02,0.05,0.02,0.08,0.03
			c1.2,0.34,8.41-1.34,28.12-6.22c9.32-2.31,19.87-4.92,24.55-5.81l0.05,0.19c-4.46,1.34-14.83,3.88-23.97,6.13l-0.09,0.02
			c-24.09,5.91-28.07,7.08-28.48,7.78c-0.04,0.07-0.04,0.13-0.01,0.22c0.02,0.09,0.09,0.16,0.18,0.21c0.03,0.02,0.06,0.04,0.11,0.05
			c0.36,0.1,1.66-0.03,8.65-1.63c4.89-1.12,11.37-2.69,17.63-4.2c9.08-2.2,19.38-4.68,24.02-5.59l0.05,0.19
			c-4.64,1.45-15.67,4.16-24.53,6.34c-19.43,4.78-23.71,5.95-24.09,6.61c-0.03,0.06-0.04,0.12-0.01,0.22
			c0.03,0.09,0.1,0.17,0.19,0.22c0.02,0.01,0.04,0.02,0.06,0.03c1.04,0.29,7.82-1.29,23.63-5.19l0.17-0.04
			c5.7-1.41,11.59-2.86,15.66-3.77l0.05,0.19c-3.9,1.08-9.83,2.61-14.58,3.84l-0.11,0.03c-5.67,1.47-11.53,2.98-15.95,4.2
			c-2.39,0.66-4.15,1.18-5.4,1.59c-1.97,0.65-2.27,0.87-2.17,1.22c0.02,0.08,0.09,0.16,0.17,0.21c0.02,0.01,0.04,0.02,0.06,0.02
			c0.62,0.18,3.38-0.44,15.53-3.45c5.58-1.38,12.52-3.11,16.23-3.86l0.05,0.2c-3.5,1.13-10.11,2.96-15.42,4.44l-0.09,0.02
			c-11.37,3.16-14.83,4.06-15.07,4.49c-0.03,0.06-0.02,0.11,0.01,0.21c0.03,0.08,0.09,0.16,0.17,0.2c0.02,0.01,0.04,0.02,0.07,0.03
			c0.42,0.12,2.65-0.31,10.52-2.26c2.71-0.68,6.09-1.52,8.65-2.1l0.06,0.19c-2.27,0.75-5.3,1.71-7.73,2.48
			c-11.05,3.5-9.91,3-9.78,3.44c0.02,0.08,0.09,0.15,0.16,0.2c0.03,0.02,0.05,0.03,0.08,0.04c0.26,0.07-0.34,0.55,5.56-0.87
			c1.16-0.28,2.44-0.59,3.59-0.86C36.07,66.73,36.93,66.5,38.11,66.33z M75.9,21.43c-0.01,0.02-0.02,0.02-0.04,0.04
			c0.02-0.02,0.04-0.05,0.06-0.08C75.92,21.4,75.91,21.42,75.9,21.43z M75.92,20.98c0.03,0.07,0.05,0.13,0.05,0.21
			c0,0.02,0,0.04-0.01,0.07c0.01-0.08,0-0.15-0.02-0.21c-0.01-0.04-0.04-0.08-0.06-0.12C75.89,20.95,75.91,20.96,75.92,20.98z
			 M75.62,21.66c-0.03,0.02-0.05,0.04-0.08,0.05c-0.01,0-0.01,0.01-0.03,0.01C75.56,21.71,75.59,21.69,75.62,21.66z M72.71,19.1
			l0.02,0.01l0.01-0.02c0.02,0,0.04-0.01,0.07-0.01l0.05,0.19c-0.02,0.01-0.04,0.01-0.06,0.02l-0.03-0.01l-0.01,0.02l-0.01-0.03
			l-0.06-0.04c0.02-0.01,0.03-0.01,0.05-0.02l0-0.01c-0.02,0-0.04,0.01-0.05,0.01l0.04-0.07L72.71,19.1z M46.87,14.66
			c0.01-0.06,0.04-0.11,0.08-0.16c0.01-0.01,0.05-0.06,0.09-0.09C46.96,14.48,46.9,14.61,46.87,14.66z M46.95,15
			c-0.03-0.04-0.07-0.09-0.08-0.17c0-0.01,0-0.02-0.01-0.04c0.01,0.04,0.02,0.07,0.03,0.1c0.01,0.04,0.04,0.09,0.08,0.14
			C46.97,15.02,46.96,15.01,46.95,15z M47.16,14.34c0.02-0.01,0.04-0.01,0.07-0.02l0.06-0.01c0.02,0,0.04,0,0.06,0
			C47.29,14.33,47.22,14.33,47.16,14.34z M47.22,15.2l-0.01,0l-0.01,0l-0.04-0.02l0,0l-0.02-0.01l-0.03-0.02
			c0.03,0.02,0.25,0.05,0.27,0.06c0,0,0,0,0.01,0C47.34,15.22,47.28,15.21,47.22,15.2z M10.64,6.74c-0.01,0-0.01,0-0.02,0
			l-0.06-0.19c0.01,0,0.01,0,0.02-0.01l0.02,0.01l-0.01,0.01l0.05,0.17c0.01,0,0.01,0,0.02-0.01L10.64,6.74z M10.61,6.53
			c1.2-0.46,2.63-1,4-1.51l0.28-0.1c1.03-0.39,2.09-0.79,3.03-1.15c-0.09,0.04-0.41,0.16-1.03,0.41l-6.12,2.32l0,0v0l-0.03,0.01
			C10.69,6.52,10.65,6.52,10.61,6.53z M10.67,6.73c0.03-0.01,0.07-0.03,0.11-0.04c0.01,0,0.03-0.01,0.04-0.01h0v0
			c2.32-0.54,4.5-1.06,6.5-1.54C15.04,5.7,12.55,6.3,10.67,6.73z M26.9,6.05l0.03,0.01c-0.02,0.01-0.03,0.01-0.04,0.01L26.9,6.05z
			 M26.9,5.96l-0.02,0.03l-0.02-0.01C26.88,5.97,26.89,5.97,26.9,5.96z M26.81,5.99L26.82,6l0,0.01l0-0.01l0.03,0.02
			c0.01,0,0.01,0,0.01-0.01l-0.01,0.01l0.01,0c0,0-0.01,0-0.01,0.01l-0.02,0.03l-0.01,0l0,0.01l0,0.01c-0.02,0-0.03,0.01-0.05,0.01
			l0-0.02l0.01-0.03c-0.01,0-0.01,0.01-0.02,0.01l-0.01-0.02c0.01,0,0.01,0,0.02,0l-0.03-0.02l0-0.02C26.78,6,26.79,6,26.81,5.99z
			 M10.32,9.09L10.32,9.09c0.01-0.01,0.02-0.01,0.04-0.01l0.01,0C10.35,9.08,10.33,9.09,10.32,9.09z M10.41,9.27
			c-0.01,0-0.03,0.01-0.04,0.01l0-0.01L10.41,9.27L10.41,9.27z M10.49,9.05l0.01-0.01L10.49,9.05C10.5,9.05,10.49,9.05,10.49,9.05z
			 M10.54,9.22L10.54,9.22L10.54,9.22L10.54,9.22z M15.28,7.56C14.86,7.69,14.39,7.84,13.85,8l-1.29,0.38
			C13.45,8.11,14.37,7.83,15.28,7.56z M23.26,6.94c-9.32,2.22-15.38,3.67-2.48,0.45c0.91-0.18,2.27-0.48,4.03-0.89
			C24.29,6.65,23.77,6.8,23.26,6.94z M24.92,6.54c0.4-0.12,0.8-0.23,1.2-0.35c0.19-0.04,0.39-0.09,0.59-0.13l0.01,0.02
			c-0.2,0.06-0.4,0.12-0.6,0.18C25.71,6.36,25.31,6.45,24.92,6.54z M17.74,20.59c-3.69,0.91-7.38,1.83-11.05,2.63
			c0.43-0.13,0.86-0.25,1.3-0.38c0.2-0.04,0.42-0.09,0.65-0.14C12.14,21.94,18.48,20.37,17.74,20.59z M40.79,12.83
			c0.1,0.06,0.19,0.14,0.22,0.25c0.04,0.11-0.01,0.23-0.09,0.31c-0.04,0.03-0.08,0.05-0.12,0.08c0.1-0.07,0.16-0.13,0.19-0.19
			c0.03-0.06,0.04-0.12,0.01-0.21c-0.03-0.09-0.09-0.17-0.18-0.22c-0.02-0.01-0.04-0.02-0.06-0.02c0,0-0.01,0-0.02-0.01
			C40.75,12.83,40.77,12.83,40.79,12.83z M39.41,12.89c0.01,0,0.03,0,0.04-0.01c-0.03,0.01-0.07,0.01-0.11,0.02
			C39.36,12.9,39.39,12.9,39.41,12.89z M38.44,13.06c-0.09,0.01-0.17,0.03-0.26,0.05c-0.04,0.01-0.09,0.01-0.14,0.02
			C38.18,13.1,38.31,13.08,38.44,13.06z M33.09,17.76c0.44-0.11,0.88-0.22,1.31-0.32C32.72,17.9,31.65,18.17,33.09,17.76z
			 M7.24,25.58c3.71-1.07,9.41-2.56,14.55-3.9c16.23-4.26,20.04-5.38,20.38-5.97c0.04-0.06,0.04-0.12,0.01-0.22
			c-0.03-0.09-0.09-0.17-0.19-0.22c-0.02-0.01-0.04-0.02-0.07-0.03c-0.88-0.25-5.27,0.78-18.9,4.2l-0.17,0.04
			c-6.27,1.57-13.37,3.35-17.23,4.13l-0.05-0.2c3.41-1.03,9.75-2.7,15.34-4.18l0.17-0.04c13.84-3.65,18.43-4.95,19.6-5.63
			c-0.11,0.07-0.23,0.13-0.34,0.19c-0.43,0.19-0.85,0.34-1.28,0.48c-1.71,0.57-3.42,1.04-5.1,1.52c-3.37,0.94-6.66,1.81-9.88,2.67
			l-9.44,2.51c-2.51,0.68-4.99,1.35-7.42,2.06c-0.18,0.04-0.32,0.07-0.44,0.1c-0.52,0.12-0.42,0.11,0.07,0.01
			c-0.38,0.11-0.76,0.22-1.14,0.34L5.7,23.37l-0.04,0.06c-0.01,0-0.02,0.01-0.04,0.01l0,0.01c-0.01,0-0.03,0.01-0.05,0.01l0.04,0.03
			L5.6,23.54c0.02,0,0.03-0.01,0.05-0.01l0,0.01c0.01,0,0.02,0,0.03-0.01l0.06,0.04l-0.01-0.05c2.52-0.53,4.98-1.13,7.44-1.73
			l7.42-1.85c4.92-1.24,9.79-2.49,14.73-3.65c1.24-0.29,2.48-0.57,3.73-0.82l0.94-0.18l0.47-0.08c0.16-0.02,0.3-0.04,0.51-0.07
			c0.39-0.04,0.77-0.06,1.05,0.04c0.15,0.06,0.27,0.22,0.28,0.39c0,0.19-0.14,0.29-0.26,0.39c-0.25,0.2-0.65,0.35-0.99,0.48
			c-0.3,0.12-0.61,0.22-0.92,0.32c-0.62,0.21-1.23,0.39-1.86,0.57c-1.24,0.36-2.5,0.71-3.77,1.06c-5.06,1.37-10.26,2.7-15.67,4.08
			c-3.92,1.07-7.84,2.12-11.73,3.27C10.52,24.74,8.45,25.28,7.24,25.58z M38.7,16.44c0.01,0,0.02-0.01,0.04-0.01l0,0
			C38.72,16.43,38.71,16.44,38.7,16.44L38.7,16.44z M13.94,25.14c-2.01,0.47-4.25,1-6.84,1.51c-0.65,0.13-1.31,0.25-2.01,0.36
			c-0.35,0.05-0.7,0.1-1.06,0.14c-0.35,0.03-0.78,0.07-1.14,0.01c-0.09-0.01-0.18-0.06-0.24-0.13c-0.07-0.07-0.12-0.16-0.12-0.26
			c-0.01-0.21,0.19-0.33,0.35-0.43c0.17-0.1,0.37-0.17,0.56-0.25c0.19-0.07,0.37-0.13,0.56-0.2c0.75-0.25,1.54-0.49,2.35-0.72
			c-0.24,0.08-0.48,0.16-0.72,0.24c-0.51,0.15-0.96,0.3-1.33,0.42c-1.5,0.5-1.82,0.69-1.72,1.02c0.03,0.1,0.1,0.19,0.21,0.24
			c0.02,0.01,0.05,0.03,0.08,0.04c1.16,0.32,7.72-1.16,20.93-4.43C20.96,23.42,17.91,24.19,13.94,25.14z M32.36,19.94
			c-3.75,0.94-7.68,1.92-11.4,2.84c4.21-1.05,8.33-2.09,12.04-3.01l0.95-0.23C33.43,19.67,32.91,19.8,32.36,19.94z M38.5,21.59
			c-6.76,1.68-14.05,3.51-21.33,5.26c-3.64,0.86-7.27,1.73-10.87,2.41c-0.45,0.08-0.9,0.16-1.35,0.21
			c-0.22,0.03-0.45,0.05-0.68,0.06c-0.12,0-0.23,0.01-0.35-0.01c-0.12-0.03-0.23-0.08-0.31-0.17c-0.08-0.1-0.12-0.22-0.09-0.35
			c0.04-0.13,0.15-0.2,0.24-0.26c0.2-0.12,0.41-0.2,0.62-0.28c0.42-0.16,0.85-0.29,1.27-0.42c1.7-0.5,3.39-0.94,5.05-1.36
			c-0.61,0.12,0.79-0.28,3.53-0.99c2.74-0.71,6.83-1.73,11.58-2.89c9.51-2.33,21.71-5.22,31.11-7.71c1.42-0.37,2.47-0.65,3.24-0.87
			l0.79-0.18c0.18-0.04,0.36-0.08,0.53-0.11c-1.68,0.52-3.3,0.95-4.82,1.35l-4.75,1.22l-7.88,1.96L32.5,21.31l-5.95,1.48
			c-5.48,1.31-10.55,2.54-14.55,3.56c-2.7,0.69-4.68,1.21-6.06,1.62c-2.3,0.68-2.49,0.88-2.39,1.21c0.03,0.09,0.09,0.17,0.19,0.22
			c0.04,0.02,0.07,0.04,0.12,0.05c0.39,0.11,1.85,0,9.7-1.82c5.48-1.27,12.6-3.03,20.16-4.89c4.14-1.03,8.6-2.12,12.91-3.17
			C44.05,20.22,41.32,20.89,38.5,21.59z M33.51,22.19c-5.26,1.3-10.9,2.69-15.82,3.87c1.25-0.31,2.2-0.55,2.55-0.64
			c5.63-1.34,13.27-3.25,18.95-4.65c4.3-1.06,7.48-1.83,7.84-1.9C42.68,19.92,38.05,21.06,33.51,22.19z M66.15,15.6
			c-0.04,0.03,0.34-0.05,1.08-0.28c-0.71,0.23-1.59,0.48-2.62,0.77c-0.12,0.03-0.23,0.06-0.31,0.08
			C63.78,16.3,64.2,16.19,66.15,15.6z M27.89,27.1c3.86-0.95,7.93-1.96,11.92-2.95L40,24.1c1.66-0.41,3.35-0.83,5.04-1.26
			C39.56,24.22,33.95,25.63,27.89,27.1z M11.67,32.57c-0.48,0.13-0.97,0.27-1.46,0.4c-0.38,0.07-0.75,0.14-1.13,0.21
			c0.33-0.1,0.67-0.2,1-0.3c0.61-0.12,1.25-0.25,1.9-0.4C11.87,32.51,11.77,32.54,11.67,32.57z M38.25,25.83l0.37-0.09
			c1.78-0.41,3.56-0.83,5.34-1.25c4.61-1.03,9.21-2.05,13.81-3.12C49.54,23.37,41.68,25.2,42.33,25c-10,2.41-5.44,1.39,0.58,0.04
			L22.67,29.8c-2.53,0.61-4.84,1.17-7.26,1.79c-1.05,0.27-2.14,0.55-3.25,0.85c-0.6,0.12-1.19,0.24-1.77,0.35
			c1.3-0.38,2.6-0.72,3.91-1.08c-1.4,0.37-2.81,0.73-4.21,1.13c-0.51,0.1-1.02,0.19-1.51,0.27C13.73,31.55,26.71,28.52,38.25,25.83z
			 M8.27,33.21c0.49-0.08,0.99-0.17,1.51-0.27c-0.33,0.09-0.65,0.19-0.98,0.29c-0.32,0.06-0.64,0.11-0.96,0.16v-0.01l-0.01,0.01
			c-0.01,0-0.03,0-0.04,0.01l0-0.01l0,0.01c-0.04,0.01-0.08,0.01-0.12,0.02l-0.02-0.01C7.84,33.34,8.04,33.28,8.27,33.21z
			 M8.45,33.34c-0.19,0.06-0.39,0.12-0.58,0.18l-0.02-0.08C8.05,33.4,8.25,33.37,8.45,33.34z M7.77,33.5l0.03-0.05l0-0.01
			c0,0,0,0,0,0l0,0.01l0.02,0.08h0c0,0,0,0,0,0l0,0L7.77,33.5z M7.78,33.55c-0.01,0-0.03,0.01-0.04,0.01l0.01-0.03L7.78,33.55z
			 M7.6,33.42L7.6,33.42c-0.01,0.01-0.01,0.01-0.03,0.01C7.58,33.43,7.59,33.43,7.6,33.42z M7.65,33.64c-0.01,0-0.03,0.01-0.04,0.01
			C7.62,33.64,7.64,33.64,7.65,33.64L7.65,33.64z M7.67,33.61l-0.03-0.02c-0.02,0.01-0.05,0.01-0.07,0.02l-0.02,0.04
			c-0.01,0-0.02,0-0.03,0.01l-0.04-0.19c0.01,0,0.02-0.01,0.03-0.01l0.04,0.03c0.02,0,0.05-0.01,0.07-0.01l0.02-0.03l0.01,0.01
			l0.01,0.01c0,0,0,0,0.01,0l-0.01,0.01l0.02,0.1l0.01,0.01c0,0,0,0-0.01,0l0,0.01L7.67,33.61z M7.71,33.53L7.7,33.49l0.03,0.02
			L7.71,33.53z M7.71,33.46c0.01,0,0.03-0.01,0.04-0.01l-0.01,0.03L7.71,33.46z M7.7,33.63l0.01-0.02c0,0,0.01,0,0.02-0.01l0,0l0,0
			c0.04-0.01,0.07-0.02,0.1-0.03l0.01,0.01l0-0.01c0.01,0,0.03-0.01,0.04-0.01l0.01,0.01l0-0.01c0.27-0.09,0.55-0.18,0.83-0.27
			c0.33-0.06,0.65-0.12,0.98-0.18c-0.46,0.13-0.93,0.28-1.41,0.43C8.07,33.58,7.88,33.61,7.7,33.63z M42.37,26.61l-8.69,2.02
			c0.29-0.07,0.57-0.14,0.86-0.21l16.72-4.17c5.82-1.43,11.91-2.95,18.27-4.33c-4.34,1.19-8.97,2.32-13.57,3.44
			c-5.08,1.23-10.13,2.4-14.76,3.43L42.37,26.61z M63.11,21.85c-7.28,1.77-21.17,4.98-8.69,1.99c3.89-0.92,7.31-1.74,10.35-2.5
			c2.58-0.65,4.9-1.24,6.98-1.85c0.26-0.04,0.5-0.08,0.75-0.12C70.49,19.99,67.15,20.86,63.11,21.85z M65.99,19.82
			c-3.13,0.75-4.52,1.11-6.04,1.5c-4.45,1.07-10.08,2.45-17.13,4.19c-2.35,0.58-4.81,1.19-7.29,1.8
			C45.2,24.9,55.74,22.21,65.99,19.82z M31,29.19c7.41-1.81,13.12-3.2-2.92,0.65l24.89-6.19c3.72-0.92,7.22-1.78,10.53-2.56
			c0.5-0.12,1-0.23,1.49-0.35c3.01-0.7,5.54-1.25,7.27-1.57c-0.35,0.1-0.77,0.21-1.3,0.36c-1.65,0.34-3.15,0.69-4.55,1
			c-1.91,0.44-3.62,0.85-5.23,1.24l-9.14,2.25l-11.01,2.76c-2.66,0.66-5.68,1.42-9.22,2.29l-3.64,0.85
			c-2.44,0.58-4.93,1.18-7.45,1.79C17.24,32.48,24.74,30.73,31,29.19z M53.02,26.44l9.67-2.29c2.67-0.62,5.39-1.25,8.15-1.84
			c-2.5,0.68-5.05,1.31-7.61,1.95l-9.77,2.36l-18.93,4.5L53.02,26.44z M29.75,31.26l-4.62,1.26c-7.3,1.73-13.52,3.12-16.31,3.51
			c0.15-0.05,0.31-0.11,0.46-0.16C11.33,35.51,16.18,34.54,29.75,31.26z M9.97,35.36c-0.21,0.07-0.38,0.13-0.51,0.18
			c-0.19,0.07-0.33,0.12-0.47,0.18c-0.08,0.01-0.15,0.02-0.22,0.03C9.11,35.63,9.51,35.5,9.97,35.36z M8.48,35.85l0.06,0.04
			c-0.02,0.01-0.04,0.02-0.06,0.02l0.02,0.08c0.03,0,0.05-0.01,0.08-0.01l-0.04,0.08c-0.03,0-0.06,0.01-0.09,0.01l-0.05-0.2
			C8.43,35.87,8.46,35.86,8.48,35.85z M10.54,36.36c-1.05,0.18-2,0.34-2.88,0.36c-0.22,0-0.45,0-0.64-0.09
			c-0.2-0.08-0.32-0.31-0.25-0.51c0.08-0.19,0.27-0.29,0.43-0.38c0.17-0.09,0.34-0.16,0.51-0.23c0.09-0.04,0.18-0.07,0.27-0.1
			c-1.21,0.46-1.28,0.7-1.21,0.95c0.03,0.11,0.11,0.19,0.21,0.25c0.04,0.02,0.08,0.04,0.13,0.05c0.61,0.17,2.62,0.03,12.9-2.33
			c4.6-1.05,10.04-2.37,15.71-3.75c-0.95,0.25-2.92,0.75-6.84,1.71C20.47,34.3,14.73,35.61,10.54,36.36z M34.31,32.19l17.89-4.13
			c0.34-0.08,0.69-0.16,1.04-0.24l-20.55,5.13l4.29-1.1c-5.71,1.44-12.64,3.16-17.45,4.29c-4.81,1.14-7.5,1.72-4.68,1.18
			c-1.51,0.31-3.03,0.64-4.55,0.89c0.69-0.2,1.39-0.4,2.09-0.59c1.21-0.33,2.43-0.64,3.65-0.95l-2.41,0.55
			c3.91-1.05,7.54-1.93,10.96-2.75L34.31,32.19z M18.21,35.82c-0.98,0.25-1.96,0.51-2.92,0.76c-2.14,0.58-4.24,1.14-6.24,1.82
			c-0.07,0.01-0.14,0.02-0.2,0.03C10.53,37.84,13.92,36.91,18.21,35.82z M8.8,38.68c-0.01,0-0.03,0.01-0.04,0.01l-0.05-0.19
			c0.01-0.01,0.03-0.01,0.04-0.02l0.03,0.03c-0.01,0-0.02,0.01-0.04,0.01l0.04,0.13c0.01,0,0.03,0,0.04-0.01L8.8,38.68z
			 M20.85,36.11c-5.41,1.29-9.81,2.26-11.93,2.55c0.07-0.02,0.15-0.05,0.23-0.07c1.83-0.29,3.61-0.68,5.33-1.07
			c1.85-0.41,3.63-0.84,5.36-1.26C22.67,35.61,29.33,34.04,20.85,36.11z M72.45,23.66c-5.74,1.09-16.55,3.76-31.42,7.48
			c-5.1,1.28-10.48,2.62-15.39,3.82c3.38-0.84,5.91-1.48,7.95-2.01l7.42-1.96c2.3-0.61,4.87-1.29,9.12-2.37
			c1.58-0.4,3.4-0.85,5.52-1.38c1.9-0.45,3.84-0.9,5.84-1.38c1.05-0.26,2.12-0.52,3.21-0.78c1.44-0.33,2.98-0.68,4.62-1.03
			c-4.21,0.94-7.18,1.68-9.19,2.17c-2.01,0.5-3.05,0.77-3.39,0.86c-0.68,0.19,1.46-0.32,4.35-0.99c2.9-0.68,6.57-1.51,8.95-1.99
			C71.58,23.79,72.57,23.61,72.45,23.66z M76.79,26.98c2.81-0.82,2.89-1.04,2.8-1.36c-0.03-0.09-0.1-0.17-0.19-0.23
			c-0.02-0.01-0.04-0.02-0.07-0.03c-1.21-0.34-9.41,1.55-33.35,7.39c4-0.98,7.71-1.9,11.47-2.81c4.01-0.98,8.07-1.96,12.59-3
			c2.26-0.51,4.63-1.06,7.21-1.49c0.32-0.05,0.65-0.1,0.98-0.13c0.33-0.03,0.75-0.08,1.07-0.01c0.17,0.02,0.33,0.15,0.37,0.33
			c0.02,0.08,0.02,0.18-0.03,0.26c-0.05,0.07-0.11,0.13-0.18,0.18c-0.27,0.2-0.69,0.34-1.01,0.46c-1.32,0.45-2.71,0.83-4.15,1.22
			c0.81-0.24,0.79-0.25-0.46,0.05C75,27.49,75.98,27.22,76.79,26.98z M15.09,47.62c-0.04,0-0.08,0.01-0.12,0.02l-0.05-0.2
			c0.03-0.01,0.08-0.03,0.11-0.04l0.08,0.06c-0.04,0.01-0.07,0.02-0.11,0.03l0.01,0.06c0.04-0.01,0.08-0.02,0.12-0.02L15.09,47.62z
			 M46.77,39.58l0.15-0.03c8.27-1.9,16.82-3.86,23.11-5.43c3.42-0.85,5.91-1.52,7.63-2.05c2.66-0.82,3.07-1.15,2.96-1.56
			c-0.03-0.1-0.11-0.19-0.22-0.25c-0.02-0.02-0.05-0.03-0.09-0.04c-1.75-0.49-15.12,2.75-36.91,8.13l-0.05,0.01
			c-11.05,2.73-23.58,5.83-28.48,6.71l-0.05-0.19c5.35-1.67,20.92-5.33,33.46-8.29l0.34-0.08c8.08-1.9,15.7-3.7,21.48-5.14
			c3.16-0.79,5.46-1.39,7.04-1.86c1.92-0.56,2.61-0.83,2.75-1.09c0.04-0.06,0.04-0.13,0.01-0.23c-0.03-0.1-0.1-0.18-0.2-0.24
			c-0.04-0.02-0.08-0.04-0.13-0.06C79.09,27.78,77.4,27.9,68.33,30c-6.24,1.44-14.56,3.49-22.61,5.47l-0.22,0.05
			c-13.47,3.32-28.74,7.07-33.51,7.77l-0.05-0.19c4.76-1.64,21.78-5.65,35.45-8.88c4.05-0.95,7.98-1.88,11.65-2.76
			c-4.78,1.15-9.87,2.35-15.13,3.6c-5.17,1.23-10.51,2.5-15.88,3.81c-2.69,0.66-5.39,1.33-8.08,2.02c-2.64,0.7-5.29,1.37-7.87,2.21
			l-0.01-0.05l-0.03,0.06c-0.01,0-0.02,0.01-0.03,0.01l0,0.01c-0.02,0-0.03,0.01-0.05,0.01L12,43.18l-0.03,0.04
			c0.02,0,0.03-0.01,0.04-0.01l0,0.01c0.01,0,0.02-0.01,0.03-0.01l0.06,0.04l-0.01-0.05c1.94-0.31,3.86-0.73,5.76-1.14
			c1.94-0.43,3.87-0.87,5.77-1.31c3.8-0.89,7.51-1.79,11.09-2.65l19.54-4.77c6.57-1.59,12.72-3.09,18.73-4.4
			c1.5-0.32,3-0.64,4.5-0.88c0.38-0.06,0.75-0.12,1.13-0.15c0.19-0.02,0.38-0.04,0.57-0.04c0.19,0,0.39,0,0.56,0.12
			c0.16,0.1,0.27,0.35,0.14,0.53c-0.13,0.15-0.31,0.23-0.48,0.31c-0.35,0.15-0.71,0.27-1.07,0.39c-2.88,0.89-5.81,1.61-8.75,2.35
			c-11.76,2.92-23.9,5.69-38.34,9.19c-2.74,0.66-5.48,1.33-8.22,2.02c-2.56,0.65-5.12,1.3-7.65,2.05c-0.13,0.02-0.25,0.05-0.38,0.07
			l-0.01-0.03l-0.02,0.03c-0.03,0.01-0.05,0.01-0.08,0.02l0.01,0.04c-0.01,0-0.01,0-0.01,0l0.02,0.01l0,0.03l-0.01,0.02
			c0.01,0,0.01,0,0.01,0l0.01,0.05c0.03-0.01,0.05-0.02,0.08-0.02l0.03,0.02l-0.01-0.02c0.14-0.04,0.28-0.08,0.41-0.12
			c2.52-0.49,5.04-1.07,7.55-1.65c2.71-0.63,5.42-1.29,8.13-1.94l16.29-4.01c4.72-1.16,9.45-2.32,14.2-3.46
			c0.84-0.19,1.91-0.44,3.58-0.83c0.88-0.21,1.92-0.46,3.18-0.76c1.22-0.28,2.45-0.56,3.67-0.82c1.38-0.3,2.76-0.59,4.15-0.84
			c0.7-0.13,1.39-0.25,2.1-0.35c0.35-0.05,0.7-0.09,1.06-0.11c0.18-0.01,0.36-0.02,0.54-0.02c0.18,0.01,0.36,0,0.55,0.09
			c0.18,0.09,0.31,0.29,0.26,0.51c-0.06,0.21-0.23,0.32-0.38,0.42c-0.31,0.19-0.64,0.32-0.98,0.45c-0.67,0.25-1.34,0.46-2.02,0.66
			c-1.36,0.41-2.73,0.77-4.1,1.13c-2.75,0.71-5.5,1.38-8.27,2.05c-5.53,1.32-11.08,2.59-16.64,3.87
			c-5.56,1.28-11.14,2.55-16.71,3.86c-2.79,0.66-5.58,1.33-8.36,2.02c-1.39,0.35-2.78,0.71-4.17,1.08
			c-1.07,0.29-2.14,0.58-3.19,0.92c-0.14,0.02-0.29,0.04-0.43,0.06C19.96,45.73,34.17,42.47,46.77,39.58z M51.66,36.14
			c-2.35,0.61-8.33,2.11-11.59,2.96l-12.42,2.98c-2.11,0.5-4.24,1-6.38,1.48c-1.57,0.35-3.14,0.7-4.72,1.02
			c1.4-0.39,2.8-0.75,4.21-1.12c1.97-0.5,3.95-0.99,5.91-1.46c3.93-0.95,7.83-1.87,11.66-2.77L51.66,36.14z M21.72,46.02
			c-0.71,0.16-1.66,0.37-2.8,0.61c-0.31,0.06-0.63,0.13-0.96,0.19c0.91-0.25,1.85-0.5,2.81-0.76c2.08-0.54,4.28-1.08,6.52-1.62
			c4.47-1.08,9.07-2.15,13.12-3.08c8.1-1.88,13.97-3.25,12.17-2.92c2.93-0.66,5.17-1.17,7.33-1.66l-12.26,3.02
			c-9.57,2.37-18.17,4.49-25.05,6C23.55,45.59,23.12,45.7,21.72,46.02z M68.48,34.94c-5.72,1.33-13.04,3.16-20.8,5.1
			c-12.19,3.05-27.25,6.82-32.17,7.52c0.28-0.1,0.57-0.19,0.87-0.28c18.25-3.55,36.23-8.94,54.66-12.92
			C70.26,34.53,69.41,34.73,68.48,34.94z M35.26,63.48c-0.02,0-0.03,0.01-0.05,0.01l0,0.01l-0.01,0l0.01,0l0.02,0.04l-0.01,0.02
			l-0.03-0.06l-0.03,0.01l0.01-0.02l0.02,0l-0.01-0.01l0.01-0.01c0,0,0,0,0.01,0l0.01,0.02l0.07-0.02L35.26,63.48z M35.37,63.46
			c-0.01,0-0.02,0-0.04,0.01l-0.01-0.02l1.29-0.36L35.37,63.46z M22.42,56.26l-0.05-0.03l-0.03,0.06c-0.02,0.01-0.05,0.01-0.07,0.01
			l-0.05-0.2c0.02-0.01,0.05-0.01,0.07-0.02l0.05,0.04l0.03-0.05l0.01,0.04c0.02,0,0.04-0.01,0.06-0.01l-0.03,0.06l0.06,0.04
			c-0.02,0.01-0.04,0.01-0.06,0.01L22.42,56.26z M22.49,56.09c0.42-0.08,0.84-0.17,1.26-0.26c-0.41,0.12-0.83,0.23-1.23,0.35
			L22.49,56.09z M23.2,58.63l-0.03,0.06c-0.01,0-0.03,0-0.05,0.01l-0.05-0.2c0.01,0,0.03-0.01,0.04-0.01l0.06,0.04l0.03-0.06
			l0.02,0.07c0.01,0,0.02-0.01,0.03-0.01l-0.02,0.04l0.03,0.02c-0.01,0.01-0.02,0.01-0.03,0.01l0.02,0.07L23.2,58.63z M23.33,58.57
			l-0.01-0.05c0.26-0.05,0.52-0.11,0.79-0.17C23.85,58.42,23.59,58.49,23.33,58.57z M73.8,44.09c0.22-0.02,0.53-0.05,0.77-0.04
			c0.12,0.01,0.24,0.03,0.33,0.05c0.09,0.03,0.19,0.06,0.27,0.15c0.16,0.15,0.22,0.45,0.09,0.62c-0.11,0.17-0.29,0.3-0.53,0.42
			c-0.23,0.12-0.55,0.23-0.71,0.29l-0.59,0.2c-0.4,0.13-0.8,0.25-1.21,0.38c-3.29,0.97-7.03,1.92-11.78,3.12
			c-1.45,0.32-0.07-0.04,2.63-0.73l4.85-1.27c1.82-0.49,3.79-1.01,5.7-1.63l0.36-0.12l0.18-0.06l0.21-0.08
			c0.29-0.11,0.56-0.25,0.74-0.41c0.09-0.08,0.17-0.19,0.16-0.34c-0.01-0.14-0.07-0.26-0.17-0.35c-0.1-0.1-0.22-0.11-0.34-0.14
			c-0.12-0.02-0.27-0.03-0.41-0.02c-0.15,0-0.3,0.02-0.44,0.03l-0.36,0.04c-0.23,0.03-0.46,0.06-0.69,0.1
			c-0.45,0.07-0.89,0.15-1.31,0.23c-1.69,0.33-3.14,0.66-4.17,0.89c-2.06,0.48-2.46,0.58,0.3-0.01c1.68-0.37,3.47-0.78,5.36-1.08
			c0.24-0.04,0.48-0.07,0.72-0.1c0.24-0.03,0.54-0.06,0.8-0.05c0.13,0.01,0.25,0.02,0.37,0.06c0.11,0.04,0.21,0.15,0.26,0.26
			c0.05,0.12,0.04,0.27-0.05,0.37c-0.08,0.09-0.18,0.16-0.3,0.23c-0.22,0.13-0.51,0.24-0.75,0.33c-0.23,0.09-0.47,0.17-0.71,0.24
			c-0.48,0.16-0.96,0.3-1.45,0.45c-3.9,1.13-8.02,2.16-12.04,3.18c-8.06,2.03-15.79,3.93-21.15,5.33l-7.82,1.94
			c-1.96,0.5-3.92,1-5.86,1.53c-0.54,0.11-1.08,0.21-1.61,0.31c5.19-1.52,15.67-4.09,24.95-6.37c6.59-1.62,13.4-3.29,18.39-4.59
			c2.69-0.7,4.65-1.25,5.98-1.66c2.28-0.7,2.46-0.91,2.37-1.24c-0.03-0.09-0.1-0.18-0.2-0.23c-0.02-0.01-0.04-0.02-0.07-0.03
			c-1.15-0.32-8.18,1.31-27.4,6.07c-8.68,2.15-19.4,4.81-24.59,5.83c0.62-0.19,1.27-0.38,1.96-0.58c2.3-0.5,4.58-1.05,6.87-1.59
			c3.14-0.76,6.27-1.53,9.41-2.31c6.27-1.57,12.53-3.15,18.81-4.69c-4.83,1.23-2.9,0.8-14.78,3.76c11.55-2.85,18.07-4.48,24.12-5.83
			C70.76,44.62,72.24,44.29,73.8,44.09z M23.82,53.41c1.49-0.31,3.03-0.66,4.64-1.03c2.76-0.63,5.71-1.34,8.88-2.11l22.02-5.42
			c4.53-1.11,9.06-2.24,13.63-3.2c0.57-0.12,1.15-0.23,1.72-0.33c0.29-0.05,0.58-0.09,0.87-0.13l0.44-0.05
			c0.17-0.02,0.36-0.03,0.54-0.03c0.18,0,0.34,0.02,0.48,0.07c0.14,0.04,0.27,0.18,0.32,0.33c0.06,0.16,0,0.33-0.11,0.44
			c-0.1,0.11-0.23,0.2-0.39,0.29c-0.16,0.08-0.33,0.16-0.5,0.22l-0.42,0.15c-0.28,0.1-0.55,0.19-0.83,0.28
			c-2.23,0.71-4.49,1.3-6.74,1.9c-1.12,0.29-2.05,0.51-2.88,0.71c-1.3,0.3-2.61,0.61-3.94,0.92c-0.11,0.02-0.25,0.05-0.41,0.1
			c0.1-0.02,0.19-0.04,0.28-0.06c-0.45,0.11-0.89,0.21-1.34,0.32c0.44-0.11,0.79-0.19,1.06-0.26c-2.58,0.6-6.12,1.45-14.19,3.45
			c6.7-1.63,10.6-2.58,12.73-3.09l-10.09,2.47l-18.46,4.59c-0.55,0.13-1.06,0.26-1.55,0.38c1.18-0.31,2.51-0.65,4.03-1.04
			l-4.21,1.06c-0.5,0.13-0.99,0.26-1.49,0.39c-1.81,0.44-3.28,0.79-4.71,1.11c5.05-1.41,15.02-3.83,23.89-5.98l0.15-0.04
			c7.32-1.78,14.89-3.6,20.51-5.05c3.03-0.78,5.25-1.39,6.79-1.86c2.56-0.78,2.79-1.01,2.68-1.36c-0.03-0.1-0.1-0.18-0.2-0.23
			c-0.02-0.02-0.04-0.03-0.08-0.03c-1.17-0.33-8.15,1.29-28.51,6.34l-0.16,0.04c-9.01,2.23-19.97,4.94-25.69,6.1
			C23,53.64,23.41,53.52,23.82,53.41z M20.87,54.08c-0.06,0.01-0.13,0.03-0.19,0.04l-0.04-0.2c0.06-0.02,0.12-0.04,0.18-0.06
			l0.1,0.07c-0.06,0.02-0.12,0.03-0.18,0.05l0.01,0.03c0.06-0.01,0.12-0.02,0.18-0.04L20.87,54.08z M20.13,51.51L20.13,51.51
			L20.13,51.51l-0.07-0.04l-0.01,0L20.13,51.51l-0.01,0.01c-0.02,0-0.04,0.01-0.05,0.01l-0.05-0.2c0.02-0.01,0.04-0.01,0.05-0.02
			l0.01,0l-0.04,0.07l0.01,0l0.04-0.07l0,0h0l0,0l0,0.01l0.05,0.04c0.03-0.01,0.05-0.02,0.08-0.02l0,0.01
			c-0.02,0-0.04,0.01-0.06,0.02l0.04,0.02l-0.03,0.04l0.07-0.01l0,0l-0.08,0.01L20.13,51.51L20.13,51.51z M20.6,51.42
			c-0.13,0.03-0.25,0.05-0.38,0.07l0.04-0.06l0.05,0.03l-0.01-0.05l-0.03,0.01l0,0l0.03-0.01l-0.01-0.03l0.01-0.01l-0.01-0.01
			l-0.01-0.03c-0.01,0-0.01,0.01-0.02,0.01l-0.01-0.01c0.01,0,0.02,0,0.03-0.01l-0.01-0.06l-0.03,0.05l-0.06-0.04
			c0.15-0.04,0.3-0.09,0.46-0.13l0.62-0.13c-0.13,0.04-0.12,0.04,0.01,0.03c-0.29,0.08-0.59,0.16-0.88,0.24l-0.01-0.05l-0.04,0.07
			c-0.02,0-0.04,0.01-0.05,0.01l0,0.01c0.01,0,0.03-0.01,0.04-0.01l-0.03,0.04l0.05,0.04l-0.05,0.01l0,0.01l0.06-0.01l0.06,0.04
			L20.4,51.4l0.27-0.05L20.4,51.4l-0.02-0.08c0.4-0.11,0.79-0.21,1.15-0.3c0.3-0.05,0.79-0.15,1.43-0.28
			C22.67,50.82,21.95,51.03,20.6,51.42z M53.11,43.31l-4.28,1.04c-2.62,0.62-5.23,1.23-7.81,1.84L30.2,48.78
			c-2.11,0.52-4.17,1.02-6.19,1.54c-0.59,0.14-1.18,0.27-1.78,0.39c5.62-1.5,15.48-3.81,24.31-5.89l0.19-0.04
			c3.22-0.76,6.48-1.52,9.64-2.27C55.29,42.78,54.2,43.04,53.11,43.31z M20.9,48.64c-0.44,0.1-0.89,0.2-1.33,0.29
			c2.11-0.6,4.22-1.14,6.32-1.67C24.22,47.71,22.56,48.17,20.9,48.64z M63.4,40.88c-1.08,0.26-2.17,0.52-3.25,0.79
			c1.19-0.29,2.46-0.6,3.75-0.9C63.73,40.8,63.57,40.84,63.4,40.88z M80.19,36.03c-0.14,0.18-0.38,0.29-0.58,0.4
			c-0.83,0.38-1.7,0.63-2.58,0.91c-0.87,0.27-1.76,0.52-2.66,0.76c-2.17,0.59-4.37,1.16-6.6,1.71c-0.03,0.01-0.06,0.02-0.09,0.02
			c-1.09,0.25-2.2,0.51-3.32,0.77c1.84-0.45,3.59-0.88,5.2-1.29c3.42-0.87,5.92-1.54,7.65-2.07c2.94-0.9,3.09-1.2,2.99-1.54
			c-0.03-0.1-0.11-0.19-0.21-0.25c-0.04-0.02-0.08-0.04-0.15-0.07c-0.49-0.14-2.31-0.05-12.38,2.25c-6.9,1.58-15.63,3.72-24.07,5.8
			c-9.7,2.38-20.69,5.08-25.53,6.04l-0.05-0.19c5.37-1.63,19.2-4.91,30.31-7.54c7.24-1.71,15.43-3.65,21.31-5.14
			c3.13-0.79,5.4-1.4,6.92-1.86c2.58-0.77,2.81-1.02,2.71-1.37c-0.03-0.1-0.1-0.19-0.21-0.24c-0.04-0.02-0.08-0.04-0.15-0.06
			c-0.27-0.08-0.91-0.07-2.97,0.3c0.6-0.12,1.2-0.25,1.8-0.36c0.33-0.04,0.67-0.08,1.03-0.04c0.18,0.02,0.37,0.08,0.5,0.24
			c0.06,0.08,0.09,0.18,0.09,0.29c0,0.11-0.07,0.21-0.13,0.27c-0.28,0.25-0.61,0.35-0.92,0.48c-0.32,0.12-0.64,0.22-0.96,0.33
			c-1.29,0.41-2.59,0.77-3.9,1.12c-2.61,0.7-5.24,1.35-7.87,1.99c-5.26,1.29-10.54,2.54-15.83,3.79l-15.88,3.78
			c-2.65,0.64-5.3,1.29-7.95,1.96c-2.53,0.64-5.07,1.29-7.58,2.03c-0.06,0.01-0.11,0.03-0.17,0.04l-0.01-0.04l-0.03,0.05
			c-0.03,0-0.05,0.01-0.07,0.02l0,0.02c-0.01,0-0.02,0.01-0.02,0.01l0.03,0.02l0.01,0.03l-0.02,0.04c0.01,0,0.02-0.01,0.03-0.01
			l0,0.02c0.02-0.01,0.05-0.01,0.07-0.02l0.04,0.03l-0.01-0.04c0.05-0.02,0.11-0.03,0.16-0.05c0.38-0.08,0.76-0.16,1.14-0.24
			c-0.12,0.04-0.25,0.07-0.37,0.11c0.14-0.04,0.28-0.08,0.42-0.12c3.07-0.65,6.13-1.38,9.19-2.1l10.69-2.59l14.39-3.69
			c2.49-0.56,8.58-2.05,13.69-3.22c2.56-0.59,4.88-1.09,6.38-1.39c1.5-0.3,2.18-0.41,1.46-0.24c-5.66,1.11-10.95,2.4-17.66,4.01
			l8.74-2.03c3.11-0.7,6.39-1.45,9.82-2.09c0.86-0.16,1.73-0.31,2.61-0.41c0.22-0.02,0.44-0.04,0.67-0.05c0.23,0,0.49,0,0.69,0.13
			C80.23,35.53,80.35,35.84,80.19,36.03z"/>
	</g>
	<path d="M17.86,49.42l0.01-0.02c-0.01,0-0.02,0-0.03,0L17.86,49.42z"/>
	<path d="M17.82,49.3L17.82,49.3l0.02,0C17.83,49.3,17.83,49.3,17.82,49.3z"/>
	<path d="M17.82,49.33c0.01,0,0.02-0.01,0.03-0.01l-0.02-0.01L17.82,49.33z"/>
	<path d="M17.86,49.44c0,0,0.01,0,0.02-0.01l-0.01-0.01L17.86,49.44z"/>
	<path d="M17.84,49.3c0.01,0,0.02-0.01,0.03-0.01l-0.01-0.04L17.84,49.3z"/>
	<path d="M17.91,49.45l-0.01-0.03c-0.01,0-0.02,0-0.03,0.01L17.91,49.45z"/>
	<path d="M20.1,51.39l0.01,0.06l-0.06,0.01l0.01,0.01l0.05-0.01l0.01,0.05l0.01-0.01l-0.01-0.05l0.04-0.01l0,0l-0.05,0.01
		L20.1,51.39c0.02-0.01,0.04-0.01,0.06-0.02l-0.01-0.01C20.13,51.37,20.12,51.37,20.1,51.39l0-0.06l-0.01-0.01v0L20.1,51.39
		c-0.02,0-0.04,0-0.05,0.01l-0.01,0.01C20.06,51.4,20.08,51.39,20.1,51.39z"/>
	<path d="M12.03,43.27l-0.01-0.05c-0.02,0-0.04,0-0.05,0.01L12.03,43.27z"/>
	<path d="M14.83,44.97c0.02,0,0.04-0.01,0.05-0.01l-0.03-0.02L14.83,44.97z"/>
	<path d="M14.82,44.92l0.03,0.02l0.01-0.02C14.85,44.92,14.84,44.92,14.82,44.92z"/>
	<path d="M14.86,44.91c0.01,0,0.01,0,0.02,0l-0.01-0.03L14.86,44.91z"/>
	<path d="M11.95,43.15c0.02-0.01,0.03-0.01,0.05-0.02l-0.01-0.05L11.95,43.15z"/>
	<path d="M15.04,47.62l-0.02-0.07c-0.02,0.01-0.04,0.01-0.06,0.01L15.04,47.62z"/>
	<path d="M14.88,45.05l0.02-0.04c-0.02,0-0.04,0.01-0.05,0.01L14.88,45.05z"/>
	<path d="M14.95,47.51c0.02-0.01,0.04-0.01,0.06-0.02l-0.01-0.06L14.95,47.51z"/>
	<path d="M14.93,45.08l0-0.02c-0.01,0-0.01,0-0.02,0L14.93,45.08z"/>
	<path d="M14.86,45.08c0.01-0.01,0.02-0.01,0.04-0.01l-0.03-0.01L14.86,45.08z"/>
	<path d="M50.4,33.98c0.38-0.11-0.21,0.02-1.25,0.25l-8.11,1.97L50.4,33.98z"/>
	<path d="M32.4,35.69l-0.59,0.12C29.01,36.49,29.83,36.29,32.4,35.69z"/>
	<polygon points="57.88,32.46 54.26,33.33 49.62,34.46 	"/>
	<path d="M79.3,27.43c-0.03,0-0.07,0-0.1,0C79.24,27.43,79.27,27.43,79.3,27.43z"/>
	<path d="M79.77,27.51c0.02,0.01,0.04,0.01,0.06,0.02c-0.01,0-0.02-0.01-0.03-0.01C79.79,27.52,79.78,27.52,79.77,27.51z"/>
	<path d="M79.41,27.43c-0.04,0-0.07,0-0.1-0.01c0.08,0.01,0.17,0.01,0.27,0.03c0.06,0.01,0.13,0.03,0.2,0.06
		c-0.02-0.01-0.04-0.02-0.07-0.03C79.59,27.45,79.49,27.44,79.41,27.43z"/>
	<path d="M79.09,27.43c-0.05,0-0.1,0-0.15,0C78.99,27.43,79.04,27.43,79.09,27.43z"/>
	<path d="M79.2,27.43c-0.04,0-0.08,0-0.12,0C79.13,27.42,79.16,27.43,79.2,27.43z"/>
	<path d="M42.27,40.98c-5.28,1.23-2.23,0.56-5.88,1.44C47.23,39.91,50.95,39.04,42.27,40.98z"/>
	<path d="M79.84,25.19c-0.01-0.01-0.01-0.01-0.02-0.02c0.04,0.04,0.08,0.09,0.11,0.14C79.9,25.27,79.87,25.23,79.84,25.19z"/>
	<path d="M79.77,25.13c0.02,0.01,0.03,0.03,0.05,0.04C79.8,25.16,79.79,25.14,79.77,25.13z"/>
	<path d="M79.65,25.04c0.04,0.03,0.08,0.06,0.12,0.09C79.74,25.1,79.7,25.07,79.65,25.04z"/>
	<path d="M79.94,25.33C79.93,25.32,79.93,25.32,79.94,25.33c0.02,0.03,0.04,0.08,0.06,0.13C79.98,25.41,79.96,25.36,79.94,25.33z"/>
	<path d="M79.19,24.9c0.01,0,0.02,0,0.03,0C79.21,24.9,79.2,24.9,79.19,24.9z"/>
	<path d="M78.83,24.89c0.04,0,0.07,0,0.11,0C78.9,24.89,78.87,24.89,78.83,24.89z"/>
	<path d="M79.34,24.92c-0.04-0.01-0.08-0.01-0.12-0.02c0.06,0.01,0.12,0.02,0.18,0.03C79.38,24.93,79.36,24.93,79.34,24.92z"/>
	<path d="M78.94,24.89c0.09,0,0.17,0.01,0.25,0.02C79.11,24.89,79.03,24.89,78.94,24.89z"/>
	<path d="M79.4,24.94c0.03,0.01,0.05,0.02,0.08,0.02C79.46,24.95,79.43,24.95,79.4,24.94z"/>
	<path d="M79.99,25.45c0,0.01,0.01,0.02,0.01,0.02C80,25.47,80,25.46,79.99,25.45z"/>
	<path d="M76.09,25.27c-0.03,0-0.05,0.01-0.08,0.02c0.27-0.05,0.53-0.1,0.79-0.14C76.57,25.18,76.33,25.22,76.09,25.27z"/>
	<path d="M78.68,24.89c0.05,0,0.1,0,0.15-0.01C78.78,24.89,78.73,24.89,78.68,24.89z"/>
	<path d="M79.48,24.96c0.06,0.02,0.12,0.04,0.16,0.07C79.59,25.01,79.54,24.98,79.48,24.96z"/>
	<path d="M77.78,24.98l-0.69,0.11c-0.09,0.02-0.19,0.04-0.29,0.05c0.38-0.07,0.77-0.13,1.16-0.18L77.78,24.98z"/>
	<polygon points="77.97,24.96 77.96,24.96 77.97,24.96 	"/>
	<path d="M79.64,25.04L79.64,25.04c0,0,0.01,0.01,0.01,0.01C79.65,25.04,79.65,25.04,79.64,25.04z"/>
	<path d="M80.04,25.62c0.01,0.05,0.01,0.1,0.01,0.15C80.05,25.72,80.05,25.67,80.04,25.62z"/>
	<path d="M78.55,24.9c0.04,0,0.09-0.01,0.14-0.01c-0.03,0-0.05,0-0.08,0l-0.3,0.03l-0.18,0.02l-0.16,0.02l0.23-0.03L78.55,24.9z"/>
	<path d="M80,25.48c0.01,0.04,0.03,0.08,0.03,0.12C80.03,25.56,80.02,25.52,80,25.48z"/>
	<path d="M80.04,25.6c0,0.01,0,0.02,0,0.02C80.04,25.61,80.04,25.61,80.04,25.6z"/>
	<path d="M8.79,38.67l-0.01-0.03c-0.01,0-0.02,0-0.03,0.01L8.79,38.67z"/>
	<path d="M8.72,38.52c0.01,0,0.02-0.01,0.03-0.01l0-0.03L8.72,38.52z"/>
	<path d="M8.52,36.05L8.5,35.99C8.48,35.99,8.46,36,8.44,36L8.52,36.05z"/>
	<path d="M8.43,35.94c0.02-0.01,0.03-0.01,0.05-0.02l-0.02-0.05L8.43,35.94z"/>
	<path d="M36.98,31.85c3.39-0.86,6.49-1.65,8.3-2.13L36.98,31.85z"/>
	<path d="M7.59,33.52l-0.05-0.03c-0.01,0-0.03,0.01-0.05,0.01l0.08,0.05l-0.05,0.08c0.02-0.01,0.03-0.01,0.05-0.02l0.03-0.05
		l0.04,0.03c0.01,0,0.02-0.01,0.03-0.01l0-0.01l-0.05-0.04l0.03-0.06v-0.01c-0.01,0-0.03,0-0.04,0.01L7.59,33.52z"/>
	<path d="M52.41,17.35c0.66-0.16,1.31-0.32,1.97-0.47C53.82,17.01,53.13,17.17,52.41,17.35z"/>
	<path d="M33.14,22.07l13.83-3.36c-0.3,0.04,2.82-0.73,5.44-1.36C45.98,18.88,39.56,20.48,33.14,22.07z"/>
	<path d="M40.6,12.58c-0.06-0.01-0.12-0.01-0.18-0.01C40.48,12.56,40.54,12.57,40.6,12.58z"/>
	<path d="M40.42,12.56c-0.03,0-0.05,0-0.07,0C40.37,12.56,40.39,12.56,40.42,12.56z"/>
	<path d="M40.63,12.58c-0.01,0-0.02,0-0.02,0C40.61,12.58,40.62,12.58,40.63,12.58z"/>
	<path d="M5.66,23.59l-0.01-0.05c-0.02,0.01-0.04,0.01-0.05,0.01L5.66,23.59z"/>
	<path d="M26.83,6.07l0-0.02c0.01-0.01,0.02-0.01,0.03-0.01l0-0.01l-0.01,0c-0.01,0-0.02,0-0.03,0.01l0-0.02l-0.01,0.03
		c-0.01,0-0.01,0-0.02,0l0.01,0.01l-0.01,0.01c0.01,0,0.01,0,0.02,0L26.83,6.07z"/>
	<path d="M5.58,23.46c0.02-0.01,0.03-0.01,0.05-0.01L5.61,23.4L5.58,23.46z"/>
	<path d="M40.35,12.56c-0.05,0-0.1,0-0.15,0C40.24,12.56,40.29,12.56,40.35,12.56z"/>
	<polygon points="10.57,6.57 10.58,6.56 10.58,6.55 	"/>
	<path d="M40.63,12.58c0.07,0.01,0.13,0.02,0.2,0.05C40.77,12.6,40.7,12.59,40.63,12.58z"/>
	<path d="M10.64,6.74l0-0.01c0,0-0.01,0-0.01,0L10.64,6.74z"/>
	<path d="M40.2,12.56c-0.07,0-0.15,0.01-0.21,0.01C40.06,12.57,40.13,12.56,40.2,12.56z"/>
	<polygon points="40.82,12.63 40.82,12.63 40.82,12.63 	"/>
	<path d="M40.86,12.64c-0.01,0-0.02-0.01-0.04-0.01c0.06,0.02,0.12,0.05,0.19,0.08c0.06,0.04,0.12,0.11,0.17,0.18
		c0.07,0.1,0.1,0.25,0.07,0.37c0-0.01,0.01-0.02,0.02-0.03C41.3,12.95,41.07,12.67,40.86,12.64z"/>
	<path d="M41.24,13.25c-0.01,0.04-0.02,0.07-0.04,0.1C41.22,13.32,41.24,13.29,41.24,13.25z"/>
	<path d="M10.97,17.68c3.04-0.72,6.67-1.61,11.47-2.8C26.32,13.88,20.12,15.47,10.97,17.68z"/>
	<path d="M19.37,18.79l-0.11,0.09C20.28,18.59,20.69,18.46,19.37,18.79z"/>
	<path d="M72.72,19.11l-0.01,0.02l0.01,0.06c0.03-0.01,0.06-0.01,0.09-0.02L72.72,19.11z"/>
	<path d="M72.74,19.2l0.01,0.06l0.02,0.01l0.05-0.09C72.79,19.19,72.76,19.19,72.74,19.2z"/>
	<path d="M11.63,28.69c0.35-0.09,0.69-0.19,1.04-0.28C12.32,28.5,11.97,28.59,11.63,28.69z"/>
	<path d="M8.28,34.42c-0.31,0.04-0.62,0.09-0.92,0.13C7.68,34.51,7.98,34.46,8.28,34.42z"/>
	<path d="M9.46,37.46C9.45,37.46,9.45,37.46,9.46,37.46C9.45,37.46,9.46,37.46,9.46,37.46C9.46,37.46,9.46,37.46,9.46,37.46z"/>
	<path d="M9.46,37.46c0.63-0.2,1.26-0.39,1.89-0.56C10.71,37.07,10.09,37.26,9.46,37.46z"/>
	<path d="M11.35,36.89c0.15-0.04,0.31-0.09,0.46-0.13C11.65,36.8,11.5,36.85,11.35,36.89z"/>
	<path d="M11.81,36.76c0.15-0.04,0.29-0.08,0.44-0.12C12.1,36.68,11.95,36.72,11.81,36.76z"/>
	<path d="M8.19,39.45l-0.28,0.01c-0.1,0-0.22,0-0.33-0.01c-0.22-0.02-0.44-0.08-0.57-0.25c-0.13-0.16-0.18-0.41-0.06-0.58
		c0.11-0.17,0.29-0.3,0.5-0.4c0.2-0.11,0.34-0.16,0.52-0.24c0.16-0.07,0.33-0.13,0.5-0.19c0.33-0.12,0.66-0.23,0.99-0.33
		c-0.25,0.08-0.49,0.16-0.74,0.24c-0.38,0.13-0.76,0.27-1.13,0.44c-0.22,0.11-0.46,0.24-0.6,0.42C6.82,38.74,6.84,39.04,7,39.22
		c0.15,0.19,0.4,0.24,0.66,0.26c0.28,0.02,0.44,0,0.66-0.01c0.41-0.03,0.81-0.08,1.2-0.13c1.59-0.23,3.15-0.56,4.72-0.88
		c1.56-0.33,3.12-0.68,4.68-1.04l-2.02,0.38c-1.44,0.33-2.89,0.66-4.35,0.95C11.09,39.04,9.66,39.34,8.19,39.45z"/>
	<path d="M12.24,36.64c0.36-0.1,0.71-0.19,1.07-0.29C12.96,36.45,12.6,36.54,12.24,36.64z"/>
	<path d="M16.89,37.8c3.84-0.89,7.55-1.81,10.86-2.63c-4.07,0.99-7.99,1.95-11.33,2.72L16.89,37.8z"/>
	<path d="M20.46,44.63c1.97-0.45,4-0.93,6.03-1.41c-2.68,0.62-6.72,1.6-10.65,2.36c-0.49,0.09-0.98,0.18-1.47,0.26
		c-0.49,0.07-0.95,0.15-1.52,0.15c-0.13,0-0.26-0.02-0.37-0.05c-0.12-0.02-0.22-0.13-0.28-0.23c-0.05-0.11-0.07-0.26-0.01-0.36
		c0.06-0.11,0.15-0.18,0.25-0.25c0.2-0.14,0.45-0.24,0.68-0.34c0.21-0.08,0.42-0.16,0.62-0.23c1.64-0.55,3.09-0.94,4.11-1.23
		c-1.02,0.28-2.29,0.62-3.72,1.08c-0.36,0.12-0.71,0.23-1.12,0.4c-0.22,0.09-0.44,0.2-0.62,0.32c-0.09,0.07-0.17,0.14-0.23,0.23
		c-0.06,0.09-0.06,0.22-0.02,0.33c0.04,0.11,0.12,0.2,0.21,0.26c0.1,0.05,0.2,0.07,0.32,0.08c0.23,0.02,0.51,0,0.76-0.02
		c0.44-0.05,0.89-0.11,1.34-0.19C16.58,45.49,18.49,45.07,20.46,44.63z"/>
	<path d="M18.5,44.96l-1.37,0.31c3.61-0.75,7.2-1.61,10.79-2.46C24.78,43.55,21.65,44.28,18.5,44.96z"/>
	<polygon points="76.72,34 76.74,33.95 76.74,33.96 76.71,33.99 	"/>
	<path d="M76.72,33.84l-0.05-0.03l0,0.02l0.03,0.02C76.71,33.84,76.71,33.84,76.72,33.84z"/>
</g>
</svg>
