<?xml version="1.0" encoding="utf-8"?>
<!-- Generator: Adobe Illustrator 23.1.1, SVG Export Plug-In . SVG Version: 6.00 Build 0)  -->
<svg version="1.1" id="レイヤー_1" xmlns="http://www.w3.org/2000/svg" xmlns:xlink="http://www.w3.org/1999/xlink" x="0px"
	 y="0px" viewBox="0 0 247.4 144.49" style="enable-background:new 0 0 247.4 144.49;" xml:space="preserve">
<style type="text/css">
	.st0{fill:#944242;}
</style>
<g>
	<path class="st0" d="M213.6,107.68c-0.51,0.21-1.03,0.38-1.57,0.49c0,0,0,0,0,0c-2.18,0.46-4.12,0.2-5.64-0.7
		c-0.01,0.01-0.01,0.01-0.02,0.02c2.19,1.16,5.06,1.63,6.98,3.06c-1.64,2.86-6.63,5.1-10.09,7.63c-1.04,0.77-3.12,1.77-3.27,2.73
		c-0.24,1.54,1.68,2.54,2.45,3.82c1.95,3.22,2.59,10.86,5.18,14.73c-5.04-0.74-10.08-2.07-15.27-3.27
		c-4.77-1.1-9.27-3.43-14.18-4.64c-6.79-1.66-15.32-2.28-24-3c-7.7-0.64-15.67-2.66-23.18-3c-12.33-0.56-22.79-0.34-33.54-0.82
		c-11.25-0.5-20.58,2.02-30.27,2.46c-0.01,0-0.88-0.54-0.82-0.54c-0.71,0.12-1.22,0.74-1.91,0.82c-18.68,2.11-36.61,5.46-51.26,12
		c-1.15,1-1.57,1.11-3.54,1.36c0.65-6.68,5.09-13.4,7.91-20.18c-0.9-2.11-3.59-2.19-5.45-3.27c-2.52-1.46-4.38-4.08-6.27-5.18
		c15.19-10.63,35.12-11.86,55.9-16.91c7.83-0.47,15.1-1.11,22.36-1.91c4.98-0.55,9.34-1.91,15.27-1.91
		c14.96,0,28.26,0.48,41.28,1.58c0.3-0.74,0.59-1.47,0.88-2.17c-3.81-0.42-7.73-0.99-11.62-1.31c-7.3-0.6-15.13-1.62-21.82-0.82
		c-4.71,0.57-9.03-0.21-14.18,0.27c-3.73,0.35-7.43,1.5-11.18,1.91c-7.42,0.8-14.57,0.73-20.45,1.64c-3.88,0.6-8.41,2.2-11.45,2.73
		c-1.58,0.28-3.05,0.44-4.63,0.82c-14.59,3.51-29.47,5.32-39.81,13.09c-2.06,0.76-4.28,1.35-5.45,3c0.91,1.79,3.17,1.92,4.64,3
		c1.4,1.03,2.41,2.58,3.82,3.55c1.69,1.16,3.85,1.28,4.91,3c-1.69,3.67-3.13,7.6-5.18,10.91c0.21,5.03-3.66,7.2-2.18,11.73
		c2.68,0.64,4.4-1.31,6.55-2.18c11.05-4.5,23.45-8.56,36.26-10.36c3.91-0.55,8.01-1.16,12-1.64c8.11-0.97,16.46-1.98,24.54-2.73
		c6.44-0.59,13.46,0.27,20.72,0.27c12.88,0,25.47,0.22,36.26,2.18c6.8,1.24,13.64,1.32,20.18,1.91c4.68,0.42,9.34,1.63,13.91,2.73
		c4.65,1.11,8.94,2.95,13.36,4.09c2.32,0.6,4.83,0.74,7.09,1.36c4.33,1.19,7.82,2.13,11.45,3.54c1.12-1.61,1.52-2.94,0.82-4.64
		c-0.87-2.08-1.61-3.54-2.18-5.18c-0.68-1.97-0.68-4.26-1.36-6.27c-0.79-2.33-2.43-4.09-2.73-6.27c2.22-2.4,7.31-4.62,10.09-6.82
		c2.09-1.65,3.21-2.91,1.91-5.45C215.09,108.47,214.35,108.06,213.6,107.68z"/>
	<path class="st0" d="M247.06,48.87c-0.1-0.82-0.84-1.4-1.67-1.3l-17.47,2.19c-0.82,0.1-1.4,0.85-1.3,1.67
		c0.09,0.76,0.74,1.31,1.49,1.31c0.06,0,0.12,0,0.19-0.01l17.47-2.19C246.58,50.44,247.17,49.69,247.06,48.87z"/>
	<path class="st0" d="M241.08,16.7c-0.47-0.68-1.4-0.85-2.09-0.38l-20.13,13.88c-0.68,0.47-0.85,1.4-0.38,2.09
		c0.29,0.42,0.76,0.65,1.24,0.65c0.29,0,0.59-0.09,0.85-0.27l20.13-13.88C241.38,18.31,241.55,17.38,241.08,16.7z"/>
	<path class="st0" d="M205.62,20.82c0.17,0.06,0.34,0.09,0.51,0.09c0.61,0,1.19-0.38,1.41-0.99l6.15-16.9
		c0.28-0.78-0.12-1.64-0.9-1.92c-0.78-0.28-1.64,0.12-1.92,0.9l-6.15,16.9C204.44,19.68,204.84,20.54,205.62,20.82z"/>
	<path class="st0" d="M34.55,84.42c0.52-0.07,0.82,0.03,0.89,0.29c0.05,0.2-0.07,0.54-0.38,1.01c-0.3,0.48-0.44,0.92-0.4,1.34
		c0.04,0.42,0.12,0.86,0.25,1.33c0.29,1.07,0.78,2.11,1.49,3.14c0.27-0.07,0.61-0.13,1.04-0.17c0.4-0.11,0.67-0.18,0.81-0.22
		c1.95-0.52,3.24-1.23,3.86-2.12c0.75,0.38,1.63,0.43,2.64,0.16c1.56-0.35,2.46-0.52,2.68-0.5c1.28-0.34,1.59-1.72,0.94-4.14
		c-0.05-0.2-0.14-0.5-0.24-0.91c-0.19-0.45-0.33-0.81-0.4-1.08c-0.62-0.41-1.25-0.64-1.91-0.68c0.59-0.74,0.99-1.56,1.17-2.48
		l-0.46-1.71c-0.33-1.21-0.7-1.94-1.13-2.18c-0.07,0.02-0.24,0.06-0.51,0.14c-0.2,0.05-0.37,0.1-0.51,0.14
		c-0.34,0.09-0.71,0.19-1.12,0.3c-0.41,0.11-0.64,0.17-0.71,0.19c-0.75,0.2-1.59,0.83-2.55,1.87c-1.01-0.52-2.91-0.41-5.68,0.34
		c-0.81,0.22-1.38,0.55-1.69,0.99c0.02,0.35,0.13,0.89,0.33,1.63C33.26,82.23,33.79,83.34,34.55,84.42z"/>
	<path class="st0" d="M4.8,34.66c-0.62,1.47-0.48,3.85,0.41,7.15c0.22,0.81,0.68,2.38,1.38,4.72c0.71,2.34,1.28,4.32,1.71,5.94
		c0.09,0.34,0.82,0.94,2.2,1.79c-0.46,0.63-0.7,1.49-0.71,2.58l5.6,20.83c0.58,2.16,1.3,3.63,2.16,4.41
		c-0.35,0.89-0.43,1.81-0.23,2.77l2.85,10.62l0.74,0.34l3-0.81c0.64-0.26,1.03-0.83,1.15-1.71l1.27,0.74
		c0.85-0.01,1.65-0.12,2.38-0.32c0.67-0.18,1.63-0.58,2.89-1.21c0.55-0.87,0.68-1.87,0.37-3.02l-0.43-1.61
		c-0.51-0.29-0.9-0.55-1.18-0.76l0.5-1.76c-1.28-3.69-2.29-6.92-3.03-9.67c-0.78-2.89-1.47-5.73-2.07-8.52
		c-0.61-2.79-0.89-4.12-0.86-3.99c-0.11-0.4-0.22-0.81-0.33-1.21s-0.17-0.64-0.19-0.71c-0.11-0.4-0.06-0.63,0.14-0.69
		c-0.45-0.89-1.18-1.59-2.19-2.11l0.78-1.94l-5.83-21.68c-0.11-0.4-0.5-0.66-1.18-0.76c0.26-0.65,0.47-1.06,0.64-1.25l-3.03-11.29
		c-0.26-0.43-0.59-0.67-0.98-0.71c-0.4-0.04-0.89,0.02-1.48,0.18c-1.31,0.35-1.95,1.1-1.93,2.25c-0.91-0.76-2.05-1-3.41-0.71
		c-1.36,0.3-2.67,0.61-3.92,0.94c-0.38,0.17-0.6,0.52-0.67,1.05c0.56,2.6,0.95,4.3,1.16,5.11C3.28,32.61,4.05,34.28,4.8,34.66z"/>
	<path class="st0" d="M64.62,32.67c0.25,0.32,0.61,0.62,1.07,0.91l-0.9,1.17l0.01,0.1l0.04,0.31c0.12,0.97,0.3,2.35,0.53,4.14
		c0.16,1.24,0.37,2.87,0.63,4.87c0.26,2,0.43,3.35,0.52,4.04c0.18,1.38,0.58,2.35,1.22,2.9l-0.57,1.02l1.41,12.03
		c0.31,0.45,0.6,0.76,0.88,0.94l0.55,0.35c-0.19,0.17-0.46,0.48-0.83,0.95c0.26,4.18-0.32,6.78-1.73,7.8
		c-0.29,0.46-0.35,1.34-0.18,2.66l0.17,1.35c0.16,1.24,0.61,1.99,1.34,2.25l-0.63,0.82c-0.17,0.3-0.13,1.46,0.13,3.46
		c0.15,1.17,0.71,1.7,1.68,1.57c2.07-0.27,3.53-1.19,4.38-2.77l-0.18-0.61l0.08-0.22c0.87,0.24,1.45,0.34,1.72,0.3
		c0.07-0.01,0.13-0.05,0.19-0.13c3.25-3.08,4.94-6.84,5.07-11.27c-0.1-0.76-0.33-1.43-0.68-2.01c0.58-0.91,0.79-2.06,0.61-3.44
		c-0.02-0.14-0.11-0.86-0.28-2.17c-0.16-1.24-0.32-2.45-0.47-3.62c-0.48-3.72-0.95-7.34-1.4-10.85c-0.24-0.53-0.54-0.81-0.88-0.83
		l-0.18-0.08c0.53-0.77,0.43-3.98-0.29-9.63l-1.11-8.58l-0.89-0.41c0.33-1.79,0.44-3.1,0.34-3.93c-0.06-0.48-0.17-1.15-0.31-2.01
		c-0.15-0.86-0.24-1.49-0.3-1.91c-0.24-0.74-1.42-0.97-3.56-0.7c-0.48,0.06-1.21,0.44-2.17,1.12c-1.18-0.41-2.42-0.53-3.73-0.36
		c-0.07,0.01-0.24,0.03-0.52,0.07c-0.28,0.04-0.48,0.06-0.62,0.08l-0.21,0.03c-0.9,0.12-1.15,1.69-0.76,4.73
		C64.08,29.3,64.36,31.16,64.62,32.67z"/>
	<path class="st0" d="M44.52,39.21l-0.66,0.71c0.06,0.97,0.22,2.46,0.48,4.45c0.43,3.3,0.94,6.32,1.54,9.03
		c0.17,0.33,0.4,0.68,0.71,1.06c-0.41,0.26-0.64,0.68-0.69,1.24l0.81,7.03c0.04,0.34,0.11,0.86,0.2,1.55
		c0.1,0.76,0.17,1.31,0.21,1.65c0.06,0.48,0.15,1.2,0.28,2.17c0.12,0.96,0.22,1.72,0.29,2.27c0.18,1.38,0.71,2.22,1.6,2.52l0.12,0.2
		l-0.11,0.75c-0.09,0.43-0.22,1.01-0.41,1.73c1.39,4.23,4.06,7.55,8.02,9.98c0.41-0.05,0.96-0.19,1.63-0.42l0.19-0.13l0.1,0.75
		c1.2,1.16,2.66,1.63,4.39,1.41c1.1-0.14,1.55-1.04,1.34-2.7l-0.08-0.62c-0.12-0.96-0.5-1.69-1.12-2.17l-0.23-0.18
		c0.68-0.16,0.96-0.72,0.84-1.68c-0.04-0.28-0.09-0.69-0.16-1.24c-0.13-0.47-0.21-0.81-0.24-1.02c-0.03-0.21-0.03-0.49,0-0.84
		c-0.04-0.34-0.08-0.58-0.09-0.72c-0.06-0.48-0.47-0.99-1.21-1.52c-1.54-1.97-2.47-4.2-2.79-6.68l-0.15-1.14
		c-0.27-0.25-0.58-0.49-0.94-0.72l0.11-0.44c0.09-0.15,0.21-0.52,0.37-1.1l-1.22-10.77l-0.44-3.41c-0.22-0.39-0.55-0.8-1-1.24
		c0.52-0.35,0.57-2.11,0.16-5.28c-0.02-0.14-0.17-1.31-0.45-3.52c-0.28-2.2-0.56-4.34-0.83-6.41l-0.01-0.1
		c-0.44-0.43-0.79-0.74-1.07-0.91c0.3-0.6,0.5-1.01,0.6-1.23c-0.05-1.39-0.12-2.37-0.19-2.92c-0.09-0.69-0.21-1.65-0.37-2.89
		L54,25.4c-0.11-0.83-0.58-1.29-1.43-1.39c-0.14,0.02-0.31,0.01-0.53-0.04c-0.27,0.04-0.48,0.06-0.61,0.08
		c-1.23,0.16-2.4,0.56-3.5,1.19c-1.09-0.35-2.15-0.46-3.17-0.33c-1.3,0.17-2.14,0.66-2.52,1.48c0.48,4.83,0.74,7.35,0.77,7.56
		C43.36,36.78,43.87,38.53,44.52,39.21z"/>
	<path class="st0" d="M114.23,32.51l-0.03,3.03c-0.03,2.44-0.19,4.35-0.48,5.74c0,0.49,0.27,1.01,0.82,1.58l-0.43,1.35
		c0.51,3.07,1.36,6.35,2.55,9.84c0.38,2.16,0.91,4.01,1.58,5.55c0.75,0.43,1.12,0.71,1.12,0.85c-0.01,0.56-0.26,1.04-0.75,1.45
		c1.29,5.23,2.61,10.44,3.96,15.6c0.83,3.56,1.45,5.34,1.86,5.35c0.35,0,0.53-0.41,0.54-1.25l0.05-4.79
		c0.01-0.97,0.03-2.33,0.04-4.07c0.02-1.67,0.03-2.81,0.04-3.44l0.01-1.15c0.03-2.29-0.31-3.75-1-4.39l0.53-0.52l0.11-0.62
		l0.11-0.21c0.22-1.04,0.33-1.84,0.34-2.39l0.16-14.17c-0.2-0.42-0.48-0.7-0.83-0.84l0.43-1.04c0.38-9.38,0.57-14,0.57-13.86
		c0.01-0.69-0.26-1.5-0.81-2.41c0.35-0.34,0.63-0.69,0.85-1.03l0.05-4.38c0.01-1.11-1.23-1.68-3.74-1.71
		c-0.35,0-0.87,0.24-1.57,0.71c-0.55-0.49-1.28-0.75-2.18-0.76l-2.61-0.03c-1.05,0.61-1.58,1.38-1.59,2.28
		c0,0.28,0.13,0.84,0.4,1.68c-0.3,1.53-0.45,2.75-0.46,3.65c-0.02,1.46,0.35,2.68,1.11,3.67C114.54,32,114.3,32.24,114.23,32.51z"/>
	<path class="st0" d="M97.46,29.53c-0.56,0.54-0.85,0.98-0.85,1.32c0.46,2.51,1.35,6.42,2.69,11.72c0.33,1.26,1.06,1.89,2.17,1.9
		l0.42,0c-0.63,0.69-0.96,1.59-0.97,2.71c0.59,3.36,1.76,7.77,3.51,13.23c0.27,0.77,0.89,1.44,1.86,2.01
		c-0.63,0.2-0.95,0.69-0.96,1.46c0,0.35,0.33,1.57,1,3.67c0.87,2.73,1.58,5.22,2.11,7.46c0.55,0.5,1.14,0.78,1.77,0.86l-0.63,0.52
		l-0.32,0.73c0.53,2.31,0.93,4.06,1.19,5.25c0.2,0.91,0.82,1.37,1.86,1.38l2.82,0.03l0.95-0.48l0.11-0.24
		c0.21,0.28,0.43,0.46,0.67,0.53c0.24,0.07,0.64,0.15,1.2,0.22l0.42,0c1.11,0.01,1.68-0.47,1.69-1.44c0-0.21-0.3-1.43-0.9-3.67
		c-0.2-0.56-0.51-0.95-0.93-1.16c0.28-0.55,0.43-1,0.43-1.35c0,0.35-0.81-2.38-2.42-8.17c-1.2-4.33-1.84-6.53-1.91-6.6l-0.93-1.05
		l0-0.21c0-0.21,0.14-0.42,0.42-0.62l-3.4-13.51l-0.21-0.11c0.01-0.49-0.34-1.08-1.02-1.79l-0.62-0.22
		c0.53-0.62,0.79-1.07,0.79-1.35c0-0.35-0.63-2.97-1.91-7.87c-0.84-2.99-1.62-4.6-2.35-4.82l-0.76-0.22
		c0.5-0.83,0.75-1.52,0.75-2.08c0.01-0.9-0.53-2.96-1.6-6.17c-0.76-0.91-1.55-1.37-2.39-1.38c-0.84-0.01-1.64,0.29-2.41,0.91
		c-1.53-0.43-2.74-0.66-3.65-0.67c-0.28,0-0.66,0.16-1.15,0.5c0.18,2.39,0.68,4.51,1.5,6.36C96.25,28.74,96.9,29.53,97.46,29.53z"/>
	<path class="st0" d="M90.38,83.51l0.63,0.01c0.14,0,0.28,0,0.42,0c0.21,0,0.35,0,0.42,0c0.76,0.01,1.53-0.26,2.31-0.81
		c0.55,0.48,1.21,0.73,1.98,0.74l-0.21,0.12l1.15,0.01c1.74,0.02,2.62-0.53,2.63-1.65l0.06-5.34c-0.27-0.56-0.69-0.95-1.24-1.17
		c0.14-0.14,0.33-0.36,0.58-0.67c0.25-0.31,0.48-0.57,0.69-0.78l0.07-6.6c0.01-1.12-0.54-2.06-1.64-2.84
		c1.12-0.41,1.68-1.03,1.69-1.87l0.03-2.62c-0.51-4.12-1.24-7.59-2.18-10.39c-0.81-2.38-1.49-3.58-2.05-3.58
		c-0.07,0-0.17,0.07-0.32,0.21c0.42-0.62,0.64-1.25,0.65-1.87c0.02-1.81-0.34-3.55-1.09-5.23c-0.75-1.68-1.54-2.63-2.37-2.85
		c0.49-0.69,0.75-1.42,0.75-2.18c0.01-0.63-0.13-1.18-0.4-1.67c-0.47-1.61-1.2-4.57-2.2-8.9c-0.54-2.02-1.01-3.04-1.43-3.04
		c-0.49-0.01-0.74,0.45-0.75,1.35c-0.04,3.14,0.22,5.3,0.76,6.49l-0.21,0.31l-0.43,0.83c-0.13,5.72-0.25,9.69-0.34,11.92
		c-0.01,0.84,0.16,1.4,0.5,1.68l0.31,0.21l0.41,0.32c-0.59,0.34-1.01,0.72-1.26,1.14l-0.12,10.77c0,0.07,0,0.21,0,0.42
		c0,0.21,0,0.38-0.01,0.52c-0.01,0.91,0.26,1.81,0.8,2.73l-0.53,0.62c-0.24,3.14-0.38,5.71-0.4,7.73c-0.03,3.07,0.19,4.88,0.67,5.45
		l0.1,0.42l-0.21,0.21l-0.32,0.62l-0.39,6.79l0,0.21C87.89,82.75,88.71,83.49,90.38,83.51z"/>
	<path class="st0" d="M132.38,69.55c-0.18,0.26-0.3,0.63-0.37,1.11c-0.05,0.35-0.05,0.63-0.01,0.84c-0.02,4.71,1.49,8.72,4.55,12.03
		c0.51,0.35,0.84,0.54,0.98,0.56c0.21,0.03,0.46-0.01,0.75-0.11l0.08,0.22c0.08,0.43,0.5,0.93,1.27,1.49
		c0.77,0.56,1.46,0.89,2.08,0.97c0.34,0.05,0.66,0.02,0.96-0.08c0.47-0.36,0.73-0.67,0.76-0.95l0.35-2.49
		c0.09-0.62,0.12-1.14,0.11-1.57l-1.24-0.91c0.05-0.35,0.44-0.54,1.16-0.58c0.28-0.1,0.5-0.74,0.66-1.91
		c0.23-1.66,0.21-3.24-0.05-4.76c-0.22-2.35-0.33-4.48-0.34-6.38c-0.48-0.49-0.81-0.78-1-0.88l0.31-0.59
		c0.24-0.25,0.5-0.63,0.77-1.16l1.62-11.7l0.16-1.14l0.49-3.52l0.55-1.72c0.24-1.73,0.1-2.98-0.43-3.75c0.49,0,0.88-0.23,1.15-0.69
		c0.72-3.14,1.49-5.14,2.31-6.01c0.24-0.25,0.41-0.65,0.48-1.2l0.58-4.14c-0.15-0.44-0.46-0.73-0.93-0.87
		c0.72-0.11,1.23-1.24,1.52-3.38l0.19-1.35c0.17-1.24-0.26-1.93-1.29-2.08c-1.72-0.24-3.35-0.04-4.88,0.59
		c-1.53,0.63-2.36,1.4-2.48,2.29l-0.01,0.1l-1.68,0.72c-2.21,2.79-3.54,5-3.98,6.63l-0.23,0.92l-0.19,0.61
		c-0.05,0.35,0.02,0.64,0.2,0.87c-0.78,0.53-1.33,1.47-1.66,2.83c-0.38,1.71-0.72,3.39-1.01,5.03c-0.18,0.88-0.27,1.3-0.28,1.28
		c-0.22,1.64-0.13,3.22,0.29,4.74l-0.47,0.36c-1.02,4.79-1.64,8.01-1.87,9.66C131.46,65.59,131.48,68.94,132.38,69.55z"/>
	<path class="st0" d="M151.6,68.56c-0.06,0.41-0.11,0.76-0.14,1.03c0.09,0.26,0.23,0.52,0.43,0.79c-0.51,0.86-1.71,3.14-3.6,6.9
		l-0.24,1.74c-0.16,1.16,0.12,2.17,0.84,3.04c-0.86,0.09-1.31,0.31-1.35,0.64c0.02,0.82,0,1.47-0.06,1.94
		c0.53,0.05,1.13,0.19,1.77,0.51c0.03,0.02,0.06,0.03,0.1,0.05c1.06,0.57,1.92,1.27,2.6,2.07c0.42-0.24,0.76-0.57,1-1.03
		c0.32,0.25,0.65,0.41,0.99,0.45c0.91,0.13,2.08-0.59,3.5-2.12c0.02-0.05,0.04-0.1,0.06-0.16c0.52-1.46,1.38-2.2,2.13-2.57
		c0.31-0.44,0.64-0.9,0.97-1.39c0.49-0.99,0.81-2.03,0.96-3.13l0.1-0.72l-0.36-0.47l0.46-0.25c1.24-2.36,2.03-4.74,2.36-7.16
		c0.03-0.21,0.07-0.48,0.12-0.83c-0.01-0.42-0.01-0.7,0.01-0.84c0.04-0.77-0.29-1.2-0.97-1.29l-2.67-0.37
		c-0.62-0.09-1.17,0.12-1.65,0.61l-0.19-0.13l-1.13-0.89l-3.69-0.51c-1.16-0.16-1.9,0.9-2.22,3.17
		C151.7,67.83,151.66,68.14,151.6,68.56z"/>
	<path class="st0" d="M154.99,38.04c0.06,1.06,0.35,1.77,0.86,2.12c-0.35,0.51-0.65,0.89-0.9,1.14l-0.2,1.45
		c-0.26,1.86,0.02,2.92,0.82,3.17l4.86,0.67l0.69-0.43l0.28,0.25l0.89,0.44l1.24,0.17c1.93,0.27,3-0.39,3.23-1.98
		c0.43-3.1,0.31-5.05-0.35-5.85c0.25-0.32,0.52-0.73,0.81-1.26c-0.17-3.33-0.74-6.04-1.72-8.14l-0.33-0.68l-0.46-0.49
		c-0.77-1.51-1.51-2.32-2.19-2.41c-0.28-0.04-0.68,0.08-1.21,0.36l0.04-0.31c0.03-0.21,0.01-0.59-0.05-1.17
		c-1.16-0.79-2.42-1.29-3.8-1.48c-1.52-0.21-2.43,0.79-2.73,2.99c-0.26,1.86,0.1,3.11,1.06,3.73l-1.06,0.8
		c-0.22,1.09-0.39,2.05-0.51,2.88c-0.06,0.41-0.07,0.73-0.03,0.95C154.65,35.67,154.9,36.69,154.99,38.04z"/>
	<path class="st0" d="M166.9,81.51l-0.74,2.87c0.58,0.83,0.99,1.75,1.2,2.76c0.22,1.03,0.22,2.06,0.11,3.03l1.72,0.44
		c0.49,0.05,0.98-0.03,1.47-0.27l0.04,0.05c0.05-0.01,0.11-0.03,0.16-0.04c0.79-0.17,1.98-0.33,3.32,0.13
		c0.79,0.25,1.47,0.54,2.11,0.85c0.58-0.48,0.97-1.08,1.16-1.82l2.65-10.29l-0.5-0.99c0.59-0.35,1.14-1.5,1.64-3.45
		c0.12-0.47,0.38-1.48,0.78-3.03c0.38-1.48,0.71-2.76,0.99-3.84c0.42-1.61,0.82-3.2,1.22-4.74c0.16-0.6,0.03-1.25-0.37-1.92l1.12-1
		l4.03-15.65c0.05-0.2-0.03-0.58-0.25-1.14l0.66-0.47l2.75-10.7c-0.13-0.89-0.84-1.51-2.11-1.84c-0.95-0.24-2.01-0.16-3.19,0.26
		c-0.7-0.9-1.66-1.51-2.87-1.82l-0.61-0.16c-0.67-0.17-1.18-0.3-1.52-0.39c-0.52,0.08-1.02,0.31-1.47,0.7
		c-0.97,3.2-1.56,5.21-1.76,6.01c-0.75,2.9-0.75,4.59-0.01,5.06L178,40.49c-0.65,0.55-1.25,1.94-1.83,4.16
		c-0.12,0.47-0.3,1.18-0.55,2.12c-0.24,0.94-0.43,1.69-0.57,2.22c-0.02,0.07-0.26,1.01-0.73,2.83c-0.45,1.75-0.9,3.5-1.35,5.26
		c-0.28,1.08-0.02,2.01,0.79,2.79c-0.84,0.58-1.43,1.18-1.76,1.81l-4.26,15.72c-0.28,1.08-0.04,1.82,0.72,2.23
		C167.63,80.08,167.11,80.7,166.9,81.51z"/>
	<path class="st0" d="M190.83,56.3c-0.66-0.17-1.08,0.08-1.25,0.76l-0.91,3.54c0.08,0.52,0.35,1.02,0.8,1.5
		c-0.85,0.21-1.43,0.96-1.76,2.24c-0.17,0.67-0.27,1.44-0.29,2.3c-0.12,0.47,0.04,0.87,0.49,1.2l0.25,0.17
		c0.37,0.1,0.9-0.02,1.58-0.35c0.56,0.65,1.09,1.04,1.59,1.16l0.28,0.07c-0.69,2.69-1.42,5.5-2.18,8.46
		c-0.03,0.13-0.08,0.3-0.13,0.5c-0.07,0.27-0.12,0.47-0.16,0.6c-0.29,1.14-0.29,2.54,0,4.19l-0.25,0.04l-0.97,0.5l-0.73,2.82
		c-0.16,0.6-0.32,1.32-0.5,2.13c1.11-0.88,2.2-1.46,3.27-1.69c1.57-0.33,3.25,0.15,4.62,1.31c0.75,0.64,1.34,1.45,1.76,2.35
		c0.45-1.24,0.93-2.47,1.43-3.64c0.01-0.03,0.03-0.06,0.04-0.09c0.56-1.18,1.55-2.01,2.72-2.34l1.26-4.9l0.08-0.74l-0.48-0.23
		c0.46-0.6,0.79-1.06,1-1.36c0.56-2.16,1.36-5.27,2.4-9.32c1.04-4.05,1.82-7.05,2.32-9.01l-0.25-1.14l0.69-0.58l3.44-13.37
		l-0.58-0.69c0.54-0.15,0.87-0.46,0.99-0.93l0.08-0.3c0.03-0.13,0.1-0.4,0.21-0.81c0.09-0.34,0.16-0.61,0.21-0.81
		c0.24-0.94,0.38-1.88,0.4-2.81c-0.2-0.63-0.67-1.04-1.41-1.23c-0.14-0.03-0.44-0.11-0.91-0.23c-0.5-0.02-0.92-0.07-1.25-0.16
		l-0.44,0.05l-0.4-0.1l-0.84,0.32c-0.13-0.61-0.87-1.09-2.22-1.43c-2.76-0.71-4.29-0.35-4.59,1.08c-0.5,1.96-0.91,3.54-1.22,4.75
		c-0.14,0.54-0.34,1.31-0.6,2.33c-0.28,1.08-0.48,1.85-0.6,2.33l-0.1,0.4c-0.26,1.01-0.16,2.01,0.31,2.99l-0.16,0.17
		c-0.77,0.52-1.24,1.08-1.39,1.69l-1.87,7.28l-0.4-0.1c-0.66-0.17-1.25-0.07-1.77,0.3C192.16,56.9,191.62,56.51,190.83,56.3z"/>
	<path class="st0" d="M35.77,126.82c-0.26,0.41-0.53,0.65-0.81,0.72c-0.29,0.07-0.64,0.08-1.07,0.02c-0.43-0.05-0.76-0.05-1,0
		c-0.48,0.11-0.66,0.43-0.54,0.96c0.06,0.24,0.33,0.41,0.83,0.51c0.49,0.1,1.13,0.06,1.9-0.12c0.72-0.17,1.33-0.5,1.83-1
		c0.5-0.5,0.85-1.06,1.06-1.69c0.44-1.33,0.5-2.62,0.19-3.87c-0.42-1.79-1.22-3.35-2.39-4.7c-0.5-0.58-1.04-1.19-1.62-1.81
		c-0.57-0.63-1.1-1.21-1.59-1.75c-0.49-0.54-0.94-1.17-1.36-1.89c-0.42-0.72-0.72-1.5-0.92-2.32c-0.2-0.82-0.09-1.58,0.31-2.26
		c0.22-0.37,0.52-0.63,0.91-0.76c0.35,0.12,0.79,0.11,1.32-0.01l0.4-0.76c-0.22-0.28-0.54-0.47-0.95-0.58
		c-0.41-0.11-0.81-0.12-1.2-0.02c-0.76,0.18-1.37,0.57-1.83,1.16c-0.86,1.12-1.11,2.44-0.74,3.95c0.37,1.61,1.33,3.26,2.88,4.95
		c0.65,0.71,1.3,1.42,1.95,2.13c0.64,0.71,1.23,1.49,1.77,2.35c0.53,0.86,0.9,1.69,1.09,2.5s0.21,1.77,0.07,2.87
		C36.19,125.93,36.03,126.4,35.77,126.82z"/>
	<path class="st0" d="M43.34,115.6c0.15-0.25,0.26-0.47,0.35-0.66c0.08-0.2,0.14-0.44,0.17-0.74c0.03-0.29,0.04-0.61,0.05-0.93
		c0.01-0.33-0.13-1.17-0.41-2.54c-0.22-1.08-0.64-1.99-1.26-2.73c-0.7-0.83-1.67-1.12-2.91-0.87l-1.42,0.29
		c-0.43,0.09-0.65,0.49-0.65,1.21c0.3,0.59,0.57,1.48,0.82,2.67l0.53,2.81c0.27,1.3,0.34,2.16,0.21,2.59l0.02,0.1
		c0.05,0.22,0.16,0.45,0.34,0.68l0.96,5.26c0.37,1.8,0.8,3.21,1.29,4.24l0.75,0.22c0.28-0.06,0.52-0.19,0.71-0.41
		c0.19-0.21,0.25-0.44,0.21-0.68l-1.4-5.51l-0.65-3.14c0.71-0.38,1.3-0.78,1.77-1.2C43.02,116.07,43.2,115.85,43.34,115.6z
		 M40.8,116.24l-0.01-0.04l-1.25-5.71l-0.34-1.66c0.23-0.05,0.35-0.06,0.36-0.03c0.57-0.12,1.03-0.03,1.37,0.27
		c0.32,0.28,0.58,0.89,0.77,1.82C42.35,114.04,42.05,115.82,40.8,116.24z"/>
	<path class="st0" d="M49.77,107.3c0.6-0.33,0.86-0.69,0.79-1.09c-0.07-0.38-0.63-0.61-1.68-0.67c-1.05-0.06-1.86-0.04-2.44,0.06
		c-0.91,0.16-1.24,0.94-0.99,2.34l0.62,2.46l1.33,8.66l1.1,4.95l0.14,0.78c0.05,0.25,0.21,0.44,0.48,0.58
		c0.26,0.14,0.54,0.18,0.83,0.13l2.74-0.49c0.36-0.06,0.67-0.19,0.93-0.38c0.26-0.19,0.37-0.43,0.31-0.73
		c-0.09-0.48-0.54-0.65-1.37-0.5l-2.38,0.5c-0.04,0.01-0.16-0.54-0.36-1.65L49,116.88c-0.13-0.74-0.3-1.48-0.5-2.22l0.83-0.15
		c0.34-0.02,0.66-0.06,0.95-0.11c0.29-0.05,0.52-0.17,0.68-0.37c0.16-0.19,0.22-0.39,0.19-0.61c-0.1-0.54-0.67-0.71-1.71-0.53
		l-1.15,0.25c-0.12-0.28-0.17-0.42-0.18-0.44l-0.62-4.26c-0.08-0.42-0.17-0.84-0.28-1.26C47.86,107.14,48.71,107.18,49.77,107.3z"/>
	<path class="st0" d="M57.34,123.62c0.29,0.11,0.71,0.19,1.27,0.24c0.56,0.05,1.08,0.04,1.57-0.04c1.2-0.18,1.74-0.67,1.62-1.45
		c-0.03-0.22-0.16-0.37-0.38-0.45c-0.22-0.08-0.46-0.09-0.71-0.05c-0.19,0.21-0.41,0.33-0.66,0.37c-0.76,0.12-1.42,0-1.98-0.35
		c-0.24-0.15-0.46-0.36-0.66-0.62c-0.2-0.26-0.4-0.61-0.62-1.05c-0.21-0.44-0.41-1.26-0.6-2.47l-0.73-5.74l-0.02-0.15
		c-0.15-0.93-0.2-2.14-0.15-3.61c0.03-0.78,0.17-1.45,0.41-2.02c0.25-0.57,0.6-0.89,1.04-0.96l1.53-0.23
		c0.2-0.04,0.35-0.15,0.46-0.33c0.11-0.18,0.15-0.37,0.12-0.57c-0.03-0.2-0.14-0.36-0.33-0.48c-0.19-0.12-0.45-0.15-0.79-0.1
		c-1.41,0.22-2.52,0.77-3.33,1.67c-0.6,0.65-0.98,1.7-1.14,3.17c-0.14,1.19,0.01,3.24,0.45,6.16l0.11,0.71l0.28,1.74
		C54.69,120.78,55.77,122.99,57.34,123.62z"/>
	<path class="st0" d="M64.19,121.08c-0.13,0.03-0.24,0.13-0.35,0.31c-0.11,0.18-0.15,0.36-0.13,0.55c0.06,0.45,0.47,0.62,1.25,0.52
		c0.1-0.01,0.23-0.04,0.4-0.08c0.28,0,0.92-0.06,1.91-0.18l1.44-0.18c0.29-0.04,0.53-0.16,0.73-0.36c0.2-0.21,0.28-0.44,0.25-0.69
		c-0.06-0.49-0.54-0.68-1.44-0.57l-0.94,0.15l-0.43,0.05l-0.09-0.83l-0.11-0.89l-0.96-6.3l-0.54-5.7c-0.13-1.03-0.29-1.94-0.48-2.75
		l1.68-0.21c0.25-0.03,0.45-0.14,0.63-0.32c0.17-0.18,0.25-0.36,0.22-0.54c-0.05-0.42-0.52-0.57-1.41-0.46l-3.9,0.49
		c-1.08,0.14-1.59,0.43-1.53,0.89c0.04,0.31,0.16,0.51,0.35,0.6c0.19,0.09,0.45,0.11,0.77,0.07l0.75-0.12l0.62-0.08
		c0.23,0.98,0.42,2.04,0.56,3.18l0.66,6.65l1.02,6.29l-0.01,0.4L64.19,121.08z"/>
	<path class="st0" d="M70.88,121.07l-0.05,0.27c0.02,0.23,0.15,0.42,0.39,0.54c0.23,0.13,0.48,0.18,0.74,0.16
		c0.52-0.05,0.85-0.46,0.97-1.21c0.06-0.37,0.11-0.95,0.14-1.75c0.03-0.8,0.11-1.54,0.25-2.22l3.28,0.12
		c0.48,1.58,0.76,2.8,0.84,3.64c0.04,0.39,0.19,0.64,0.46,0.75c0.27,0.11,0.63,0.14,1.09,0.1c0.35-0.16,0.51-0.46,0.46-0.9l0-0.03
		c-0.03-0.29-0.19-0.9-0.49-1.82c-0.3-0.92-0.46-1.5-0.49-1.75l-0.53-1.8c-0.13-1.31-0.56-3.44-1.29-6.38
		c-0.74-2.94-1.18-5.17-1.32-6.68c-0.02-0.25-0.16-0.43-0.39-0.54c-0.24-0.1-0.5-0.14-0.8-0.11L73,101.57
		c-0.26,0.43-0.37,1.38-0.34,2.84c0.02,0.67,0.03,1.07,0.02,1.21C72.45,110.59,71.84,115.74,70.88,121.07z M74.21,104.97
		c0.13,0.63,0.34,1.66,0.66,3.06c0.31,1.41,0.56,2.64,0.76,3.71c0.2,1.07,0.33,1.96,0.4,2.68c0.07,0.72,0.15,1.23,0.25,1.51
		c-1.57,0.06-2.55-0.01-2.95-0.2C73.41,113.66,73.7,110.07,74.21,104.97z"/>
	<path class="st0" d="M81.68,101.31c-0.18-0.13-0.38-0.19-0.6-0.18c-0.76,0.05-1.08,1.03-0.94,2.91c0.04,0.62,0.17,1.55,0.39,2.79
		l0.02,0.22c0.1,1.48,0.19,3.71,0.26,6.7c0.07,2.99,0.16,5.22,0.26,6.7c0.02,0.24,0.12,0.46,0.32,0.65c0.2,0.19,0.46,0.28,0.79,0.25
		c0.33-0.02,0.66-0.14,1-0.35c1.16-0.08,2.15-0.03,2.97,0.14c0.25-0.05,0.48-0.15,0.67-0.3c0.19-0.16,0.28-0.34,0.27-0.55
		c-0.04-0.58-0.65-0.83-1.83-0.75l-1.36,0.14c-0.74,0.05-1.16-0.61-1.25-1.98l-0.21-4.77l-0.04-0.6c-0.03-0.41,0.01-0.75,0.12-1.04
		l-0.6-7.18l0.06-2.3C81.95,101.61,81.86,101.44,81.68,101.31z"/>
	<path class="st0" d="M95.39,119.02c-0.33,0.35-0.65,0.54-0.94,0.54c-0.29,0.01-0.65-0.05-1.05-0.19c-0.41-0.14-0.74-0.2-0.98-0.19
		c-0.49,0.02-0.73,0.29-0.71,0.83c0.01,0.24,0.24,0.46,0.71,0.66c0.46,0.2,1.09,0.29,1.89,0.26c0.74-0.03,1.41-0.23,1.99-0.62
		c0.59-0.39,1.04-0.87,1.37-1.45c0.69-1.22,1.01-2.47,0.95-3.75c-0.06-1.84-0.53-3.53-1.41-5.08c-0.38-0.67-0.79-1.37-1.23-2.1
		c-0.43-0.73-0.84-1.4-1.21-2.03c-0.38-0.62-0.7-1.33-0.96-2.12c-0.26-0.79-0.41-1.61-0.44-2.46c-0.03-0.84,0.22-1.56,0.75-2.16
		c0.29-0.32,0.64-0.51,1.04-0.56c0.32,0.18,0.75,0.27,1.3,0.25l0.54-0.66c-0.16-0.32-0.43-0.57-0.82-0.76
		c-0.38-0.19-0.77-0.27-1.17-0.26c-0.78,0.03-1.46,0.28-2.02,0.77c-1.06,0.93-1.57,2.17-1.5,3.73c0.04,1.65,0.66,3.46,1.84,5.42
		c0.5,0.82,1,1.65,1.49,2.47c0.49,0.82,0.91,1.71,1.27,2.65c0.35,0.95,0.55,1.84,0.57,2.67c0.03,0.83-0.14,1.78-0.5,2.82
		C95.97,118.23,95.72,118.67,95.39,119.02z"/>
	<path class="st0" d="M100.74,118.77l0.01,0.79c0.01,0.25,0.14,0.47,0.38,0.65c0.24,0.18,0.5,0.27,0.79,0.26l2.79-0.03
		c0.37,0,0.69-0.08,0.98-0.21c0.29-0.14,0.43-0.36,0.43-0.66c0-0.49-0.43-0.73-1.26-0.72l-2.43,0.1c-0.04,0-0.07-0.56-0.08-1.68
		l0.09-5.44c-0.01-0.75-0.05-1.51-0.12-2.27l0.84-0.01c0.34,0.04,0.66,0.05,0.96,0.05c0.29,0,0.54-0.09,0.73-0.25
		c0.19-0.16,0.29-0.35,0.28-0.57c-0.01-0.55-0.54-0.81-1.6-0.8l-1.18,0.06c-0.07-0.29-0.1-0.45-0.1-0.47l0.1-4.31
		c0-0.43-0.03-0.86-0.06-1.29c0.64,0.06,1.48,0.24,2.5,0.54c0.64-0.22,0.96-0.54,0.96-0.95c0-0.39-0.52-0.71-1.54-0.94
		c-1.02-0.24-1.83-0.35-2.42-0.35c-0.92,0.01-1.38,0.72-1.36,2.14l0.2,2.53l-0.14,8.76L100.74,118.77z"/>
	<path class="st0" d="M111.68,101.77l1.51,0.22c0.28,0,0.53-0.07,0.76-0.22c0.23-0.15,0.34-0.34,0.35-0.59
		c0.01-0.48-0.33-0.72-1.02-0.73l-0.53,0.01l-4.48-0.34c-0.23,0-0.46,0.06-0.7,0.17c-0.24,0.12-0.36,0.27-0.36,0.46
		c-0.01,0.57,0.88,0.88,2.66,0.93c0.04,0,0.09,0,0.13,0c0.01,0.95,0.12,3.55,0.33,7.81c0.21,4.26,0.35,6.52,0.44,6.77
		c-0.04,0.67-0.06,1.01-0.06,1.02l0.04,2.3l0.61,0.4c0.28,0,0.54-0.08,0.78-0.26c0.24-0.18,0.36-0.38,0.36-0.62
		c0.02-1.9-0.12-4.75-0.44-8.53c-0.32-3.78-0.46-6.62-0.44-8.52L111.68,101.77z"/>
	<path class="st0" d="M155.3,111.34c-0.06,1.09,0.03,2,0.19,2.76c0.29,1.36,0.97,2.05,1.65,2.45c0.89,0.5,1.31,0.41,1.44-0.6
		c0.4-3.15,1.16-6.94,2.05-10.78c0.49-2.09,1.01-4.2,1.54-6.22c0.3-1.16,0.61-2.28,0.9-3.37c0.21-0.77,0.42-1.51,0.62-2.23
		c0.15-0.51,0.29-1.02,0.43-1.5c0.34-1.4,0.58-2.82,0.31-4.09c-0.24-1.13-0.9-2.16-2.05-2.95c-1.07-0.66-1.67-0.48-2.07,0.64
		c-0.92,2.5-1.89,4.73-2.87,6.83c-0.38,0.81-0.77,1.61-1.15,2.39c-2.34,4.74-4.73,8.97-6.83,14.33c0.36-6.65,0.69-9.72,1.25-14.25
		c0.02-0.25,0.04-0.49,0.05-0.72c0.07-1.13,0.04-2.1-0.11-2.8c-0.02-0.1-0.06-0.18-0.09-0.27c-0.37-1.36-1.24-2.37-2.64-3.13
		c-1.04-0.52-1.73-0.07-2.14,0.8c-0.36,0.78-0.73,1.64-1.11,2.54c-0.29,0.69-0.59,1.41-0.89,2.15c-3.12,7.72-6.45,17.77-7.22,21.95
		c-0.2,1.12-0.22,2.21-0.03,3.1c0.22,1.03,0.72,1.76,1.34,2.17c0.74,0.48,1.41,0.19,1.56-0.53c1.3-6.36,4.05-14.01,6.52-20.42
		c-0.5,5.5-0.74,11.1-0.62,13.28c0.04,0.63,0.1,1.16,0.21,1.67c0.42,1.97,1.49,3.07,2.96,3.79c0.81,0.37,1.24,0.28,1.55-0.77
		c1.71-5.61,4.92-12.92,7.92-19.1c-1.31,5.18-2.56,10.6-2.66,12.93L155.3,111.34z"/>
	<path class="st0" d="M215.69,95.79c-1.06,3.32-2.77,7.06-4.32,7.39c-0.61,0.13-0.99-0.28-1.17-1.13c-0.39-1.83,0.77-5.41,1.66-7.91
		c1.07-3.07,1.61-5.35,1.28-6.94c-0.22-1.03-0.61-1.74-1.22-2.29c-0.73-0.68-1.44-0.33-1.91,0.7c-1.23,2.52-1.78,5.97-3.59,11.07
		c-1.13,3.01-2.36,5.74-3.42,7.18c-0.44,0.6-0.85,0.99-1.22,1.06c-0.23,0.05-0.42-0.01-0.57-0.15c-0.3-0.26-0.44-0.82-0.45-1.55
		c-0.01-0.56,0.06-1.22,0.21-1.91c0.16-0.72,0.37-1.51,0.59-2.34c1.02-3.73,2.48-8.15,2.15-9.72c-0.15-0.71-0.51-1.46-1.16-2.01
		c-0.71-0.59-1.58-0.5-2.02,0.43c-1.2,2.75-2.17,5.67-2.85,8.26c-0.37,1.4-0.66,2.7-0.85,3.83c0,0.01-0.01,0.02-0.01,0.03
		c-0.2,0.7-0.44,1.4-0.7,2.07c-0.32,0.83-0.67,1.63-1.04,2.34c-0.31,0.6-0.64,1.13-0.97,1.58c-0.57,0.77-1.15,1.3-1.71,1.41
		c-0.61,0.13-1.07-0.41-1.28-1.4c-0.15-0.7-0.08-1.7,0.12-2.8c0.16-0.87,0.39-1.81,0.67-2.75c0.24-0.8,0.5-1.6,0.78-2.34
		c0.14-0.45,0.28-0.86,0.4-1.25c0.69-2.18,1.04-3.53,0.85-4.41c-0.38-1.78-1.99-3.16-3.36-2.87c-1.57,0.33-3.35,2.12-4.89,4.22
		c-0.11,0.16-0.23,0.31-0.34,0.47c-0.01-0.29-0.08-0.62-0.15-0.95c-0.16-0.75-0.51-1.46-1.08-2.08c-0.65-0.75-1.36-0.64-1.78,0.38
		c-0.62,1.55-1.26,3.33-1.86,5.13c-0.03,0.09-0.06,0.19-0.09,0.28c-0.27,0.82-0.53,1.63-0.78,2.44c-0.66,2.15-1.21,4.17-1.53,5.7
		c-0.79,1.67-1.83,3.38-3.14,4.67c-1,0.99-2.16,1.73-3.48,2.01c-1.41,0.3-2.56-0.98-3-3.04c-0.18-0.85-0.25-1.86-0.17-2.86
		c1.23,0.48,2.43,0.57,3.55,0.33c1.35-0.29,2.49-1.09,3.38-2.12c1.31-1.52,2.1-3.55,2.3-5.28c0.08-0.7,0.07-1.34-0.05-1.88
		c-0.03-0.13-0.07-0.26-0.11-0.38c0.05-0.16,0.1-0.31,0.15-0.47c-0.13-0.04-0.27-0.07-0.4-0.1c-0.14-0.27-0.31-0.51-0.48-0.68
		c-0.86-0.8-1.96-1.35-3.43-1.82c-0.53-0.18-1.07-0.17-1.72-0.03c-0.68,0.14-1.39,0.46-2.1,0.93c-0.74,0.49-1.48,1.17-2.17,2.01
		c-0.82,1-1.58,2.23-2.2,3.69c-0.36,0.84-0.67,1.76-0.92,2.74c-0.3,1.06-0.46,2.07-0.51,3.04c-0.05,0.94,0.02,1.84,0.2,2.67
		c0.8,3.76,3.8,6.11,8.16,5.14c1.35-0.3,2.64-0.91,3.81-1.71c0.85-0.58,1.63-1.28,2.32-2.04c0.29,0.76,0.75,1.3,1.38,1.71
		c0.34,0.22,0.62,0.3,0.86,0.27c0.41-0.04,0.66-0.4,0.77-0.91c0,0,0-0.01,0-0.01c0.62-2.77,1.27-5.68,2.13-8.27
		c0.22-0.66,0.44-1.31,0.69-1.92c0.34-0.85,0.72-1.63,1.13-2.35c0.07-0.13,0.14-0.27,0.22-0.4c0.62-1.1,1.24-2.01,1.83-2.77
		c1.25-1.64,2.3-2.52,2.58-2.58c0.32-0.07-0.15,1.28-0.8,3.01c-0.01,0.02-0.01,0.04-0.02,0.06c-0.38,1.03-0.75,2.2-1.08,3.4
		c-0.25,0.9-0.46,1.8-0.62,2.69c-0.33,1.74-0.46,3.37-0.22,4.53c0.52,2.44,2.22,3.75,5.36,3.08c0.98-0.21,1.96-0.73,2.86-1.44
		c0.79-0.63,1.52-1.39,2.13-2.23c0.52,0.94,1.34,1.59,2.49,1.67c0.34,0.02,0.7,0.02,1.11-0.07c0.78-0.17,1.5-0.49,2.15-0.91
		c0.76-0.49,1.44-1.12,2.03-1.84c0.46-0.56,0.88-1.16,1.23-1.78c0.64,2.07,2.33,3.14,5.1,2.55c2.91-0.62,5.46-3.66,6.25-6.62
		c0.41-1.51-0.06-2.83-0.34-3.22C216.76,94.59,215.99,94.9,215.69,95.79z M171.65,97.14c0.82-1.1,1.56-1.67,1.91-1.49
		c0.33,0.17,0.32,0.96,0.1,1.97c-0.19,0.87-0.53,1.9-0.98,2.88c-0.67,1.47-1.88,3.19-3,3.43c-0.33,0.07-0.68,0.05-1.1-0.11
		C169.31,100.98,170.56,98.59,171.65,97.14z"/>
</g>
</svg>
