<?xml version="1.0" encoding="utf-8"?>
<!-- Generator: Adobe Illustrator 23.1.1, SVG Export Plug-In . SVG Version: 6.00 Build 0)  -->
<svg version="1.1" id="レイヤー_1" xmlns="http://www.w3.org/2000/svg" xmlns:xlink="http://www.w3.org/1999/xlink" x="0px"
	 y="0px" viewBox="0 0 234.79 147.91" style="enable-background:new 0 0 234.79 147.91;" xml:space="preserve">
<style type="text/css">
	.st0{fill-rule:evenodd;clip-rule:evenodd;fill:#FFFFFF;}
	.st1{fill-rule:evenodd;clip-rule:evenodd;}
</style>
<g>
	<path d="M73.43,146c-0.28,0.44-0.59,0.67-0.94,0.67c-2.37,0-4.53-0.48-6.47-1.44c-1.95-0.96-2.92-1.9-2.92-2.83
		c0-0.07,0.07-0.3,0.21-0.69h-0.31c-0.83,0-1.46-0.25-1.88-0.76c-1.74-2.03-2.99-4.54-3.76-7.53c-0.14-0.25-0.28-0.79-0.42-1.62
		l0.83-0.86c-1.04-0.7-1.67-1.81-1.88-3.34c-0.14-1.84-0.28-3.68-0.42-5.53v-3.62c0-1.27,0.45-2.32,1.36-3.15l-0.94-0.48
		c-0.28-4.51-0.42-8.26-0.42-11.25c0-5.85,0.63-9.18,1.88-10.01c-0.35-0.38-0.52-0.83-0.52-1.33c0-4.32,2.57-8.71,7.73-13.15
		c0.42-0.13,0.73-0.19,0.94-0.19c0.28,0,0.63,0.06,1.04,0.19v-0.71c1.46-1.12,3.27-1.68,5.43-1.68c0.83,0,1.25,0.61,1.25,1.81
		c0.14,0.76,0.21,1.3,0.21,1.62c0,1.02-0.25,1.97-0.73,2.86c-0.21,0.06-0.31,0.16-0.31,0.29c0.63,0.7,0.94,1.27,0.94,1.72
		c0,2.61-0.31,4.07-0.94,4.38c-1.32,1.02-2.37,3.91-3.13,8.67c-0.28,0.25-0.7,0.57-1.25,0.95c0.49,0.51,0.94,1.11,1.36,1.81
		l-0.42,9.25v6.39l0.31,2.76c-0.21,0.38-0.31,0.86-0.31,1.43c0,0.38,0.1,0.8,0.31,1.24c0,0.45,0,0.73,0,0.86
		c0,1.02-0.45,1.81-1.36,2.38c0.83,0.51,1.39,0.95,1.67,1.33c0.77,4.58,1.78,7.28,3.03,8.1c0.49,0.19,0.73,0.54,0.73,1.05v4.96
		l-0.84,1.05l-0.31,0.09c0.21,0.19,0.56,0.38,1.04,0.57C73.36,143.94,73.43,145.18,73.43,146z M94.83,101.49
		c-0.13,1.33-0.26,2.65-0.39,3.96c-0.13,1.3-0.52,2.21-1.17,2.72l0.94,0.57c0.42,4.64,0.63,8.33,0.63,11.06
		c0,6.16-0.7,9.53-2.09,10.1c0.28,0.32,0.49,1.24,0.63,2.76c-0.84,4.77-3.31,8.61-7.41,11.53c-0.49,0.19-0.94,0.29-1.36,0.29
		c-0.35,0-0.59-0.03-0.73-0.1v0.76c-2.44,1.02-4.11,1.53-5.01,1.53c-1.04,0-1.64-0.57-1.78-1.72c0-0.25,0-0.57,0-0.95
		c-0.07-0.38-0.1-0.63-0.1-0.76c0-0.19,0.04-0.44,0.1-0.76c0-0.38,0-0.63,0-0.76c0.07-0.06,0.56-0.41,1.46-1.05
		c-0.98,0-1.46-0.54-1.46-1.62V136c0-0.63,0.21-1.14,0.63-1.53c1.53-1.08,2.71-4.04,3.55-8.87c0.28-0.25,0.73-0.57,1.36-0.95
		c-0.7-0.63-1.18-1.21-1.46-1.72l0.21-9.15v-4.1v-5.15c0-0.44,0-1.05,0-1.81c0-0.32,0-0.67,0-1.05c0-0.38,0-0.6,0-0.67
		c0-1.08,0.42-1.91,1.25-2.48c-0.96-0.25-1.57-0.95-1.84-2.1c-0.27-1.4-0.58-2.83-0.92-4.29c-0.21-1.27-0.92-2.38-2.15-3.34
		c-0.41,0-0.62-0.19-0.62-0.57V82.9c0.49-0.38,0.84-0.76,1.04-1.14c-0.14-0.25-0.31-0.38-0.52-0.38H77.4
		c-0.21-0.95-0.31-1.87-0.31-2.76v-0.95c0.21-0.51,0.52-0.82,0.94-0.95c3.62,0.32,6.72,1.46,9.29,3.43
		c0.14,0.25,0.21,0.51,0.21,0.76c0,0.13-0.07,0.38-0.21,0.76h0.31c0.76,0,1.5,0.25,2.19,0.76c1.6,2.35,2.71,4.96,3.34,7.82
		c0.14,0.64,0.21,1.18,0.21,1.62c-0.07,0.06-0.35,0.35-0.84,0.86c1.06,0.64,1.66,1.68,1.8,3.15C94.53,97.71,94.7,99.58,94.83,101.49
		z"/>
	<path d="M116.03,137.04c0-0.06,0-0.13,0-0.19v0.09c0,1.82,0,3.17,0,4.04v2.82c0,1-0.35,1.64-1.05,1.91c-0.35,0-0.84,0-1.47,0
		c-0.49,0-1.02,0-1.58,0c-0.56,0-0.91,0-1.05,0c-1.19,0-1.97-0.41-2.31-1.24c-0.49,0.83-1.3,1.24-2.42,1.24h-2.84
		c-0.49,0-0.74-0.35-0.74-1.05v-0.19c0-0.32,0-0.76,0-1.34c0-0.57,0-0.99,0-1.24c0-1.15,0.07-2.45,0.22-3.92
		c0.08-0.7,0.52-1.14,1.34-1.34c-0.15-0.32-0.41-0.67-0.78-1.05c-0.52-2.23-0.78-4.68-0.78-7.36v-2.2c0-0.19,0-1.05,0-2.58
		c0-1.53,0-2.93,0-4.21v-1.34c0-3.63,0.52-5.67,1.57-6.12c-0.64-0.25-1.16-0.7-1.57-1.34V91.42c0-0.7,0.45-1.34,1.36-1.91
		l-1.36-1.24v-9.94c0.35-0.57,1.09-0.86,2.21-0.86h1.47c1.54,0,2.59,0.45,3.16,1.33c0.49-0.55,1.16-0.92,2-1.13
		c1.26-0.14,2.03-0.21,2.31-0.21c1.19,0,1.93,0.32,2.21,0.95c0.07,0.89,0.1,2.35,0.1,4.39l-1.25,1.15c0.83,0.76,1.25,1.94,1.25,3.53
		c0,6.3-0.03,13.88-0.1,22.72l-0.29,0.96c-0.39,0.38-0.67,0.86-0.87,1.43c0.76,0.51,1.18,1.11,1.25,1.81v16.71
		c0,0.57-0.38,1.4-1.15,2.48c0.76,0.83,1.15,1.85,1.15,3.06V137.04z M139.51,100.73c-0.82,8.13-2.33,12.2-4.51,12.2
		c-0.34,0-0.79-0.1-1.33-0.29c0.35,1.14,0.52,1.75,0.52,1.81c0,1.02-0.98,1.94-2.92,2.76c-2.16,0.95-4.94,1.46-8.35,1.53
		c-0.21,0.06-0.49,0.1-0.83,0.1c-1.04,0-1.88-0.44-2.51-1.33c0.07-0.89,0.14-2.19,0.21-3.91c0.56-0.32,1.08-0.7,1.57-1.14
		c-0.91-0.38-1.46-1.02-1.67-1.91l-0.1-2.1c0-0.7,0.31-1.17,0.94-1.43l2.71-0.76c1.39-1.53,2.33-3.4,2.82-5.62
		c0.35-1.65,0.8-2.51,1.36-2.57c-0.72-0.25-1.18-0.79-1.39-1.62c0-2.67-1.25-4.89-3.75-6.67h-0.43c-1.5,0-2.25-0.67-2.25-2v-2.1
		c0.08-0.83,0.67-1.43,1.78-1.81c-0.37-0.32-0.92-0.73-1.66-1.24l-0.11-3.81c0.62-0.89,1.42-1.33,2.38-1.33c0.42,0,0.72,0,0.93,0
		h0.93c3.73,0,6.98,1.14,9.75,3.43c0.41,0.45,0.62,0.89,0.62,1.33c0,0.32,0,0.64,0,0.95c0.14,0,0.34,0,0.61,0
		c3,0,4.5,4.23,4.5,12.68v1.33c-0.28,0.51-0.73,1.05-1.36,1.62h0.2C138.54,98.82,138.99,99.46,139.51,100.73z"/>
	<path d="M158.2,142.86c0,1.08-0.38,1.94-1.15,2.57c-0.98,0.25-1.71,0.38-2.19,0.38c-0.35,0-0.8-0.06-1.36-0.19l-1.04-0.95
		c-0.42,0.69-0.94,1.07-1.57,1.14h-5.53l-0.63-0.48v-9.54c0.08-0.76,0.49-1.56,1.25-2.39c-0.7-1.02-1.04-2.23-1.04-3.63v-1.62
		l0.21-17.09c0.21-0.89,0.66-1.65,1.36-2.29c-1.18-1.02-1.77-2.61-1.77-4.77c0-0.45,0.03-1.11,0.1-2c0.07-0.89,0.1-1.56,0.1-2v-1.81
		c-0.14-1.21-0.21-2.42-0.21-3.63v-0.86c0-1.08,0.45-2.26,1.36-3.53c-0.91-0.51-1.36-1.5-1.36-2.96c0,0.06,0.05-0.89,0.16-2.86
		c0.1-1.97,0.16-3.98,0.16-6.01c0.21-0.45,0.52-0.7,0.93-0.76c0.9,0.06,1.69,0.1,2.38,0.1c1.93,0,3.24,0.48,3.94,1.43
		c1.03-1.02,2.24-1.53,3.62-1.53c0.28,0,0.76,0.06,1.45,0.19c0.41,0.25,0.69,0.57,0.83,0.95v4.19c-0.28,0.32-0.59,0.86-0.94,1.62
		c0.63,0.38,0.94,0.7,0.94,0.95v23.22l-1.25,1.52c0.76,0.7,1.18,1.49,1.25,2.38c0,7.87,0,14.12,0,18.75v7.33
		c-0.17,0.25-0.5,0.7-1,1.33l-0.25-0.19c0.13,0.13,0.54,0.51,1.25,1.14V142.86z M176.47,78.33c0.07,0.5,0.1,1.2,0.1,2.08
		c0,1.83-0.45,2.93-1.36,3.31c0.9,0.38,1.36,1.07,1.36,2.08v0.66c0,0.5,0,0.98,0,1.42v0.85c-0.35,0.38-0.84,0.69-1.48,0.95h-0.32
		h-2.95c-0.99,0-1.69-0.38-2.11-1.14c-0.42,0.45-0.92,0.83-1.48,1.14h-5.48l-0.77-0.7c-0.16-0.76-0.25-1.36-0.25-1.81
		c0-0.89,0.17-1.87,0.52-2.95l0.83-0.57c-0.77-0.57-1.22-1.11-1.36-1.62c0-2.6,0.31-4.05,0.94-4.37c0.49-0.06,1.18-0.1,2.09-0.1
		c1.6,0,3.24,0.19,4.91,0.57l0.63,0.57c1.25-0.76,2.54-1.14,3.86-1.14c0.35,0,0.87,0.06,1.57,0.17L176.47,78.33z M175.22,115.77
		c0,0.65-1.08,0.97-3.24,0.97c-0.42,0-1.04-0.32-1.88-0.95c-0.7,0.64-2.26,0.95-4.7,0.95c-1.39,0-2.51-0.03-3.34-0.09l-0.31-0.48
		v-0.86c0-0.44,0-0.92,0-1.43c0-0.44,0-0.7,0-0.76c0-1.02,0.35-1.87,1.04-2.57c-0.7-0.44-1.04-1.59-1.04-3.43
		c0-1.65,0.59-2.48,1.76-2.48c0.07,0,0.41,0,1.04,0c0.62,0,1.21,0,1.76,0h1.24l1.25,0.95c1.17-0.63,2.52-0.95,4.04-0.95
		c0.69,0,1.24,0,1.66,0h0.1c0.41,0,0.62,1.07,0.62,3.2c0,1.74-0.56,2.87-1.67,3.39c1.11,1.03,1.67,2.26,1.67,3.68V115.77z
		 M177.21,145.44c-0.76,0.25-1.44,0.38-2.06,0.38c-2.82,0-4.53-0.38-5.15-1.14c-0.83,0.76-1.89,1.14-3.19,1.14
		c-0.14,0-0.55,0-1.23,0c-0.76,0-1.41,0-1.96,0h-1.24c-0.41-0.32-0.62-0.79-0.62-1.43v-0.76c0-0.51,0-1.02,0-1.52
		c0.26-0.7,0.78-1.33,1.57-1.91c-0.46-0.19-0.95-0.54-1.47-1.05c-0.06-0.51-0.1-1.14-0.1-1.91c0-1.97,0.63-3.15,1.88-3.53
		c0.97,0,1.67,0,2.09,0c0.35,0,0.76,0,1.25,0c0.42,0,0.7,0,0.84,0c1.11,0,2.05,0.32,2.82,0.95c0.84-0.63,2.26-0.95,4.28-0.95
		c0.14,0,0.42,0,0.84,0c0.42,0.06,0.77,0.09,1.04,0.09c0.35,1.07,0.52,2.05,0.52,2.93c0,0.57-0.02,1.01-0.06,1.32
		c-0.04,0.32-0.25,0.6-0.63,0.85c-0.38,0.25-0.57,0.41-0.57,0.47c0.07,0.19,0.31,0.32,0.73,0.38c0.35,1.39,0.52,2.65,0.52,3.78
		C177.31,144.36,177.27,145,177.21,145.44z"/>
	<path d="M196.2,137.69c0,0.51,0,1.24,0,2.2c0,0.7,0,1.5,0,2.39c0,0.89,0,1.43,0,1.62c0,1.28-0.63,1.91-1.88,1.91h-1.46
		c-1.11,0-2.02-0.44-2.71-1.33c-0.7,0.89-1.57,1.33-2.61,1.33c-0.42,0-0.77,0-1.04,0c-0.07,0-0.21,0-0.42,0c-0.14,0-0.28,0-0.42,0
		c-1.46,0-2.19-0.67-2.19-2v-0.19l0.31-7.35c0.56-1.02,0.84-1.43,0.84-1.24c0-0.19-0.17-0.38-0.52-0.57
		c-0.42-0.76-0.63-2.55-0.63-5.35c0-1.84,0.1-4.68,0.31-8.5l1.04-0.96c-0.91-0.25-1.36-1.18-1.36-2.77v-1.15
		c0-4.65,0.07-8.5,0.21-11.55c0.49-0.45,0.97-0.92,1.46-1.43c-1.11-0.7-1.67-1.5-1.67-2.39c0.07-2.42,0.14-6.74,0.21-12.98
		l0.94-1.15c-0.77-0.83-1.15-2.8-1.15-5.92c0-1.78,0.24-2.67,0.73-2.67c0.63,0,1.57,2.3,2.82,6.88c1.18,4.21,1.78,6.6,1.78,7.17
		c0,0.77-0.21,1.53-0.63,2.3c0.77,0.06,1.63,1.15,2.61,3.25c1.04,2.29,1.57,4.49,1.57,6.59c0,0.38-0.1,0.96-0.31,1.72
		c0.78,0.07,1.39,0.67,1.82,1.82c0.43,1.47,0.89,2.96,1.39,4.49c0.64,1.78,0.96,3.6,0.96,5.45v5.45l-1.15,1.05
		c0.77,0.51,1.15,1.21,1.15,2.1c0,0.19,0,0.57,0,1.15c0,0.57,0,1.02,0,1.34c0,0.32,0,1,0,2.06c0,1.05,0,1.96,0,2.72
		c0,0.96-0.04,1.72-0.1,2.29c-0.63,0.57-1.11,0.99-1.46,1.24C195.38,136.92,195.9,137.24,196.2,137.69z M220.22,140.86
		c0.7,2.22,1.04,3.53,1.04,3.91c0,0.7-0.45,1.05-1.36,1.05h-0.63c-0.42,0-0.87,0-1.36,0h-0.21c-0.83,0-1.36-0.44-1.57-1.33
		c-0.28,0.89-1.01,1.33-2.19,1.33c-2.3,0-3.83-0.32-4.59-0.95c-1.04-0.76-1.57-2.41-1.57-4.95c0-0.57,0.31-1.18,0.94-1.81
		c-1.01-0.06-1.73-0.48-2.16-1.24c-1.01-2.86-2.31-6.98-3.89-12.37c0.51-0.57,0.89-1.14,1.15-1.71c-1.81-0.19-3.97-5.71-6.47-16.56
		c0.49-0.7,0.73-1.21,0.73-1.52c0-0.19-0.42-0.48-1.25-0.86c-0.42-0.19-1.11-1.9-2.09-5.14c-1.74-5.71-2.61-8.92-2.61-9.61
		c0-0.51,0.21-1.04,0.63-1.62c-0.77-0.19-1.6-1.3-2.5-3.33c-0.91-2.03-1.36-3.81-1.36-5.33c0-0.76,0.63-1.14,1.88-1.14
		c1.95,0,3.38,0.35,4.28,1.05c0.7-0.7,1.53-1.05,2.51-1.05c1.88,0,2.99,0.32,3.34,0.95c1.32,3.62,1.98,6.26,1.98,7.91
		c0,0.7-0.17,1.11-0.52,1.24c0.9,0.06,1.6,0.7,2.09,1.91c0.07,0.19,0.63,2,1.67,5.43c1.32,4.32,1.98,6.74,1.98,7.24
		c0,0.25-0.17,0.64-0.52,1.14c0.69,0.13,1.5,1.53,2.4,4.19c0.42,1.14,1.57,5.05,3.45,11.72c-0.28,1.02-0.42,1.46-0.42,1.33
		c0,0.13,0.07,0.32,0.21,0.57l0.94,0.95c0.56,1.97,2.26,6.83,5.12,14.58c0.28,0.51,0.42,0.89,0.42,1.14c0,0.57-0.31,1.14-0.94,1.72
		C219.45,139.9,219.94,140.29,220.22,140.86z M226.27,130.14c0,2.8-0.05,5.54-0.16,8.22c-0.1,2.68-0.16,3.95-0.16,3.82v1.24
		c0,0.96-0.1,1.43-0.31,1.43s-0.45-0.38-0.73-1.14c-2.09-6.42-4.21-13.47-6.37-21.16c-0.14-0.51-0.21-0.86-0.21-1.05
		c0-0.38,0.07-0.73,0.21-1.05l0.31-0.67c-1.39-0.76-2.4-2.67-3.03-5.72v-0.19c0-0.19-0.1-0.41-0.3-0.67c-1.33-3.49-2-6.16-2-8.01
		c0-0.89,0.06-1.52,0.18-1.91l0.55-1.81c-0.49-0.32-0.73-0.99-0.73-2v-8.96c0.35-0.38,0.87-0.57,1.57-0.57
		c-1.04-1.02-1.57-2.51-1.57-4.48c0-0.95,0.1-2.22,0.31-3.81c-0.21-0.76-0.31-1.49-0.31-2.19c0-0.89,0.38-1.46,1.14-1.72
		c0.14,0,0.31-0.03,0.52-0.1c0.28,0,0.45,0,0.52,0c1.72,0,3.31,0.41,4.76,1.24c0.28-0.83,0.79-1.24,1.55-1.24
		c0.14,0,0.43,0.05,0.88,0.14c0.45,0.1,0.88,0.14,1.3,0.14c0.07,0,0.24-0.1,0.52-0.29c0.21,0,0.38,0,0.52,0
		c0.48,0.26,0.72,0.67,0.72,1.24v4.68c-0.42,0.45-0.8,0.96-1.15,1.53c0.76,0.58,1.15,1.4,1.15,2.49v2.77
		c0,4.97-0.15,9.02-0.45,12.14c-0.18,0.45-0.45,0.86-0.81,1.24c0.56,0.38,0.97,0.7,1.25,0.96v15.39c-0.14,1.15-0.25,1.98-0.31,2.49
		l-0.63,2.01c0.63,0.51,0.94,1.18,0.94,2.01c0,0.13,0,0.42,0,0.86c0,0.45,0,0.8,0,1.05C225.96,129.22,226.06,129.76,226.27,130.14z"
		/>
</g>
<g>
	<path class="st0" d="M192.65,29.53c0.43,3.06-0.91,5.81-0.58,9.04c0.57,5.62,1.43,10.77,1.32,16.3c-19.34,0.4-40,2.87-61.42,6.12
		c-5.11,0.78-10.32,2.16-15.55,3.56c-9.83,2.64-19.34,6.23-28.35,8.66c-5.6,1.51-10.31,2.75-15.29,4.7
		c-6.24,2.45-13.53,6.43-20.68,9.55c-0.82,0.36-2.01,0.58-3.33,1.24c-1.32,0.67-2.66,1.7-3.22,1.7c-2.38,0-4.15-5.3-5.25-5.05
		c-4.1-5.37-7.93-10.91-11.58-15.88c11.65-7.4,25.49-12.18,39.57-17.48c6.99-2.63,14.45-4.73,21.87-6.45
		c7.45-1.72,15.1-4.79,22.22-7.01c13.41-4.18,27.54-3.78,41.04-5.79C167.06,30.7,180.3,31.02,192.65,29.53z"/>
	<path class="st0" d="M44.31,93.34c4.8-0.78,9.03-0.66,12.8,0.2c-11.86,5.91-25.29,10.86-37.77,15.87
		c-0.74-1.46,0.77-3.46,1.98-5.03c1.09-1.42,2.45-3.19,3.39-4.14c1-1.03,3.09-1.57,2.62-3.25c-0.71-2.53-5.54-0.46-7.07-2.47
		c-1.69,0.2-2.79-0.55-4.43-0.43c1.75-2.95,5.62-4.56,8.28-6.95c3.69-1.73,6.48-4.03,9.97-5.89c0.18-0.08,0.24,0.04,0.28,0.18
		C37.83,85.43,41.12,89.66,44.31,93.34z"/>
	<path class="st0" d="M182.95,28.14c-4.04,0.3-8.04,0.53-12.14,0.61c-8.03,0.16-15.8,2.11-23.9,2.83
		c-7.85,0.69-13.76,0.76-22.36,2.23c-12.41,2.13-22.03,6.29-32.34,9.09c-2.18,0.59-4.52,0.74-6.69,1.29
		c-12.3,3.14-24.93,8.71-35.6,12.72c-3.83,1.44-7.65,2.69-11.07,4.22c-4.18,1.87-7.6,4.69-11.23,6.66
		c-1.04,0.57-2.51,0.45-2.94,1.88c2.42,2.69,6.58,5.59,8.23,9.67c-3.8,2.44-8.24,5.49-13.31,8.1c-1.12,1.75-3.01,2.67-4.63,3.95
		c-1.25,0.98-3.85,2.07-3.33,4.37c3.99,0.72,8.57,0.49,11.85,2.34c-2.75,4.29-8.03,8.01-6.32,14.45c7.7-2.25,14.41-5.81,21.4-8.51
		c8-3.1,15.54-6.61,23.76-9.77c-0.19-2.64-2.37-5.99-1.88-8.23c10.46-5.88,22.57-8.66,35.37-12.67c4.16-1.31,8.06-3.03,12.26-4.25
		c24.25-7.07,50.01-10.32,73.71-11.34c-0.04,3.24-0.94,5.94,0.09,9.85c5.34,1.19,14.2-1.66,19.61-1.6c7.92,0.3,17.56-1.24,26.3-2.89
		c1.96-0.37,3.83,0.04,5.36-0.75c0.08-3.15-2.99-4.21-4.67-5.67c-1.93-1.68-3.81-3.17-5.65-4.72c1.54-2.24,10.5-3.33,10.6-6.28
		c0.05-1.31-3.2-2.07-4.9-2.49c-10.55-2.58-21.47-1.68-33.5-1.23c-0.83-5.28,0.86-8.99-0.17-14.4
		C190.85,27.35,186.86,27.85,182.95,28.14z"/>
	<path class="st1" d="M194.85,27.58c1.03,5.41-0.66,9.12,0.17,14.4c12.03-0.45,22.95-1.34,33.5,1.23c1.7,0.42,4.95,1.17,4.9,2.49
		c-0.1,2.95-9.06,4.04-10.6,6.28c1.85,1.55,3.72,3.04,5.65,4.72c1.68,1.46,4.74,2.52,4.67,5.67c-1.54,0.79-3.41,0.38-5.36,0.75
		c-8.74,1.65-18.38,3.19-26.3,2.89c-5.42-0.05-14.27,2.8-19.61,1.6c-1.03-3.91-0.13-6.61-0.09-9.85
		c-23.7,1.03-49.46,4.27-73.71,11.34c-4.21,1.23-8.1,2.95-12.26,4.25c-12.8,4.01-24.91,6.79-35.37,12.67
		c-0.49,2.24,1.69,5.59,1.88,8.23c-8.22,3.16-15.76,6.68-23.76,9.77c-6.99,2.7-13.7,6.26-21.4,8.51
		c-1.71-6.44,3.57-10.16,6.32-14.45c-3.28-1.85-7.86-1.62-11.85-2.34c-0.52-2.31,2.08-3.39,3.33-4.37c1.62-1.28,3.51-2.2,4.63-3.95
		c5.07-2.61,9.51-5.66,13.31-8.1c-1.65-4.08-5.81-6.98-8.23-9.67c0.43-1.42,1.9-1.31,2.94-1.88c3.63-1.98,7.05-4.79,11.23-6.66
		c3.42-1.53,7.24-2.78,11.07-4.22c10.67-4.02,23.3-9.58,35.6-12.72c2.16-0.55,4.51-0.7,6.69-1.29c10.31-2.8,19.93-6.96,32.34-9.09
		c8.59-1.47,14.51-1.54,22.36-2.23c8.11-0.72,15.87-2.66,23.9-2.83c4.1-0.09,8.1-0.31,12.14-0.61
		C186.86,27.85,190.85,27.35,194.85,27.58z M153.43,32.73c-13.5,2.01-27.63,1.6-41.04,5.79c-7.12,2.22-14.78,5.29-22.22,7.01
		c-7.42,1.72-14.88,3.82-21.87,6.45c-14.08,5.3-27.92,10.09-39.57,17.48c3.65,4.97,7.48,10.51,11.58,15.88
		c1.09-0.25,2.87,5.05,5.25,5.05c0.56,0,1.9-1.03,3.22-1.7c1.31-0.67,2.5-0.88,3.33-1.24c7.15-3.12,14.44-7.1,20.68-9.55
		c4.98-1.95,9.69-3.19,15.29-4.7c9.01-2.43,18.52-6.02,28.35-8.66c5.23-1.41,10.45-2.79,15.55-3.56
		c21.42-3.25,42.08-5.72,61.42-6.12c0.1-5.54-0.75-10.69-1.32-16.3c-0.33-3.22,1.01-5.98,0.58-9.04
		C180.3,31.02,167.06,30.7,153.43,32.73z M34.36,81.42c-0.04-0.14-0.1-0.26-0.28-0.18c-3.49,1.86-6.28,4.16-9.97,5.89
		c-2.65,2.38-6.53,4-8.28,6.95c1.64-0.12,2.74,0.63,4.43,0.43c1.52,2.01,6.36-0.06,7.07,2.47c0.47,1.68-1.63,2.22-2.62,3.25
		c-0.93,0.95-2.29,2.72-3.39,4.14c-1.21,1.57-2.71,3.57-1.98,5.03c12.48-5.01,25.91-9.95,37.77-15.87c-3.77-0.86-8.01-0.97-12.8-0.2
		C41.12,89.66,37.83,85.43,34.36,81.42z M195.37,44.55c0.47,4.64,0.53,8.21,0.49,12.65c-1.59,0.63-2.06,1.97-4.31,2.19
		c-1.42,1.72-4.01,2.71-5.21,4.56c-1.06,0.45-2.24,0.81-2.2,1.95c2.61,0.71,4.87-0.52,7.25-0.94c12.63-2.21,25.3-1.05,37.71-4.54
		c-0.53-1.17-2.14-2.15-3.64-3.26c-1.51-1.12-2.97-2.45-4.27-2.88c-0.67-0.22-3.24,0.16-3.45-1.38c-0.17-1.27,2.2-2.01,3.47-2.72
		c2.92-1.64,5.46-3.19,7.66-4.4C219.57,43.09,207.14,43.76,195.37,44.55z"/>
	<path d="M206.62,31.76c-0.52,0-1.02-0.27-1.3-0.75c-0.42-0.72-0.17-1.63,0.55-2.05l10.62-6.15c0.72-0.41,1.63-0.17,2.05,0.55
		s0.17,1.63-0.55,2.05l-10.62,6.15C207.13,31.7,206.88,31.76,206.62,31.76z"/>
	<path d="M195.86,21.31c-0.28,0-0.55-0.08-0.8-0.23c-0.7-0.45-0.9-1.37-0.46-2.07l9.15-14.37c0.45-0.7,1.37-0.9,2.07-0.46
		c0.7,0.45,0.9,1.37,0.46,2.07l-9.15,14.37C196.84,21.07,196.35,21.31,195.86,21.31z"/>
	<path d="M183.87,17.29c-0.79,0-1.46-0.62-1.5-1.42l-0.64-12.52c-0.04-0.83,0.59-1.53,1.42-1.57c0.84-0.04,1.53,0.59,1.57,1.42
		l0.64,12.52c0.04,0.83-0.59,1.53-1.42,1.57C183.92,17.29,183.89,17.29,183.87,17.29z"/>
	<path d="M14.88,77.52c-0.04,0-0.07,0-0.11,0L2.53,76.61C1.71,76.55,1.09,75.83,1.15,75c0.06-0.83,0.77-1.43,1.61-1.38l12.24,0.91
		c0.83,0.06,1.45,0.78,1.38,1.61C16.32,76.92,15.66,77.52,14.88,77.52z"/>
	<path d="M20.02,63.43c-0.27,0-0.54-0.07-0.79-0.22l-14.5-8.96c-0.71-0.44-0.92-1.36-0.49-2.06c0.44-0.71,1.36-0.92,2.06-0.49
		l14.5,8.96c0.71,0.44,0.92,1.36,0.49,2.06C21.02,63.18,20.53,63.43,20.02,63.43z"/>
	<path d="M29.07,54.59c-0.58,0-1.14-0.34-1.38-0.92l-4.87-11.55c-0.32-0.76,0.04-1.64,0.8-1.97c0.76-0.32,1.64,0.04,1.97,0.8
		l4.87,11.55c0.32,0.76-0.04,1.64-0.8,1.97C29.46,54.56,29.26,54.59,29.07,54.59z"/>
	<g>
		<path d="M68.3,69.8c-0.54-2.83-0.97-7.51-1.37-11.71c-1.4,6.6-2.96,15-3.8,21.38c-0.12,0.92-0.67,1.52-1.82,1.1
			c-1.53-0.64-2.49-1.57-3.16-3.26c-0.34-0.85-0.55-1.74-0.76-2.91c-1.3-7.59-2.16-19.61-1.84-24.86c0.12-1.41,0.83-1.74,1.79-0.93
			c0.76,0.68,1.13,1.24,1.47,2.08c0.52,1.32,0.79,3.6,0.96,6.48c0.25,4.69,0.17,6.96,0.93,13.46c1.24-8.11,3.41-18.07,5.15-24.53
			c0.22-0.8,0.81-1.3,1.77-0.6c0.81,0.55,1.38,1.14,1.79,2.17c0.34,0.85,0.57,2.06,0.73,4.07c0.41,4.85,0.47,8.47,1.58,15.81
			c1.39-9.32,4.35-20.13,6.16-27.54c0.35-1.34,1.18-1.34,1.74-0.31c0.88,1.61,1.24,3.97-0.61,11.78c-1.44,6.12-3.57,15.08-4.81,23.3
			c-0.19,1-0.71,1.54-1.79,1.04c-1.46-0.72-2.71-1.76-3.38-3.45C68.76,71.69,68.51,70.81,68.3,69.8z"/>
		<path d="M177.02,45.07c-0.44-0.98-1.02-0.84-1.46,0.01c-1.63,3.27-4.4,7.22-7.85,7.48c-1.36,0.1-2.29-1.4-2.46-3.62
			c-0.07-0.91-0.01-1.98,0.19-3.01c1.1,0.68,2.22,0.95,3.31,0.87c4-0.29,6.65-5.81,6.43-8.84c-0.05-0.66-0.29-1.4-0.59-1.83
			c-0.71-0.96-1.68-1.7-3.01-2.42c-0.48-0.27-0.98-0.33-1.62-0.29c-2.63,0.19-6.12,3.14-8.09,8.66c-0.57,1.48-0.88,2.91-0.97,4.27
			c-1.1,3.45-2.83,6.66-4.37,6.9c-0.72,0.11-1.29-0.57-1.47-1.72c-0.12-0.8-0.05-1.79,0.21-2.75c0.39-1.6,0.81-2.79,1.28-3.89
			c0.6-1.73,1.25-3.47,1.49-4.59c0.22-0.96,0.21-1.93,0.08-2.73c-0.25-1.6-1.15-2.89-2.46-2.74c-1.31,0.15-3.56,2.3-5.2,4.45
			c-0.32-2.05-1.51-3.76-3-3.53c-1.48,0.23-3.54,2.4-5.22,4.91c0-0.56-0.01-0.97-0.08-1.42c-0.12-0.75-0.47-1.51-0.94-2.16
			c-0.63-0.77-1.39-0.6-1.75,0.27c-1.51,3.87-3.44,7.76-5.76,8.53c-0.49-3.1-1.32-3.99-3.14-5.65c-1.22-1.29-2.04-1.52-3.66-1.27
			c-2.88,0.45-5.17,4.04-6.36,7.65c-0.74,2.15-1.08,4.39-0.93,6.42c-1.1,3.32-3.2,7.47-6.38,8.19c-1.21,0.24-2.32-0.9-2.85-3.06
			c-0.36-1.48-0.4-3.6,0-5.83c0.81-4.41,2.91-8.3,3.56-7.94c0.22,0.15,0.13,1.11-0.08,2.2c-0.31,2.21-0.29,3.25-0.14,3.89
			c0.32,1.33,1.3,2.08,2.23,2.43c1,0.28,1.38,0.08,1.46-0.93c0.05-0.58,0.13-1.39,0.31-2.21c0.38-2.12,0.65-4.11-0.41-5.58
			c-1.06-1.3-3.33-2.53-4.96-2.13c-2.57,0.62-5.42,4.12-6.46,9.73c-0.37,1.79-0.4,3.49-0.18,5.02c-0.78,3.56-2.28,6.85-4.1,7.36
			c-0.57,0.16-1.06-0.6-1.39-1.77c-0.48-1.7-0.52-4.06-0.34-6.79c3.05-3.95,6.22-11.04,5.96-17.22c-0.01-0.89-0.12-1.44-0.31-2.12
			c-0.35-1.27-1.22-2.5-2.44-3.15c-1.08-0.64-1.79-0.13-2.36,1.03c-2.77,5.97-5.11,15.77-4.81,24.12c-0.07,0.13-0.12,0.27-0.17,0.45
			c-0.82,3.56-2.58,8.06-5.88,9.11c-1.3,0.42-2.56-0.83-3.24-2.95c-0.28-0.87-0.47-1.92-0.52-2.97c1.23,0.4,2.38,0.41,3.42,0.07
			c3.82-1.22,5.1-7.21,4.17-10.11c-0.2-0.63-0.61-1.29-1-1.64c-0.92-0.77-2.03-1.26-3.49-1.64c-0.53-0.15-1.03-0.09-1.64,0.1
			c-2.52,0.81-5.21,4.49-5.83,10.32c-0.29,2.22-0.12,4.24,0.43,5.97c1.24,3.85,4.39,6.08,8.41,4.74c2.78-0.94,5.12-3.41,6.35-6.22
			c1.09,2.35,2.98,3.18,5.27,2.54c2.43-0.68,4.18-3.05,5.16-5.05c1.46,1.9,3.72,2.79,6.51,2.08c2.98-0.76,5.62-3.32,6.91-6.17
			c0.24,0.41,0.51,0.79,0.82,1.15c1.56,1.7,3.32,2.04,4.75,1.82c4.5-0.7,6.93-6.98,7.28-12.1c0.95-0.1,1.81-0.49,2.57-0.96
			c-0.72,2.47-1.24,4.75-1.4,6.06c-0.11,1.04-0.12,1.91,0.01,2.71c0.18,1.15,0.68,1.99,1.45,2.49c0.87,0.53,1.34,0.3,1.54-0.5
			c1.03-4.92,2.44-9.75,4.4-13.08c2.18-3.72,3.78-5.3,4.12-5.2c0.29,0.11-0.51,2.03-1.43,4.42c-0.88,2.34-1.95,5.22-2.29,7.17
			c-0.3,1.58-0.32,2.97-0.18,3.82c0.2,1.3,0.74,2.09,1.32,2.56c0.74,0.6,1.55,0.17,1.74-0.68c1.2-4.7,2.59-9.93,5.46-14.27
			c2.11-3.3,3.21-4.19,3.45-4.18c0.14,0.03-0.89,2.55-1.22,3.37c-0.82,2.13-1.79,4.79-2.25,6.81c-0.32,1.23-0.32,2.36-0.17,3.31
			c0.41,2.65,2.37,4.24,5.39,3.82c1.98-0.27,4.24-2.05,5.64-4.15c1.12,2.18,3.24,3.51,6.17,3.26c3.54-0.31,7-2.95,8.68-6.17
			C177.34,46.97,177.19,45.51,177.02,45.07z M171.62,36.18c0.53,0.42-0.25,2.86-1.42,4.92c-0.81,1.43-2.15,3.05-3.24,3.13
			c-0.32,0.02-0.64-0.05-1.03-0.28C167.76,38.95,170.89,35.62,171.62,36.18z M101.94,43.68c0.69-3.29,1.29-5.51,1.5-5.46
			c0.32,0.12,0.35,2.42-0.37,5.62c-0.48,2.18-1.34,4.84-2.65,7.42C100.49,50.34,101.4,46.14,101.94,43.68z M89.85,51.04
			c0.62,0.28,0.43,2.84-0.22,5.12c-0.45,1.58-1.38,3.47-2.42,3.8c-0.3,0.1-0.64,0.1-1.06-0.03C86.74,54.64,89.01,50.67,89.85,51.04z
			 M128.8,51.59c-1.14,3.61-2.83,5.77-3.91,5.94c-0.63,0.1-1.06-0.6-1.29-2.05c-0.3-1.9-0.09-4.7,0.76-7.19
			c0.57-1.68,1.19-3,2.01-4.26c0.59,1.44,1.89,2.67,3.29,3.33C129.55,48.71,129.26,50.14,128.8,51.59z M130.05,45.76
			c-0.6-0.57-1.03-1.84-1.17-2.74c-0.13-0.8,0.22-1.26,0.49-1.31c0.32-0.05,0.72,0.19,0.84,0.94
			C130.31,43.31,130.32,44.54,130.05,45.76z"/>
	</g>
</g>
</svg>
