<?xml version="1.0" encoding="utf-8"?>
<!-- Generator: Adobe Illustrator 23.1.1, SVG Export Plug-In . SVG Version: 6.00 Build 0)  -->
<svg version="1.1" id="レイヤー_1" xmlns="http://www.w3.org/2000/svg" xmlns:xlink="http://www.w3.org/1999/xlink" x="0px"
	 y="0px" viewBox="0 0 138.57 92.44" style="enable-background:new 0 0 138.57 92.44;" xml:space="preserve">
<style type="text/css">
	.st0{fill:#FFFFFF;}
</style>
<g>
	<g>
		<path class="st0" d="M136.58,48.79c0,20.7-30.21,37.49-67.48,37.49c-37.27,0-67.48-16.79-67.48-37.49
			c0-20.71,30.21-37.49,67.48-37.49C106.37,11.3,136.58,28.08,136.58,48.79z"/>
		<g>
			<path d="M135.24,49.15c-0.58,25.37-35.54,34.28-55.31,36.1C56.27,87.43,25.1,83.11,8.83,63.75c-5.88-7-7.45-16.15-3.77-24.54
				c4.5-10.25,15.57-16.61,25.45-20.62c25.8-10.45,59.12-9.27,83.89,3.54C124.79,27.5,134.96,36.67,135.24,49.15
				c0.01,0.56,2.69,0.12,2.67-0.72c-0.47-20.5-24.7-30.66-41.46-34.74c-23.14-5.62-49.27-3.82-71.07,5.93
				C10.54,26.27-5.36,40.86,2.4,58.52c8.42,19.17,35.33,25.8,53.9,27.77c19,2.02,39.02-0.51,56.51-8.33
				c11.97-5.36,24.78-15.26,25.11-29.52C137.93,47.9,135.26,48.3,135.24,49.15z"/>
		</g>
	</g>
	<g>
		<path class="st0" d="M122.7,48.14c0,15.05-23.78,27.25-53.12,27.25c-29.33,0-53.11-12.2-53.11-27.25
			c0-15.05,23.78-27.25,53.11-27.25C98.92,20.88,122.7,33.09,122.7,48.14z"/>
		<g>
			<path d="M121.35,48.25c-0.29,9.28-8.34,15.22-15.96,19.01c-11.33,5.64-24.58,7.3-37.09,7.2c-12.04-0.1-24.41-2.4-35.24-7.79
				c-7.27-3.62-14.97-9.87-15.25-18.65c-0.29-9.13,8.77-15.43,15.96-19.01c11.32-5.64,24.58-7.3,37.09-7.2
				c12.04,0.1,24.41,2.4,35.24,7.79C113.38,33.23,121.08,39.48,121.35,48.25c0.04,1.34,2.73,0.88,2.7-0.24
				c-0.64-20.13-30.01-26.28-45.37-27.7c-12.71-1.17-25.83,0.14-37.99,4.02c-8.13,2.59-17.26,6.99-22.22,14.26
				C6.59,55.97,28.93,68.64,42.95,72.81c21.87,6.5,49.79,5.13,69.39-7.35c6.09-3.88,11.47-9.91,11.71-17.44
				C124.09,46.69,121.39,47.13,121.35,48.25z"/>
		</g>
	</g>
	<g>
		<path class="st0" d="M84.06,6.81C97.81,31.17,123,55.11,123,55.11c0,5.41-5,12.49-5,12.49c-28.94,2.91-58.5,19.78-62.46,21.44
			c-3.96,1.67-4.58,1.67-5.41,1.04c-7.91-28.11-26.92-50.5-26.92-50.5c-2.09-4.35-1.68-12.57-1.68-12.57s-3.67-4.48,7.5-12.57
			C38.53,7.57,65.41-6.55,84.06,6.81z"/>
		<g>
			<path d="M82.73,7.17c10.19,17.78,23.93,33.77,38.6,48.02c2.05,1.99-2.74,9.61-3.98,11.61c-0.75,1.21-5.86,1.16-7.47,1.44
				c-3.44,0.61-6.84,1.44-10.22,2.32c-11.27,2.95-22.15,7.35-32.69,12.26c-3.32,1.55-6.6,3.2-9.87,4.85
				c-1.17,0.59-2.33,1.12-3.55,1.62c-2.9,1.19-5.21-8.99-5.9-10.76C43.42,67.61,37.54,57.31,30.9,47.69
				c-1.64-2.38-3.37-4.71-5.16-6.99c-2.04-2.6-2.48-5.46-2.79-8.78c-0.18-2.02,0.24-4.14-0.47-6.01c-1.72-4.51,4.81-9.28,7.58-11.37
				C44.35,3.75,66.8-3.58,82.81,7.28c0.67,0.45,3-0.62,2.51-0.95C68.56-5.03,46.44,2.61,30.85,12.43
				c-3.84,2.42-13.66,8.77-10.83,14.68c0.92,1.92,0.26,5.83,0.55,8.08c0.34,2.7,1.08,4.47,2.67,6.47
				c5.74,7.23,10.68,15.1,15.06,23.21c3.04,5.64,5.64,11.5,7.88,17.5c0.94,2.51,1.12,9.34,4.96,8.67
				c6.04-1.04,11.97-5.15,17.42-7.73c12.53-5.91,25.63-10.8,39.22-13.61c3.29-0.68,8.06-0.33,11.02-1.85
				c1.58-0.81,2.59-3.82,3.32-5.25c0.64-1.25,3.39-6.76,2.04-8.06c-1.13-1.08-2.24-2.19-3.34-3.31
				C107.44,37.75,94.86,22.95,85.4,6.45C84.98,5.72,82.45,6.68,82.73,7.17z"/>
		</g>
	</g>
	<g>
		<path d="M21.18,28.69c6.77,8.71,12.95,17.94,18.56,27.42c4.06,6.86,7.76,14,10.35,21.55c1.29,3.74-0.49,9.53-0.88,13.45
			c-0.09,0.92,2.58,0.38,2.65-0.39c0.42-4.16,0.83-8.33,1.25-12.49c0.26-2.63-2.58-7.14-3.65-9.5c-1.88-4.16-4.09-8.18-6.36-12.14
			C37.35,46.55,30.78,36.85,23.68,27.7C23.19,27.08,20.63,27.97,21.18,28.69L21.18,28.69z"/>
	</g>
	<g>
		<path class="st0" d="M51.79,78.43c0,0,31.44-19.99,71.2-23.32"/>
		<g>
			<path d="M52.66,78.96C73.32,65.9,98.69,58.18,122.86,56c1.43-0.13,2.11-1.95,0.28-1.79c-24.9,2.25-50.94,10.23-72.21,23.68
				C49.4,78.86,51.65,79.6,52.66,78.96L52.66,78.96z"/>
		</g>
	</g>
	<g>
		<path class="st0" d="M48.36,42.97c0,0,0.91-4.39-4.09-6.36c-5-1.97-18.32-6.36-9.99-13.17c8.33-6.81,20.59-12.56,29.52-12.26
			c8.93,0.3,14.53,0.46,18.62,5.15c4.09,4.69,4.54,4.24,6.06,9.69c1.51,5.45-0.15,9.08,6.66,10.9c6.81,1.82,15.74,5.15,11.96,10.14
			c-3.79,5-14.83,4.39-22.55,8.33C76.82,59.32,59.1,69.92,54.71,68.1s-3.48-7.72-1.36-13.78C55.47,48.27,45.78,51.6,48.36,42.97z"/>
		<g>
			<path d="M49.25,42.87c1.02-6.24-7.12-7.61-11.25-9.63c-4.38-2.15-7.58-5.48-3-9.62c4.78-4.33,11.06-7.43,17.02-9.71
				c5.77-2.21,11.46-2.29,17.54-1.92c6.19,0.38,9.82,2.3,13.93,6.82c2.87,3.15,4.08,6.5,4.74,10.71c0.49,3.09,0.94,5.29,3.76,6.96
				c3.76,2.23,8.52,2.48,12.39,4.77c3.58,2.12,3.14,5.31-0.14,7.51c-2.55,1.71-6.14,2.18-9.1,2.84c-8.55,1.9-15.39,5.83-23.07,9.85
				c-3.61,1.9-7.29,3.7-11.1,5.17c-2.47,0.95-4.94,1.91-7.21-0.1c-2.39-2.11-1.1-6.72-0.46-9.29c0.51-2.06,2.42-5.14,0.12-6.83
				C50.29,48.08,48.11,47.52,49.25,42.87c0.17-0.7-1.63-0.43-1.79,0.21c-0.69,2.8-0.55,4.99,1.97,6.67c1.22,0.81,2.7,1.13,3.27,2.65
				c0.8,2.17-1.68,6.87-1.96,9.23c-1.01,8.6,6.66,7.43,11.96,5.39c9.81-3.78,18.39-10.75,28.56-13.51c3.75-1.02,21.18-3.13,17-10.89
				c-1.71-3.18-6.81-4.44-9.96-5.46c-3-0.97-6.25-1.35-7.59-4.57c-0.86-2.07-0.81-4.64-1.34-6.81c-1.89-7.67-8.65-13.74-16.49-14.61
				c-11.15-1.23-20.36,0.6-30.25,5.96c-4.92,2.66-17.48,9.64-8.67,15.44c3.96,2.61,14.51,4.32,13.5,10.5
				C47.34,43.81,49.14,43.51,49.25,42.87z"/>
		</g>
	</g>
	<g>
		<path class="st0" d="M54.94,34.59c0,0-1.04-3.12,2.5-5.41c3.54-2.29,6.32-4.57,10.9-4.15c4.58,0.42,8.63,5.46,9.26,8.16
			c0.62,2.71,1.64,3.16-3.35,6.07c-5,2.91-6.18,5.74-10.55,3.24C59.32,40,54.94,34.59,54.94,34.59z"/>
		<g>
			<path d="M56.28,34.23c-1.91-7,11.65-9.18,15.11-7.02c2.97,1.86,4.63,4.97,5.37,8.28c0.47,2.12-3.62,3.57-4.95,4.49
				c-0.77,0.52-1.52,1.05-2.27,1.59c-2.88,2.07-4.57,0.56-6.77-1.02c-2.47-1.77-4.66-4.11-6.58-6.46c-0.51-0.62-3.06,0.3-2.5,0.99
				C56.9,39,62.28,45.37,68,43.84c3.04-0.81,6.13-3.54,8.61-5.24c2.11-1.45,3.22-2.44,2.51-5.02c-1.63-5.88-7.51-10.46-13.75-9.02
				c-4.11,0.95-13.28,4.83-11.77,10.39C53.82,35.74,56.49,35.02,56.28,34.23z"/>
		</g>
	</g>
	<g>
		<path d="M23.59,40.53c0,0-1.5-0.38-1.31-4.5s0-7.69,0-7.69s2.06,3.38,6.19,8.07c4.13,4.69,20.26,28.7,21.57,37.89L49.1,85.35
			C49.1,85.35,34.09,50.47,23.59,40.53z"/>
		<path d="M48.67,85.54c-0.15-0.35-15.02-34.77-25.34-44.61c-0.45-0.2-1.7-1.1-1.52-4.92c0.18-4.05,0-7.61,0-7.65l0.85-0.26
			c0.02,0.03,2.09,3.4,6.14,8c4.05,4.6,20.36,28.87,21.68,38.13l0.01,0.05l-0.94,11.12L48.67,85.54z M22.79,29.95
			c0.03,1.44,0.05,3.68-0.06,6.1c-0.16,3.58,0.97,4.04,0.99,4.04l0.12,0.03l0.07,0.08c9.26,8.76,21.73,36.17,24.89,43.31l0.78-9.2
			c-1.35-9.14-17.45-33.05-21.45-37.6C25.56,33.8,23.78,31.37,22.79,29.95z"/>
	</g>
	<g>
		<path d="M54.35,77.67c0,0,20.45-11.63,33.39-15.19c12.94-3.56,35.08-8.82,35.08-5.82c0,3-4.5,11.07-5.25,11.25
			c-0.75,0.19-26.63,4.69-36.95,9.75c-10.32,5.06-28.13,12.57-28.13,12.57s0.75-5.44,0.75-7.69S54.35,77.67,54.35,77.67z"/>
		<path d="M51.91,90.97l0.11-0.8c0.01-0.05,0.75-5.43,0.75-7.63c0-2.32,1.11-4.95,1.16-5.06l0.06-0.14l0.13-0.08
			c0.21-0.12,20.64-11.7,33.49-15.24c3.26-0.9,31.95-8.7,35.23-6.21c0.36,0.27,0.43,0.6,0.43,0.83c0,2.76-4.39,11.4-5.6,11.7
			c-0.08,0.02-0.47,0.09-1.1,0.21c-22,4.15-31.58,7.46-35.76,9.51c-10.21,5.01-27.98,12.5-28.16,12.58L51.91,90.97z M54.71,77.99
			c-0.23,0.56-1.03,2.71-1.03,4.55c0,1.76-0.44,5.35-0.65,6.95c3.48-1.48,18.37-7.83,27.37-12.24c4.22-2.07,13.89-5.42,35.99-9.58
			c0.6-0.11,0.97-0.18,1.05-0.2c0.71-0.49,4.9-8.05,4.9-10.81c0-0.02,0-0.05-0.07-0.1c-1.97-1.5-18.81,2.06-34.42,6.36
			C75.67,66.27,56.53,76.96,54.71,77.99z"/>
	</g>
</g>
</svg>
